<svg width="550" height="450" id="target"><rect x="0" y="0" width="550" height="450" fill="white"></rect><rect x="0" y="0" width="550" height="450" fill="white"></rect><path d="M15.566037735849052,0 L15.566037735849052,450 M67.45283018867923,0 L67.45283018867923,450 M119.33962264150941,0 L119.33962264150941,450 M171.2264150943396,0 L171.2264150943396,450 M223.11320754716976,0 L223.11320754716976,450 M274.99999999999994,0 L274.99999999999994,450 M326.88679245283015,0 L326.88679245283015,450 M378.77358490566036,0 L378.77358490566036,450 M430.6603773584905,0 L430.6603773584905,450 M482.54716981132066,0 L482.54716981132066,450 M534.4339622641508,0 L534.4339622641508,450 M0,404.2372881355932 L550,404.2372881355932 M0,327.9661016949152 L550,327.9661016949152 M0,251.69491525423726 L550,251.69491525423726 M0,175.42372881355928 L550,175.42372881355928 M0,99.1525423728813 L550,99.1525423728813 M0,22.881355932203313 L550,22.881355932203313 " fill="none" stroke="#aaaaaa" stroke-width="0.5"></path><path d="M0,404.2372881355932 L550,404.2372881355932 M15.566037735849052,0 L15.566037735849052,450 M67.45283018867923,400.2372881355932 L67.45283018867923,408.2372881355932 M119.33962264150941,400.2372881355932 L119.33962264150941,408.2372881355932 M171.2264150943396,400.2372881355932 L171.2264150943396,408.2372881355932 M223.11320754716976,400.2372881355932 L223.11320754716976,408.2372881355932 M274.99999999999994,400.2372881355932 L274.99999999999994,408.2372881355932 M326.88679245283015,400.2372881355932 L326.88679245283015,408.2372881355932 M378.77358490566036,400.2372881355932 L378.77358490566036,408.2372881355932 M430.6603773584905,400.2372881355932 L430.6603773584905,408.2372881355932 M482.54716981132066,400.2372881355932 L482.54716981132066,408.2372881355932 M534.4339622641508,400.2372881355932 L534.4339622641508,408.2372881355932 M11.566037735849052,327.9661016949152 L19.56603773584905,327.9661016949152 M11.566037735849052,251.69491525423726 L19.56603773584905,251.69491525423726 M11.566037735849052,175.42372881355928 L19.56603773584905,175.42372881355928 M11.566037735849052,99.1525423728813 L19.56603773584905,99.1525423728813 M11.566037735849052,22.881355932203313 L19.56603773584905,22.881355932203313 " fill="none" stroke="black" stroke-width="1"></path><text x="67.45283018867923" y="432.2372881355932" fill="black" font-family="sans" font-weight="normal" font-style="normal" font-size="25" text-anchor="middle">1</text><text x="119.33962264150941" y="432.2372881355932" fill="black" font-family="sans" font-weight="normal" font-style="normal" font-size="25" text-anchor="middle">2</text><text x="171.2264150943396" y="432.2372881355932" fill="black" font-family="sans" font-weight="normal" font-style="normal" font-size="25" text-anchor="middle">3</text><text x="223.11320754716976" y="432.2372881355932" fill="black" font-family="sans" font-weight="normal" font-style="normal" font-size="25" text-anchor="middle">4</text><text x="274.99999999999994" y="432.2372881355932" fill="black" font-family="sans" font-weight="normal" font-style="normal" font-size="25" text-anchor="middle">5</text><text x="326.88679245283015" y="432.2372881355932" fill="black" font-family="sans" font-weight="normal" font-style="normal" font-size="25" text-anchor="middle">6</text><text x="378.77358490566036" y="432.2372881355932" fill="black" font-family="sans" font-weight="normal" font-style="normal" font-size="25" text-anchor="middle">7</text><text x="430.6603773584905" y="432.2372881355932" fill="black" font-family="sans" font-weight="normal" font-style="normal" font-size="25" text-anchor="middle">8</text><text x="482.54716981132066" y="432.2372881355932" fill="black" font-family="sans" font-weight="normal" font-style="normal" font-size="25" text-anchor="middle">9</text><text x="534.4339622641508" y="432.2372881355932" fill="black" font-family="sans" font-weight="normal" font-style="normal" font-size="25" text-anchor="middle">10</text><text x="0.5660377358490525" y="335.9661016949152" fill="black" font-family="sans" font-weight="normal" font-style="normal" font-size="25" text-anchor="end">1</text><text x="0.5660377358490525" y="259.69491525423723" fill="black" font-family="sans" font-weight="normal" font-style="normal" font-size="25" text-anchor="end">2</text><text x="0.5660377358490525" y="183.42372881355928" fill="black" font-family="sans" font-weight="normal" font-style="normal" font-size="25" text-anchor="end">3</text><text x="0.5660377358490525" y="107.1525423728813" fill="black" font-family="sans" font-weight="normal" font-style="normal" font-size="25" text-anchor="end">4</text><text x="0.5660377358490525" y="30.881355932203313" fill="black" font-family="sans" font-weight="normal" font-style="normal" font-size="25" text-anchor="end">5</text><path d="M15.566037735849052,22.881355932203313 L16.084905660377355,25.924576271186332 L16.603773584905657,28.952542372881304 L17.122641509433958,31.965254237288 L17.64150943396226,34.96271186440671 L18.16037735849056,37.944915254237195 L18.679245283018865,40.91186440677958 L19.198113207547166,43.86355932203386 L19.716981132075468,46.79999999999992 L20.23584905660377,49.72118644067793 L20.75471698113207,52.627118644067785 L21.27358490566037,55.51779661016936 L21.792452830188672,58.39322033898295 L22.311320754716974,61.253389830508375 L22.830188679245275,64.0983050847457 L23.34905660377358,66.9279661016948 L23.86792452830188,69.74237288135586 L24.386792452830186,72.5415254237287 L24.905660377358487,75.32542372881349 L25.424528301886788,78.09406779661012 L25.94339622641509,80.84745762711859 L26.46226415094339,83.5855932203389 L26.981132075471695,86.3084745762711 L27.499999999999996,89.01610169491519 L28.0188679245283,91.70847457627113 L28.537735849056602,94.3855932203389 L29.056603773584904,97.04745762711863 L29.575471698113205,99.69406779661008 L30.094339622641506,102.32542372881355 L30.613207547169807,104.94152542372879 L31.132075471698112,107.54237288135587 L31.650943396226417,110.12796610169491 L32.16981132075472,112.69830508474573 L32.68867924528302,115.25338983050844 L33.20754716981132,117.79322033898299 L33.72641509433962,120.31779661016944 L34.24528301886792,122.82711864406778 L34.764150943396224,125.3211864406779 L35.28301886792453,127.79999999999998 L35.801886792452834,130.2635593220339 L36.320754716981135,132.71186440677965 L36.839622641509436,135.1449152542373 L37.35849056603774,137.5627118644068 L37.87735849056604,139.96525423728812 L38.39622641509434,142.35254237288135 L38.91509433962265,144.72457627118646 L39.43396226415095,147.08135593220337 L39.95283018867925,149.4228813559322 L40.47169811320755,151.74915254237285 L40.99056603773585,154.06016949152541 L41.509433962264154,156.3559322033898 L42.028301886792455,158.6364406779661 L42.54716981132076,160.90169491525424 L43.06603773584906,163.15169491525424 L43.58490566037736,165.3864406779661 L44.10377358490567,167.60593220338984 L44.62264150943397,169.81016949152544 L45.14150943396227,171.99915254237288 L45.66037735849057,174.17288135593222 L46.17924528301887,176.3313559322034 L46.69811320754717,178.47457627118646 L47.216981132075475,180.60254237288137 L47.735849056603776,182.71525423728818 L48.254716981132084,184.8127118644068 L48.773584905660385,186.89491525423733 L49.29245283018869,188.9618644067797 L49.81132075471699,191.01355932203393 L50.33018867924529,193.05000000000004 L50.84905660377359,195.071186440678 L51.36792452830189,197.07711864406784 L51.8867924528302,199.06779661016952 L52.4056603773585,201.04322033898308 L52.9245283018868,203.00338983050852 L53.4433962264151,204.9483050847458 L53.962264150943405,206.87796610169494 L54.481132075471706,208.79237288135596 L55.00000000000001,210.69152542372885 L55.518867924528315,212.5754237288136 L56.03773584905662,214.4440677966102 L56.55660377358492,216.2974576271187 L57.07547169811322,218.13559322033908 L57.59433962264152,219.95847457627124 L58.11320754716982,221.7661016949153 L58.63207547169812,223.5584745762712 L59.15094339622643,225.335593220339 L59.66981132075473,227.0974576271187 L60.18867924528303,228.84406779661018 L60.707547169811335,230.5754237288136 L61.226415094339636,232.29152542372893 L61.74528301886794,233.99237288135603 L62.26415094339624,235.67796610169498 L62.78301886792455,237.34830508474582 L63.30188679245285,239.00338983050855 L63.82075471698115,240.64322033898307 L64.33962264150945,242.26779661016954 L64.85849056603776,243.8771186440679 L65.37735849056605,245.47118644067805 L65.89622641509436,247.0500000000001 L66.41509433962267,248.61355932203398 L66.93396226415096,250.16186440677976 L67.45283018867927,251.69491525423737 L67.97169811320757,253.21271186440688 L68.49056603773587,254.71525423728818 L69.00943396226417,256.2025423728814 L69.52830188679248,257.6745762711865 L70.04716981132079,259.1313559322034 L70.56603773584908,260.5728813559323 L71.08490566037739,261.99915254237294 L71.60377358490568,263.4101694915255 L72.12264150943399,264.80593220338983 L72.64150943396228,266.1864406779662 L73.16037735849059,267.5516949152543 L73.6792452830189,268.9016949152543 L74.1981132075472,270.23644067796613 L74.7169811320755,271.5559322033899 L75.2358490566038,272.8601694915255 L75.7547169811321,274.1491525423729 L76.2735849056604,275.4228813559323 L76.79245283018871,276.6813559322034 L77.31132075471702,277.9245762711865 L77.83018867924531,279.1525423728814 L78.34905660377362,280.3652542372882 L78.86792452830191,281.5627118644068 L79.38679245283022,282.74491525423736 L79.90566037735852,283.9118644067797 L80.42452830188682,285.06355932203394 L80.94339622641512,286.20000000000005 L81.46226415094343,287.321186440678 L81.98113207547172,288.42711864406783 L82.50000000000003,289.5177966101695 L83.01886792452834,290.5932203389831 L83.53773584905663,291.65338983050856 L84.05660377358494,292.6983050847458 L84.57547169811323,293.72796610169496 L85.09433962264154,294.742372881356 L85.61320754716984,295.74152542372883 L86.13207547169814,296.7254237288136 L86.65094339622645,297.6940677966102 L87.16981132075475,298.6474576271187 L87.68867924528305,299.58559322033904 L88.20754716981135,300.5084745762712 L88.72641509433966,301.4161016949153 L89.24528301886795,302.30847457627124 L89.76415094339626,303.185593220339 L90.28301886792457,304.04745762711866 L90.80188679245286,304.8940677966102 L91.32075471698117,305.7254237288136 L91.83962264150946,306.54152542372884 L92.35849056603777,307.34237288135597 L92.87735849056607,308.12796610169494 L93.39622641509438,308.8983050847458 L93.91509433962268,309.6533898305085 L94.43396226415098,310.3932203389831 L94.95283018867929,311.11779661016953 L95.47169811320758,311.8271186440678 L95.99056603773589,312.521186440678 L96.50943396226418,313.20000000000005 L97.02830188679249,313.86355932203395 L97.5471698113208,314.5118644067797 L98.0660377358491,315.14491525423733 L98.5849056603774,315.7627118644068 L99.1037735849057,316.3652542372882 L99.622641509434,316.95254237288134 L100.1415094339623,317.52457627118645 L100.6603773584906,318.08135593220345 L101.17924528301891,318.62288135593224 L101.69811320754721,319.1491525423729 L102.21698113207552,319.66016949152544 L102.73584905660381,320.15593220338985 L103.25471698113212,320.6364406779661 L103.77358490566043,321.10169491525426 L104.29245283018872,321.55169491525425 L104.81132075471703,321.98644067796613 L105.33018867924532,322.40593220338985 L105.84905660377363,322.81016949152547 L106.36792452830193,323.1991525423729 L106.88679245283024,323.57288135593217 L107.40566037735854,323.9313559322034 L107.92452830188684,324.27457627118645 L108.44339622641515,324.6025423728814 L108.96226415094344,324.91525423728814 L109.48113207547175,325.21271186440674 L110.00000000000004,325.4949152542373 L110.51886792452835,325.76186440677964 L111.03773584905666,326.01355932203387 L111.55660377358495,326.25 L112.07547169811326,326.47118644067797 L112.59433962264156,326.6771186440678 L113.11320754716986,326.8677966101695 L113.63207547169816,327.043220338983 L114.15094339622647,327.20338983050846 L114.66981132075477,327.34830508474573 L115.18867924528307,327.4779661016949 L115.70754716981138,327.5923728813559 L116.22641509433967,327.69152542372876 L116.74528301886798,327.7754237288135 L117.26415094339627,327.84406779661015 L117.78301886792458,327.8974576271186 L118.30188679245289,327.93559322033894 L118.82075471698118,327.95847457627116 " fill="none" stroke="blue" stroke-width="2"></path><path d="M119.33962264150941,327.9661016949152 L119.59905660377355,327.96228813559316 L119.8584905660377,327.9508474576271 L120.11792452830184,327.9317796610169 L120.377358490566,327.9050847457627 L120.63679245283014,327.87076271186436 L120.89622641509428,327.828813559322 L121.15566037735843,327.77923728813556 L121.41509433962257,327.7220338983051 L121.67452830188671,327.65720338983044 L121.93396226415086,327.5847457627118 L122.193396226415,327.5046610169491 L122.45283018867916,327.4169491525424 L122.7122641509433,327.3216101694915 L122.97169811320744,327.2186440677966 L123.23113207547159,327.1080508474576 L123.49056603773573,326.9898305084746 L123.74999999999987,326.8639830508474 L124.00943396226403,326.73050847457625 L124.26886792452817,326.58940677966103 L124.52830188679232,326.4406779661017 L124.78773584905646,326.2843220338983 L125.0471698113206,326.1203389830509 L125.30660377358475,325.94872881355934 L125.5660377358489,325.76949152542375 L125.82547169811305,325.58262711864415 L126.08490566037719,325.3881355932204 L126.34433962264133,325.1860169491526 L126.60377358490548,324.9762711864407 L126.86320754716962,324.7588983050848 L127.12264150943376,324.53389830508485 L127.38207547169792,324.3012711864408 L127.64150943396206,324.06101694915264 L127.90094339622621,323.81313559322047 L128.16037735849036,323.5576271186442 L128.4198113207545,323.2944915254239 L128.67924528301864,323.0237288135595 L128.9386792452828,322.74533898305106 L129.19811320754692,322.4593220338985 L129.45754716981108,322.1656779661019 L129.71698113207523,321.86440677966124 L129.9764150943394,321.5555084745765 L130.2358490566035,321.2389830508477 L130.49528301886767,320.91483050847484 L130.75471698113182,320.5830508474579 L131.01415094339595,320.2436440677969 L131.2735849056601,319.89661016949185 L131.53301886792426,319.54194915254266 L131.79245283018838,319.17966101694947 L132.05188679245254,318.8097457627122 L132.3113207547167,318.4322033898309 L132.57075471698082,318.0470338983055 L132.83018867924497,317.65423728813596 L133.08962264150912,317.25381355932245 L133.34905660377328,316.84576271186484 L133.6084905660374,316.43008474576317 L133.86792452830156,316.0067796610174 L134.1273584905657,315.5758474576276 L134.38679245282984,315.13728813559374 L134.646226415094,314.6911016949158 L134.90566037735815,314.23728813559376 L135.16509433962227,313.77584745762766 L135.42452830188643,313.3067796610175 L135.68396226415058,312.8300847457633 L135.9433962264147,312.34576271186506 L136.20283018867886,311.8538135593227 L136.462264150943,311.35423728813623 L136.72169811320717,310.84703389830577 L136.9811320754713,310.3322033898312 L137.24056603773545,309.8097457627126 L137.4999999999996,309.27966101694994 L137.75943396226373,308.74194915254316 L138.01886792452788,308.1966101694923 L138.27830188679204,307.6436440677974 L138.53773584905616,307.0830508474585 L138.79716981132032,306.5148305084754 L139.05660377358447,305.9389830508484 L139.3160377358486,305.35550847457716 L139.57547169811275,304.76440677966195 L139.8349056603769,304.16567796610263 L140.09433962264103,303.5593220338993 L140.35377358490518,302.9453389830519 L140.61320754716934,302.32372881356036 L140.8726415094335,301.69449152542484 L141.13207547169762,301.0576271186452 L141.39150943396177,300.41313559322145 L141.65094339622593,299.7610169491537 L141.91037735849005,299.10127118644186 L142.1698113207542,298.43389830508596 L142.42924528301836,297.75889830508595 L142.6886792452825,297.07627118644194 L142.94811320754664,296.3860169491538 L143.2075471698108,295.68813559322166 L143.46698113207492,294.98262711864544 L143.72641509433907,294.2694915254251 L143.98584905660323,293.54872881356073 L144.24528301886735,292.8203389830523 L144.5047169811315,292.08432203389975 L144.76415094339566,291.3406779661032 L145.0235849056598,290.58940677966257 L145.28301886792394,289.83050847457787 L145.5424528301881,289.06398305084906 L145.80188679245222,288.2898305084762 L146.06132075471638,287.5080508474593 L146.32075471698053,286.7186440677983 L146.58018867924466,285.92161016949325 L146.8396226415088,285.1169491525441 L147.09905660377296,284.30466101695094 L147.35849056603712,283.4847457627137 L147.61792452830124,282.6572033898324 L147.8773584905654,281.822033898307 L148.13679245282955,280.97923728813754 L148.39622641509368,280.12881355932404 L148.65566037735783,279.27076271186644 L148.915094339622,278.4050847457648 L149.1745283018861,277.5317796610191 L149.43396226415027,276.65084745762925 L149.69339622641442,275.76228813559544 L149.95283018867855,274.86610169491746 L150.2122641509427,273.9622881355955 L150.47169811320686,273.0508474576294 L150.731132075471,272.13177966101927 L150.99056603773514,271.2050847457651 L151.2499999999993,270.27076271186684 L151.50943396226344,269.3288135593245 L151.76886792452757,268.3792372881381 L152.02830188679172,267.42203389830763 L152.28773584905588,266.45720338983307 L152.54716981132,265.4847457627145 L152.80660377358416,264.5046610169518 L153.0660377358483,263.51694915254507 L153.32547169811244,262.52161016949424 L153.5849056603766,261.5186440677994 L153.84433962264075,260.5080508474604 L154.1037735849049,259.48983050847744 L154.36320754716903,258.46398305085035 L154.62264150943318,257.43050847457926 L154.88207547169733,256.389406779664 L155.14150943396146,255.34067796610478 L155.4009433962256,254.28432203390142 L155.66037735848977,253.220338983054 L155.9198113207539,252.14872881356254 L156.17924528301805,251.06949152542703 L156.4386792452822,249.98262711864734 L156.69811320754633,248.88813559322367 L156.95754716981048,247.78601694915594 L157.21698113207464,246.6762711864441 L157.47641509433876,245.5588983050882 L157.73584905660292,244.43389830508832 L157.99528301886707,243.30127118644427 L158.25471698113122,242.16101694915616 L158.51415094339535,241.013135593224 L158.7735849056595,239.8576271186478 L159.03301886792366,238.69449152542748 L159.29245283018778,237.52372881356317 L159.55188679245194,236.34533898305475 L159.8113207547161,235.1593220339022 L160.07075471698022,233.9656779661057 L160.33018867924437,232.76440677966505 L160.58962264150853,231.55550847458036 L160.84905660377265,230.33898305085157 L161.1084905660368,229.11483050847878 L161.36792452830096,227.88305084746187 L161.62735849056511,226.64364406780092 L161.88679245282924,225.39661016949586 L162.1462264150934,224.1419491525468 L162.40566037735755,222.87966101695363 L162.66509433962167,221.60974576271636 L162.92452830188583,220.3322033898351 L163.18396226414998,219.0470338983097 L163.4433962264141,217.75423728814027 L163.70283018867826,216.45381355932673 L163.96226415094242,215.14576271186914 L164.22169811320654,213.83008474576755 L164.4811320754707,212.50677966102185 L164.74056603773485,211.17584745763205 L164.999999999999,209.8372881355982 L165.25943396226313,208.49110169492033 L165.51886792452729,207.13728813559834 L165.77830188679144,205.7758474576323 L166.03773584905557,204.4067796610222 L166.29716981131972,203.03008474576802 L166.55660377358387,201.6457627118698 L166.816037735848,200.25381355932743 L167.07547169811215,198.85423728814104 L167.3349056603763,197.44703389831062 L167.59433962264043,196.0322033898361 L167.8537735849046,194.60974576271752 L168.11320754716874,193.17966101695487 L168.37264150943287,191.74194915254813 L168.63207547169702,190.29661016949734 L168.89150943396118,188.84364406780247 L169.15094339622533,187.38305084746358 L169.41037735848946,185.91483050848058 L169.6698113207536,184.43898305085352 L169.92924528301776,182.95550847458242 L170.1886792452819,181.46440677966723 L170.44811320754604,179.96567796610796 L170.7075471698102,178.45932203390464 L170.96698113207432,176.94533898305724 L171.22641509433848,175.4237288135658 " fill="none" stroke="blue" stroke-width="2"></path><path d="M171.2264150943396,175.42372881355928 L171.48584905660374,175.80508474576266 L171.74528301886787,176.18644067796603 L172.00471698113202,176.56779661016944 L172.26415094339617,176.94915254237281 L172.5235849056603,177.3305084745762 L172.78301886792445,177.71186440677957 L173.0424528301886,178.09322033898295 L173.30188679245276,178.47457627118632 L173.5613207547169,178.85593220338973 L173.82075471698104,179.2372881355931 L174.0801886792452,179.61864406779648 L174.33962264150932,179.99999999999986 L174.59905660377348,180.38135593220323 L174.85849056603763,180.7627118644066 L175.11792452830176,181.14406779661002 L175.3773584905659,181.5254237288134 L175.63679245283006,181.90677966101677 L175.8962264150942,182.28813559322015 L176.15566037735834,182.66949152542352 L176.4150943396225,183.0508474576269 L176.67452830188662,183.4322033898303 L176.93396226415078,183.81355932203368 L177.19339622641493,184.19491525423706 L177.4528301886791,184.57627118644044 L177.7122641509432,184.9576271186438 L177.97169811320737,185.33898305084722 L178.23113207547152,185.7203389830506 L178.49056603773565,186.10169491525397 L178.7499999999998,186.48305084745735 L179.00943396226396,186.86440677966073 L179.26886792452808,187.2457627118641 L179.52830188679224,187.6271186440675 L179.7877358490564,188.00847457627088 L180.04716981132052,188.38983050847426 L180.30660377358467,188.77118644067764 L180.56603773584882,189.15254237288102 L180.82547169811298,189.5338983050844 L181.0849056603771,189.9152542372878 L181.34433962264126,190.29661016949117 L181.6037735849054,190.67796610169455 L181.86320754716954,191.05932203389793 L182.1226415094337,191.4406779661013 L182.38207547169785,191.82203389830468 L182.64150943396197,192.2033898305081 L182.90094339622613,192.58474576271146 L183.16037735849028,192.96610169491484 L183.4198113207544,193.34745762711822 L183.67924528301856,193.7288135593216 L183.9386792452827,194.110169491525 L184.19811320754687,194.49152542372838 L184.457547169811,194.87288135593175 L184.71698113207515,195.25423728813513 L184.9764150943393,195.6355932203385 L185.23584905660343,196.01694915254188 L185.49528301886758,196.3983050847453 L185.75471698113174,196.77966101694867 L186.01415094339586,197.16101694915204 L186.27358490566002,197.54237288135542 L186.53301886792417,197.9237288135588 L186.7924528301883,198.30508474576217 L187.05188679245245,198.68644067796558 L187.3113207547166,199.06779661016895 L187.57075471698073,199.44915254237233 L187.83018867924488,199.8305084745757 L188.08962264150904,200.21186440677909 L188.3490566037732,200.59322033898246 L188.60849056603732,200.97457627118587 L188.86792452830147,201.35593220338924 L189.12735849056563,201.73728813559262 L189.38679245282975,202.118644067796 L189.6462264150939,202.49999999999937 L189.90566037735806,202.88135593220278 L190.1650943396222,203.26271186440616 L190.42452830188634,203.64406779660953 L190.6839622641505,204.0254237288129 L190.94339622641462,204.4067796610163 L191.20283018867877,204.78813559321966 L191.46226415094293,205.16949152542307 L191.72169811320708,205.55084745762645 L191.9811320754712,205.93220338982982 L192.24056603773536,206.3135593220332 L192.49999999999952,206.69491525423658 L192.75943396226364,207.07627118643995 L193.0188679245278,207.45762711864336 L193.27830188679195,207.83898305084674 L193.53773584905608,208.2203389830501 L193.79716981132023,208.6016949152535 L194.05660377358438,208.98305084745687 L194.3160377358485,209.36440677966024 L194.57547169811266,209.74576271186365 L194.83490566037682,210.12711864406702 L195.09433962264097,210.5084745762704 L195.3537735849051,210.8898305084738 L195.61320754716925,211.27118644067716 L195.8726415094334,211.65254237288056 L196.13207547169753,212.0338983050839 L196.3915094339617,212.41525423728731 L196.65094339622584,212.79661016949072 L196.91037735848997,213.17796610169407 L197.16981132075412,213.55932203389742 L197.42924528301828,213.94067796610082 L197.6886792452824,214.32203389830423 L197.94811320754656,214.70338983050763 L198.2075471698107,215.08474576271098 L198.46698113207484,215.46610169491433 L198.726415094339,215.84745762711773 L198.98584905660314,216.22881355932114 L199.2452830188673,216.61016949152454 L199.50471698113142,216.9915254237279 L199.76415094339558,217.37288135593124 L200.02358490565973,217.75423728813465 L200.28301886792386,218.13559322033805 L200.542452830188,218.51694915254146 L200.80188679245217,218.8983050847448 L201.0613207547163,219.27966101694815 L201.32075471698045,219.66101694915156 L201.5801886792446,220.04237288135496 L201.83962264150873,220.42372881355837 L202.09905660377288,220.80508474576172 L202.35849056603703,221.18644067796507 L202.6179245283012,221.56779661016847 L202.8773584905653,221.94915254237188 L203.13679245282947,222.33050847457523 L203.39622641509362,222.71186440677863 L203.65566037735775,223.09322033898198 L203.9150943396219,223.47457627118538 L204.17452830188606,223.8559322033888 L204.43396226415018,224.23728813559214 L204.69339622641434,224.6186440677955 L204.9528301886785,224.9999999999989 L205.21226415094262,225.3813559322023 L205.47169811320677,225.7627118644057 L205.73113207547092,226.14406779660905 L205.99056603773508,226.5254237288124 L206.2499999999992,226.9067796610158 L206.50943396226336,227.2881355932192 L206.7688679245275,227.66949152542261 L207.02830188679164,228.05084745762596 L207.2877358490558,228.4322033898293 L207.54716981131995,228.81355932203272 L207.80660377358407,229.19491525423612 L208.06603773584823,229.57627118643953 L208.32547169811238,229.95762711864288 L208.5849056603765,230.33898305084622 L208.84433962264066,230.72033898304963 L209.10377358490481,231.10169491525303 L209.36320754716894,231.48305084745644 L209.6226415094331,231.8644067796598 L209.88207547169725,232.24576271186314 L210.1415094339614,232.62711864406654 L210.40094339622553,233.00847457626995 L210.66037735848968,233.3898305084733 L210.91981132075384,233.7711864406767 L211.17924528301796,234.15254237288005 L211.43867924528212,234.53389830508345 L211.69811320754627,234.91525423728686 L211.9575471698104,235.2966101694902 L212.21698113207455,235.67796610169356 L212.4764150943387,236.05932203389696 L212.73584905660283,236.44067796610037 L212.99528301886699,236.82203389830377 L213.25471698113114,237.20338983050712 L213.5141509433953,237.58474576271047 L213.77358490565942,237.96610169491387 L214.03301886792357,238.34745762711728 L214.29245283018773,238.72881355932068 L214.55188679245185,239.11016949152403 L214.811320754716,239.49152542372738 L215.07075471698016,239.8728813559308 L215.3301886792443,240.2542372881342 L215.58962264150844,240.6355932203376 L215.8490566037726,241.01694915254095 L216.10849056603672,241.3983050847443 L216.36792452830088,241.7796610169477 L216.62735849056503,242.1610169491511 L216.88679245282918,242.5423728813545 L217.1462264150933,242.92372881355786 L217.40566037735746,243.3050847457612 L217.66509433962162,243.6864406779646 L217.92452830188574,244.06779661016802 L218.1839622641499,244.44915254237137 L218.44339622641405,244.83050847457477 L218.70283018867818,245.21186440677812 L218.96226415094233,245.59322033898152 L219.2216981132065,245.97457627118493 L219.4811320754706,246.35593220338828 L219.74056603773477,246.73728813559168 L219.99999999999892,247.11864406779503 L220.25943396226305,247.49999999999844 L220.5188679245272,247.88135593220184 L220.77830188679135,248.2627118644052 L221.0377358490555,248.64406779660854 L221.29716981131963,249.02542372881194 L221.5566037735838,249.40677966101535 L221.81603773584794,249.78813559321875 L222.07547169811207,250.1694915254221 L222.33490566037622,250.55084745762545 L222.59433962264038,250.93220338982886 L222.8537735849045,251.31355932203226 L223.11320754716866,251.69491525423567 " fill="none" stroke="blue" stroke-width="2"></path><path d="M223.11320754716976,251.69491525423726 L223.37264150943392,250.9341101694915 L223.63207547169804,250.17711864406775 L223.8915094339622,249.4239406779661 L224.15094339622635,248.67457627118645 L224.41037735849048,247.92902542372886 L224.66981132075463,247.18728813559326 L224.9292452830188,246.44936440677972 L225.18867924528294,245.71525423728824 L225.44811320754707,244.98495762711875 L225.70754716981122,244.2584745762713 L225.96698113207538,243.53580508474593 L226.2264150943395,242.81694915254255 L226.48584905660366,242.10190677966116 L226.7452830188678,241.3906779661019 L227.00471698113193,240.68326271186461 L227.2641509433961,239.97966101694934 L227.52358490566024,239.27987288135617 L227.78301886792437,238.583898305085 L228.04245283018852,237.89173728813583 L228.30188679245268,237.20338983050877 L228.5613207547168,236.5188559322037 L228.82075471698096,235.83813559322064 L229.0801886792451,235.16122881355957 L229.33962264150927,234.48813559322062 L229.5990566037734,233.81885593220366 L229.85849056603755,233.15338983050881 L230.1179245283017,232.49173728813597 L230.37735849056583,231.8338983050851 L230.63679245282998,231.17987288135626 L230.89622641509413,230.52966101694952 L231.15566037735826,229.88326271186477 L231.4150943396224,229.24067796610214 L231.67452830188657,228.6019067796614 L231.9339622641507,227.9669491525428 L232.19339622641485,227.33580508474623 L232.452830188679,226.70847457627164 L232.71226415094316,226.08495762711905 L232.97169811320728,225.46525423728863 L233.23113207547144,224.84936440678015 L233.4905660377356,224.23728813559367 L233.74999999999972,223.6290254237293 L234.00943396226387,223.02457627118693 L234.26886792452802,222.4239406779666 L234.52830188679215,221.8271186440683 L234.7877358490563,221.23411016949208 L235.04716981132046,220.64491525423782 L235.30660377358458,220.05953389830566 L235.56603773584874,219.47796610169544 L235.8254716981129,218.90021186440734 L236.08490566037705,218.32627118644123 L236.34433962264117,217.75614406779718 L236.60377358490533,217.18983050847513 L236.86320754716948,216.62733050847518 L237.1226415094336,216.06864406779724 L237.38207547169776,215.5137711864413 L237.64150943396191,214.9627118644074 L237.90094339622604,214.41546610169556 L238.1603773584902,213.87203389830572 L238.41981132075435,213.33241525423793 L238.67924528301847,212.7966101694922 L238.93867924528263,212.2646186440684 L239.19811320754678,211.73644067796673 L239.4575471698109,211.2120762711871 L239.71698113207506,210.69152542372947 L239.97641509433922,210.1747881355939 L240.23584905660337,209.66186440678035 L240.4952830188675,209.1527542372888 L240.75471698113165,208.64745762711934 L241.0141509433958,208.14597457627187 L241.27358490565993,207.64830508474645 L241.53301886792408,207.15444915254307 L241.79245283018824,206.66440677966173 L242.05188679245236,206.1781779661024 L242.31132075471652,205.69576271186511 L242.57075471698067,205.21716101694986 L242.8301886792448,204.74237288135666 L243.08962264150895,204.27139830508548 L243.3490566037731,203.80423728813633 L243.60849056603726,203.3408898305092 L243.8679245283014,202.88135593220412 L244.12735849056554,202.42563559322107 L244.3867924528297,201.97372881356006 L244.64622641509382,201.52563559322107 L244.90566037735798,201.08135593220416 L245.16509433962213,200.64088983050925 L245.42452830188626,200.20423728813637 L245.6839622641504,199.7713983050855 L245.94339622641456,199.34237288135668 L246.2028301886787,198.9171610169499 L246.46226415094284,198.49576271186515 L246.721698113207,198.0781779661025 L246.98113207547115,197.6644067796618 L247.24056603773528,197.25444915254315 L247.49999999999943,196.84830508474653 L247.75943396226359,196.44597457627194 L248.0188679245277,196.04745762711943 L248.27830188679187,195.65275423728892 L248.53773584905602,195.26186440678043 L248.79716981132015,194.87478813559397 L249.0566037735843,194.4915254237296 L249.31603773584845,194.11207627118722 L249.57547169811258,193.73644067796687 L249.83490566037673,193.36461864406854 L250.0943396226409,192.9966101694923 L250.353773584905,192.63241525423805 L250.61320754716917,192.27203389830584 L250.87264150943332,191.9154661016957 L251.13207547169748,191.56271186440753 L251.3915094339616,191.21377118644145 L251.65094339622576,190.86864406779736 L251.9103773584899,190.52733050847533 L252.16981132075404,190.18983050847535 L252.4292452830182,189.85614406779737 L252.68867924528234,189.52627118644145 L252.94811320754647,189.20021186440752 L253.20754716981062,188.87796610169568 L253.46698113207478,188.55953389830583 L253.7264150943389,188.244915254238 L253.98584905660306,187.93411016949227 L254.2452830188672,187.62711864406856 L254.50471698113137,187.32394067796685 L254.7641509433955,187.02457627118716 L255.02358490565965,186.72902542372955 L255.2830188679238,186.43728813559392 L255.54245283018793,186.14936440678036 L255.80188679245208,185.86525423728887 L256.06132075471623,185.58495762711934 L256.3207547169804,185.3084745762719 L256.58018867924454,185.03580508474644 L256.8396226415087,184.76694915254308 L257.0990566037728,184.5019067796617 L257.35849056603695,184.24067796610237 L257.6179245283011,183.98326271186508 L257.87735849056526,183.72966101694985 L258.1367924528294,183.47987288135658 L258.39622641509357,183.2338983050854 L258.6556603773577,182.99173728813625 L258.9150943396218,182.75338983050912 L259.17452830188597,182.51885593220405 L259.4339622641501,182.28813559322097 L259.6933962264143,182.06122881355998 L259.95283018867843,181.83813559322095 L260.2122641509426,181.618855932204 L260.4716981132067,181.4033898305091 L260.73113207547084,181.1917372881362 L260.990566037735,180.98389830508538 L261.24999999999915,180.7798728813565 L261.5094339622633,180.57966101694973 L261.76886792452746,180.383262711865 L262.0283018867916,180.19067796610227 L262.2877358490557,180.0019067796616 L262.54716981131986,179.81694915254292 L262.806603773584,179.6358050847463 L263.06603773584817,179.45847457627173 L263.3254716981123,179.28495762711916 L263.5849056603765,179.11525423728864 L263.8443396226406,178.94936440678018 L264.10377358490473,178.7872881355937 L264.3632075471689,178.6290254237293 L264.62264150943304,178.47457627118692 L264.8820754716972,178.3239406779666 L265.14150943396135,178.17711864406826 L265.4009433962255,178.03411016949198 L265.6603773584896,177.89491525423773 L265.91981132075375,177.75953389830553 L266.1792452830179,177.62796610169534 L266.43867924528206,177.5002118644072 L266.6981132075462,177.37627118644107 L266.95754716981037,177.256144067797 L267.21698113207447,177.13983050847494 L267.4764150943386,177.02733050847493 L267.7358490566028,176.91864406779695 L267.9952830188669,176.81377118644102 L268.2547169811311,176.7127118644071 L268.51415094339524,176.6154661016952 L268.7735849056594,176.5220338983054 L269.0330188679235,176.43241525423758 L269.29245283018764,176.3466101694918 L269.5518867924518,176.26461864406807 L269.81132075471595,176.18644067796635 L270.0707547169801,176.11207627118668 L270.33018867924426,176.041525423729 L270.58962264150836,175.97478813559343 L270.8490566037725,175.91186440677987 L271.10849056603666,175.8527542372883 L271.3679245283008,175.7974576271188 L271.627358490565,175.74597457627135 L271.8867924528291,175.6983050847459 L272.1462264150933,175.6544491525425 L272.40566037735744,175.61440677966115 L272.66509433962153,175.5781779661018 L272.9245283018857,175.54576271186448 L273.18396226414984,175.51716101694922 L273.443396226414,175.492372881356 L273.70283018867815,175.4713983050848 L273.9622641509423,175.4542372881356 L274.22169811320646,175.4408898305085 L274.48113207547055,175.43135593220336 L274.7405660377347,175.42563559322033 L274.99999999999886,175.42372881355928 " fill="none" stroke="blue" stroke-width="2"></path><path d="M274.99999999999994,175.42372881355928 L275.2594339622641,175.42468220338978 L275.51886792452825,175.4275423728813 L275.7783018867924,175.43230932203386 L276.03773584905656,175.4389830508474 L276.2971698113207,175.447563559322 L276.55660377358487,175.45805084745757 L276.81603773584897,175.47044491525418 L277.0754716981131,175.4847457627118 L277.3349056603773,175.50095338983044 L277.5943396226414,175.5190677966101 L277.8537735849056,175.53908898305082 L278.11320754716974,175.56101694915247 L278.37264150943383,175.58485169491522 L278.632075471698,175.61059322033896 L278.89150943396214,175.63824152542367 L279.1509433962263,175.66779661016943 L279.41037735849045,175.69925847457623 L279.6698113207546,175.73262711864402 L279.92924528301876,175.7679025423728 L280.18867924528286,175.80508474576266 L280.448113207547,175.84417372881347 L280.70754716981116,175.88516949152535 L280.9669811320753,175.92807203389825 L281.2264150943395,175.97288135593215 L281.4858490566036,176.01959745762704 L281.7452830188677,176.068220338983 L282.0047169811319,176.11874999999992 L282.26415094339603,176.17118644067787 L282.5235849056602,176.22552966101688 L282.78301886792434,176.28177966101688 L283.0424528301885,176.3399364406779 L283.30188679245265,176.39999999999992 L283.56132075471675,176.46197033898295 L283.8207547169809,176.525847457627 L284.08018867924505,176.59163135593212 L284.3396226415092,176.6593220338982 L284.59905660377336,176.72891949152532 L284.8584905660375,176.80042372881346 L285.1179245283016,176.87383474576262 L285.37735849056577,176.9491525423728 L285.6367924528299,177.02637711864395 L285.8962264150941,177.10550847457617 L286.15566037735823,177.18654661016936 L286.4150943396224,177.26949152542363 L286.67452830188654,177.35434322033885 L286.93396226415064,177.44110169491512 L287.1933962264148,177.5297669491524 L287.45283018867894,177.6203389830507 L287.7122641509431,177.71281779661004 L287.97169811320725,177.80720338983036 L288.2311320754714,177.90349576271169 L288.4905660377355,178.0016949152541 L288.74999999999966,178.10180084745747 L289.0094339622638,178.20381355932187 L289.26886792452797,178.3077330508473 L289.5283018867921,178.41355932203373 L289.7877358490563,178.52129237288116 L290.04716981132043,178.63093220338968 L290.3066037735845,178.74247881355913 L290.5660377358487,178.85593220338964 L290.82547169811284,178.97129237288118 L291.084905660377,179.08855932203372 L291.34433962264114,179.20773305084728 L291.6037735849053,179.32881355932184 L291.8632075471694,179.4518008474574 L292.12264150943355,179.57669491525402 L292.3820754716977,179.70349576271164 L292.64150943396186,179.83220338983028 L292.900943396226,179.96281779660995 L293.16037735849017,180.09533898305062 L293.4198113207543,180.22976694915232 L293.6792452830184,180.36610169491502 L293.9386792452826,180.5043432203387 L294.1981132075467,180.6444915254235 L294.4575471698109,180.7865466101692 L294.71698113207503,180.930508474576 L294.9764150943392,181.0763771186438 L295.2358490566033,181.2241525423726 L295.49528301886744,181.37383474576242 L295.7547169811316,181.52542372881325 L296.01415094339575,181.67891949152514 L296.2735849056599,181.834322033898 L296.53301886792406,181.9916313559319 L296.79245283018815,182.15084745762678 L297.0518867924523,182.31197033898272 L297.31132075471646,182.47499999999965 L297.5707547169806,182.63993644067762 L297.83018867924477,182.8067796610166 L298.0896226415089,182.9755296610166 L298.3490566037731,183.1461864406776 L298.6084905660372,183.31874999999962 L298.86792452830133,183.49322033898267 L299.1273584905655,183.66959745762674 L299.38679245282964,183.8478813559318 L299.6462264150938,184.0280720338979 L299.90566037735795,184.21016949152502 L300.16509433962204,184.39417372881314 L300.4245283018862,184.58008474576226 L300.68396226415035,184.76790254237244 L300.9433962264145,184.95762711864361 L301.20283018867866,185.14925847457582 L301.4622641509428,185.34279661016902 L301.72169811320697,185.53824152542325 L301.98113207547107,185.73559322033853 L302.2405660377352,185.93485169491476 L302.4999999999994,186.13601694915207 L302.75943396226353,186.33908898305032 L303.0188679245277,186.54406779660965 L303.27830188679184,186.75095338983 L303.53773584905593,186.95974576271132 L303.7971698113201,187.17044491525368 L304.05660377358424,187.38305084745707 L304.3160377358484,187.59756355932146 L304.57547169811255,187.8139830508469 L304.8349056603767,188.03230932203334 L305.09433962264086,188.25254237288078 L305.35377358490496,188.47468220338925 L305.6132075471691,188.69872881355872 L305.87264150943327,188.9246822033892 L306.1320754716974,189.15254237288073 L306.3915094339616,189.38230932203328 L306.6509433962257,189.6139830508468 L306.9103773584898,189.84756355932137 L307.169811320754,190.08305084745695 L307.42924528301813,190.32044491525355 L307.6886792452823,190.55974576271117 L307.94811320754644,190.80095338982983 L308.2075471698106,191.04406779660945 L308.46698113207475,191.28908898305014 L308.72641509433885,191.53601694915181 L308.985849056603,191.78485169491452 L309.24528301886716,192.03559322033823 L309.5047169811313,192.28824152542296 L309.76415094339546,192.54279661016872 L310.0235849056596,192.7992584745755 L310.2830188679237,193.05762711864327 L310.54245283018787,193.31790254237208 L310.801886792452,193.5800847457619 L311.0613207547162,193.84417372881273 L311.32075471698033,194.11016949152457 L311.5801886792445,194.37807203389744 L311.83962264150864,194.64788135593133 L312.09905660377274,194.91959745762625 L312.3584905660369,195.19322033898214 L312.61792452830105,195.46874999999912 L312.8773584905652,195.74618644067706 L313.13679245282935,196.02552966101604 L313.3962264150935,196.30677966101604 L313.6556603773576,196.58993644067704 L313.91509433962176,196.87499999999903 L314.1745283018859,197.16197033898206 L314.43396226415007,197.45084745762614 L314.6933962264142,197.7416313559312 L314.9528301886784,198.0343220338973 L315.21226415094253,198.3289194915244 L315.4716981132066,198.62542372881254 L315.7311320754708,198.92383474576167 L315.99056603773494,199.22415254237183 L316.2499999999991,199.526377118643 L316.50943396226324,199.8305084745752 L316.7688679245274,200.13654661016838 L317.0283018867915,200.44449152542262 L317.28773584905565,200.75434322033786 L317.5471698113198,201.06610169491412 L317.80660377358396,201.3797669491514 L318.0660377358481,201.6953389830497 L318.32547169811227,202.012817796609 L318.58490566037636,202.33220338982935 L318.8443396226405,202.65349576271066 L319.1037735849047,202.976694915253 L319.3632075471688,203.3018008474564 L319.622641509433,203.62881355932078 L319.88207547169714,203.9577330508462 L320.1415094339613,204.28855932203263 L320.4009433962254,204.62129237288008 L320.66037735848954,204.95593220338853 L320.9198113207537,205.29247881355803 L321.17924528301785,205.63093220338848 L321.438679245282,205.97129237288001 L321.69811320754616,206.31355932203252 L321.95754716981025,206.6577330508461 L322.2169811320744,207.00381355932063 L322.47641509433856,207.35180084745625 L322.7358490566027,207.7016949152528 L322.99528301886687,208.05349576271044 L323.254716981131,208.40720338982908 L323.5141509433952,208.76281779660872 L323.7735849056593,209.12033898304938 L324.03301886792343,209.47976694915104 L324.2924528301876,209.84110169491376 L324.55188679245174,210.20434322033745 L324.8113207547159,210.5694915254222 L325.07075471698005,210.93654661016794 L325.33018867924415,211.30550847457474 L325.5896226415083,211.67637711864248 L325.84905660377245,212.04915254237127 L326.1084905660366,212.42383474576107 L326.36792452830076,212.80042372881192 L326.6273584905649,213.17891949152377 L326.88679245282907,213.55932203389662 " fill="none" stroke="blue" stroke-width="2"></path><path d="M326.88679245283015,213.55932203389827 L327.1462264150943,213.55932203389827 L327.40566037735846,213.55932203389827 L327.6650943396226,213.55932203389827 L327.9245283018867,213.55932203389827 L328.18396226415086,213.55932203389827 L328.443396226415,213.55932203389827 L328.7028301886792,213.55932203389827 L328.9622641509433,213.55932203389827 L329.2216981132075,213.55932203389827 L329.4811320754716,213.55932203389827 L329.74056603773573,213.55932203389827 L329.9999999999999,213.55932203389827 L330.25943396226404,213.55932203389827 L330.5188679245282,213.55932203389827 L330.77830188679235,213.55932203389827 L331.0377358490565,213.55932203389827 L331.2971698113206,213.55932203389827 L331.55660377358475,213.55932203389827 L331.8160377358489,213.55932203389827 L332.07547169811306,213.55932203389827 L332.3349056603772,213.55932203389827 L332.59433962264137,213.55932203389827 L332.85377358490547,213.55932203389827 L333.1132075471696,213.55932203389827 L333.3726415094338,213.55932203389827 L333.63207547169793,213.55932203389827 L333.8915094339621,213.55932203389827 L334.15094339622624,213.55932203389827 L334.4103773584904,213.55932203389827 L334.6698113207545,213.55932203389827 L334.92924528301864,213.55932203389827 L335.1886792452828,213.55932203389827 L335.44811320754695,213.55932203389827 L335.7075471698111,213.55932203389827 L335.96698113207526,213.55932203389827 L336.22641509433936,213.55932203389827 L336.4858490566035,213.55932203389827 L336.74528301886767,213.55932203389827 L337.0047169811318,213.55932203389827 L337.264150943396,213.55932203389827 L337.52358490566013,213.55932203389827 L337.7830188679242,213.55932203389827 L338.0424528301884,213.55932203389827 L338.30188679245254,213.55932203389827 L338.5613207547167,213.55932203389827 L338.82075471698084,213.55932203389827 L339.080188679245,213.55932203389827 L339.33962264150915,213.55932203389827 L339.59905660377325,213.55932203389827 L339.8584905660374,213.55932203389827 L340.11792452830156,213.55932203389827 L340.3773584905657,213.55932203389827 L340.63679245282987,213.55932203389827 L340.896226415094,213.55932203389827 L341.1556603773581,213.55932203389827 L341.41509433962227,213.55932203389827 L341.6745283018864,213.55932203389827 L341.9339622641506,213.55932203389827 L342.19339622641473,213.55932203389827 L342.4528301886789,213.55932203389827 L342.71226415094304,213.55932203389827 L342.97169811320714,213.55932203389827 L343.2311320754713,213.55932203389827 L343.49056603773545,213.55932203389827 L343.7499999999996,213.55932203389827 L344.00943396226376,213.55932203389827 L344.2688679245279,213.55932203389827 L344.528301886792,213.55932203389827 L344.78773584905616,213.55932203389827 L345.0471698113203,213.55932203389827 L345.30660377358447,213.55932203389827 L345.5660377358486,213.55932203389827 L345.8254716981128,213.55932203389827 L346.08490566037693,213.55932203389827 L346.34433962264103,213.55932203389827 L346.6037735849052,213.55932203389827 L346.86320754716934,213.55932203389827 L347.1226415094335,213.55932203389827 L347.38207547169765,213.55932203389827 L347.6415094339618,213.55932203389827 L347.9009433962259,213.55932203389827 L348.16037735849005,213.55932203389827 L348.4198113207542,213.55932203389827 L348.67924528301836,213.55932203389827 L348.9386792452825,213.55932203389827 L349.19811320754667,213.55932203389827 L349.4575471698108,213.55932203389827 L349.7169811320749,213.55932203389827 L349.9764150943391,213.55932203389827 L350.23584905660323,213.55932203389827 L350.4952830188674,213.55932203389827 L350.75471698113154,213.55932203389827 L351.0141509433957,213.55932203389827 L351.2735849056598,213.55932203389827 L351.53301886792394,213.55932203389827 L351.7924528301881,213.55932203389827 L352.05188679245225,213.55932203389827 L352.3113207547164,213.55932203389827 L352.57075471698056,213.55932203389827 L352.8301886792447,213.55932203389827 L353.0896226415088,213.55932203389827 L353.34905660377296,213.55932203389827 L353.6084905660371,213.55932203389827 L353.8679245283013,213.55932203389827 L354.1273584905654,213.55932203389827 L354.3867924528296,213.55932203389827 L354.6462264150937,213.55932203389827 L354.90566037735783,213.55932203389827 L355.165094339622,213.55932203389827 L355.42452830188614,213.55932203389827 L355.6839622641503,213.55932203389827 L355.94339622641445,213.55932203389827 L356.2028301886786,213.55932203389827 L356.4622641509427,213.55932203389827 L356.72169811320686,213.55932203389827 L356.981132075471,213.55932203389827 L357.24056603773516,213.55932203389827 L357.4999999999993,213.55932203389827 L357.7594339622635,213.55932203389827 L358.01886792452757,213.55932203389827 L358.2783018867917,213.55932203389827 L358.5377358490559,213.55932203389827 L358.79716981132003,213.55932203389827 L359.0566037735842,213.55932203389827 L359.31603773584834,213.55932203389827 L359.57547169811244,213.55932203389827 L359.8349056603766,213.55932203389827 L360.09433962264075,213.55932203389827 L360.3537735849049,213.55932203389827 L360.61320754716905,213.55932203389827 L360.8726415094332,213.55932203389827 L361.13207547169736,213.55932203389827 L361.39150943396146,213.55932203389827 L361.6509433962256,213.55932203389827 L361.91037735848977,213.55932203389827 L362.1698113207539,213.55932203389827 L362.4292452830181,213.55932203389827 L362.68867924528223,213.55932203389827 L362.9481132075463,213.55932203389827 L363.2075471698105,213.55932203389827 L363.46698113207464,213.55932203389827 L363.7264150943388,213.55932203389827 L363.98584905660294,213.55932203389827 L364.2452830188671,213.55932203389827 L364.50471698113125,213.55932203389827 L364.76415094339535,213.55932203389827 L365.0235849056595,213.55932203389827 L365.28301886792366,213.55932203389827 L365.5424528301878,213.55932203389827 L365.80188679245197,213.55932203389827 L366.0613207547161,213.55932203389827 L366.3207547169802,213.55932203389827 L366.5801886792444,213.55932203389827 L366.8396226415085,213.55932203389827 L367.0990566037727,213.55932203389827 L367.35849056603683,213.55932203389827 L367.617924528301,213.55932203389827 L367.87735849056514,213.55932203389827 L368.13679245282924,213.55932203389827 L368.3962264150934,213.55932203389827 L368.65566037735755,213.55932203389827 L368.9150943396217,213.55932203389827 L369.17452830188586,213.55932203389827 L369.43396226415,213.55932203389827 L369.6933962264141,213.55932203389827 L369.95283018867826,213.55932203389827 L370.2122641509424,213.55932203389827 L370.47169811320657,213.55932203389827 L370.7311320754707,213.55932203389827 L370.9905660377349,213.55932203389827 L371.24999999999903,213.55932203389827 L371.50943396226313,213.55932203389827 L371.7688679245273,213.55932203389827 L372.02830188679144,213.55932203389827 L372.2877358490556,213.55932203389827 L372.54716981131975,213.55932203389827 L372.8066037735839,213.55932203389827 L373.066037735848,213.55932203389827 L373.32547169811215,213.55932203389827 L373.5849056603763,213.55932203389827 L373.84433962264046,213.55932203389827 L374.1037735849046,213.55932203389827 L374.36320754716877,213.55932203389827 L374.6226415094329,213.55932203389827 L374.882075471697,213.55932203389827 L375.1415094339612,213.55932203389827 L375.40094339622533,213.55932203389827 L375.6603773584895,213.55932203389827 L375.91981132075364,213.55932203389827 L376.1792452830178,213.55932203389827 L376.4386792452819,213.55932203389827 L376.69811320754604,213.55932203389827 L376.9575471698102,213.55932203389827 L377.21698113207435,213.55932203389827 L377.4764150943385,213.55932203389827 L377.73584905660266,213.55932203389827 L377.9952830188668,213.55932203389827 L378.2547169811309,213.55932203389827 L378.51415094339507,213.55932203389827 L378.7735849056592,213.55932203389827 " fill="none" stroke="blue" stroke-width="2"></path><path d="M378.77358490566036,213.55932203389827 L379.03301886792445,213.94067796610162 L379.2924528301886,214.32203389830502 L379.55188679245276,214.70338983050843 L379.8113207547169,215.08474576271183 L380.07075471698107,215.46610169491518 L380.3301886792452,215.84745762711853 L380.5896226415093,216.22881355932194 L380.8490566037735,216.61016949152534 L381.10849056603763,216.99152542372875 L381.3679245283018,217.3728813559321 L381.62735849056594,217.75423728813544 L381.8867924528301,218.13559322033885 L382.1462264150942,218.51694915254225 L382.40566037735834,218.8983050847456 L382.6650943396225,219.279661016949 L382.92452830188665,219.66101694915235 L383.1839622641508,220.04237288135576 L383.44339622641496,220.42372881355917 L383.7028301886791,220.8050847457625 L383.9622641509432,221.18644067796586 L384.22169811320737,221.56779661016927 L384.4811320754715,221.94915254237267 L384.7405660377357,222.33050847457608 L384.99999999999983,222.71186440677943 L385.259433962264,223.09322033898277 L385.5188679245281,223.47457627118618 L385.77830188679224,223.85593220338959 L386.0377358490564,224.237288135593 L386.29716981132054,224.61864406779634 L386.5566037735847,224.9999999999997 L386.81603773584885,225.3813559322031 L387.075471698113,225.7627118644065 L387.3349056603771,226.1440677966099 L387.59433962264126,226.52542372881325 L387.8537735849054,226.9067796610166 L388.11320754716957,227.28813559322 L388.3726415094337,227.6694915254234 L388.6320754716979,228.05084745762682 L388.89150943396197,228.43220338983016 L389.1509433962261,228.8135593220335 L389.4103773584903,229.19491525423692 L389.66981132075443,229.57627118644032 L389.9292452830186,229.95762711864367 L390.18867924528274,230.33898305084708 L390.4481132075469,230.72033898305042 L390.707547169811,231.10169491525383 L390.96698113207515,231.48305084745724 L391.2264150943393,231.86440677966058 L391.48584905660346,232.245762711864 L391.7452830188676,232.62711864406734 L392.00471698113176,233.00847457627074 L392.26415094339586,233.38983050847415 L392.52358490566,233.7711864406775 L392.78301886792417,234.15254237288084 L393.0424528301883,234.53389830508425 L393.3018867924525,234.91525423728766 L393.56132075471663,235.29661016949106 L393.8207547169808,235.6779661016944 L394.0801886792449,236.05932203389776 L394.33962264150904,236.44067796610116 L394.5990566037732,236.82203389830457 L394.85849056603735,237.20338983050797 L395.1179245283015,237.58474576271132 L395.37735849056565,237.96610169491467 L395.63679245282975,238.34745762711808 L395.8962264150939,238.72881355932148 L396.15566037735806,239.11016949152489 L396.4150943396222,239.49152542372823 L396.67452830188637,239.87288135593158 L396.9339622641505,240.254237288135 L397.1933962264147,240.6355932203384 L397.4528301886788,241.0169491525418 L397.71226415094293,241.39830508474515 L397.9716981132071,241.7796610169485 L398.23113207547124,242.1610169491519 L398.4905660377354,242.5423728813553 L398.74999999999955,242.92372881355865 L399.00943396226364,243.30508474576206 L399.2688679245278,243.6864406779654 L399.52830188679195,244.0677966101688 L399.7877358490561,244.44915254237222 L400.04716981132026,244.83050847457557 L400.3066037735844,245.21186440677891 L400.5660377358485,245.59322033898232 L400.82547169811266,245.97457627118573 L401.0849056603768,246.35593220338913 L401.344339622641,246.73728813559248 L401.6037735849051,247.11864406779583 L401.8632075471693,247.49999999999923 L402.12264150943344,247.88135593220264 L402.38207547169753,248.26271186440604 L402.6415094339617,248.6440677966094 L402.90094339622584,249.02542372881274 L403.16037735849,249.40677966101615 L403.41981132075415,249.78813559321955 L403.6792452830183,250.16949152542296 L403.9386792452824,250.5508474576263 L404.19811320754656,250.93220338982965 L404.4575471698107,251.31355932203306 L404.71698113207486,251.69491525423646 L404.976415094339,252.07627118643987 L405.2358490566032,252.45762711864322 L405.4952830188673,252.83898305084656 L405.7547169811314,253.22033898304997 L406.0141509433956,253.60169491525338 L406.27358490565973,253.98305084745672 L406.5330188679239,254.36440677966013 L406.79245283018804,254.74576271186348 L407.0518867924522,255.12711864406688 L407.3113207547163,255.5084745762703 L407.57075471698045,255.88983050847364 L407.8301886792446,256.27118644067696 L408.08962264150875,256.65254237288036 L408.3490566037729,257.03389830508377 L408.60849056603706,257.4152542372872 L408.8679245283012,257.7966101694905 L409.1273584905653,258.17796610169387 L409.38679245282947,258.5593220338973 L409.6462264150936,258.9406779661007 L409.9056603773578,259.3220338983041 L410.16509433962193,259.70338983050743 L410.4245283018861,260.0847457627108 L410.6839622641502,260.4661016949142 L410.94339622641434,260.8474576271176 L411.2028301886785,261.228813559321 L411.46226415094264,261.61016949152435 L411.7216981132068,261.9915254237277 L411.98113207547095,262.3728813559311 L412.2405660377351,262.7542372881345 L412.4999999999992,263.1355932203379 L412.75943396226336,263.51694915254126 L413.0188679245275,263.8983050847446 L413.27830188679167,264.279661016948 L413.5377358490558,264.6610169491514 L413.79716981132,265.04237288135477 L414.0566037735841,265.42372881355817 L414.3160377358482,265.8050847457615 L414.5754716981124,266.1864406779649 L414.83490566037653,266.56779661016833 L415.0943396226407,266.9491525423717 L415.35377358490484,267.3305084745751 L415.613207547169,267.71186440677843 L415.8726415094331,268.09322033898184 L416.13207547169725,268.47457627118524 L416.3915094339614,268.8559322033886 L416.65094339622556,269.23728813559194 L416.9103773584897,269.61864406779534 L417.16981132075387,269.99999999999875 L417.42924528301796,270.38135593220215 L417.6886792452821,270.7627118644055 L417.94811320754627,271.14406779660885 L418.2075471698104,271.52542372881226 L418.4669811320746,271.90677966101566 L418.72641509433873,272.28813559321907 L418.9858490566029,272.6694915254224 L419.245283018867,273.05084745762576 L419.50471698113114,273.43220338982917 L419.7641509433953,273.8135593220326 L420.02358490565945,274.194915254236 L420.2830188679236,274.5762711864393 L420.54245283018776,274.9576271186427 L420.80188679245185,275.3389830508461 L421.061320754716,275.7203389830495 L421.32075471698016,276.1016949152529 L421.5801886792443,276.48305084745624 L421.83962264150847,276.8644067796596 L422.0990566037726,277.245762711863 L422.3584905660367,277.6271186440664 L422.6179245283009,278.00847457626975 L422.87735849056503,278.38983050847315 L423.1367924528292,278.7711864406765 L423.39622641509334,279.1525423728799 L423.6556603773575,279.5338983050833 L423.91509433962165,279.91525423728666 L424.17452830188574,280.29661016949007 L424.4339622641499,280.6779661016934 L424.69339622641405,281.0593220338968 L424.9528301886782,281.4406779661002 L425.21226415094236,281.8220338983036 L425.4716981132065,282.203389830507 L425.7311320754706,282.5847457627103 L425.99056603773477,282.96610169491373 L426.2499999999989,283.34745762711714 L426.5094339622631,283.7288135593205 L426.7688679245272,284.11016949152383 L427.0283018867914,284.49152542372724 L427.28773584905554,284.87288135593064 L427.54716981131963,285.254237288134 L427.8066037735838,285.6355932203374 L428.06603773584794,286.01694915254075 L428.3254716981121,286.39830508474415 L428.58490566037625,286.77966101694756 L428.8443396226404,287.1610169491509 L429.1037735849045,287.5423728813543 L429.36320754716866,287.92372881355766 L429.6226415094328,288.30508474576106 L429.88207547169696,288.68644067796447 L430.1415094339611,289.0677966101678 L430.4009433962253,289.4491525423712 L430.6603773584894,289.8305084745746 " fill="none" stroke="blue" stroke-width="2"></path><path d="M430.6603773584905,175.42372881355928 L430.9198113207547,175.80508474576274 L431.1792452830189,176.18644067796617 L431.4386792452831,176.56779661016964 L431.6981132075473,176.94915254237307 L431.95754716981145,177.33050847457653 L432.21698113207566,177.71186440677997 L432.47641509433987,178.09322033898343 L432.735849056604,178.47457627118686 L432.99528301886824,178.85593220339032 L433.25471698113245,179.2372881355938 L433.5141509433966,179.61864406779722 L433.7735849056608,180.00000000000068 L434.033018867925,180.38135593220412 L434.2924528301892,180.76271186440758 L434.5518867924534,181.144067796611 L434.81132075471754,181.52542372881447 L435.07075471698175,181.9067796610179 L435.33018867924596,182.28813559322137 L435.5896226415101,182.66949152542483 L435.84905660377433,183.05084745762827 L436.10849056603854,183.43220338983173 L436.3679245283027,183.81355932203516 L436.6273584905669,184.19491525423862 L436.8867924528311,184.57627118644206 L437.14622641509527,184.95762711864552 L437.4056603773595,185.33898305084895 L437.6650943396237,185.72033898305241 L437.92452830188785,186.10169491525588 L438.18396226415206,186.4830508474593 L438.44339622641627,186.86440677966277 L438.7028301886804,187.2457627118662 L438.96226415094463,187.62711864406967 L439.22169811320884,188.0084745762731 L439.481132075473,188.38983050847656 L439.7405660377372,188.77118644068003 L440.0000000000014,189.15254237288346 L440.2594339622656,189.53389830508692 L440.5188679245298,189.91525423729036 L440.778301886794,190.29661016949382 L441.03773584905815,190.67796610169725 L441.29716981132236,191.0593220339007 L441.5566037735866,191.44067796610415 L441.8160377358507,191.8220338983076 L442.07547169811494,192.20338983051107 L442.33490566037915,192.5847457627145 L442.5943396226433,192.96610169491797 L442.8537735849075,193.3474576271214 L443.11320754717167,193.72881355932486 L443.3726415094359,194.1101694915283 L443.6320754717001,194.49152542373176 L443.89150943396425,194.8728813559352 L444.15094339622846,195.25423728813865 L444.41037735849267,195.63559322034212 L444.6698113207568,196.01694915254555 L444.92924528302103,196.398305084749 L445.18867924528524,196.77966101695245 L445.4481132075494,197.1610169491559 L445.7075471698136,197.54237288135934 L445.9669811320778,197.9237288135628 L446.226415094342,198.30508474576624 L446.4858490566062,198.6864406779697 L446.7452830188704,199.06779661017316 L447.00471698113455,199.4491525423766 L447.26415094339876,199.83050847458006 L447.523584905663,200.2118644067835 L447.7830188679271,200.59322033898695 L448.04245283019134,200.9745762711904 L448.30188679245555,201.35593220339385 L448.5613207547197,201.73728813559728 L448.8207547169839,202.11864406780074 L449.0801886792481,202.5000000000042 L449.3396226415123,202.88135593220764 L449.5990566037765,203.2627118644111 L449.8584905660407,203.64406779661454 L450.11792452830485,204.025423728818 L450.37735849056907,204.40677966102143 L450.6367924528333,204.7881355932249 L450.89622641509743,205.16949152542833 L451.15566037736164,205.5508474576318 L451.4150943396258,205.93220338983525 L451.67452830189,206.31355932203869 L451.9339622641542,206.69491525424215 L452.1933962264184,207.07627118644558 L452.4528301886826,207.45762711864904 L452.7122641509468,207.83898305085248 L452.97169811321095,208.22033898305594 L453.23113207547516,208.60169491525937 L453.49056603773937,208.98305084746283 L453.7500000000035,209.3644067796663 L454.00943396226774,209.74576271186973 L454.26886792453195,210.1271186440732 L454.5283018867961,210.50847457627665 L454.7877358490603,210.88983050848006 L455.0471698113245,211.27118644068352 L455.3066037735887,211.65254237288698 L455.5660377358529,212.03389830509045 L455.8254716981171,212.4152542372939 L456.08490566038125,212.7966101694973 L456.34433962264546,213.17796610170078 L456.6037735849097,213.55932203390424 L456.86320754717383,213.94067796610764 L457.12264150943804,214.32203389831116 L457.38207547170225,214.70338983051457 L457.6415094339664,215.08474576271803 L457.9009433962306,215.4661016949215 L458.1603773584948,215.8474576271249 L458.419811320759,216.22881355932842 L458.6792452830232,216.61016949153182 L458.93867924528735,216.99152542373528 L459.19811320755156,217.37288135593874 L459.45754716981577,217.75423728814215 L459.7169811320799,218.1355932203456 L459.97641509434413,218.51694915254907 L460.23584905660834,218.89830508475254 L460.4952830188725,219.279661016956 L460.7547169811367,219.6610169491594 L461.0141509434009,220.04237288136287 L461.2735849056651,220.42372881356633 L461.5330188679293,220.80508474576973 L461.7924528301935,221.18644067797325 L462.05188679245765,221.56779661017666 L462.31132075472186,221.94915254238012 L462.5707547169861,222.33050847458358 L462.8301886792502,222.711864406787 L463.08962264151444,223.0932203389905 L463.34905660377865,223.4745762711939 L463.6084905660428,223.85593220339737 L463.867924528307,224.23728813560083 L464.1273584905712,224.61864406780424 L464.3867924528354,225.0000000000077 L464.6462264150996,225.38135593221116 L464.9056603773638,225.76271186441463 L465.16509433962796,226.1440677966181 L465.42452830189217,226.5254237288215 L465.6839622641564,226.90677966102496 L465.94339622642053,227.28813559322842 L466.20283018868474,227.66949152543182 L466.46226415094895,228.05084745763534 L466.7216981132131,228.43220338983875 L466.9811320754773,228.8135593220422 L467.2405660377415,229.19491525424567 L467.5000000000057,229.57627118644908 L467.7594339622699,229.9576271186526 L468.01886792453405,230.338983050856 L468.27830188679826,230.72033898305946 L468.53773584906247,231.10169491526293 L468.7971698113266,231.48305084746633 L469.05660377359084,231.86440677966985 L469.31603773585505,232.24576271187325 L469.5754716981192,232.62711864407672 L469.8349056603834,233.00847457628018 L470.0943396226476,233.38983050848358 L470.3537735849118,233.77118644068705 L470.613207547176,234.1525423728905 L470.8726415094402,234.5338983050939 L471.13207547170435,234.91525423729743 L471.39150943396857,235.29661016950084 L471.6509433962328,235.6779661017043 L471.91037735849693,236.05932203390776 L472.16981132076114,236.44067796611117 L472.42924528302535,236.8220338983147 L472.6886792452895,237.2033898305181 L472.9481132075537,237.58474576272155 L473.20754716981793,237.96610169492502 L473.4669811320821,238.34745762712842 L473.7264150943463,238.72881355933194 L473.9858490566105,239.11016949153534 L474.24528301887466,239.4915254237388 L474.50471698113887,239.87288135594227 L474.7641509434031,240.25423728814567 L475.02358490566724,240.63559322034914 L475.28301886793145,241.0169491525526 L475.5424528301956,241.398305084756 L475.8018867924598,241.77966101695952 L476.061320754724,242.16101694916293 L476.3207547169882,242.5423728813664 L476.5801886792524,242.92372881356985 L476.8396226415166,243.30508474577326 L477.09905660378075,243.68644067797678 L477.35849056604496,244.06779661018018 L477.6179245283092,244.44915254238364 L477.87735849057333,244.8305084745871 L478.13679245283754,245.2118644067905 L478.39622641510175,245.59322033899403 L478.6556603773659,245.97457627119744 L478.9150943396301,246.3559322034009 L479.1745283018943,246.73728813560436 L479.4339622641585,247.11864406780776 L479.6933962264227,247.50000000001123 L479.9528301886869,247.8813559322147 L480.21226415095106,248.2627118644181 L480.47169811321527,248.6440677966216 L480.7311320754795,249.02542372882502 L480.99056603774363,249.40677966102848 L481.25000000000784,249.78813559323194 L481.50943396227206,250.16949152543535 L481.7688679245362,250.55084745763887 L482.0283018868004,250.93220338984227 L482.28773584906463,251.31355932204573 " fill="none" stroke="blue" stroke-width="2"></path><path d="M19.56603773584905,22.881355932203313 C19.56603773584905,25.090494931526486,17.775176735172227,26.881355932203313,15.566037735849052,26.881355932203313 C13.356898736525878,26.881355932203313,11.566037735849052,25.090494931526486,11.566037735849052,22.881355932203313 C11.566037735849052,20.67221693288014,13.356898736525878,18.881355932203313,15.566037735849052,18.881355932203313 C17.775176735172227,18.881355932203313,19.56603773584905,20.67221693288014,19.56603773584905,22.881355932203313 M15.566037735849052,22.881355932203313 " fill="blue" stroke="blue" stroke-width="2"></path><text x="15.566037735849052" y="43.88135593220331" fill="black" font-family="times" font-weight="normal" font-style="italic" font-size="16" text-anchor="middle"></text><path d="M227.11320754716976,251.69491525423726 C227.11320754716976,253.90405425356045,225.32234654649295,255.69491525423726,223.11320754716976,255.69491525423726 C220.90406854784658,255.69491525423726,219.11320754716976,253.90405425356045,219.11320754716976,251.69491525423726 C219.11320754716976,249.48577625491407,220.90406854784658,247.69491525423726,223.11320754716976,247.69491525423726 C225.32234654649295,247.69491525423726,227.11320754716976,249.48577625491407,227.11320754716976,251.69491525423726 M223.11320754716976,251.69491525423726 " fill="white" stroke="blue" stroke-width="2"></path><text x="223.11320754716976" y="272.69491525423723" fill="black" font-family="times" font-weight="normal" font-style="italic" font-size="16" text-anchor="middle"></text><path d="M227.11320754716976,213.55932203389827 C227.11320754716976,215.76846103322146,225.32234654649295,217.55932203389827,223.11320754716976,217.55932203389827 C220.90406854784658,217.55932203389827,219.11320754716976,215.76846103322146,219.11320754716976,213.55932203389827 C219.11320754716976,211.35018303457508,220.90406854784658,209.55932203389827,223.11320754716976,209.55932203389827 C225.32234654649295,209.55932203389827,227.11320754716976,211.35018303457508,227.11320754716976,213.55932203389827 M223.11320754716976,213.55932203389827 " fill="blue" stroke="blue" stroke-width="2"></path><text x="223.11320754716976" y="234.55932203389827" fill="black" font-family="times" font-weight="normal" font-style="italic" font-size="16" text-anchor="middle"></text><path d="M434.6603773584905,289.8305084745762 C434.6603773584905,292.0396474738994,432.86951635781367,293.8305084745762,430.6603773584905,293.8305084745762 C428.45123835916735,293.8305084745762,426.6603773584905,292.0396474738994,426.6603773584905,289.8305084745762 C426.6603773584905,287.62136947525306,428.45123835916735,285.8305084745762,430.6603773584905,285.8305084745762 C432.86951635781367,285.8305084745762,434.6603773584905,287.62136947525306,434.6603773584905,289.8305084745762 M430.6603773584905,289.8305084745762 " fill="blue" stroke="blue" stroke-width="2"></path><text x="430.6603773584905" y="310.8305084745762" fill="black" font-family="times" font-weight="normal" font-style="italic" font-size="16" text-anchor="middle"></text><path d="M434.6603773584905,175.42372881355928 C434.6603773584905,177.63286781288247,432.86951635781367,179.42372881355928,430.6603773584905,179.42372881355928 C428.45123835916735,179.42372881355928,426.6603773584905,177.63286781288247,426.6603773584905,175.42372881355928 C426.6603773584905,173.2145898142361,428.45123835916735,171.42372881355928,430.6603773584905,171.42372881355928 C432.86951635781367,171.42372881355928,434.6603773584905,173.2145898142361,434.6603773584905,175.42372881355928 M430.6603773584905,175.42372881355928 " fill="white" stroke="blue" stroke-width="2"></path><text x="430.6603773584905" y="196.42372881355928" fill="black" font-family="times" font-weight="normal" font-style="italic" font-size="16" text-anchor="middle"></text><path d="M486.54716981132066,251.69491525423726 C486.54716981132066,253.90405425356045,484.7563088106438,255.69491525423726,482.54716981132066,255.69491525423726 C480.3380308119975,255.69491525423726,478.54716981132066,253.90405425356045,478.54716981132066,251.69491525423726 C478.54716981132066,249.48577625491407,480.3380308119975,247.69491525423726,482.54716981132066,247.69491525423726 C484.7563088106438,247.69491525423726,486.54716981132066,249.48577625491407,486.54716981132066,251.69491525423726 M482.54716981132066,251.69491525423726 " fill="blue" stroke="blue" stroke-width="2"></path><text x="482.54716981132066" y="272.69491525423723" fill="black" font-family="times" font-weight="normal" font-style="italic" font-size="16" text-anchor="middle"></text><asciisvg>initPicture(-0.3,10.3,-0.6,5.3)
fontsize=25
axes(1, 1, "labels", 1)

fontstyle="italic"
fontfamily="times"

fontsize=16
strokewidth = "2"
stroke = "blue"
plot("1+(x-2)^2",0,2)
plot("1+2(x-2)^2",2,3)
plot("3-(x-3)",3,4)
plot("3-(x-5)^2",4,5)
plot("3-(x-5)^2/2",5,6)
plot("2.5",6,7)
plot("2.5-(x-7)",7,8)
plot("3-(x-8)",8,9)


dot([0,5],"closed","")
dot([4,2],"open","")
dot([4,2.5],"closed","")
dot([8,1.5],"closed","")
dot([8,3],"open","")
dot([9,2],"closed","")


//stroke = "red"
//plot(["5*t*cos(pi*t)", "5*t*sin(pi*t)"],0,1)

//stroke = "green"

//marker = "arrowdot"
//line([0,1], [pi/2,1])
//dot([pi,0], "open", cpi)

//text([-2.5,-2.5], "ASCIIsvg Examplee")
						</asciisvg></svg> 

