<svg id="target" height="450" width="550"><rect fill="white" height="450" width="550" y="0" x="0"></rect><rect fill="white" height="450" width="550" y="0" x="0"></rect><path stroke-width="0.5" stroke="#aaaaaa" fill="none" d="M275,0 L275,450 M0,414.7590361445783 L550,414.7590361445783 "></path><path stroke-width="1" stroke="black" fill="none" d="M0,414.7590361445783 L550,414.7590361445783 M275,0 L275,450 M691.6666666666667,410.7590361445783 L691.6666666666667,418.7590361445783 M271,-127.40963855421683 L279,-127.40963855421683 "></path><text text-anchor="middle" font-size="25" font-style="normal" font-weight="normal" font-family="sans" fill="black" y="442.7590361445783" x="691.6666666666667">5</text><text text-anchor="end" font-size="25" font-style="normal" font-weight="normal" font-family="sans" fill="black" y="-119.40963855421683" x="260">20</text><path stroke-width="2" stroke="blue" fill="none" d="M54.99999999999986,-12.408185060242488 L57.74999999999986,24.044502751778452 L60.49999999999983,58.44371674944438 L63.24999999999983,90.85002463298326 L65.99999999999983,121.32322253956471 L68.74999999999983,149.92233504329658 L71.4999999999998,176.70561515522752 L74.2499999999998,201.73054432334496 L76.9999999999998,225.05383243257688 L79.7499999999998,246.7314178047908 L82.4999999999998,266.81846719879394 L85.24999999999977,285.36937581033305 L87.99999999999977,302.4377672720952 L90.74999999999977,318.0764936537067 L93.49999999999977,332.3376354617338 L96.24999999999974,345.2725016396828 L98.99999999999974,356.931629567999 L101.74999999999974,367.3647850640684 L104.49999999999974,376.62096238221613 L107.24999999999974,384.7483842137072 L109.99999999999972,391.7945016867464 L112.74999999999972,397.80599436647844 L115.49999999999972,402.8287702549875 L118.24999999999972,406.9079657912978 L120.99999999999969,410.0879458513732 L123.74999999999969,412.41230374811727 L126.49999999999969,413.92386123137334 L129.2499999999997,414.66466848792464 L131.99999999999966,414.67600414149405 L134.74999999999966,413.9983752527441 L137.49999999999966,412.6715173192773 L140.24999999999966,410.73439427563585 L142.99999999999966,408.22519849330155 L145.74999999999963,405.1813507806962 L148.49999999999963,401.6395003831812 L151.24999999999963,397.6355249830578 L153.9999999999996,393.2045306995669 L156.7499999999996,388.38085208888924 L159.4999999999996,383.1980521441453 L162.2499999999996,377.6889222953954 L164.9999999999996,371.8854824096394 L167.7499999999996,365.8189807908172 L170.49999999999957,359.51989417980815 L173.24999999999957,353.01792775443175 L175.99999999999957,346.3420151294468 L178.74999999999955,339.52031835655225 L181.49999999999955,332.58022792438663 L184.24999999999955,325.54836275852824 L186.99999999999955,318.4505702214952 L189.74999999999955,311.3119261127452 L192.49999999999955,304.1567346686759 L195.24999999999955,297.0085285626247 L197.99999999999955,289.89006890486866 L200.74999999999955,282.82334524262467 L203.49999999999955,275.8295755600493 L206.24999999999955,268.92920627823906 L208.99999999999955,262.14191225523007 L211.74999999999955,255.48659678599802 L214.49999999999955,248.98139160245887 L217.24999999999955,242.64365687346788 L219.99999999999957,236.48998120482025 L222.74999999999957,230.5361816392509 L225.49999999999957,224.79730365643462 L228.24999999999957,219.2876211729858 L230.99999999999957,214.02063654245865 L233.74999999999957,209.00908055534717 L236.49999999999957,204.26491243908507 L239.2499999999996,199.79931985804586 L241.9999999999996,195.62271891354283 L244.7499999999996,191.7447541438289 L247.4999999999996,188.1742985240969 L250.2499999999996,184.91945346647938 L252.9999999999996,181.98754882004863 L255.7499999999996,179.38514287081665 L258.4999999999996,177.11802234173527 L261.2499999999996,175.19120239269608 L263.9999999999996,173.60892662053038 L266.7499999999996,172.37466705900923 L269.4999999999996,171.4911241788435 L272.2499999999996,170.9602268876838 L274.9999999999996,170.78313253012053 L277.7499999999996,170.96022688768372 L280.4999999999996,171.4911241788433 L283.2499999999996,172.37466705900894 L285.9999999999996,173.60892662052993 L288.7499999999996,175.19120239269554 L291.4999999999996,177.11802234173464 L294.2499999999996,179.38514287081597 L296.9999999999996,181.98754882004786 L299.7499999999996,184.91945346647853 L302.4999999999996,188.17429852409595 L305.2499999999996,191.7447541438278 L307.9999999999996,195.62271891354163 L310.7499999999996,199.7993198580446 L313.4999999999996,204.26491243908373 L316.2499999999996,209.00908055534575 L318.99999999999966,214.02063654245714 L321.74999999999966,219.28762117298425 L324.49999999999966,224.79730365643303 L327.24999999999966,230.53618163924926 L329.99999999999966,236.4899812048185 L332.74999999999966,242.64365687346606 L335.49999999999966,248.98139160245705 L338.24999999999966,255.48659678599614 L340.99999999999966,262.141912255228 L343.74999999999966,268.9292062782371 L346.49999999999966,275.8295755600474 L349.24999999999966,282.8233452426226 L351.99999999999966,289.8900689048666 L354.74999999999966,297.0085285626226 L357.49999999999966,304.15673466867383 L360.24999999999966,311.3119261127431 L362.99999999999966,318.4505702214931 L365.74999999999966,325.5483627585262 L368.49999999999966,332.58022792438464 L371.24999999999966,339.5203183565503 L373.99999999999966,346.3420151294449 L376.74999999999966,353.0179277544298 L379.49999999999966,359.51989417980633 L382.2499999999996,365.8189807908154 L384.9999999999996,371.8854824096377 L387.7499999999996,377.68892229539375 L390.4999999999996,383.19805214414373 L393.2499999999996,388.3808520888878 L395.9999999999996,393.20453069956557 L398.74999999999955,397.63552498305654 L401.49999999999955,401.6395003831801 L404.24999999999955,405.18135078069525 L406.99999999999955,408.2251984933007 L409.74999999999955,410.73439427563517 L412.49999999999955,412.6715173192768 L415.24999999999955,413.9983752527438 L417.99999999999955,414.67600414149393 L420.74999999999955,414.6646684879248 L423.49999999999955,413.9238612313738 L426.24999999999955,412.41230374811784 L428.99999999999955,410.08794585137395 L431.7499999999995,406.9079657912988 L434.4999999999995,402.82877025498885 L437.2499999999995,397.80599436648 L439.9999999999995,391.7945016867483 L442.7499999999995,384.74838421370936 L445.4999999999995,376.62096238221864 L448.2499999999995,367.3647850640712 L450.99999999999943,356.9316295680023 L453.74999999999943,345.2725016396862 L456.49999999999943,332.3376354617377 L459.24999999999943,318.076493653711 L461.99999999999943,302.4377672720998 L464.74999999999943,285.36937581033817 L467.49999999999943,266.81846719879945 L470.24999999999943,246.73141780479682 L472.99999999999943,225.05383243258314 L475.74999999999943,201.7305443233519 L478.49999999999943,176.70561515523485 L481.24999999999943,149.92233504330449 L483.99999999999943,121.32322253957318 L486.7499999999994,90.8500246329923 L489.4999999999994,58.44371674945364 L492.2499999999994,24.044502751788457 L494.9999999999994,-12.408185060231915 "></path><path stroke-dasharray="10,5" stroke-width="2" stroke="blue" fill="none" d="M0,306.3253012048193 L2.75,306.3253012048193 L5.499999999999943,306.3253012048193 L8.249999999999943,306.3253012048193 L10.999999999999943,306.3253012048193 L13.749999999999943,306.3253012048193 L16.499999999999943,306.3253012048193 L19.249999999999943,306.3253012048193 L21.999999999999943,306.3253012048193 L24.749999999999915,306.3253012048193 L27.499999999999915,306.3253012048193 L30.249999999999915,306.3253012048193 L32.999999999999915,306.3253012048193 L35.749999999999886,306.3253012048193 L38.499999999999886,306.3253012048193 L41.249999999999886,306.3253012048193 L43.999999999999886,306.3253012048193 L46.749999999999886,306.3253012048193 L49.49999999999986,306.3253012048193 L52.24999999999986,306.3253012048193 L54.99999999999986,306.3253012048193 L57.74999999999986,306.3253012048193 L60.49999999999983,306.3253012048193 L63.24999999999983,306.3253012048193 L65.99999999999983,306.3253012048193 L68.74999999999983,306.3253012048193 L71.4999999999998,306.3253012048193 L74.2499999999998,306.3253012048193 L76.9999999999998,306.3253012048193 L79.7499999999998,306.3253012048193 L82.4999999999998,306.3253012048193 L85.24999999999977,306.3253012048193 L87.99999999999977,306.3253012048193 L90.74999999999977,306.3253012048193 L93.49999999999977,306.3253012048193 L96.24999999999974,306.3253012048193 L98.99999999999974,306.3253012048193 L101.74999999999974,306.3253012048193 L104.49999999999974,306.3253012048193 L107.24999999999974,306.3253012048193 L109.99999999999972,306.3253012048193 L112.74999999999972,306.3253012048193 L115.49999999999972,306.3253012048193 L118.24999999999972,306.3253012048193 L120.99999999999969,306.3253012048193 L123.74999999999969,306.3253012048193 L126.49999999999969,306.3253012048193 L129.2499999999997,306.3253012048193 L131.99999999999966,306.3253012048193 L134.74999999999966,306.3253012048193 L137.49999999999966,306.3253012048193 L140.24999999999966,306.3253012048193 L142.99999999999966,306.3253012048193 L145.74999999999963,306.3253012048193 L148.49999999999963,306.3253012048193 L151.24999999999963,306.3253012048193 L153.9999999999996,306.3253012048193 L156.7499999999996,306.3253012048193 L159.4999999999996,306.3253012048193 L162.2499999999996,306.3253012048193 L164.9999999999996,306.3253012048193 L167.7499999999996,306.3253012048193 L170.49999999999957,306.3253012048193 L173.24999999999957,306.3253012048193 L175.99999999999957,306.3253012048193 L178.74999999999955,306.3253012048193 L181.49999999999955,306.3253012048193 L184.24999999999955,306.3253012048193 L186.99999999999955,306.3253012048193 L189.74999999999955,306.3253012048193 L192.49999999999955,306.3253012048193 L195.24999999999955,306.3253012048193 L197.99999999999955,306.3253012048193 L200.74999999999955,306.3253012048193 L203.49999999999955,306.3253012048193 L206.24999999999955,306.3253012048193 L208.99999999999955,306.3253012048193 L211.74999999999955,306.3253012048193 L214.49999999999955,306.3253012048193 L217.24999999999955,306.3253012048193 L219.99999999999957,306.3253012048193 L222.74999999999957,306.3253012048193 L225.49999999999957,306.3253012048193 L228.24999999999957,306.3253012048193 L230.99999999999957,306.3253012048193 L233.74999999999957,306.3253012048193 L236.49999999999957,306.3253012048193 L239.2499999999996,306.3253012048193 L241.9999999999996,306.3253012048193 L244.7499999999996,306.3253012048193 L247.4999999999996,306.3253012048193 L250.2499999999996,306.3253012048193 L252.9999999999996,306.3253012048193 L255.7499999999996,306.3253012048193 L258.4999999999996,306.3253012048193 L261.2499999999996,306.3253012048193 L263.9999999999996,306.3253012048193 L266.7499999999996,306.3253012048193 L269.4999999999996,306.3253012048193 L272.2499999999996,306.3253012048193 L274.9999999999996,306.3253012048193 L277.7499999999996,306.3253012048193 L280.4999999999996,306.3253012048193 L283.2499999999996,306.3253012048193 L285.9999999999996,306.3253012048193 L288.7499999999996,306.3253012048193 L291.4999999999996,306.3253012048193 L294.2499999999996,306.3253012048193 L296.9999999999996,306.3253012048193 L299.7499999999996,306.3253012048193 L302.4999999999996,306.3253012048193 L305.2499999999996,306.3253012048193 L307.9999999999996,306.3253012048193 L310.7499999999996,306.3253012048193 L313.4999999999996,306.3253012048193 L316.2499999999996,306.3253012048193 L318.99999999999966,306.3253012048193 L321.74999999999966,306.3253012048193 L324.49999999999966,306.3253012048193 L327.24999999999966,306.3253012048193 L329.99999999999966,306.3253012048193 L332.74999999999966,306.3253012048193 L335.49999999999966,306.3253012048193 L338.24999999999966,306.3253012048193 L340.99999999999966,306.3253012048193 L343.74999999999966,306.3253012048193 L346.49999999999966,306.3253012048193 L349.24999999999966,306.3253012048193 L351.99999999999966,306.3253012048193 L354.74999999999966,306.3253012048193 L357.49999999999966,306.3253012048193 L360.24999999999966,306.3253012048193 L362.99999999999966,306.3253012048193 L365.74999999999966,306.3253012048193 L368.49999999999966,306.3253012048193 L371.24999999999966,306.3253012048193 L373.99999999999966,306.3253012048193 L376.74999999999966,306.3253012048193 L379.49999999999966,306.3253012048193 L382.2499999999996,306.3253012048193 L384.9999999999996,306.3253012048193 L387.7499999999996,306.3253012048193 L390.4999999999996,306.3253012048193 L393.2499999999996,306.3253012048193 L395.9999999999996,306.3253012048193 L398.74999999999955,306.3253012048193 L401.49999999999955,306.3253012048193 L404.24999999999955,306.3253012048193 L406.99999999999955,306.3253012048193 L409.74999999999955,306.3253012048193 L412.49999999999955,306.3253012048193 L415.24999999999955,306.3253012048193 L417.99999999999955,306.3253012048193 L420.74999999999955,306.3253012048193 L423.49999999999955,306.3253012048193 L426.24999999999955,306.3253012048193 L428.99999999999955,306.3253012048193 L431.7499999999995,306.3253012048193 L434.4999999999995,306.3253012048193 L437.2499999999995,306.3253012048193 L439.9999999999995,306.3253012048193 L442.7499999999995,306.3253012048193 L445.4999999999995,306.3253012048193 L448.2499999999995,306.3253012048193 L450.99999999999943,306.3253012048193 L453.74999999999943,306.3253012048193 L456.49999999999943,306.3253012048193 L459.24999999999943,306.3253012048193 L461.99999999999943,306.3253012048193 L464.74999999999943,306.3253012048193 L467.49999999999943,306.3253012048193 L470.24999999999943,306.3253012048193 L472.99999999999943,306.3253012048193 L475.74999999999943,306.3253012048193 L478.49999999999943,306.3253012048193 L481.24999999999943,306.3253012048193 L483.99999999999943,306.3253012048193 L486.7499999999994,306.3253012048193 L489.4999999999994,306.3253012048193 L492.2499999999994,306.3253012048193 L494.9999999999994,306.3253012048193 L497.7499999999994,306.3253012048193 L500.4999999999993,306.3253012048193 L503.2499999999993,306.3253012048193 L505.9999999999993,306.3253012048193 L508.7499999999993,306.3253012048193 L511.4999999999993,306.3253012048193 L514.2499999999993,306.3253012048193 L516.9999999999993,306.3253012048193 L519.7499999999993,306.3253012048193 L522.4999999999993,306.3253012048193 L525.2499999999993,306.3253012048193 L527.9999999999993,306.3253012048193 L530.7499999999993,306.3253012048193 L533.4999999999993,306.3253012048193 L536.2499999999993,306.3253012048193 L538.9999999999993,306.3253012048193 L541.7499999999993,306.3253012048193 L544.4999999999993,306.3253012048193 L547.2499999999993,306.3253012048193 L549.9999999999993,306.3253012048193 "></path><path stroke-dasharray="10,5" stroke-width="2" stroke="blue" fill="none" d="M134.74999999999966,454.44578313253095 L137.49999999999966,447.2891566265069 L140.24999999999966,440.1325301204828 L142.99999999999966,432.97590361445873 L145.74999999999963,425.8192771084346 L148.49999999999963,418.66265060241057 L151.24999999999963,411.50602409638645 L153.9999999999996,404.3493975903624 L156.7499999999996,397.19277108433835 L159.4999999999996,390.03614457831424 L162.2499999999996,382.8795180722902 L164.9999999999996,375.72289156626607 L167.7499999999996,368.566265060242 L170.49999999999957,361.40963855421796 L173.24999999999957,354.25301204819385 L175.99999999999957,347.0963855421698 L178.74999999999955,339.9397590361457 L181.49999999999955,332.78313253012163 L184.24999999999955,325.6265060240976 L186.99999999999955,318.46987951807347 L189.74999999999955,311.3132530120494 L192.49999999999955,304.1566265060253 L195.24999999999955,297.0000000000012 L197.99999999999955,289.8433734939771 L200.74999999999955,282.68674698795303 L203.49999999999955,275.53012048192886 L206.24999999999955,268.3734939759048 L208.99999999999955,261.2168674698807 L211.74999999999955,254.0602409638566 L214.49999999999955,246.90361445783248 L217.24999999999955,239.74698795180836 L219.99999999999957,232.5903614457843 L222.74999999999957,225.43373493976014 L225.49999999999957,218.27710843373606 L228.24999999999957,211.12048192771198 L230.99999999999957,203.96385542168787 L233.74999999999957,196.80722891566376 L236.49999999999957,189.6506024096397 L239.2499999999996,182.49397590361556 L241.9999999999996,175.33734939759145 L244.7499999999996,168.18072289156737 L247.4999999999996,161.0240963855433 L250.2499999999996,153.86746987951915 L252.9999999999996,146.71084337349504 L255.7499999999996,139.55421686747093 L258.4999999999996,132.39759036144687 L261.2499999999996,125.24096385542282 L263.9999999999996,118.08433734939865 L266.7499999999996,110.92771084337454 L269.4999999999996,103.77108433735049 L272.2499999999996,96.61445783132638 L274.9999999999996,89.45783132530232 L277.7499999999996,82.30120481927821 L280.4999999999996,75.1445783132541 L283.2499999999996,67.98795180722999 L285.9999999999996,60.831325301205936 L288.7499999999996,53.674698795181826 L291.4999999999996,46.518072289157715 L294.2499999999996,39.361445783133604 L296.9999999999996,32.20481927710949 L299.7499999999996,25.04819277108544 L302.4999999999996,17.89156626506133 L305.2499999999996,10.734939759037218 L307.9999999999996,3.578313253013107 L310.7499999999996,-3.578313253011004 "></path><path stroke-dasharray="10,5" stroke-width="2" stroke="black" fill="black" d="M195.66666666666666,306.3253012048193 C195.66666666666666,308.53444020414247,193.87580566598984,310.3253012048193,191.66666666666666,310.3253012048193 C189.45752766734347,310.3253012048193,187.66666666666666,308.53444020414247,187.66666666666666,306.3253012048193 C187.66666666666666,304.11616220549615,189.45752766734347,302.3253012048193,191.66666666666666,302.3253012048193 C193.87580566598984,302.3253012048193,195.66666666666666,304.11616220549615,195.66666666666666,306.3253012048193 M191.66666666666666,306.3253012048193 "></path><text text-anchor="middle" font-size="32" font-style="italic" font-weight="normal" font-family="times" fill="black" y="327.3253012048193" x="191.66666666666666"></text><path stroke-dasharray="10,5" stroke-width="2" stroke="black" fill="black" d="M465.3389981249825,306.3253012048193 C465.3389981249825,308.53444020414247,463.54813712430564,310.3253012048193,461.3389981249825,310.3253012048193 C459.1298591256593,310.3253012048193,457.3389981249825,308.53444020414247,457.3389981249825,306.3253012048193 C457.3389981249825,304.11616220549615,459.1298591256593,302.3253012048193,461.3389981249825,302.3253012048193 C463.54813712430564,302.3253012048193,465.3389981249825,304.11616220549615,465.3389981249825,306.3253012048193 M461.3389981249825,306.3253012048193 "></path><text text-anchor="middle" font-size="32" font-style="italic" font-weight="normal" font-family="times" fill="black" y="327.3253012048193" x="461.3389981249825"></text><text text-anchor="middle" font-size="32" font-style="italic" font-weight="normal" font-family="times" fill="black" y="97.45783132530124" x="191.66666666666666">y=g(x)</text><text text-anchor="middle" font-size="32" font-style="italic" font-weight="normal" font-family="times" fill="black" y="333.30120481927713" x="200">P</text><text text-anchor="middle" font-size="32" font-style="italic" font-weight="normal" font-family="times" fill="black" y="333.30120481927713" x="470.83333333333337">Q</text><asciisvg>initPicture(-3.3,3.3,-1.3,15.3)
fontsize=25
axes(5, 20, "labels", 5,20)

fontstyle="italic"
fontfamily="times"

fontsize=16
strokewidth = "2"
stroke = "blue"
plot("x^4-6x^2+9")

strokestyle = "dashed"
plot("4")
plot("4+8(x+1)")

fontsize=32
stroke="black"
dot([-1,4],"closed","")
dot([sqrt(5),4],"closed","")

text([-1,12], "y=g(x)")
text([-.9,3.3], "P")
text([2.35,3.3], "Q")

//stroke = "red"
//plot(["5*t*cos(pi*t)", "5*t*sin(pi*t)"],0,1)

//stroke = "green"

//marker = "arrowdot"
//line([0,1], [pi/2,1])
//dot([pi,0], "open", cpi)

//text([-2.5,-2.5], "ASCIIsvg Examplee")
						</asciisvg></svg> 

