<svg width="550" height="450" id="target"><rect x="0" y="0" width="550" height="450" fill="white"></rect><rect x="0" y="0" width="550" height="450" fill="white"></rect><path d="M275,0 L275,450 M0,225 L550,225 " fill="none" stroke="#aaaaaa" stroke-width="0.5"></path><path d="M0,225 L550,225 M275,0 L275,450 M711.5079365079365,221 L711.5079365079365,229 M271,-456.81818181818187 L279,-456.81818181818187 " fill="none" stroke="black" stroke-width="1"></path><text x="711.5079365079365" y="253" fill="black" font-family="sans" font-weight="normal" font-style="normal" font-size="25" text-anchor="middle">10</text><text x="260" y="-448.81818181818187" fill="black" font-family="sans" font-weight="normal" font-style="normal" font-size="25" text-anchor="end">10</text><path d="M134.74999999999966,-8.116673890526016 L137.49999999999966,11.288232172183456 L140.2499999999997,29.402826820995188 L142.9999999999997,46.290894821513746 L145.7499999999997,62.014163264754416 L148.49999999999972,76.63233328563979 L151.24999999999972,90.20311178149802 L153.99999999999972,102.78224313055978 L156.74999999999972,114.42354091045581 L159.49999999999972,125.17891961671484 L162.24999999999972,135.09842638126025 L164.99999999999974,144.2302726909083 L167.74999999999977,152.6208661058651 L170.49999999999977,160.31484197822442 L173.24999999999977,167.3550951704649 L175.99999999999977,173.78281177394757 L178.74999999999977,179.63750082741348 L181.49999999999977,184.95702603548102 L184.2499999999998,189.7776374871433 L186.9999999999998,194.1340033742659 L189.7499999999998,198.05924171008405 L192.4999999999998,201.58495204770043 L195.2499999999998,204.74124719858213 L197.99999999999977,207.5567849510586 L200.74999999999977,210.05879978881904 L203.49999999999977,212.2731346094095 L206.24999999999977,214.22427244273086 L208.99999999999977,215.93536816953588 L211.74999999999977,217.42828023992695 L214.49999999999977,218.72360239185338 L217.24999999999977,219.84069536960897 L219.99999999999977,220.79771864232947 L222.74999999999977,221.61166212248997 L225.49999999999977,222.29837788440244 L228.24999999999977,222.87261188271322 L230.99999999999977,223.34803567090034 L233.74999999999977,223.7372781197712 L236.49999999999977,224.05195713595992 L239.24999999999977,224.30271138042474 L241.99999999999977,224.4992319869457 L244.74999999999974,224.6502942806219 L247.49999999999974,224.76378949636893 L250.24999999999974,224.84675649741672 L252.99999999999974,224.90541349380652 L255.74999999999974,224.9451897608887 L258.4999999999998,224.97075735782005 L261.2499999999998,224.98606284606132 L263.9999999999998,224.99435900787466 L266.7499999999998,224.99823656482113 L269.4999999999998,224.99965589625816 L272.2499999999998,224.99997875783697 L274.9999999999998,225 L277.7499999999998,224.99997928647855 L280.4999999999998,224.99967281279015 L283.2499999999998,224.99836502473585 L285.9999999999998,224.99490033689807 L288.7499999999998,224.98771485113775 L291.4999999999998,224.97486807509188 L294.2499999999998,224.95407464067114 L296.9999999999998,224.9227360225571 L299.7499999999998,224.87797225669993 L302.4999999999998,224.8166536588157 L305.2499999999997,224.73543254288398 L307.9999999999997,224.63077493964522 L310.7499999999997,224.49899231509812 L313.4999999999997,224.33627328899746 L316.2499999999997,224.13871535335113 L318.9999999999997,223.90235659091786 L321.7499999999997,223.6232073937046 L324.4999999999997,223.29728218146403 L327.2499999999997,222.920631120192 L329.9999999999997,222.48937184062504 L332.7499999999997,221.99972115673773 L335.4999999999997,221.44802678424037 L338.2499999999997,220.830799059076 L340.9999999999997,220.1447426559186 L343.7499999999997,219.3867883066698 L346.4999999999997,218.55412451895688 L349.2499999999997,217.64422929462995 L351.9999999999997,216.6549018482595 L354.7499999999997,215.5842943256339 L357.4999999999997,214.43094352225688 L360.2499999999997,213.19380260184494 L362.99999999999966,211.8722728148249 L365.7499999999997,210.46623521683114 L368.4999999999997,208.97608238720346 L371.2499999999997,207.40275014748414 L373.9999999999997,205.7477492799157 L376.7499999999997,204.01319724593827 L379.4999999999998,202.20184990468704 L382.2499999999998,200.3171332314896 L384.9999999999998,198.36317503636383 L387.7499999999998,196.34483668251477 L390.4999999999998,194.26774480483266 L393.2499999999998,192.13832302838995 L395.9999999999998,189.96382368693918 L398.7499999999998,187.75235954141004 L401.4999999999998,185.5129354984071 L404.2499999999998,183.25548032870734 L406.9999999999998,180.99087838575724 L409.74999999999983,178.73100132417073 L412.49999999999983,176.48873981822635 L415.24999999999983,174.27803528036475 L417.99999999999983,172.1139115796862 L420.7499999999999,170.01250676044816 L423.4999999999999,167.99110476056262 L426.2499999999999,166.06816713009346 L428.9999999999999,164.26336474975426 L431.7499999999999,162.59760954940543 L434.4999999999999,161.0930862265518 L437.2499999999999,159.7732839648403 L439.9999999999999,158.66302815255688 L442.7499999999999,157.78851210112464 L445.4999999999999,157.17732876360083 L448.2499999999999,156.85850245317448 L450.9999999999999,156.86252056166398 L453.7499999999999,157.22136527801428 L456.4999999999999,157.96854530679457 L459.2499999999999,159.13912758669562 L461.9999999999999,160.76976900902747 L464.7499999999999,162.89874813621657 L467.4999999999999,165.56599692030346 L470.2499999999999,168.8131324214403 L472.99999999999983,172.6834885263881 L475.74999999999983,177.22214766701438 L478.4999999999998,182.47597253879064 L481.2499999999998,188.4936378192897 L483.9999999999998,195.32566188668312 L486.7499999999998,203.02443853823905 L489.4999999999998,211.64426870881925 L492.2499999999998,221.24139218937682 L494.9999999999998,231.87401934545346 L497.7499999999997,243.60236283567718 L500.4999999999997,256.4886693302597 L503.24999999999966,270.5972512294938 L505.99999999999966,285.99451838225076 L508.74999999999966,302.7490098044782 L511.49999999999966,320.9314253976969 L514.2499999999997,340.61465766749905 L516.9999999999997,361.873823442045 L519.7499999999997,384.7862955905613 L522.4999999999995,409.43173474183766 L525.2499999999995,435.8921210027247 L527.9999999999995,464.2517856766317 " fill="none" stroke="blue" stroke-width="2"></path><text x="449.6031746031746" y="96.63636363636363" fill="black" font-family="times" font-weight="normal" font-style="italic" font-size="32" text-anchor="middle">y=P(x)</text><path d="M449.6031746031746,238.63636363636363 L449.6031746031746,238.5 L449.6031746031746,238.36363636363637 L449.6031746031746,238.22727272727275 L449.6031746031746,238.09090909090907 L449.6031746031746,237.95454545454544 L449.6031746031746,237.8181818181818 L449.6031746031746,237.6818181818182 L449.6031746031746,237.54545454545456 L449.6031746031746,237.40909090909093 L449.6031746031746,237.27272727272725 L449.6031746031746,237.13636363636363 L449.6031746031746,237 L449.6031746031746,236.86363636363637 L449.6031746031746,236.72727272727275 L449.6031746031746,236.59090909090907 L449.6031746031746,236.45454545454544 L449.6031746031746,236.3181818181818 L449.6031746031746,236.1818181818182 L449.6031746031746,236.04545454545456 L449.6031746031746,235.90909090909093 L449.6031746031746,235.77272727272725 L449.6031746031746,235.63636363636363 L449.6031746031746,235.5 L449.6031746031746,235.36363636363637 L449.6031746031746,235.22727272727275 L449.6031746031746,235.09090909090907 L449.6031746031746,234.95454545454544 L449.6031746031746,234.8181818181818 L449.6031746031746,234.6818181818182 L449.6031746031746,234.54545454545456 L449.6031746031746,234.40909090909088 L449.6031746031746,234.27272727272725 L449.6031746031746,234.13636363636363 L449.6031746031746,234 L449.6031746031746,233.86363636363637 L449.6031746031746,233.72727272727275 L449.6031746031746,233.59090909090907 L449.6031746031746,233.45454545454544 L449.6031746031746,233.3181818181818 L449.6031746031746,233.1818181818182 L449.6031746031746,233.04545454545456 L449.6031746031746,232.90909090909088 L449.6031746031746,232.77272727272725 L449.6031746031746,232.63636363636363 L449.6031746031746,232.5 L449.6031746031746,232.36363636363637 L449.6031746031746,232.22727272727275 L449.6031746031746,232.09090909090907 L449.6031746031746,231.95454545454544 L449.6031746031746,231.8181818181818 L449.6031746031746,231.6818181818182 L449.6031746031746,231.54545454545456 L449.6031746031746,231.40909090909088 L449.6031746031746,231.27272727272725 L449.6031746031746,231.13636363636363 L449.6031746031746,231 L449.6031746031746,230.86363636363637 L449.6031746031746,230.72727272727275 L449.6031746031746,230.59090909090907 L449.6031746031746,230.45454545454544 L449.6031746031746,230.3181818181818 L449.6031746031746,230.1818181818182 L449.6031746031746,230.04545454545456 L449.6031746031746,229.90909090909088 L449.6031746031746,229.77272727272725 L449.6031746031746,229.63636363636363 L449.6031746031746,229.5 L449.6031746031746,229.36363636363637 L449.6031746031746,229.22727272727275 L449.6031746031746,229.09090909090907 L449.6031746031746,228.95454545454544 L449.6031746031746,228.8181818181818 L449.6031746031746,228.6818181818182 L449.6031746031746,228.54545454545456 L449.6031746031746,228.40909090909088 L449.6031746031746,228.27272727272725 L449.6031746031746,228.13636363636363 L449.6031746031746,228 L449.6031746031746,227.86363636363637 L449.6031746031746,227.7272727272727 L449.6031746031746,227.59090909090907 L449.6031746031746,227.45454545454544 L449.6031746031746,227.3181818181818 L449.6031746031746,227.1818181818182 L449.6031746031746,227.04545454545456 L449.6031746031746,226.90909090909088 L449.6031746031746,226.77272727272725 L449.6031746031746,226.63636363636363 L449.6031746031746,226.5 L449.6031746031746,226.36363636363637 L449.6031746031746,226.2272727272727 L449.6031746031746,226.09090909090907 L449.6031746031746,225.95454545454544 L449.6031746031746,225.8181818181818 L449.6031746031746,225.6818181818182 L449.6031746031746,225.54545454545456 L449.6031746031746,225.40909090909088 L449.6031746031746,225.27272727272725 L449.6031746031746,225.13636363636363 L449.6031746031746,225 L449.6031746031746,224.86363636363637 L449.6031746031746,224.7272727272727 L449.6031746031746,224.59090909090907 L449.6031746031746,224.45454545454544 L449.6031746031746,224.3181818181818 L449.6031746031746,224.1818181818182 L449.6031746031746,224.04545454545456 L449.6031746031746,223.90909090909088 L449.6031746031746,223.77272727272725 L449.6031746031746,223.63636363636363 L449.6031746031746,223.5 L449.6031746031746,223.36363636363637 L449.6031746031746,223.2272727272727 L449.6031746031746,223.09090909090907 L449.6031746031746,222.95454545454544 L449.6031746031746,222.8181818181818 L449.6031746031746,222.6818181818182 L449.6031746031746,222.54545454545456 L449.6031746031746,222.40909090909088 L449.6031746031746,222.27272727272725 L449.6031746031746,222.13636363636363 L449.6031746031746,222 L449.6031746031746,221.86363636363637 L449.6031746031746,221.7272727272727 L449.6031746031746,221.59090909090907 L449.6031746031746,221.45454545454544 L449.6031746031746,221.3181818181818 L449.6031746031746,221.1818181818182 L449.6031746031746,221.0454545454545 L449.6031746031746,220.90909090909088 L449.6031746031746,220.77272727272725 L449.6031746031746,220.63636363636363 L449.6031746031746,220.5 L449.6031746031746,220.36363636363637 L449.6031746031746,220.2272727272727 L449.6031746031746,220.09090909090907 L449.6031746031746,219.95454545454544 L449.6031746031746,219.8181818181818 L449.6031746031746,219.6818181818182 L449.6031746031746,219.5454545454545 L449.6031746031746,219.40909090909088 L449.6031746031746,219.27272727272725 L449.6031746031746,219.13636363636363 L449.6031746031746,219 L449.6031746031746,218.86363636363637 L449.6031746031746,218.7272727272727 L449.6031746031746,218.59090909090907 L449.6031746031746,218.45454545454544 L449.6031746031746,218.3181818181818 L449.6031746031746,218.1818181818182 L449.6031746031746,218.0454545454545 L449.6031746031746,217.90909090909088 L449.6031746031746,217.77272727272725 L449.6031746031746,217.63636363636363 L449.6031746031746,217.5 L449.6031746031746,217.36363636363637 L449.6031746031746,217.2272727272727 L449.6031746031746,217.09090909090907 L449.6031746031746,216.95454545454544 L449.6031746031746,216.8181818181818 L449.6031746031746,216.6818181818182 L449.6031746031746,216.5454545454545 L449.6031746031746,216.40909090909088 L449.6031746031746,216.27272727272725 L449.6031746031746,216.13636363636363 L449.6031746031746,216 L449.6031746031746,215.86363636363637 L449.6031746031746,215.7272727272727 L449.6031746031746,215.59090909090907 L449.6031746031746,215.45454545454544 L449.6031746031746,215.3181818181818 L449.6031746031746,215.1818181818182 L449.6031746031746,215.0454545454545 L449.6031746031746,214.90909090909088 L449.6031746031746,214.77272727272725 L449.6031746031746,214.63636363636363 L449.6031746031746,214.5 L449.6031746031746,214.36363636363632 L449.6031746031746,214.2272727272727 L449.6031746031746,214.09090909090907 L449.6031746031746,213.95454545454544 L449.6031746031746,213.8181818181818 L449.6031746031746,213.6818181818182 L449.6031746031746,213.5454545454545 L449.6031746031746,213.40909090909088 L449.6031746031746,213.27272727272725 L449.6031746031746,213.13636363636363 L449.6031746031746,213 L449.6031746031746,212.86363636363632 L449.6031746031746,212.7272727272727 L449.6031746031746,212.59090909090907 L449.6031746031746,212.45454545454544 L449.6031746031746,212.3181818181818 L449.6031746031746,212.1818181818182 L449.6031746031746,212.0454545454545 L449.6031746031746,211.90909090909088 L449.6031746031746,211.77272727272725 L449.6031746031746,211.63636363636363 L449.6031746031746,211.5 " fill="none" stroke="red" stroke-width="2"></path><path d="M493.25396825396825,238.63636363636363 L493.25396825396825,238.5 L493.25396825396825,238.36363636363637 L493.25396825396825,238.22727272727275 L493.25396825396825,238.09090909090907 L493.25396825396825,237.95454545454544 L493.25396825396825,237.8181818181818 L493.25396825396825,237.6818181818182 L493.25396825396825,237.54545454545456 L493.25396825396825,237.40909090909093 L493.25396825396825,237.27272727272725 L493.25396825396825,237.13636363636363 L493.25396825396825,237 L493.25396825396825,236.86363636363637 L493.25396825396825,236.72727272727275 L493.25396825396825,236.59090909090907 L493.25396825396825,236.45454545454544 L493.25396825396825,236.3181818181818 L493.25396825396825,236.1818181818182 L493.25396825396825,236.04545454545456 L493.25396825396825,235.90909090909093 L493.25396825396825,235.77272727272725 L493.25396825396825,235.63636363636363 L493.25396825396825,235.5 L493.25396825396825,235.36363636363637 L493.25396825396825,235.22727272727275 L493.25396825396825,235.09090909090907 L493.25396825396825,234.95454545454544 L493.25396825396825,234.8181818181818 L493.25396825396825,234.6818181818182 L493.25396825396825,234.54545454545456 L493.25396825396825,234.40909090909088 L493.25396825396825,234.27272727272725 L493.25396825396825,234.13636363636363 L493.25396825396825,234 L493.25396825396825,233.86363636363637 L493.25396825396825,233.72727272727275 L493.25396825396825,233.59090909090907 L493.25396825396825,233.45454545454544 L493.25396825396825,233.3181818181818 L493.25396825396825,233.1818181818182 L493.25396825396825,233.04545454545456 L493.25396825396825,232.90909090909088 L493.25396825396825,232.77272727272725 L493.25396825396825,232.63636363636363 L493.25396825396825,232.5 L493.25396825396825,232.36363636363637 L493.25396825396825,232.22727272727275 L493.25396825396825,232.09090909090907 L493.25396825396825,231.95454545454544 L493.25396825396825,231.8181818181818 L493.25396825396825,231.6818181818182 L493.25396825396825,231.54545454545456 L493.25396825396825,231.40909090909088 L493.25396825396825,231.27272727272725 L493.25396825396825,231.13636363636363 L493.25396825396825,231 L493.25396825396825,230.86363636363637 L493.25396825396825,230.72727272727275 L493.25396825396825,230.59090909090907 L493.25396825396825,230.45454545454544 L493.25396825396825,230.3181818181818 L493.25396825396825,230.1818181818182 L493.25396825396825,230.04545454545456 L493.25396825396825,229.90909090909088 L493.25396825396825,229.77272727272725 L493.25396825396825,229.63636363636363 L493.25396825396825,229.5 L493.25396825396825,229.36363636363637 L493.25396825396825,229.22727272727275 L493.25396825396825,229.09090909090907 L493.25396825396825,228.95454545454544 L493.25396825396825,228.8181818181818 L493.25396825396825,228.6818181818182 L493.25396825396825,228.54545454545456 L493.25396825396825,228.40909090909088 L493.25396825396825,228.27272727272725 L493.25396825396825,228.13636363636363 L493.25396825396825,228 L493.25396825396825,227.86363636363637 L493.25396825396825,227.7272727272727 L493.25396825396825,227.59090909090907 L493.25396825396825,227.45454545454544 L493.25396825396825,227.3181818181818 L493.25396825396825,227.1818181818182 L493.25396825396825,227.04545454545456 L493.25396825396825,226.90909090909088 L493.25396825396825,226.77272727272725 L493.25396825396825,226.63636363636363 L493.25396825396825,226.5 L493.25396825396825,226.36363636363637 L493.25396825396825,226.2272727272727 L493.25396825396825,226.09090909090907 L493.25396825396825,225.95454545454544 L493.25396825396825,225.8181818181818 L493.25396825396825,225.6818181818182 L493.25396825396825,225.54545454545456 L493.25396825396825,225.40909090909088 L493.25396825396825,225.27272727272725 L493.25396825396825,225.13636363636363 L493.25396825396825,225 L493.25396825396825,224.86363636363637 L493.25396825396825,224.7272727272727 L493.25396825396825,224.59090909090907 L493.25396825396825,224.45454545454544 L493.25396825396825,224.3181818181818 L493.25396825396825,224.1818181818182 L493.25396825396825,224.04545454545456 L493.25396825396825,223.90909090909088 L493.25396825396825,223.77272727272725 L493.25396825396825,223.63636363636363 L493.25396825396825,223.5 L493.25396825396825,223.36363636363637 L493.25396825396825,223.2272727272727 L493.25396825396825,223.09090909090907 L493.25396825396825,222.95454545454544 L493.25396825396825,222.8181818181818 L493.25396825396825,222.6818181818182 L493.25396825396825,222.54545454545456 L493.25396825396825,222.40909090909088 L493.25396825396825,222.27272727272725 L493.25396825396825,222.13636363636363 L493.25396825396825,222 L493.25396825396825,221.86363636363637 L493.25396825396825,221.7272727272727 L493.25396825396825,221.59090909090907 L493.25396825396825,221.45454545454544 L493.25396825396825,221.3181818181818 L493.25396825396825,221.1818181818182 L493.25396825396825,221.0454545454545 L493.25396825396825,220.90909090909088 L493.25396825396825,220.77272727272725 L493.25396825396825,220.63636363636363 L493.25396825396825,220.5 L493.25396825396825,220.36363636363637 L493.25396825396825,220.2272727272727 L493.25396825396825,220.09090909090907 L493.25396825396825,219.95454545454544 L493.25396825396825,219.8181818181818 L493.25396825396825,219.6818181818182 L493.25396825396825,219.5454545454545 L493.25396825396825,219.40909090909088 L493.25396825396825,219.27272727272725 L493.25396825396825,219.13636363636363 L493.25396825396825,219 L493.25396825396825,218.86363636363637 L493.25396825396825,218.7272727272727 L493.25396825396825,218.59090909090907 L493.25396825396825,218.45454545454544 L493.25396825396825,218.3181818181818 L493.25396825396825,218.1818181818182 L493.25396825396825,218.0454545454545 L493.25396825396825,217.90909090909088 L493.25396825396825,217.77272727272725 L493.25396825396825,217.63636363636363 L493.25396825396825,217.5 L493.25396825396825,217.36363636363637 L493.25396825396825,217.2272727272727 L493.25396825396825,217.09090909090907 L493.25396825396825,216.95454545454544 L493.25396825396825,216.8181818181818 L493.25396825396825,216.6818181818182 L493.25396825396825,216.5454545454545 L493.25396825396825,216.40909090909088 L493.25396825396825,216.27272727272725 L493.25396825396825,216.13636363636363 L493.25396825396825,216 L493.25396825396825,215.86363636363637 L493.25396825396825,215.7272727272727 L493.25396825396825,215.59090909090907 L493.25396825396825,215.45454545454544 L493.25396825396825,215.3181818181818 L493.25396825396825,215.1818181818182 L493.25396825396825,215.0454545454545 L493.25396825396825,214.90909090909088 L493.25396825396825,214.77272727272725 L493.25396825396825,214.63636363636363 L493.25396825396825,214.5 L493.25396825396825,214.36363636363632 L493.25396825396825,214.2272727272727 L493.25396825396825,214.09090909090907 L493.25396825396825,213.95454545454544 L493.25396825396825,213.8181818181818 L493.25396825396825,213.6818181818182 L493.25396825396825,213.5454545454545 L493.25396825396825,213.40909090909088 L493.25396825396825,213.27272727272725 L493.25396825396825,213.13636363636363 L493.25396825396825,213 L493.25396825396825,212.86363636363632 L493.25396825396825,212.7272727272727 L493.25396825396825,212.59090909090907 L493.25396825396825,212.45454545454544 L493.25396825396825,212.3181818181818 L493.25396825396825,212.1818181818182 L493.25396825396825,212.0454545454545 L493.25396825396825,211.90909090909088 L493.25396825396825,211.77272727272725 L493.25396825396825,211.63636363636363 L493.25396825396825,211.5 " fill="none" stroke="red" stroke-width="2"></path><path d="M257.53968253968253,156.8181818181818 L257.7142857142857,156.8181818181818 L257.8888888888889,156.8181818181818 L258.06349206349205,156.8181818181818 L258.23809523809524,156.8181818181818 L258.41269841269843,156.8181818181818 L258.58730158730157,156.8181818181818 L258.76190476190476,156.8181818181818 L258.93650793650795,156.8181818181818 L259.1111111111111,156.8181818181818 L259.2857142857143,156.8181818181818 L259.46031746031747,156.8181818181818 L259.63492063492066,156.8181818181818 L259.8095238095238,156.8181818181818 L259.984126984127,156.8181818181818 L260.1587301587302,156.8181818181818 L260.3333333333333,156.8181818181818 L260.5079365079365,156.8181818181818 L260.6825396825397,156.8181818181818 L260.85714285714283,156.8181818181818 L261.031746031746,156.8181818181818 L261.2063492063492,156.8181818181818 L261.3809523809524,156.8181818181818 L261.55555555555554,156.8181818181818 L261.73015873015873,156.8181818181818 L261.9047619047619,156.8181818181818 L262.07936507936506,156.8181818181818 L262.25396825396825,156.8181818181818 L262.42857142857144,156.8181818181818 L262.6031746031746,156.8181818181818 L262.77777777777777,156.8181818181818 L262.95238095238096,156.8181818181818 L263.12698412698415,156.8181818181818 L263.3015873015873,156.8181818181818 L263.4761904761905,156.8181818181818 L263.6507936507937,156.8181818181818 L263.8253968253968,156.8181818181818 L264,156.8181818181818 L264.1746031746032,156.8181818181818 L264.3492063492063,156.8181818181818 L264.5238095238095,156.8181818181818 L264.6984126984127,156.8181818181818 L264.8730158730159,156.8181818181818 L265.04761904761904,156.8181818181818 L265.22222222222223,156.8181818181818 L265.3968253968254,156.8181818181818 L265.57142857142856,156.8181818181818 L265.74603174603175,156.8181818181818 L265.92063492063494,156.8181818181818 L266.0952380952381,156.8181818181818 L266.26984126984127,156.8181818181818 L266.44444444444446,156.8181818181818 L266.61904761904765,156.8181818181818 L266.7936507936508,156.8181818181818 L266.968253968254,156.8181818181818 L267.14285714285717,156.8181818181818 L267.3174603174603,156.8181818181818 L267.4920634920635,156.8181818181818 L267.6666666666667,156.8181818181818 L267.8412698412699,156.8181818181818 L268.015873015873,156.8181818181818 L268.1904761904762,156.8181818181818 L268.3650793650794,156.8181818181818 L268.53968253968253,156.8181818181818 L268.7142857142857,156.8181818181818 L268.8888888888889,156.8181818181818 L269.06349206349205,156.8181818181818 L269.23809523809524,156.8181818181818 L269.41269841269843,156.8181818181818 L269.5873015873016,156.8181818181818 L269.76190476190476,156.8181818181818 L269.93650793650795,156.8181818181818 L270.11111111111114,156.8181818181818 L270.2857142857143,156.8181818181818 L270.46031746031747,156.8181818181818 L270.63492063492066,156.8181818181818 L270.8095238095238,156.8181818181818 L270.984126984127,156.8181818181818 L271.1587301587302,156.8181818181818 L271.33333333333337,156.8181818181818 L271.5079365079365,156.8181818181818 L271.6825396825397,156.8181818181818 L271.8571428571429,156.8181818181818 L272.031746031746,156.8181818181818 L272.2063492063492,156.8181818181818 L272.3809523809524,156.8181818181818 L272.55555555555554,156.8181818181818 L272.73015873015873,156.8181818181818 L272.9047619047619,156.8181818181818 L273.0793650793651,156.8181818181818 L273.25396825396825,156.8181818181818 L273.42857142857144,156.8181818181818 L273.60317460317464,156.8181818181818 L273.77777777777777,156.8181818181818 L273.95238095238096,156.8181818181818 L274.12698412698415,156.8181818181818 L274.3015873015873,156.8181818181818 L274.4761904761905,156.8181818181818 L274.6507936507937,156.8181818181818 L274.82539682539687,156.8181818181818 L275,156.8181818181818 L275.1746031746032,156.8181818181818 L275.3492063492064,156.8181818181818 L275.5238095238095,156.8181818181818 L275.6984126984127,156.8181818181818 L275.8730158730159,156.8181818181818 L276.04761904761904,156.8181818181818 L276.22222222222223,156.8181818181818 L276.3968253968254,156.8181818181818 L276.5714285714286,156.8181818181818 L276.74603174603175,156.8181818181818 L276.92063492063494,156.8181818181818 L277.09523809523813,156.8181818181818 L277.26984126984127,156.8181818181818 L277.44444444444446,156.8181818181818 L277.61904761904765,156.8181818181818 L277.7936507936508,156.8181818181818 L277.968253968254,156.8181818181818 L278.14285714285717,156.8181818181818 L278.31746031746036,156.8181818181818 L278.4920634920635,156.8181818181818 L278.6666666666667,156.8181818181818 L278.8412698412699,156.8181818181818 L279.015873015873,156.8181818181818 L279.1904761904762,156.8181818181818 L279.3650793650794,156.8181818181818 L279.53968253968253,156.8181818181818 L279.7142857142857,156.8181818181818 L279.8888888888889,156.8181818181818 L280.0634920634921,156.8181818181818 L280.23809523809524,156.8181818181818 L280.41269841269843,156.8181818181818 L280.5873015873016,156.8181818181818 L280.76190476190476,156.8181818181818 L280.93650793650795,156.8181818181818 L281.11111111111114,156.8181818181818 L281.2857142857143,156.8181818181818 L281.46031746031747,156.8181818181818 L281.63492063492066,156.8181818181818 L281.80952380952385,156.8181818181818 L281.984126984127,156.8181818181818 L282.1587301587302,156.8181818181818 L282.33333333333337,156.8181818181818 L282.5079365079365,156.8181818181818 L282.6825396825397,156.8181818181818 L282.8571428571429,156.8181818181818 L283.031746031746,156.8181818181818 L283.2063492063492,156.8181818181818 L283.3809523809524,156.8181818181818 L283.5555555555556,156.8181818181818 L283.73015873015873,156.8181818181818 L283.9047619047619,156.8181818181818 L284.0793650793651,156.8181818181818 L284.25396825396825,156.8181818181818 L284.42857142857144,156.8181818181818 L284.60317460317464,156.8181818181818 L284.77777777777777,156.8181818181818 L284.95238095238096,156.8181818181818 L285.12698412698415,156.8181818181818 L285.30158730158735,156.8181818181818 L285.4761904761905,156.8181818181818 L285.6507936507937,156.8181818181818 L285.82539682539687,156.8181818181818 L286,156.8181818181818 L286.1746031746032,156.8181818181818 L286.3492063492064,156.8181818181818 L286.5238095238095,156.8181818181818 L286.6984126984127,156.8181818181818 L286.8730158730159,156.8181818181818 L287.0476190476191,156.8181818181818 L287.22222222222223,156.8181818181818 L287.3968253968254,156.8181818181818 L287.5714285714286,156.8181818181818 L287.74603174603175,156.8181818181818 L287.92063492063494,156.8181818181818 L288.09523809523813,156.8181818181818 L288.2698412698413,156.8181818181818 L288.44444444444446,156.8181818181818 L288.61904761904765,156.8181818181818 L288.79365079365084,156.8181818181818 L288.968253968254,156.8181818181818 L289.14285714285717,156.8181818181818 L289.31746031746036,156.8181818181818 L289.4920634920635,156.8181818181818 L289.6666666666667,156.8181818181818 L289.8412698412699,156.8181818181818 L290.01587301587307,156.8181818181818 L290.1904761904762,156.8181818181818 L290.3650793650794,156.8181818181818 L290.5396825396826,156.8181818181818 L290.7142857142857,156.8181818181818 L290.8888888888889,156.8181818181818 L291.0634920634921,156.8181818181818 L291.23809523809524,156.8181818181818 L291.41269841269843,156.8181818181818 L291.5873015873016,156.8181818181818 L291.7619047619048,156.8181818181818 L291.93650793650795,156.8181818181818 L292.11111111111114,156.8181818181818 L292.28571428571433,156.8181818181818 " fill="none" stroke="red" stroke-width="2"></path><text x="449.6031746031746" y="260.27272727272725" fill="black" font-family="times" font-weight="normal" font-style="italic" font-size="32" text-anchor="middle">a</text><text x="493.25396825396825" y="260.27272727272725" fill="black" font-family="times" font-weight="normal" font-style="italic" font-size="32" text-anchor="middle">b</text><text x="248.8095238095238" y="164.8181818181818" fill="black" font-family="times" font-weight="normal" font-style="italic" font-size="32" text-anchor="middle">c</text><asciisvg>initPicture(-6.3,6.3,-3.3,3.3)
fontsize=25
axes(10, 10, "labels", 10)

fontstyle="italic"
fontfamily="times"

fontsize=16
strokewidth = "2"
stroke = "blue"
plot("x^4*(5-x)/4^4")

fontsize=32
text([4,2],"y=P(x)")

stroke="red"
plot(["4","t"],-0.2,0.2)
plot(["5","t"],-0.2,0.2)
plot(["t","1"],-0.4,0.4)

text([4,-0.4],"a")
text([5,-0.4],"b")
text([-0.6,1],"c")

//stroke = "red"
//plot(["5*t*cos(pi*t)", "5*t*sin(pi*t)"],0,1)

//stroke = "green"

//marker = "arrowdot"
//line([0,1], [pi/2,1])
//dot([pi,0], "open", cpi)

//text([-2.5,-2.5], "ASCIIsvg Examplee")
						</asciisvg></svg> 

