<svg width="550" height="450" id="target"><rect x="0" y="0" width="550" height="450" fill="white"></rect><rect x="0" y="0" width="550" height="450" fill="white"></rect><path d="M25,0 L25,450 M108.33333333333334,0 L108.33333333333334,450 M191.66666666666669,0 L191.66666666666669,450 M275,0 L275,450 M358.33333333333337,0 L358.33333333333337,450 M441.66666666666674,0 L441.66666666666674,450 M525.0000000000001,0 L525.0000000000001,450 M0,420.6521739130435 L550,420.6521739130435 M0,322.82608695652175 L550,322.82608695652175 M0,225 L550,225 M0,127.17391304347825 L550,127.17391304347825 M0,29.347826086956502 L550,29.347826086956502 " fill="none" stroke="#aaaaaa" stroke-width="0.5"></path><path d="M0,225 L550,225 M108.33333333333334,0 L108.33333333333334,450 M25,221 L25,229 M191.66666666666669,221 L191.66666666666669,229 M275,221 L275,229 M358.33333333333337,221 L358.33333333333337,229 M441.66666666666674,221 L441.66666666666674,229 M525.0000000000001,221 L525.0000000000001,229 M104.33333333333334,420.6521739130435 L112.33333333333334,420.6521739130435 M104.33333333333334,322.82608695652175 L112.33333333333334,322.82608695652175 M104.33333333333334,127.17391304347825 L112.33333333333334,127.17391304347825 M104.33333333333334,29.347826086956502 L112.33333333333334,29.347826086956502 " fill="none" stroke="black" stroke-width="1"></path><text x="25" y="253" fill="black" font-family="sans" font-weight="normal" font-style="normal" font-size="25" text-anchor="middle">-1</text><text x="191.66666666666669" y="253" fill="black" font-family="sans" font-weight="normal" font-style="normal" font-size="25" text-anchor="middle">1</text><text x="275" y="253" fill="black" font-family="sans" font-weight="normal" font-style="normal" font-size="25" text-anchor="middle">2</text><text x="358.33333333333337" y="253" fill="black" font-family="sans" font-weight="normal" font-style="normal" font-size="25" text-anchor="middle">3</text><text x="441.66666666666674" y="253" fill="black" font-family="sans" font-weight="normal" font-style="normal" font-size="25" text-anchor="middle">4</text><text x="525.0000000000001" y="253" fill="black" font-family="sans" font-weight="normal" font-style="normal" font-size="25" text-anchor="middle">5</text><text x="93.33333333333334" y="428.6521739130435" fill="black" font-family="sans" font-weight="normal" font-style="normal" font-size="25" text-anchor="end">-2</text><text x="93.33333333333334" y="330.82608695652175" fill="black" font-family="sans" font-weight="normal" font-style="normal" font-size="25" text-anchor="end">-1</text><text x="93.33333333333334" y="135.17391304347825" fill="black" font-family="sans" font-weight="normal" font-style="normal" font-size="25" text-anchor="end">1</text><text x="93.33333333333334" y="37.3478260869565" fill="black" font-family="sans" font-weight="normal" font-style="normal" font-size="25" text-anchor="end">2</text><path d="M-0.8333333333337123,353.15217391304395 L0.4166666666662877,351.6847826086961 L1.6666666666662735,350.2173913043483 L2.9166666666662593,348.75000000000045 L4.166666666666259,347.2826086956527 L5.416666666666245,345.8152173913048 L6.666666666666245,344.34782608695707 L7.916666666666231,342.8804347826092 L9.16666666666623,341.41304347826144 L10.416666666666217,339.9456521739136 L11.666666666666202,338.4782608695657 L12.916666666666202,337.01086956521794 L14.166666666666188,335.5434782608702 L15.416666666666188,334.0760869565223 L16.666666666666174,332.60869565217445 L17.916666666666174,331.1413043478267 L19.16666666666616,329.6739130434788 L20.41666666666616,328.20652173913106 L21.666666666666146,326.7391304347832 L22.91666666666613,325.27173913043544 L24.16666666666613,323.80434782608756 L25.41666666666613,322.3369565217398 L26.66666666666613,320.86956521739194 L27.91666666666613,319.40217391304407 L29.16666666666613,317.9347826086963 L30.41666666666613,316.46739130434844 L31.66666666666613,315.0000000000007 L32.91666666666613,313.5326086956528 L34.166666666666146,312.06521739130494 L35.416666666666146,310.5978260869572 L36.666666666666146,309.1304347826093 L37.916666666666146,307.66304347826144 L39.166666666666146,306.1956521739137 L40.416666666666146,304.7282608695658 L41.666666666666146,303.26086956521806 L42.916666666666146,301.7934782608702 L44.166666666666146,300.3260869565223 L45.41666666666615,298.85869565217456 L46.66666666666615,297.3913043478267 L47.91666666666615,295.92391304347893 L49.16666666666615,294.45652173913106 L50.41666666666615,292.9891304347832 L51.66666666666616,291.52173913043544 L52.91666666666616,290.05434782608756 L54.16666666666616,288.5869565217397 L55.41666666666616,287.11956521739194 L56.66666666666616,285.65217391304407 L57.91666666666616,284.18478260869625 L59.16666666666617,282.71739130434844 L60.41666666666617,281.25000000000057 L61.66666666666617,279.78260869565275 L62.91666666666617,278.31521739130494 L64.16666666666617,276.8478260869571 L65.41666666666617,275.3804347826093 L66.66666666666617,273.91304347826144 L67.91666666666617,272.44565217391363 L69.16666666666617,270.9782608695658 L70.41666666666617,269.510869565218 L71.66666666666617,268.04347826087013 L72.91666666666617,266.5760869565223 L74.16666666666617,265.1086956521745 L75.41666666666617,263.6413043478267 L76.66666666666617,262.1739130434788 L77.91666666666619,260.706521739131 L79.16666666666619,259.2391304347832 L80.41666666666619,257.7717391304354 L81.66666666666619,256.3043478260875 L82.91666666666619,254.8369565217397 L84.16666666666619,253.36956521739188 L85.41666666666619,251.90217391304407 L86.66666666666619,250.4347826086962 L87.91666666666619,248.96739130434838 L89.1666666666662,247.50000000000057 L90.4166666666662,246.03260869565275 L91.6666666666662,244.56521739130488 L92.9166666666662,243.09782608695707 L94.1666666666662,241.63043478260926 L95.4166666666662,240.16304347826144 L96.6666666666662,238.69565217391357 L97.9166666666662,237.22826086956576 L99.1666666666662,235.76086956521794 L100.4166666666662,234.29347826087013 L101.6666666666662,232.82608695652232 L102.9166666666662,231.35869565217445 L104.1666666666662,229.89130434782663 L105.4166666666662,228.42391304347882 L106.6666666666662,226.956521739131 L107.9166666666662,225.48913043478314 L109.1666666666662,224.02173913043532 L110.4166666666662,222.5543478260875 L111.6666666666662,221.0869565217397 L112.9166666666662,219.61956521739188 L114.1666666666662,218.152173913044 L115.4166666666662,216.6847826086962 L116.6666666666662,215.21739130434838 L117.9166666666662,213.75000000000057 L119.1666666666662,212.2826086956527 L120.4166666666662,210.81521739130488 L121.6666666666662,209.34782608695707 L122.9166666666662,207.88043478260926 L124.16666666666622,206.41304347826144 L125.41666666666622,204.94565217391357 L126.66666666666622,203.47826086956576 L127.91666666666622,202.01086956521794 L129.16666666666623,200.54347826087013 L130.41666666666623,199.07608695652226 L131.66666666666623,197.60869565217445 L132.91666666666623,196.14130434782663 L134.16666666666623,194.67391304347882 L135.41666666666623,193.20652173913095 L136.66666666666623,191.73913043478314 L137.91666666666623,190.27173913043532 L139.16666666666623,188.8043478260875 L140.41666666666623,187.33695652173964 L141.66666666666623,185.86956521739182 L142.91666666666623,184.402173913044 L144.16666666666623,182.9347826086962 L145.41666666666623,181.46739130434833 L146.66666666666623,180.0000000000005 L147.91666666666623,178.5326086956527 L149.16666666666623,177.06521739130488 L150.41666666666623,175.597826086957 L151.66666666666623,174.1304347826092 L152.91666666666623,172.6630434782614 L154.16666666666623,171.19565217391357 L155.41666666666623,169.7282608695657 L156.66666666666623,168.2608695652179 L157.91666666666623,166.79347826087007 L159.16666666666623,165.32608695652226 L160.41666666666623,163.85869565217445 L161.66666666666623,162.39130434782658 L162.91666666666626,160.92391304347876 L164.16666666666626,159.45652173913095 L165.41666666666626,157.98913043478308 L166.66666666666626,156.52173913043526 L167.91666666666626,155.05434782608745 L169.16666666666626,153.58695652173964 L170.41666666666626,152.11956521739182 L171.66666666666626,150.65217391304395 L172.91666666666626,149.18478260869614 L174.16666666666626,147.71739130434833 L175.41666666666626,146.25000000000045 L176.66666666666626,144.78260869565264 L177.91666666666626,143.31521739130483 L179.16666666666626,141.847826086957 L180.4166666666663,140.3804347826092 L181.6666666666663,138.91304347826133 L182.9166666666663,137.44565217391352 L184.1666666666663,135.9782608695657 L185.4166666666663,134.51086956521783 L186.6666666666663,133.04347826087007 L187.9166666666663,131.5760869565222 L189.1666666666663,130.1086956521744 L190.4166666666663,128.64130434782658 L191.6666666666663,127.1739130434787 " fill="none" stroke="blue" stroke-width="2"></path><path d="M191.66666666666669,127.17391304347825 L192.08333333333334,127.17391304347825 L192.5,127.17391304347825 L192.91666666666666,127.17391304347825 L193.33333333333331,127.17391304347825 L193.74999999999997,127.17391304347825 L194.16666666666663,127.17391304347825 L194.5833333333333,127.17391304347825 L194.99999999999994,127.17391304347825 L195.4166666666666,127.17391304347825 L195.83333333333326,127.17391304347825 L196.24999999999991,127.17391304347825 L196.66666666666657,127.17391304347825 L197.08333333333326,127.17391304347825 L197.4999999999999,127.17391304347825 L197.91666666666657,127.17391304347825 L198.3333333333332,127.17391304347825 L198.7499999999999,127.17391304347825 L199.16666666666652,127.17391304347825 L199.5833333333332,127.17391304347825 L199.99999999999983,127.17391304347825 L200.41666666666652,127.17391304347825 L200.83333333333314,127.17391304347825 L201.24999999999983,127.17391304347825 L201.66666666666646,127.17391304347825 L202.08333333333314,127.17391304347825 L202.49999999999977,127.17391304347825 L202.91666666666646,127.17391304347825 L203.3333333333331,127.17391304347825 L203.74999999999977,127.17391304347825 L204.1666666666664,127.17391304347825 L204.5833333333331,127.17391304347825 L204.99999999999972,127.17391304347825 L205.4166666666664,127.17391304347825 L205.83333333333306,127.17391304347825 L206.24999999999972,127.17391304347825 L206.66666666666637,127.17391304347825 L207.08333333333303,127.17391304347825 L207.4999999999997,127.17391304347825 L207.91666666666634,127.17391304347825 L208.333333333333,127.17391304347825 L208.74999999999966,127.17391304347825 L209.16666666666632,127.17391304347825 L209.58333333333297,127.17391304347825 L209.99999999999963,127.17391304347825 L210.4166666666663,127.17391304347825 L210.83333333333294,127.17391304347825 L211.2499999999996,127.17391304347825 L211.66666666666626,127.17391304347825 L212.08333333333292,127.17391304347825 L212.49999999999957,127.17391304347825 L212.91666666666623,127.17391304347825 L213.3333333333329,127.17391304347825 L213.74999999999955,127.17391304347825 L214.1666666666662,127.17391304347825 L214.58333333333286,127.17391304347825 L214.99999999999955,127.17391304347825 L215.41666666666617,127.17391304347825 L215.83333333333286,127.17391304347825 L216.2499999999995,127.17391304347825 L216.66666666666617,127.17391304347825 L217.0833333333328,127.17391304347825 L217.4999999999995,127.17391304347825 L217.91666666666612,127.17391304347825 L218.3333333333328,127.17391304347825 L218.74999999999943,127.17391304347825 L219.16666666666612,127.17391304347825 L219.58333333333275,127.17391304347825 L219.99999999999943,127.17391304347825 L220.41666666666606,127.17391304347825 L220.83333333333275,127.17391304347825 L221.24999999999937,127.17391304347825 L221.66666666666606,127.17391304347825 L222.0833333333327,127.17391304347825 L222.49999999999937,127.17391304347825 L222.916666666666,127.17391304347825 L223.3333333333327,127.17391304347825 L223.74999999999932,127.17391304347825 L224.166666666666,127.17391304347825 L224.58333333333266,127.17391304347825 L224.99999999999932,127.17391304347825 L225.41666666666598,127.17391304347825 L225.83333333333263,127.17391304347825 L226.2499999999993,127.17391304347825 L226.66666666666595,127.17391304347825 L227.0833333333326,127.17391304347825 L227.49999999999926,127.17391304347825 L227.91666666666592,127.17391304347825 L228.33333333333258,127.17391304347825 L228.74999999999923,127.17391304347825 L229.1666666666659,127.17391304347825 L229.58333333333255,127.17391304347825 L229.9999999999992,127.17391304347825 L230.41666666666586,127.17391304347825 L230.83333333333252,127.17391304347825 L231.24999999999918,127.17391304347825 L231.66666666666583,127.17391304347825 L232.0833333333325,127.17391304347825 L232.49999999999915,127.17391304347825 L232.9166666666658,127.17391304347825 L233.33333333333246,127.17391304347825 L233.74999999999915,127.17391304347825 L234.16666666666578,127.17391304347825 L234.58333333333246,127.17391304347825 L234.9999999999991,127.17391304347825 L235.41666666666578,127.17391304347825 L235.8333333333324,127.17391304347825 L236.2499999999991,127.17391304347825 L236.66666666666572,127.17391304347825 L237.08333333333238,127.17391304347825 L237.49999999999903,127.17391304347825 L237.9166666666657,127.17391304347825 L238.33333333333238,127.17391304347825 L238.74999999999903,127.17391304347825 L239.1666666666657,127.17391304347825 L239.58333333333235,127.17391304347825 L239.999999999999,127.17391304347825 L240.41666666666566,127.17391304347825 L240.83333333333232,127.17391304347825 L241.24999999999898,127.17391304347825 L241.66666666666563,127.17391304347825 L242.0833333333323,127.17391304347825 L242.49999999999895,127.17391304347825 L242.9166666666656,127.17391304347825 L243.33333333333226,127.17391304347825 L243.74999999999892,127.17391304347825 L244.16666666666558,127.17391304347825 L244.58333333333223,127.17391304347825 L244.9999999999989,127.17391304347825 L245.41666666666555,127.17391304347825 L245.8333333333322,127.17391304347825 L246.24999999999886,127.17391304347825 L246.66666666666552,127.17391304347825 L247.08333333333218,127.17391304347825 L247.49999999999883,127.17391304347825 L247.9166666666655,127.17391304347825 L248.33333333333215,127.17391304347825 L248.7499999999988,127.17391304347825 L249.16666666666546,127.17391304347825 L249.58333333333212,127.17391304347825 L249.99999999999878,127.17391304347825 L250.41666666666544,127.17391304347825 L250.8333333333321,127.17391304347825 L251.24999999999875,127.17391304347825 L251.6666666666654,127.17391304347825 L252.08333333333206,127.17391304347825 L252.49999999999872,127.17391304347825 L252.91666666666538,127.17391304347825 L253.33333333333204,127.17391304347825 L253.7499999999987,127.17391304347825 L254.16666666666535,127.17391304347825 L254.583333333332,127.17391304347825 L254.99999999999866,127.17391304347825 L255.41666666666532,127.17391304347825 L255.83333333333198,127.17391304347825 L256.24999999999864,127.17391304347825 L256.6666666666653,127.17391304347825 L257.083333333332,127.17391304347825 L257.49999999999864,127.17391304347825 L257.91666666666526,127.17391304347825 L258.33333333333195,127.17391304347825 L258.74999999999864,127.17391304347825 L259.16666666666526,127.17391304347825 L259.5833333333319,127.17391304347825 L259.9999999999986,127.17391304347825 L260.41666666666526,127.17391304347825 L260.8333333333319,127.17391304347825 L261.2499999999985,127.17391304347825 L261.6666666666652,127.17391304347825 L262.0833333333319,127.17391304347825 L262.4999999999985,127.17391304347825 L262.91666666666515,127.17391304347825 L263.33333333333184,127.17391304347825 L263.7499999999985,127.17391304347825 L264.16666666666515,127.17391304347825 L264.5833333333318,127.17391304347825 L264.99999999999847,127.17391304347825 L265.41666666666515,127.17391304347825 L265.8333333333318,127.17391304347825 L266.2499999999984,127.17391304347825 L266.6666666666651,127.17391304347825 L267.0833333333318,127.17391304347825 L267.4999999999984,127.17391304347825 L267.91666666666504,127.17391304347825 L268.3333333333317,127.17391304347825 L268.7499999999984,127.17391304347825 L269.16666666666504,127.17391304347825 L269.58333333333167,127.17391304347825 L269.99999999999835,127.17391304347825 L270.41666666666504,127.17391304347825 L270.83333333333167,127.17391304347825 L271.2499999999983,127.17391304347825 L271.666666666665,127.17391304347825 L272.08333333333167,127.17391304347825 L272.4999999999983,127.17391304347825 L272.9166666666649,127.17391304347825 L273.3333333333316,127.17391304347825 L273.7499999999983,127.17391304347825 L274.1666666666649,127.17391304347825 L274.58333333333155,127.17391304347825 L274.99999999999824,127.17391304347825 " fill="none" stroke="blue" stroke-width="2"></path><path d="M275,127.17391304347825 L275.83333333333337,128.15217391304344 L276.66666666666663,129.13043478260863 L277.5,130.10869565217382 L278.33333333333326,131.086956521739 L279.16666666666663,132.06521739130426 L279.9999999999999,133.04347826086945 L280.83333333333326,134.02173913043464 L281.6666666666665,134.99999999999983 L282.4999999999999,135.97826086956502 L283.33333333333314,136.9565217391302 L284.1666666666665,137.9347826086954 L284.99999999999983,138.9130434782606 L285.83333333333314,139.89130434782578 L286.66666666666646,140.86956521739103 L287.4999999999998,141.84782608695622 L288.3333333333331,142.8260869565214 L289.1666666666664,143.8043478260866 L289.9999999999997,144.7826086956518 L290.83333333333303,145.76086956521698 L291.66666666666634,146.73913043478217 L292.49999999999966,147.71739130434742 L293.333333333333,148.69565217391255 L294.1666666666663,149.6739130434778 L294.9999999999996,150.652173913043 L295.8333333333329,151.63043478260818 L296.66666666666623,152.60869565217337 L297.49999999999955,153.58695652173856 L298.33333333333286,154.56521739130375 L299.1666666666662,155.54347826086894 L299.9999999999995,156.52173913043418 L300.8333333333328,157.49999999999932 L301.6666666666661,158.47826086956456 L302.49999999999943,159.45652173912976 L303.3333333333328,160.43478260869495 L304.16666666666606,161.41304347826014 L304.99999999999943,162.39130434782533 L305.8333333333327,163.36956521739052 L306.66666666666606,164.3478260869557 L307.4999999999993,165.3260869565209 L308.3333333333327,166.3043478260861 L309.16666666666595,167.28260869565133 L309.9999999999993,168.26086956521652 L310.8333333333326,169.2391304347817 L311.66666666666595,170.2173913043469 L312.4999999999992,171.1956521739121 L313.3333333333326,172.17391304347728 L314.16666666666583,173.15217391304247 L314.9999999999992,174.13043478260767 L315.83333333333246,175.10869565217286 L316.66666666666583,176.0869565217381 L317.4999999999991,177.0652173913033 L318.33333333333246,178.04347826086848 L319.1666666666657,179.02173913043367 L319.9999999999991,179.99999999999886 L320.83333333333235,180.97826086956405 L321.6666666666657,181.95652173912924 L322.49999999999903,182.9347826086945 L323.33333333333235,183.91304347825968 L324.16666666666566,184.89130434782487 L324.999999999999,185.86956521739006 L325.8333333333323,186.84782608695525 L326.6666666666656,187.82608695652044 L327.4999999999989,188.80434782608563 L328.33333333333223,189.78260869565082 L329.16666666666555,190.760869565216 L329.99999999999886,191.73913043478126 L330.8333333333322,192.71739130434645 L331.6666666666655,193.69565217391164 L332.4999999999988,194.67391304347683 L333.3333333333321,195.65217391304202 L334.16666666666544,196.6304347826072 L334.99999999999875,197.6086956521724 L335.83333333333206,198.5869565217376 L336.6666666666654,199.56521739130278 L337.4999999999987,200.54347826086803 L338.333333333332,201.52173913043322 L339.1666666666653,202.4999999999984 L339.99999999999864,203.4782608695636 L340.833333333332,204.4565217391288 L341.66666666666526,205.43478260869398 L342.49999999999864,206.41304347825917 L343.3333333333319,207.39130434782436 L344.16666666666526,208.36956521738955 L344.9999999999985,209.3478260869548 L345.8333333333319,210.32608695652 L346.66666666666515,211.30434782608518 L347.4999999999985,212.28260869565037 L348.3333333333318,213.26086956521556 L349.16666666666515,214.23913043478075 L349.9999999999984,215.21739130434594 L350.8333333333318,216.19565217391113 L351.66666666666504,217.17391304347632 L352.4999999999984,218.15217391304157 L353.33333333333167,219.13043478260676 L354.16666666666504,220.10869565217195 L354.9999999999983,221.08695652173714 L355.83333333333167,222.06521739130233 L356.6666666666649,223.04347826086752 L357.4999999999983,224.0217391304327 L358.33333333333155,224.9999999999979 L359.1666666666649,225.9782608695631 L359.99999999999824,226.95652173912833 L360.83333333333155,227.93478260869352 L361.66666666666487,228.91304347825871 L362.4999999999982,229.8913043478239 L363.3333333333315,230.8695652173891 L364.1666666666648,231.84782608695429 L364.99999999999807,232.82608695651948 L365.83333333333144,233.80434782608467 L366.6666666666647,234.78260869564986 L367.49999999999807,235.7608695652151 L368.33333333333144,236.7391304347803 L369.1666666666647,237.71739130434548 L369.99999999999807,238.69565217391067 L370.8333333333313,239.67391304347586 L371.6666666666647,240.65217391304105 L372.49999999999795,241.63043478260624 L373.3333333333313,242.60869565217143 L374.1666666666646,243.58695652173662 L374.99999999999795,244.56521739130187 L375.8333333333312,245.54347826086706 L376.6666666666646,246.52173913043225 L377.49999999999784,247.49999999999744 L378.3333333333312,248.47826086956263 L379.16666666666447,249.45652173912782 L379.99999999999784,250.434782608693 L380.8333333333311,251.4130434782582 L381.66666666666447,252.3913043478234 L382.4999999999977,253.36956521738864 L383.3333333333311,254.34782608695383 L384.16666666666436,255.32608695651902 L384.9999999999977,256.3043478260842 L385.833333333331,257.2826086956494 L386.66666666666436,258.2608695652146 L387.4999999999976,259.2391304347798 L388.333333333331,260.21739130434497 L389.16666666666424,261.19565217391016 L389.9999999999976,262.1739130434754 L390.83333333333087,263.1521739130406 L391.66666666666424,264.1304347826058 L392.4999999999975,265.108695652171 L393.33333333333087,266.08695652173617 L394.1666666666641,267.06521739130136 L394.9999999999975,268.04347826086655 L395.83333333333076,269.02173913043174 L396.6666666666641,269.99999999999693 L397.4999999999974,270.9782608695622 L398.33333333333076,271.95652173912737 L399.166666666664,272.93478260869256 L399.9999999999974,273.91304347825775 L400.83333333333064,274.89130434782294 L401.666666666664,275.86956521738813 L402.49999999999727,276.8478260869533 L403.33333333333064,277.8260869565185 L404.1666666666639,278.8043478260837 L404.99999999999727,279.78260869564895 L405.83333333333064,280.76086956521414 L406.6666666666639,281.7391304347793 L407.49999999999727,282.7173913043445 L408.33333333333053,283.6956521739097 L409.1666666666639,284.6739130434749 L409.99999999999716,285.6521739130401 L410.83333333333053,286.63043478260533 L411.6666666666638,287.60869565217047 L412.49999999999716,288.5869565217357 L413.3333333333304,289.56521739130085 L414.1666666666638,290.5434782608661 L414.99999999999704,291.52173913043134 L415.8333333333304,292.4999999999965 L416.6666666666637,293.4782608695617 L417.49999999999704,294.45652173912686 L418.3333333333303,295.4347826086921 L419.1666666666637,296.41304347825724 L419.99999999999693,297.3913043478225 L420.8333333333303,298.3695652173876 L421.66666666666356,299.34782608695286 L422.49999999999693,300.3260869565181 L423.3333333333302,301.30434782608324 L424.16666666666356,302.2826086956485 L424.9999999999968,303.2608695652136 L425.8333333333302,304.2391304347789 L426.66666666666345,305.217391304344 L427.4999999999968,306.19565217390925 L428.3333333333301,307.1739130434744 L429.16666666666345,308.15217391303963 L429.9999999999967,309.1304347826049 L430.8333333333301,310.10869565217 L431.66666666666333,311.08695652173526 L432.4999999999967,312.0652173913004 L433.33333333332996,313.04347826086564 L434.16666666666333,314.0217391304308 L434.9999999999966,314.999999999996 L435.83333333332996,315.97826086956115 L436.6666666666632,316.9565217391264 L437.4999999999966,317.93478260869165 L438.33333333332985,318.9130434782568 L439.1666666666632,319.89130434782203 L439.9999999999965,320.86956521738716 L440.83333333332985,321.8478260869524 L441.6666666666631,322.82608695651754 " fill="none" stroke="blue" stroke-width="2"></path><path d="M441.66666666666674,322.82608695652175 L442.5,322.82608695652175 L443.33333333333337,322.82608695652175 L444.16666666666663,322.82608695652175 L445,322.82608695652175 L445.83333333333326,322.82608695652175 L446.66666666666663,322.82608695652175 L447.4999999999999,322.82608695652175 L448.33333333333326,322.82608695652175 L449.1666666666665,322.82608695652175 L449.9999999999999,322.82608695652175 L450.83333333333314,322.82608695652175 L451.6666666666665,322.82608695652175 L452.4999999999998,322.82608695652175 L453.33333333333314,322.82608695652175 L454.1666666666664,322.82608695652175 L454.9999999999998,322.82608695652175 L455.83333333333303,322.82608695652175 L456.6666666666664,322.82608695652175 L457.49999999999966,322.82608695652175 L458.33333333333303,322.82608695652175 L459.1666666666663,322.82608695652175 L459.99999999999966,322.82608695652175 L460.83333333333303,322.82608695652175 L461.6666666666663,322.82608695652175 L462.49999999999966,322.82608695652175 L463.3333333333329,322.82608695652175 L464.1666666666663,322.82608695652175 L464.99999999999955,322.82608695652175 L465.8333333333329,322.82608695652175 L466.6666666666662,322.82608695652175 L467.49999999999955,322.82608695652175 L468.3333333333328,322.82608695652175 L469.1666666666662,322.82608695652175 L469.99999999999943,322.82608695652175 L470.8333333333328,322.82608695652175 L471.66666666666606,322.82608695652175 L472.49999999999943,322.82608695652175 L473.3333333333327,322.82608695652175 L474.16666666666606,322.82608695652175 L474.9999999999993,322.82608695652175 L475.8333333333327,322.82608695652175 L476.66666666666595,322.82608695652175 L477.4999999999993,322.82608695652175 L478.3333333333326,322.82608695652175 L479.16666666666595,322.82608695652175 L479.9999999999992,322.82608695652175 L480.8333333333326,322.82608695652175 L481.66666666666583,322.82608695652175 L482.4999999999992,322.82608695652175 L483.33333333333246,322.82608695652175 L484.16666666666583,322.82608695652175 L484.9999999999991,322.82608695652175 L485.83333333333246,322.82608695652175 L486.6666666666657,322.82608695652175 L487.4999999999991,322.82608695652175 L488.33333333333235,322.82608695652175 L489.1666666666657,322.82608695652175 L489.999999999999,322.82608695652175 L490.83333333333235,322.82608695652175 L491.6666666666656,322.82608695652175 L492.499999999999,322.82608695652175 L493.33333333333223,322.82608695652175 L494.1666666666656,322.82608695652175 L494.99999999999886,322.82608695652175 L495.83333333333223,322.82608695652175 L496.6666666666655,322.82608695652175 L497.49999999999886,322.82608695652175 L498.33333333333223,322.82608695652175 L499.1666666666655,322.82608695652175 L499.99999999999886,322.82608695652175 L500.8333333333321,322.82608695652175 L501.6666666666655,322.82608695652175 L502.49999999999875,322.82608695652175 L503.3333333333321,322.82608695652175 L504.1666666666654,322.82608695652175 L504.99999999999875,322.82608695652175 L505.833333333332,322.82608695652175 L506.6666666666654,322.82608695652175 L507.49999999999864,322.82608695652175 L508.333333333332,322.82608695652175 L509.16666666666526,322.82608695652175 L509.99999999999864,322.82608695652175 L510.8333333333319,322.82608695652175 L511.66666666666526,322.82608695652175 L512.4999999999985,322.82608695652175 L513.3333333333319,322.82608695652175 L514.1666666666652,322.82608695652175 L514.9999999999985,322.82608695652175 L515.8333333333318,322.82608695652175 L516.6666666666652,322.82608695652175 L517.4999999999984,322.82608695652175 L518.3333333333318,322.82608695652175 L519.166666666665,322.82608695652175 L519.9999999999984,322.82608695652175 L520.8333333333317,322.82608695652175 L521.666666666665,322.82608695652175 L522.4999999999983,322.82608695652175 L523.3333333333317,322.82608695652175 L524.1666666666649,322.82608695652175 L524.9999999999983,322.82608695652175 L525.8333333333316,322.82608695652175 L526.6666666666649,322.82608695652175 L527.4999999999982,322.82608695652175 L528.3333333333316,322.82608695652175 L529.1666666666648,322.82608695652175 L529.9999999999982,322.82608695652175 L530.8333333333314,322.82608695652175 L531.6666666666648,322.82608695652175 L532.4999999999981,322.82608695652175 L533.3333333333314,322.82608695652175 L534.1666666666647,322.82608695652175 L534.9999999999981,322.82608695652175 L535.8333333333314,322.82608695652175 L536.6666666666647,322.82608695652175 L537.4999999999981,322.82608695652175 L538.3333333333313,322.82608695652175 L539.1666666666647,322.82608695652175 L539.999999999998,322.82608695652175 L540.8333333333313,322.82608695652175 L541.6666666666646,322.82608695652175 L542.499999999998,322.82608695652175 L543.3333333333312,322.82608695652175 L544.1666666666646,322.82608695652175 L544.9999999999978,322.82608695652175 L545.8333333333312,322.82608695652175 L546.6666666666645,322.82608695652175 L547.4999999999978,322.82608695652175 L548.3333333333311,322.82608695652175 L549.1666666666645,322.82608695652175 L549.9999999999977,322.82608695652175 L550.8333333333311,322.82608695652175 " fill="none" stroke="blue" stroke-width="2"></path><text x="400" y="86.26086956521738" fill="blue" font-family="times" font-weight="normal" font-style="italic" font-size="32" text-anchor="middle">y=f(t)</text><text x="537.5000000000001" y="218.32608695652175" fill="red" font-family="times" font-weight="normal" font-style="italic" font-size="32" text-anchor="middle">t</text><text x="120.83333333333334" y="37.3478260869565" fill="red" font-family="times" font-weight="normal" font-style="italic" font-size="32" text-anchor="middle">y</text><asciisvg>initPicture(-1.3,5.3,-2.3,2.3)
fontsize=25
axes(1, 1, "labels", 1)

fontstyle="italic"
fontfamily="times"

fontsize=16
strokewidth = "2"
stroke = "blue"
plot("x",-2,1)
plot("1",1,2)
plot("3-x",2,4)
plot("-1",4,6)

fontsize=32
fontfill="blue"
text([3.5,1.5],"y=f(t)")
fontfill="red"
text([5.15,0.15],"t")
text([0.15,2],"y")


//stroke = "red"
//plot(["5*t*cos(pi*t)", "5*t*sin(pi*t)"],0,1)

//stroke = "green"

//marker = "arrowdot"
//line([0,1], [pi/2,1])
//dot([pi,0], "open", cpi)

//text([-2.5,-2.5], "ASCIIsvg Examplee")
						</asciisvg></svg> 

