<svg width="550" height="450" id="target"><rect x="0" y="0" width="550" height="450" fill="white"></rect><rect x="0" y="0" width="550" height="450" fill="white"></rect><path d="M29.464285714285722,0 L29.464285714285722,450 M78.57142857142858,0 L78.57142857142858,450 M127.67857142857144,0 L127.67857142857144,450 M176.7857142857143,0 L176.7857142857143,450 M225.89285714285717,0 L225.89285714285717,450 M275,0 L275,450 M324.1071428571429,0 L324.1071428571429,450 M373.2142857142858,0 L373.2142857142858,450 M422.3214285714286,0 L422.3214285714286,450 M471.42857142857144,0 L471.42857142857144,450 M520.5357142857143,0 L520.5357142857143,450 M0,420.6521739130435 L550,420.6521739130435 M0,371.7391304347826 L550,371.7391304347826 M0,322.82608695652175 L550,322.82608695652175 M0,273.9130434782609 L550,273.9130434782609 M0,224.99999999999997 L550,224.99999999999997 M0,176.0869565217391 L550,176.0869565217391 M0,127.17391304347822 L550,127.17391304347822 M0,78.26086956521735 L550,78.26086956521735 M0,29.347826086956474 L550,29.347826086956474 " fill="none" stroke="#aaaaaa" stroke-width="0.5"></path><path d="M0,322.82608695652175 L550,322.82608695652175 M127.67857142857144,0 L127.67857142857144,450 M29.464285714285722,318.82608695652175 L29.464285714285722,326.82608695652175 M225.89285714285717,318.82608695652175 L225.89285714285717,326.82608695652175 M324.1071428571429,318.82608695652175 L324.1071428571429,326.82608695652175 M422.3214285714286,318.82608695652175 L422.3214285714286,326.82608695652175 M520.5357142857143,318.82608695652175 L520.5357142857143,326.82608695652175 M123.67857142857144,420.6521739130435 L131.67857142857144,420.6521739130435 M123.67857142857144,224.99999999999997 L131.67857142857144,224.99999999999997 M123.67857142857144,127.17391304347822 L131.67857142857144,127.17391304347822 M123.67857142857144,29.347826086956474 L131.67857142857144,29.347826086956474 " fill="none" stroke="black" stroke-width="1"></path><text x="29.464285714285722" y="350.82608695652175" fill="black" font-family="sans" font-weight="normal" font-style="normal" font-size="25" text-anchor="middle">-1</text><text x="225.89285714285717" y="350.82608695652175" fill="black" font-family="sans" font-weight="normal" font-style="normal" font-size="25" text-anchor="middle">1</text><text x="324.1071428571429" y="350.82608695652175" fill="black" font-family="sans" font-weight="normal" font-style="normal" font-size="25" text-anchor="middle">2</text><text x="422.3214285714286" y="350.82608695652175" fill="black" font-family="sans" font-weight="normal" font-style="normal" font-size="25" text-anchor="middle">3</text><text x="520.5357142857143" y="350.82608695652175" fill="black" font-family="sans" font-weight="normal" font-style="normal" font-size="25" text-anchor="middle">4</text><text x="112.67857142857144" y="428.6521739130435" fill="black" font-family="sans" font-weight="normal" font-style="normal" font-size="25" text-anchor="end">-1</text><text x="112.67857142857144" y="232.99999999999997" fill="black" font-family="sans" font-weight="normal" font-style="normal" font-size="25" text-anchor="end">1</text><text x="112.67857142857144" y="135.17391304347822" fill="black" font-family="sans" font-weight="normal" font-style="normal" font-size="25" text-anchor="end">2</text><text x="112.67857142857144" y="37.34782608695647" fill="black" font-family="sans" font-weight="normal" font-style="normal" font-size="25" text-anchor="end">3</text><path d="M0,95.62499999999997 L2.75,98.75582608695646 L5.5,101.84830434782609 L8.250000000000014,104.90243478260862 L11.000000000000014,107.91821739130432 L13.750000000000014,110.89565217391296 L16.500000000000014,113.83473913043477 L19.250000000000014,116.73547826086951 L22.00000000000003,119.59786956521737 L24.75000000000003,122.42191304347824 L27.50000000000003,125.2076086956522 L30.25000000000003,127.95495652173912 L33.00000000000003,130.6639565217391 L35.75000000000004,133.33460869565218 L38.50000000000004,135.96691304347823 L41.25000000000004,138.56086956521742 L44.00000000000004,141.11647826086957 L46.75000000000004,143.6337391304348 L49.50000000000004,146.112652173913 L52.25000000000006,148.5532173913044 L55.00000000000006,150.9554347826087 L57.75000000000006,153.3193043478261 L60.50000000000006,155.6448260869565 L63.25000000000006,157.932 L66.00000000000006,160.18082608695656 L68.75000000000007,162.3913043478261 L71.50000000000007,164.5634347826087 L74.25000000000007,166.69721739130435 L77.00000000000009,168.79265217391307 L79.75000000000009,170.8497391304348 L82.50000000000009,172.86847826086958 L85.25000000000009,174.84886956521743 L88.00000000000009,176.7909130434783 L90.75000000000009,178.6946086956522 L93.50000000000009,180.55995652173917 L96.2500000000001,182.38695652173917 L99.0000000000001,184.1756086956522 L101.7500000000001,185.9259130434783 L104.5000000000001,187.63786956521741 L107.2500000000001,189.31147826086962 L110.0000000000001,190.9467391304348 L112.7500000000001,192.54365217391305 L115.5000000000001,194.10221739130438 L118.2500000000001,195.62243478260868 L121.0000000000001,197.10430434782612 L123.7500000000001,198.54782608695652 L126.5000000000001,199.953 L129.2500000000001,201.3198260869565 L132.0000000000001,202.6483043478261 L134.7500000000001,203.9384347826087 L137.5000000000001,205.19021739130434 L140.2500000000001,206.40365217391306 L143.0000000000001,207.5787391304348 L145.7500000000001,208.71547826086956 L148.5000000000001,209.8138695652174 L151.2500000000001,210.87391304347827 L154.00000000000009,211.89560869565216 L156.7500000000001,212.87895652173913 L159.5000000000001,213.82395652173912 L162.2500000000001,214.7306086956522 L165.0000000000001,215.5989130434783 L167.7500000000001,216.4288695652174 L170.5000000000001,217.22047826086956 L173.2500000000001,217.97373913043478 L176.0000000000001,218.68865217391303 L178.7500000000001,219.36521739130436 L181.5000000000001,220.0034347826087 L184.2500000000001,220.60330434782608 L187.0000000000001,221.16482608695648 L189.7500000000001,221.68799999999996 L192.5000000000001,222.17282608695652 L195.25000000000014,222.61930434782604 L198.00000000000014,223.02743478260865 L200.75000000000014,223.39721739130434 L203.50000000000014,223.72865217391305 L206.25000000000014,224.02173913043478 L209.00000000000017,224.27647826086954 L211.75000000000017,224.49286956521738 L214.50000000000017,224.67091304347824 L217.25000000000017,224.81060869565212 L220.00000000000017,224.91195652173914 L222.75000000000017,224.97495652173913 L225.50000000000017,224.99960869565214 L228.25000000000017,224.98591304347823 L231.00000000000017,224.93386956521735 L233.75000000000017,224.84347826086955 L236.50000000000017,224.7147391304347 L239.25000000000017,224.547652173913 L242.00000000000017,224.34221739130427 L244.75000000000017,224.09843478260868 L247.50000000000017,223.81630434782605 L250.25000000000017,223.4958260869565 L253.00000000000017,223.13699999999992 L255.75000000000017,222.73982608695647 L258.5000000000002,222.304304347826 L261.2500000000002,221.83043478260865 L264.0000000000002,221.31821739130427 L266.7500000000002,220.76765217391298 L269.5000000000002,220.1787391304347 L272.2500000000002,219.55147826086952 L275.0000000000002,218.88586956521735 L277.7500000000002,218.1819130434782 L280.5000000000002,217.43960869565208 L283.2500000000002,216.65895652173904 L286.0000000000002,215.83995652173903 L288.7500000000002,214.9826086956521 L291.5000000000002,214.08691304347818 L294.2500000000002,213.1528695652173 L297.0000000000002,212.18047826086948 L299.7500000000002,211.1697391304347 L302.5000000000002,210.12065217391293 L305.2500000000002,209.03321739130425 L308.0000000000002,207.9074347826086 L310.7500000000002,206.74330434782595 L313.5000000000002,205.5408260869564 L316.2500000000002,204.29999999999987 L319.0000000000002,203.02082608695636 L321.7500000000002,201.703304347826 L324.5000000000002,200.34743478260853 L327.2500000000002,198.9532173913042 L330.0000000000002,197.5206521739129 L332.7500000000002,196.04973913043463 L335.5000000000002,194.54047826086943 L338.2500000000002,192.9928695652172 L341.0000000000002,191.40691304347806 L343.7500000000002,189.782608695652 L346.5000000000003,188.119956521739 L349.2500000000003,186.41895652173898 L352.0000000000003,184.67960869565198 L354.7500000000003,182.90191304347806 L357.5000000000003,181.08586956521717 L360.2500000000003,179.23147826086935 L363.0000000000003,177.33873913043462 L365.7500000000003,175.40765217391285 L368.5000000000003,173.43821739130416 L371.2500000000003,171.43043478260844 L374.00000000000034,169.38430434782586 L376.75000000000034,167.29982608695624 L379.50000000000034,165.17699999999977 L382.25000000000034,163.01582608695625 L385.0000000000003,160.81630434782582 L387.7500000000003,158.57843478260847 L390.50000000000034,156.30221739130408 L393.25000000000034,153.98765217391278 L396.00000000000034,151.6347391304345 L398.75000000000034,149.2434782608693 L401.50000000000034,146.81386956521712 L404.25000000000034,144.34591304347796 L407.00000000000034,141.8396086956519 L409.75000000000034,139.29495652173884 L412.50000000000034,136.7119565217388 L415.25000000000034,134.09060869565187 L418.00000000000034,131.43091304347794 L420.75000000000034,128.73286956521704 L423.50000000000034,125.99647826086925 L426.25000000000034,123.22173913043443 L429.00000000000034,120.40865217391271 L431.75000000000034,117.557217391304 L434.50000000000034,114.66743478260835 L437.25000000000034,111.73930434782568 L440.00000000000034,108.77282608695614 L442.75000000000034,105.76799999999957 L445.50000000000034,102.72482608695614 L448.2500000000004,99.64330434782568 L451.0000000000004,96.52343478260826 L453.7500000000004,93.36521739130396 L456.5000000000004,90.16865217391259 L459.2500000000004,86.93373913043433 L462.0000000000004,83.66047826086913 L464.7500000000004,80.34886956521692 L467.5000000000004,76.99891304347776 L470.2500000000004,73.6106086956517 L473.0000000000004,70.18395652173865 L475.7500000000004,66.71895652173865 L478.5000000000004,63.215608695651696 L481.2500000000004,59.67391304347777 L484.0000000000004,56.09386956521686 L486.7500000000004,52.47547826086904 L489.5000000000004,48.81873913043424 L492.2500000000004,45.12365217391246 L495.0000000000004,41.390217391303764 L497.7500000000004,37.61843478260815 L500.5000000000004,33.8083043478255 L503.2500000000004,29.95982608695593 L506.00000000000045,26.072999999999382 L508.75000000000045,22.147826086955916 L511.50000000000045,18.184304347825474 L514.2500000000005,14.182434782608055 L517.0000000000005,10.142217391303717 L519.7500000000005,6.063652173912402 L522.5000000000005,1.9467391304341106 L525.2500000000005,-2.2085217391310437 " fill="none" stroke="blue" stroke-width="4"></path><text x="373.2142857142858" y="86.26086956521735" fill="blue" font-family="times" font-weight="normal" font-style="italic" font-size="32" text-anchor="middle">y=f(x)</text><asciisvg>initPicture(-1.3,4.3,-1.3,3.3)
fontsize=25
//gridstroke = "black"
axes(1, 1, "labels", .5)

fontstyle="italic"
fontfamily="times"

fontsize=16
strokewidth = "4"
stroke = "blue"
plot("(x-1)^2/4+1")

//stroke = "red"
//plot(["5*t*cos(pi*t)", "5*t*sin(pi*t)"],0,1)

//stroke = "green"

//marker = "arrowdot"
//line([0,1], [pi/2,1])
//dot([pi,0], "open", cpi)

fontfill = "blue"
fontsize = 32
text([2.5,2.5], "y=f(x)")
						</asciisvg></svg> 

