<svg width="550" height="450" id="target"><rect x="0" y="0" width="550" height="450" fill="white"></rect><rect x="0" y="0" width="550" height="450" fill="white"></rect><path d="M19.186046511627893,0 L19.186046511627893,450 M83.13953488372093,0 L83.13953488372093,450 M147.09302325581393,0 L147.09302325581393,450 M211.04651162790697,0 L211.04651162790697,450 M275,0 L275,450 M338.95348837209303,0 L338.95348837209303,450 M402.90697674418607,0 L402.90697674418607,450 M466.8604651162791,0 L466.8604651162791,450 M530.8139534883721,0 L530.8139534883721,450 M0,429.5454545454546 L550,429.5454545454546 M0,361.3636363636364 L550,361.3636363636364 M0,293.1818181818182 L550,293.1818181818182 M0,225 L550,225 M0,156.8181818181818 L550,156.8181818181818 M0,88.63636363636361 L550,88.63636363636361 M0,20.454545454545425 L550,20.454545454545425 " fill="none" stroke="#aaaaaa" stroke-width="0.5"></path><path d="M0,361.3636363636364 L550,361.3636363636364 M275,0 L275,450 M19.186046511627893,357.3636363636364 L19.186046511627893,365.3636363636364 M83.13953488372093,357.3636363636364 L83.13953488372093,365.3636363636364 M147.09302325581393,357.3636363636364 L147.09302325581393,365.3636363636364 M211.04651162790697,357.3636363636364 L211.04651162790697,365.3636363636364 M338.95348837209303,357.3636363636364 L338.95348837209303,365.3636363636364 M402.90697674418607,357.3636363636364 L402.90697674418607,365.3636363636364 M466.8604651162791,357.3636363636364 L466.8604651162791,365.3636363636364 M530.8139534883721,357.3636363636364 L530.8139534883721,365.3636363636364 M271,429.5454545454546 L279,429.5454545454546 M271,293.1818181818182 L279,293.1818181818182 M271,225 L279,225 M271,156.8181818181818 L279,156.8181818181818 M271,88.63636363636361 L279,88.63636363636361 M271,20.454545454545425 L279,20.454545454545425 " fill="none" stroke="black" stroke-width="1"></path><text x="19.186046511627893" y="389.3636363636364" fill="black" font-family="sans" font-weight="normal" font-style="normal" font-size="25" text-anchor="middle">-4</text><text x="83.13953488372093" y="389.3636363636364" fill="black" font-family="sans" font-weight="normal" font-style="normal" font-size="25" text-anchor="middle">-3</text><text x="147.09302325581393" y="389.3636363636364" fill="black" font-family="sans" font-weight="normal" font-style="normal" font-size="25" text-anchor="middle">-2</text><text x="211.04651162790697" y="389.3636363636364" fill="black" font-family="sans" font-weight="normal" font-style="normal" font-size="25" text-anchor="middle">-1</text><text x="338.95348837209303" y="389.3636363636364" fill="black" font-family="sans" font-weight="normal" font-style="normal" font-size="25" text-anchor="middle">1</text><text x="402.90697674418607" y="389.3636363636364" fill="black" font-family="sans" font-weight="normal" font-style="normal" font-size="25" text-anchor="middle">2</text><text x="466.8604651162791" y="389.3636363636364" fill="black" font-family="sans" font-weight="normal" font-style="normal" font-size="25" text-anchor="middle">3</text><text x="530.8139534883721" y="389.3636363636364" fill="black" font-family="sans" font-weight="normal" font-style="normal" font-size="25" text-anchor="middle">4</text><text x="260" y="437.5454545454546" fill="black" font-family="sans" font-weight="normal" font-style="normal" font-size="25" text-anchor="end">-1</text><text x="260" y="301.1818181818182" fill="black" font-family="sans" font-weight="normal" font-style="normal" font-size="25" text-anchor="end">1</text><text x="260" y="233" fill="black" font-family="sans" font-weight="normal" font-style="normal" font-size="25" text-anchor="end">2</text><text x="260" y="164.8181818181818" fill="black" font-family="sans" font-weight="normal" font-style="normal" font-size="25" text-anchor="end">3</text><text x="260" y="96.63636363636361" fill="black" font-family="sans" font-weight="normal" font-style="normal" font-size="25" text-anchor="end">4</text><text x="260" y="28.454545454545425" fill="black" font-family="sans" font-weight="normal" font-style="normal" font-size="25" text-anchor="end">5</text><path d="M0,68.18181818181817 L2.75,71.11363636363636 L5.5,74.04545454545455 L8.25,76.97727272727273 L11.000000000000057,79.90909090909092 L13.750000000000057,82.84090909090911 L16.500000000000057,85.7727272727273 L19.250000000000057,88.70454545454554 L22.000000000000085,91.63636363636373 L24.750000000000085,94.56818181818191 L27.500000000000085,97.5000000000001 L30.250000000000114,100.43181818181829 L33.000000000000114,103.36363636363647 L35.750000000000114,106.29545454545466 L38.50000000000014,109.22727272727285 L41.25000000000014,112.15909090909106 L44.00000000000014,115.09090909090925 L46.75000000000017,118.02272727272744 L49.50000000000017,120.95454545454562 L52.25000000000017,123.88636363636381 L55.0000000000002,126.81818181818203 L57.7500000000002,129.75000000000023 L60.5000000000002,132.68181818181841 L63.25000000000023,135.6136363636366 L66.00000000000023,138.5454545454548 L68.75000000000023,141.47727272727298 L71.50000000000026,144.40909090909116 L74.25000000000026,147.34090909090935 L77.00000000000026,150.27272727272754 L79.75000000000028,153.20454545454572 L82.50000000000028,156.1363636363639 L85.25000000000028,159.06818181818215 L88.00000000000031,162.00000000000034 L90.75000000000031,164.93181818181853 L93.50000000000031,167.86363636363672 L96.25000000000034,170.7954545454549 L99.00000000000034,173.7272727272731 L101.75000000000034,176.65909090909133 L104.50000000000037,179.59090909090946 L107.25000000000037,182.5227272727277 L110.0000000000004,185.45454545454584 L112.7500000000004,188.38636363636408 L115.5000000000004,191.31818181818227 L118.25000000000043,194.25000000000045 L121.00000000000043,197.18181818181864 L123.75000000000043,200.11363636363683 L126.50000000000045,203.04545454545502 L129.25000000000045,205.9772727272732 L132.00000000000045,208.90909090909145 L134.75000000000048,211.84090909090958 L137.50000000000048,214.77272727272782 L140.25000000000048,217.70454545454595 L143.0000000000005,220.6363636363642 L145.7500000000005,223.56818181818238 L148.5000000000005,226.50000000000057 L151.2500000000005,229.4318181818187 L154.0000000000005,232.36363636363694 L156.7500000000005,235.29545454545507 L159.50000000000048,238.22727272727326 L162.25000000000048,241.15909090909145 L165.00000000000048,244.09090909090958 L167.75000000000045,247.02272727272782 L170.50000000000045,249.95454545454595 L173.25000000000045,252.88636363636414 L176.00000000000045,255.81818181818232 L178.75000000000045,258.7500000000005 L181.50000000000045,261.6818181818187 L184.25000000000045,264.61363636363683 L187.00000000000045,267.545454545455 L189.75000000000045,270.4772727272732 L192.50000000000045,273.4090909090914 L195.25000000000043,276.3409090909096 L198.00000000000043,279.2727272727277 L200.75000000000043,282.2045454545459 L203.5000000000004,285.1363636363641 L206.2500000000004,288.06818181818227 L209.0000000000004,291.00000000000045 L211.7500000000004,293.93181818181864 L214.5000000000004,296.86363636363683 L217.2500000000004,299.795454545455 L220.00000000000043,302.7272727272732 L222.75000000000043,305.6590909090914 L225.50000000000043,308.5909090909096 L228.25000000000043,311.5227272727277 L231.00000000000043,314.45454545454595 L233.75000000000043,317.3863636363641 L236.50000000000043,320.31818181818227 L239.25000000000043,323.25000000000045 L242.00000000000045,326.18181818181864 L244.75000000000043,329.11363636363683 L247.50000000000043,332.045454545455 L250.25000000000043,334.9772727272732 L253.00000000000043,337.9090909090914 L255.75000000000043,340.8409090909096 L258.50000000000045,343.77272727272776 L261.25000000000045,346.70454545454595 L264.00000000000045,349.6363636363641 L266.75000000000045,352.56818181818227 L269.50000000000045,355.50000000000045 L272.25000000000045,358.43181818181864 L275.00000000000045,361.3636363636359 L277.75000000000045,358.43181818181773 L280.50000000000045,355.49999999999955 L283.25000000000045,352.56818181818136 L286.00000000000045,349.63636363636317 L288.75000000000045,346.704545454545 L291.50000000000045,343.7727272727268 L294.25000000000045,340.84090909090867 L297.00000000000045,337.9090909090905 L299.7500000000004,334.9772727272723 L302.5000000000004,332.0454545454541 L305.2500000000004,329.1136363636359 L308.0000000000004,326.18181818181773 L310.75000000000045,323.24999999999955 L313.50000000000045,320.31818181818136 L316.25000000000045,317.38636363636317 L319.00000000000045,314.454545454545 L321.75000000000045,311.5227272727268 L324.50000000000045,308.5909090909086 L327.25000000000045,305.6590909090904 L330.00000000000045,302.7272727272723 L332.75000000000045,299.79545454545405 L335.50000000000045,296.8636363636359 L338.25000000000045,293.9318181818177 L341.00000000000045,290.99999999999955 L343.75000000000045,288.06818181818136 L346.50000000000045,285.13636363636317 L349.25000000000045,282.204545454545 L352.00000000000045,279.2727272727268 L354.75000000000045,276.34090909090867 L357.5000000000004,273.4090909090905 L360.2500000000004,270.4772727272723 L363.0000000000004,267.5454545454541 L365.7500000000004,264.6136363636359 L368.5000000000004,261.6818181818178 L371.2500000000004,258.7499999999996 L374.0000000000004,255.81818181818142 L376.7500000000004,252.88636363636323 L379.5000000000004,249.95454545454504 L382.2500000000004,247.0227272727269 L385.00000000000034,244.09090909090867 L387.75000000000034,241.15909090909054 L390.50000000000034,238.22727272727235 L393.25000000000034,235.29545454545416 L396.00000000000034,232.36363636363603 L398.75000000000034,229.4318181818178 L401.50000000000034,226.49999999999966 L404.25000000000034,223.56818181818147 L407.00000000000034,220.63636363636328 L409.75000000000034,217.70454545454504 L412.50000000000034,214.7727272727269 L415.25000000000034,211.84090909090867 L418.0000000000004,208.90909090909054 L420.7500000000004,205.9772727272723 L423.5000000000004,203.0454545454541 L426.25000000000045,200.11363636363592 L429.00000000000045,197.18181818181773 L431.75000000000045,194.24999999999955 L434.50000000000045,191.31818181818136 L437.25000000000045,188.38636363636317 L440.00000000000045,185.45454545454493 L442.75000000000045,182.5227272727268 L445.50000000000045,179.59090909090855 L448.25000000000045,176.65909090909042 L451.0000000000005,173.72727272727218 L453.7500000000005,170.795454545454 L456.50000000000057,167.8636363636358 L459.25000000000057,164.93181818181762 L462.00000000000057,161.99999999999943 L464.75000000000057,159.06818181818124 L467.50000000000057,156.136363636363 L470.25000000000057,153.2045454545448 L473.00000000000057,150.27272727272663 L475.75000000000057,147.34090909090844 L478.50000000000057,144.40909090909025 L481.2500000000006,141.47727272727207 L484.0000000000006,138.54545454545388 L486.7500000000006,135.6136363636357 L489.5000000000007,132.6818181818175 L492.2500000000007,129.74999999999932 L495.0000000000007,126.81818181818112 L497.7500000000007,123.8863636363629 L500.5000000000007,120.95454545454471 L503.2500000000007,118.02272727272653 L506.0000000000007,115.09090909090834 L508.7500000000007,112.15909090909015 L511.5000000000007,109.22727272727194 L514.2500000000007,106.29545454545375 L517.0000000000007,103.36363636363556 L519.7500000000007,100.43181818181738 L522.5000000000008,97.49999999999919 L525.2500000000008,94.568181818181 L528.0000000000008,91.63636363636282 L530.7500000000008,88.70454545454463 L533.5000000000008,85.77272727272639 L536.2500000000008,82.8409090909082 L539.0000000000008,79.90909090909001 L541.7500000000009,76.97727272727182 L544.5000000000009,74.04545454545364 L547.2500000000009,71.11363636363545 " fill="none" stroke="blue" stroke-width="2"></path><asciisvg>initPicture(-4.3,4.3,-1.3,5.3)
fontsize=25
axes(1, 1, "labels", 1)

fontstyle="italic"
fontfamily="times"

fontsize=16
strokewidth = "2"
stroke = "blue"
plot("abs(x)")

//stroke = "red"
//plot(["5*t*cos(pi*t)", "5*t*sin(pi*t)"],0,1)

//stroke = "green"

//marker = "arrowdot"
//line([0,1], [pi/2,1])
//dot([pi,0], "open", cpi)

//text([-2.5,-2.5], "ASCIIsvg Examplee")
						</asciisvg></svg> 

