<svg width="550" height="450" id="target"><rect x="0" y="0" width="550" height="450" fill="white"></rect><rect x="0" y="0" width="550" height="450" fill="white"></rect><path d="M19.186046511627893,0 L19.186046511627893,450 M83.13953488372093,0 L83.13953488372093,450 M147.09302325581393,0 L147.09302325581393,450 M211.04651162790697,0 L211.04651162790697,450 M275,0 L275,450 M338.95348837209303,0 L338.95348837209303,450 M402.90697674418607,0 L402.90697674418607,450 M466.8604651162791,0 L466.8604651162791,450 M530.8139534883721,0 L530.8139534883721,450 M0,434.30232558139534 L550,434.30232558139534 M0,381.97674418604646 L550,381.97674418604646 M0,329.65116279069764 L550,329.65116279069764 M0,277.3255813953488 L550,277.3255813953488 M0,225 L550,225 M0,172.67441860465112 L550,172.67441860465112 M0,120.3488372093023 L550,120.3488372093023 M0,68.02325581395345 L550,68.02325581395345 M0,15.697674418604606 L550,15.697674418604606 " fill="none" stroke="#aaaaaa" stroke-width="0.5"></path><path d="M0,277.3255813953488 L550,277.3255813953488 M275,0 L275,450 M19.186046511627893,273.3255813953488 L19.186046511627893,281.3255813953488 M83.13953488372093,273.3255813953488 L83.13953488372093,281.3255813953488 M147.09302325581393,273.3255813953488 L147.09302325581393,281.3255813953488 M211.04651162790697,273.3255813953488 L211.04651162790697,281.3255813953488 M338.95348837209303,273.3255813953488 L338.95348837209303,281.3255813953488 M402.90697674418607,273.3255813953488 L402.90697674418607,281.3255813953488 M466.8604651162791,273.3255813953488 L466.8604651162791,281.3255813953488 M530.8139534883721,273.3255813953488 L530.8139534883721,281.3255813953488 M271,434.30232558139534 L279,434.30232558139534 M271,381.97674418604646 L279,381.97674418604646 M271,329.65116279069764 L279,329.65116279069764 M271,225 L279,225 M271,172.67441860465112 L279,172.67441860465112 M271,120.3488372093023 L279,120.3488372093023 M271,68.02325581395345 L279,68.02325581395345 M271,15.697674418604606 L279,15.697674418604606 " fill="none" stroke="black" stroke-width="1"></path><text x="19.186046511627893" y="305.3255813953488" fill="black" font-family="sans" font-weight="normal" font-style="normal" font-size="25" text-anchor="middle">-4</text><text x="83.13953488372093" y="305.3255813953488" fill="black" font-family="sans" font-weight="normal" font-style="normal" font-size="25" text-anchor="middle">-3</text><text x="147.09302325581393" y="305.3255813953488" fill="black" font-family="sans" font-weight="normal" font-style="normal" font-size="25" text-anchor="middle">-2</text><text x="211.04651162790697" y="305.3255813953488" fill="black" font-family="sans" font-weight="normal" font-style="normal" font-size="25" text-anchor="middle">-1</text><text x="338.95348837209303" y="305.3255813953488" fill="black" font-family="sans" font-weight="normal" font-style="normal" font-size="25" text-anchor="middle">1</text><text x="402.90697674418607" y="305.3255813953488" fill="black" font-family="sans" font-weight="normal" font-style="normal" font-size="25" text-anchor="middle">2</text><text x="466.8604651162791" y="305.3255813953488" fill="black" font-family="sans" font-weight="normal" font-style="normal" font-size="25" text-anchor="middle">3</text><text x="530.8139534883721" y="305.3255813953488" fill="black" font-family="sans" font-weight="normal" font-style="normal" font-size="25" text-anchor="middle">4</text><text x="260" y="442.30232558139534" fill="black" font-family="sans" font-weight="normal" font-style="normal" font-size="25" text-anchor="end">-3</text><text x="260" y="389.97674418604646" fill="black" font-family="sans" font-weight="normal" font-style="normal" font-size="25" text-anchor="end">-2</text><text x="260" y="337.65116279069764" fill="black" font-family="sans" font-weight="normal" font-style="normal" font-size="25" text-anchor="end">-1</text><text x="260" y="233" fill="black" font-family="sans" font-weight="normal" font-style="normal" font-size="25" text-anchor="end">1</text><text x="260" y="180.67441860465112" fill="black" font-family="sans" font-weight="normal" font-style="normal" font-size="25" text-anchor="end">2</text><text x="260" y="128.3488372093023" fill="black" font-family="sans" font-weight="normal" font-style="normal" font-size="25" text-anchor="end">3</text><text x="260" y="76.02325581395345" fill="black" font-family="sans" font-weight="normal" font-style="normal" font-size="25" text-anchor="end">4</text><text x="260" y="23.697674418604606" fill="black" font-family="sans" font-weight="normal" font-style="normal" font-size="25" text-anchor="end">5</text><path d="M275,277.3255813953488 L275.63953488372096,276.27906976744185 L276.27906976744185,275.2325581395349 L276.9186046511628,274.18604651162786 L277.5581395348837,273.1395348837209 L278.19767441860466,272.09302325581393 L278.83720930232556,271.04651162790697 L279.4767441860465,270 L280.1162790697674,268.953488372093 L280.75581395348837,267.906976744186 L281.3953488372093,266.86046511627904 L282.0348837209302,265.8139534883721 L282.6744186046512,264.7674418604651 L283.3139534883721,263.72093023255815 L283.95348837209303,262.6744186046511 L284.59302325581393,261.62790697674416 L285.2325581395349,260.5813953488372 L285.87209302325584,259.5348837209302 L286.51162790697674,258.48837209302326 L287.1511627906977,257.44186046511624 L287.7906976744186,256.39534883720927 L288.43023255813955,255.3488372093023 L289.06976744186045,254.30232558139534 L289.7093023255814,253.25581395348837 L290.34883720930236,252.20930232558135 L290.98837209302326,251.16279069767438 L291.6279069767442,250.11627906976742 L292.2674418604651,249.06976744186045 L292.90697674418607,248.02325581395348 L293.54651162790697,246.97674418604646 L294.1860465116279,245.9302325581395 L294.8255813953488,244.88372093023253 L295.4651162790698,243.83720930232556 L296.10465116279073,242.7906976744186 L296.74418604651163,241.74418604651157 L297.3837209302326,240.6976744186046 L298.0232558139535,239.65116279069764 L298.66279069767444,238.60465116279067 L299.30232558139534,237.55813953488365 L299.9418604651163,236.51162790697668 L300.58139534883725,235.46511627906972 L301.22093023255815,234.41860465116275 L301.8604651162791,233.3720930232558 L302.5,232.32558139534882 L303.13953488372096,231.2790697674418 L303.77906976744185,230.23255813953483 L304.4186046511628,229.18604651162786 L305.05813953488376,228.1395348837209 L305.69767441860466,227.09302325581388 L306.3372093023256,226.0465116279069 L306.9767441860465,224.99999999999994 L307.6162790697675,223.95348837209298 L308.25581395348837,222.906976744186 L308.8953488372093,221.86046511627904 L309.5348837209302,220.81395348837202 L310.1744186046512,219.76744186046506 L310.81395348837214,218.7209302325581 L311.45348837209303,217.67441860465112 L312.093023255814,216.62790697674416 L312.7325581395349,215.58139534883713 L313.37209302325584,214.53488372093017 L314.01162790697674,213.4883720930232 L314.6511627906977,212.44186046511624 L315.29069767441865,211.39534883720927 L315.93023255813955,210.34883720930225 L316.5697674418605,209.30232558139528 L317.2093023255814,208.2558139534883 L317.84883720930236,207.20930232558135 L318.48837209302326,206.16279069767432 L319.1279069767442,205.11627906976736 L319.76744186046517,204.0697674418604 L320.40697674418607,203.02325581395343 L321.046511627907,201.97674418604646 L321.6860465116279,200.9302325581395 L322.3255813953489,199.88372093023247 L322.9651162790698,198.8372093023255 L323.60465116279073,197.79069767441854 L324.2441860465117,196.74418604651157 L324.8837209302326,195.69767441860455 L325.52325581395354,194.65116279069758 L326.16279069767444,193.60465116279062 L326.8023255813954,192.55813953488365 L327.4418604651163,191.51162790697668 L328.08139534883725,190.46511627906972 L328.7209302325582,189.4186046511627 L329.3604651162791,188.37209302325573 L330.00000000000006,187.32558139534876 L330.63953488372096,186.2790697674418 L331.2790697674419,185.23255813953477 L331.9186046511628,184.1860465116278 L332.55813953488376,183.13953488372084 L333.1976744186047,182.09302325581388 L333.8372093023256,181.0465116279069 L334.4767441860466,179.99999999999994 L335.1162790697675,178.95348837209292 L335.7558139534884,177.90697674418595 L336.3953488372093,176.860465116279 L337.0348837209303,175.81395348837202 L337.67441860465124,174.767441860465 L338.31395348837214,173.72093023255803 L338.9534883720931,172.67441860465107 L339.593023255814,171.6279069767441 L340.23255813953494,170.58139534883713 L340.87209302325584,169.53488372093017 L341.5116279069768,168.48837209302314 L342.15116279069775,167.44186046511618 L342.79069767441865,166.3953488372092 L343.43023255813955,165.3488372093022 L344.0697674418605,164.30232558139522 L344.70930232558146,163.25581395348826 L345.34883720930236,162.2093023255813 L345.9883720930233,161.16279069767432 L346.62790697674427,160.11627906976736 L347.26744186046517,159.06976744186034 L347.90697674418607,158.02325581395337 L348.546511627907,156.9767441860464 L349.186046511628,155.93023255813944 L349.8255813953489,154.8837209302324 L350.46511627906983,153.83720930232545 L351.1046511627908,152.79069767441848 L351.7441860465117,151.74418604651152 L352.3837209302326,150.69767441860455 L353.02325581395354,149.65116279069758 L353.6627906976745,148.60465116279062 L354.3023255813954,147.5581395348836 L354.94186046511635,146.51162790697663 L355.5813953488373,145.4651162790696 L356.2209302325582,144.41860465116264 L356.8604651162791,143.37209302325567 L357.50000000000006,142.3255813953487 L358.139534883721,141.27906976744174 L358.7790697674419,140.23255813953477 L359.41860465116287,139.1860465116278 L360.0581395348838,138.13953488372084 L360.6976744186047,137.09302325581382 L361.3372093023256,136.04651162790685 L361.9767441860466,134.99999999999983 L362.61627906976753,133.95348837209286 L363.2558139534884,132.9069767441859 L363.8953488372094,131.86046511627893 L364.5348837209303,130.81395348837196 L365.17441860465124,129.767441860465 L365.81395348837214,128.72093023255803 L366.4534883720931,127.67441860465107 L367.09302325581405,126.62790697674404 L367.73255813953494,125.58139534883708 L368.3720930232559,124.53488372093005 L369.0116279069768,123.48837209302309 L369.65116279069775,122.44186046511612 L370.29069767441865,121.39534883720916 L370.9302325581396,120.34883720930219 L371.56976744186056,119.30232558139522 L372.20930232558146,118.25581395348826 L372.8488372093024,117.20930232558123 L373.4883720930233,116.16279069767427 L374.12790697674427,115.1162790697673 L374.76744186046517,114.06976744186028 L375.4069767441861,113.02325581395331 L376.0465116279071,111.97674418604635 L376.686046511628,110.93023255813938 L377.32558139534893,109.88372093023241 L377.96511627906983,108.83720930232545 L378.6046511627908,107.79069767441848 L379.2441860465117,106.74418604651146 L379.88372093023264,105.69767441860449 L380.5232558139536,104.65116279069753 L381.1627906976745,103.6046511627905 L381.80232558139545,102.55813953488354 L382.44186046511635,101.51162790697657 L383.0813953488373,100.4651162790696 L383.7209302325582,99.41860465116264 L384.36046511627916,98.37209302325567 L385.0000000000001,97.3255813953487 L385.639534883721,96.27906976744168 L386.27906976744197,95.23255813953472 L386.91860465116287,94.1860465116277 L387.5581395348838,93.13953488372073 L388.1976744186047,92.09302325581376 L388.8372093023257,91.0465116279068 L389.47674418604663,89.99999999999983 L390.11627906976753,88.95348837209286 L390.7558139534885,87.9069767441859 L391.3953488372094,86.86046511627893 L392.03488372093034,85.81395348837191 L392.67441860465124,84.76744186046494 L393.3139534883722,83.72093023255792 L393.95348837209315,82.67441860465098 L394.59302325581405,81.62790697674401 L395.232558139535,80.58139534883702 L395.8720930232559,79.53488372093005 L396.51162790697686,78.48837209302306 L397.15116279069775,77.4418604651161 L397.7906976744187,76.39534883720913 L398.43023255813966,75.34883720930213 L399.06976744186056,74.30232558139517 L399.7093023255815,73.25581395348817 L400.3488372093024,72.2093023255812 L400.9883720930234,71.16279069767421 L401.62790697674427,70.11627906976724 L402.2674418604652,69.06976744186028 " fill="none" stroke="blue" stroke-width="2"></path><path d="M211.04651162790697,381.97674418604646 L211.36627906976744,381.7151162790697 L211.68604651162792,381.453488372093 L212.00581395348837,381.19186046511624 L212.32558139534882,380.9302325581395 L212.6453488372093,380.66860465116275 L212.96511627906978,380.406976744186 L213.28488372093022,380.14534883720927 L213.6046511627907,379.8837209302325 L213.92441860465115,379.6220930232558 L214.24418604651163,379.36046511627904 L214.56395348837208,379.0988372093023 L214.88372093023256,378.83720930232556 L215.20348837209303,378.5755813953488 L215.52325581395348,378.3139534883721 L215.84302325581396,378.05232558139534 L216.1627906976744,377.7906976744186 L216.4825581395349,377.52906976744185 L216.80232558139534,377.2674418604651 L217.12209302325581,377.00581395348837 L217.4418604651163,376.74418604651163 L217.76162790697674,376.4825581395349 L218.08139534883722,376.22093023255815 L218.40116279069767,375.9593023255814 L218.72093023255815,375.69767441860466 L219.0406976744186,375.4360465116279 L219.36046511627907,375.1744186046512 L219.68023255813955,374.91279069767444 L220,374.6511627906977 L220.31976744186048,374.38953488372096 L220.63953488372093,374.1279069767442 L220.9593023255814,373.8662790697675 L221.27906976744185,373.6046511627906 L221.59883720930233,373.343023255814 L221.9186046511628,373.08139534883713 L222.23837209302326,372.8197674418604 L222.55813953488374,372.55813953488365 L222.87790697674419,372.296511627907 L223.19767441860466,372.03488372093017 L223.5174418604651,371.7732558139534 L223.8372093023256,371.5116279069767 L224.15697674418607,371.24999999999994 L224.47674418604652,370.9883720930232 L224.796511627907,370.72674418604646 L225.11627906976744,370.4651162790697 L225.43604651162792,370.203488372093 L225.75581395348837,369.94186046511624 L226.07558139534885,369.6802325581395 L226.39534883720933,369.41860465116275 L226.71511627906978,369.156976744186 L227.03488372093025,368.89534883720927 L227.3546511627907,368.6337209302325 L227.67441860465118,368.3720930232558 L227.99418604651163,368.11046511627904 L228.3139534883721,367.8488372093023 L228.63372093023258,367.58720930232556 L228.95348837209303,367.3255813953488 L229.2732558139535,367.0639534883721 L229.59302325581396,366.80232558139534 L229.91279069767444,366.5406976744186 L230.2325581395349,366.27906976744185 L230.55232558139537,366.0174418604651 L230.87209302325584,365.75581395348837 L231.1918604651163,365.49418604651163 L231.51162790697677,365.2325581395349 L231.83139534883722,364.97093023255815 L232.1511627906977,364.7093023255814 L232.47093023255815,364.44767441860466 L232.79069767441862,364.1860465116279 L233.1104651162791,363.9244186046512 L233.43023255813955,363.66279069767444 L233.75000000000003,363.4011627906976 L234.06976744186048,363.13953488372096 L234.38953488372096,362.8779069767442 L234.7093023255814,362.6162790697675 L235.02906976744188,362.3546511627906 L235.34883720930236,362.093023255814 L235.6686046511628,361.83139534883713 L235.98837209302326,361.5697674418604 L236.30813953488374,361.30813953488365 L236.6279069767442,361.0465116279069 L236.94767441860466,360.78488372093017 L237.26744186046514,360.5232558139534 L237.58720930232562,360.2616279069767 L237.90697674418607,359.99999999999994 L238.22674418604652,359.7383720930232 L238.546511627907,359.47674418604646 L238.86627906976747,359.2151162790697 L239.18604651162792,358.953488372093 L239.5058139534884,358.69186046511624 L239.82558139534888,358.4302325581395 L240.14534883720933,358.16860465116275 L240.46511627906978,357.906976744186 L240.78488372093025,357.64534883720927 L241.10465116279073,357.3837209302325 L241.42441860465118,357.1220930232558 L241.74418604651166,356.86046511627904 L242.06395348837214,356.5988372093023 L242.38372093023258,356.33720930232556 L242.70348837209303,356.0755813953488 L243.0232558139535,355.8139534883721 L243.343023255814,355.55232558139534 L243.66279069767444,355.2906976744186 L243.98255813953492,355.02906976744185 L244.30232558139537,354.7674418604651 L244.62209302325584,354.50581395348837 L244.9418604651163,354.24418604651163 L245.26162790697677,353.9825581395349 L245.58139534883725,353.72093023255815 L245.9011627906977,353.4593023255814 L246.22093023255817,353.19767441860466 L246.54069767441862,352.9360465116279 L246.8604651162791,352.67441860465107 L247.18023255813955,352.41279069767444 L247.50000000000003,352.1511627906976 L247.8197674418605,351.88953488372084 L248.13953488372096,351.6279069767441 L248.45930232558143,351.3662790697675 L248.77906976744188,351.1046511627906 L249.09883720930236,350.8430232558139 L249.4186046511628,350.58139534883713 L249.7383720930233,350.3197674418604 L250.05813953488376,350.05813953488365 L250.3779069767442,349.7965116279069 L250.6976744186047,349.53488372093017 L251.01744186046514,349.2732558139534 L251.33720930232562,349.0116279069767 L251.65697674418607,348.74999999999994 L251.97674418604655,348.4883720930232 L252.29651162790702,348.22674418604646 L252.61627906976747,347.9651162790697 L252.93604651162795,347.703488372093 L253.2558139534884,347.44186046511624 L253.57558139534888,347.1802325581395 L253.89534883720933,346.91860465116275 L254.2151162790698,346.656976744186 L254.53488372093028,346.39534883720927 L254.85465116279073,346.1337209302325 L255.1744186046512,345.8720930232558 L255.49418604651166,345.61046511627904 L255.81395348837214,345.3488372093023 L256.1337209302326,345.08720930232556 L256.45348837209303,344.8255813953488 L256.77325581395354,344.5639534883721 L257.093023255814,344.30232558139534 L257.41279069767444,344.0406976744186 L257.73255813953494,343.77906976744185 L258.0523255813954,343.5174418604651 L258.37209302325584,343.25581395348837 L258.6918604651163,342.99418604651163 L259.0116279069768,342.7325581395349 L259.33139534883725,342.47093023255803 L259.6511627906977,342.2093023255814 L259.9709302325582,341.94767441860455 L260.29069767441865,341.6860465116279 L260.6104651162791,341.42441860465107 L260.93023255813955,341.1627906976743 L261.25000000000006,340.9011627906976 L261.5697674418605,340.63953488372084 L261.88953488372096,340.3779069767441 L262.20930232558146,340.11627906976736 L262.5290697674419,339.8546511627906 L262.84883720930236,339.5930232558139 L263.1686046511628,339.33139534883713 L263.4883720930233,339.0697674418604 L263.80813953488376,338.80813953488365 L264.1279069767442,338.5465116279069 L264.4476744186047,338.28488372093017 L264.76744186046517,338.0232558139534 L265.0872093023256,337.7616279069767 L265.40697674418607,337.49999999999994 L265.7267441860466,337.2383720930232 L266.046511627907,336.97674418604646 L266.3662790697675,336.7151162790697 L266.686046511628,336.453488372093 L267.0058139534884,336.19186046511624 L267.3255813953489,335.9302325581395 L267.6453488372093,335.66860465116275 L267.96511627906983,335.406976744186 L268.2848837209303,335.14534883720927 L268.60465116279073,334.8837209302325 L268.92441860465124,334.6220930232558 L269.2441860465117,334.36046511627904 L269.56395348837214,334.09883720930225 L269.8837209302326,333.8372093023255 L270.2034883720931,333.57558139534876 L270.52325581395354,333.313953488372 L270.843023255814,333.0523255813953 L271.1627906976745,332.79069767441854 L271.48255813953494,332.5290697674418 L271.8023255813954,332.26744186046506 L272.12209302325584,332.0058139534883 L272.44186046511635,331.7441860465116 L272.7616279069768,331.48255813953483 L273.08139534883725,331.2209302325581 L273.40116279069775,330.95930232558135 L273.7209302325582,330.6976744186046 L274.04069767441865,330.43604651162786 L274.3604651162791,330.1744186046511 L274.6802325581396,329.9127906976744 " fill="none" stroke="blue" stroke-width="2"></path><path d="M215.04651162790697,381.97674418604646 C215.04651162790697,384.1858831853696,213.25565062723015,385.97674418604646,211.04651162790697,385.97674418604646 C208.83737262858378,385.97674418604646,207.04651162790697,384.1858831853696,207.04651162790697,381.97674418604646 C207.04651162790697,379.7676051867233,208.83737262858378,377.97674418604646,211.04651162790697,377.97674418604646 C213.25565062723015,377.97674418604646,215.04651162790697,379.7676051867233,215.04651162790697,381.97674418604646 M211.04651162790697,381.97674418604646 " fill="blue" stroke="blue" stroke-width="2"></path><text x="211.04651162790697" y="402.97674418604646" fill="black" font-family="times" font-weight="normal" font-style="italic" font-size="16" text-anchor="middle"></text><path d="M279,329.65116279069764 C279,331.8603017900208,277.20913899932316,333.65116279069764,275,333.65116279069764 C272.79086100067684,333.65116279069764,271,331.8603017900208,271,329.65116279069764 C271,327.4420237913745,272.79086100067684,325.65116279069764,275,325.65116279069764 C277.20913899932316,325.65116279069764,279,327.4420237913745,279,329.65116279069764 M275,329.65116279069764 " fill="blue" stroke="blue" stroke-width="2"></path><text x="275" y="350.65116279069764" fill="black" font-family="times" font-weight="normal" font-style="italic" font-size="16" text-anchor="middle"></text><path d="M279,277.3255813953488 C279,279.534720394672,277.20913899932316,281.3255813953488,275,281.3255813953488 C272.79086100067684,281.3255813953488,271,279.534720394672,271,277.3255813953488 C271,275.11644239602566,272.79086100067684,273.3255813953488,275,273.3255813953488 C277.20913899932316,273.3255813953488,279,275.11644239602566,279,277.3255813953488 M275,277.3255813953488 " fill="white" stroke="blue" stroke-width="2"></path><text x="275" y="298.3255813953488" fill="black" font-family="times" font-weight="normal" font-style="italic" font-size="16" text-anchor="middle"></text><path d="M406.90697674418607,68.02325581395345 C406.90697674418607,70.23239481327663,405.1161157435092,72.02325581395345,402.90697674418607,72.02325581395345 C400.6978377448629,72.02325581395345,398.90697674418607,70.23239481327663,398.90697674418607,68.02325581395345 C398.90697674418607,65.81411681463028,400.6978377448629,64.02325581395345,402.90697674418607,64.02325581395345 C405.1161157435092,64.02325581395345,406.90697674418607,65.81411681463028,406.90697674418607,68.02325581395345 M402.90697674418607,68.02325581395345 " fill="blue" stroke="blue" stroke-width="2"></path><text x="402.90697674418607" y="89.02325581395345" fill="black" font-family="times" font-weight="normal" font-style="italic" font-size="16" text-anchor="middle"></text><text x="115.11627906976744" y="154.51162790697668" fill="black" font-family="times" font-weight="normal" font-style="italic" font-size="32" text-anchor="middle">y=f(x)</text><asciisvg>initPicture(-4.3,4.3,-3.3,5.3)
fontsize=25
axes(1, 1, "labels", 1)

fontstyle="italic"
fontfamily="times"

fontsize=16
strokewidth = "2"
stroke = "blue"
plot("2x",0,2)
plot("-1+x",-1,0)

dot([-1,-2],"closed","")
dot([0,-1],"closed","")
dot([0,0],"open","")
dot([2,4],"closed","")

fontsize=32
text([-2.5,2.5],"y=f(x)")

//stroke = "red"
//plot(["5*t*cos(pi*t)", "5*t*sin(pi*t)"],0,1)

//stroke = "green"

//marker = "arrowdot"
//line([0,1], [pi/2,1])
//dot([pi,0], "open", cpi)

//text([-2.5,-2.5], "ASCIIsvg Examplee")
						</asciisvg></svg> 

