<svg width="550" height="450" id="target"><rect x="0" y="0" width="550" height="450" fill="white"></rect><rect x="0" y="0" width="550" height="450" fill="white"></rect><path d="M127.67857142857144,322.82608695652175 L127.67857142857144,200.54347826086953 " fill="none" stroke="lightgreen" stroke-width="1"></path><path d="M128.6607142857143,322.82608695652175 L128.6607142857143,201.0301630434782 " fill="none" stroke="lightgreen" stroke-width="1"></path><path d="M129.64285714285717,322.82608695652175 L129.64285714285717,201.5119565217391 " fill="none" stroke="lightgreen" stroke-width="1"></path><path d="M130.62500000000003,322.82608695652175 L130.62500000000003,201.98885869565217 " fill="none" stroke="lightgreen" stroke-width="1"></path><path d="M131.60714285714286,322.82608695652175 L131.60714285714286,202.4608695652174 " fill="none" stroke="lightgreen" stroke-width="1"></path><path d="M132.58928571428572,322.82608695652175 L132.58928571428572,202.92798913043472 " fill="none" stroke="lightgreen" stroke-width="1"></path><path d="M133.57142857142858,322.82608695652175 L133.57142857142858,203.39021739130433 " fill="none" stroke="lightgreen" stroke-width="1"></path><path d="M134.55357142857144,322.82608695652175 L134.55357142857144,203.84755434782605 " fill="none" stroke="lightgreen" stroke-width="1"></path><path d="M135.5357142857143,322.82608695652175 L135.5357142857143,204.29999999999998 " fill="none" stroke="lightgreen" stroke-width="1"></path><path d="M136.51785714285717,322.82608695652175 L136.51785714285717,204.74755434782602 " fill="none" stroke="lightgreen" stroke-width="1"></path><path d="M137.50000000000003,322.82608695652175 L137.50000000000003,205.1902173913043 " fill="none" stroke="lightgreen" stroke-width="1"></path><path d="M138.48214285714286,322.82608695652175 L138.48214285714286,205.62798913043477 " fill="none" stroke="lightgreen" stroke-width="1"></path><path d="M139.46428571428572,322.82608695652175 L139.46428571428572,206.06086956521736 " fill="none" stroke="lightgreen" stroke-width="1"></path><path d="M140.44642857142858,322.82608695652175 L140.44642857142858,206.48885869565217 " fill="none" stroke="lightgreen" stroke-width="1"></path><path d="M141.42857142857144,322.82608695652175 L141.42857142857144,206.91195652173909 " fill="none" stroke="lightgreen" stroke-width="1"></path><path d="M142.4107142857143,322.82608695652175 L142.4107142857143,207.33016304347822 " fill="none" stroke="lightgreen" stroke-width="1"></path><path d="M143.39285714285717,322.82608695652175 L143.39285714285717,207.74347826086952 " fill="none" stroke="lightgreen" stroke-width="1"></path><path d="M144.37500000000003,322.82608695652175 L144.37500000000003,208.151902173913 " fill="none" stroke="lightgreen" stroke-width="1"></path><path d="M145.3571428571429,322.82608695652175 L145.3571428571429,208.55543478260867 " fill="none" stroke="lightgreen" stroke-width="1"></path><path d="M146.33928571428572,322.82608695652175 L146.33928571428572,208.95407608695646 " fill="none" stroke="lightgreen" stroke-width="1"></path><path d="M147.32142857142858,322.82608695652175 L147.32142857142858,209.34782608695647 " fill="none" stroke="lightgreen" stroke-width="1"></path><path d="M148.30357142857144,322.82608695652175 L148.30357142857144,209.73668478260865 " fill="none" stroke="lightgreen" stroke-width="1"></path><path d="M149.2857142857143,322.82608695652175 L149.2857142857143,210.12065217391304 " fill="none" stroke="lightgreen" stroke-width="1"></path><path d="M150.26785714285717,322.82608695652175 L150.26785714285717,210.49972826086955 " fill="none" stroke="lightgreen" stroke-width="1"></path><path d="M151.25000000000003,322.82608695652175 L151.25000000000003,210.8739130434782 " fill="none" stroke="lightgreen" stroke-width="1"></path><path d="M152.2321428571429,322.82608695652175 L152.2321428571429,211.2432065217391 " fill="none" stroke="lightgreen" stroke-width="1"></path><path d="M153.21428571428575,322.82608695652175 L153.21428571428575,211.60760869565215 " fill="none" stroke="lightgreen" stroke-width="1"></path><path d="M154.1964285714286,322.82608695652175 L154.1964285714286,211.96711956521736 " fill="none" stroke="lightgreen" stroke-width="1"></path><path d="M155.17857142857144,322.82608695652175 L155.17857142857144,212.3217391304348 " fill="none" stroke="lightgreen" stroke-width="1"></path><path d="M156.1607142857143,322.82608695652175 L156.1607142857143,212.67146739130433 " fill="none" stroke="lightgreen" stroke-width="1"></path><path d="M157.14285714285717,322.82608695652175 L157.14285714285717,213.01630434782604 " fill="none" stroke="lightgreen" stroke-width="1"></path><path d="M158.12500000000003,322.82608695652175 L158.12500000000003,213.35624999999996 " fill="none" stroke="lightgreen" stroke-width="1"></path><path d="M159.1071428571429,322.82608695652175 L159.1071428571429,213.69130434782605 " fill="none" stroke="lightgreen" stroke-width="1"></path><path d="M160.08928571428575,322.82608695652175 L160.08928571428575,214.0214673913043 " fill="none" stroke="lightgreen" stroke-width="1"></path><path d="M161.0714285714286,322.82608695652175 L161.0714285714286,214.34673913043477 " fill="none" stroke="lightgreen" stroke-width="1"></path><path d="M162.05357142857144,322.82608695652175 L162.05357142857144,214.66711956521735 " fill="none" stroke="lightgreen" stroke-width="1"></path><path d="M163.03571428571433,322.82608695652175 L163.03571428571433,214.98260869565215 " fill="none" stroke="lightgreen" stroke-width="1"></path><path d="M164.01785714285717,322.82608695652175 L164.01785714285717,215.2932065217391 " fill="none" stroke="lightgreen" stroke-width="1"></path><path d="M165.00000000000003,322.82608695652175 L165.00000000000003,215.59891304347823 " fill="none" stroke="lightgreen" stroke-width="1"></path><path d="M165.9821428571429,322.82608695652175 L165.9821428571429,215.89972826086952 " fill="none" stroke="lightgreen" stroke-width="1"></path><path d="M166.96428571428575,322.82608695652175 L166.96428571428575,216.19565217391303 " fill="none" stroke="lightgreen" stroke-width="1"></path><path d="M167.9464285714286,322.82608695652175 L167.9464285714286,216.48668478260865 " fill="none" stroke="lightgreen" stroke-width="1"></path><path d="M168.92857142857147,322.82608695652175 L168.92857142857147,216.77282608695654 " fill="none" stroke="lightgreen" stroke-width="1"></path><path d="M169.91071428571433,322.82608695652175 L169.91071428571433,217.05407608695648 " fill="none" stroke="lightgreen" stroke-width="1"></path><path d="M170.89285714285717,322.82608695652175 L170.89285714285717,217.33043478260865 " fill="none" stroke="lightgreen" stroke-width="1"></path><path d="M171.87500000000006,322.82608695652175 L171.87500000000006,217.60190217391298 " fill="none" stroke="lightgreen" stroke-width="1"></path><path d="M172.8571428571429,322.82608695652175 L172.8571428571429,217.86847826086952 " fill="none" stroke="lightgreen" stroke-width="1"></path><path d="M173.83928571428575,322.82608695652175 L173.83928571428575,218.13016304347823 " fill="none" stroke="lightgreen" stroke-width="1"></path><path d="M174.8214285714286,322.82608695652175 L174.8214285714286,218.3869565217391 " fill="none" stroke="lightgreen" stroke-width="1"></path><path d="M175.80357142857147,322.82608695652175 L175.80357142857147,218.63885869565215 " fill="none" stroke="lightgreen" stroke-width="1"></path><path d="M176.78571428571433,322.82608695652175 L176.78571428571433,218.88586956521735 " fill="none" stroke="lightgreen" stroke-width="1"></path><path d="M177.7678571428572,322.82608695652175 L177.7678571428572,219.12798913043477 " fill="none" stroke="lightgreen" stroke-width="1"></path><path d="M178.75000000000006,322.82608695652175 L178.75000000000006,219.3652173913043 " fill="none" stroke="lightgreen" stroke-width="1"></path><path d="M179.7321428571429,322.82608695652175 L179.7321428571429,219.59755434782605 " fill="none" stroke="lightgreen" stroke-width="1"></path><path d="M180.71428571428575,322.82608695652175 L180.71428571428575,219.82499999999996 " fill="none" stroke="lightgreen" stroke-width="1"></path><path d="M181.6964285714286,322.82608695652175 L181.6964285714286,220.0475543478261 " fill="none" stroke="lightgreen" stroke-width="1"></path><path d="M182.67857142857147,322.82608695652175 L182.67857142857147,220.26521739130433 " fill="none" stroke="lightgreen" stroke-width="1"></path><path d="M183.66071428571433,322.82608695652175 L183.66071428571433,220.4779891304348 " fill="none" stroke="lightgreen" stroke-width="1"></path><path d="M184.6428571428572,322.82608695652175 L184.6428571428572,220.68586956521736 " fill="none" stroke="lightgreen" stroke-width="1"></path><path d="M185.62500000000006,322.82608695652175 L185.62500000000006,220.88885869565215 " fill="none" stroke="lightgreen" stroke-width="1"></path><path d="M186.60714285714292,322.82608695652175 L186.60714285714292,221.0869565217391 " fill="none" stroke="lightgreen" stroke-width="1"></path><path d="M187.58928571428578,322.82608695652175 L187.58928571428578,221.28016304347827 " fill="none" stroke="lightgreen" stroke-width="1"></path><path d="M188.5714285714286,322.82608695652175 L188.5714285714286,221.46847826086955 " fill="none" stroke="lightgreen" stroke-width="1"></path><path d="M189.55357142857147,322.82608695652175 L189.55357142857147,221.65190217391304 " fill="none" stroke="lightgreen" stroke-width="1"></path><path d="M190.53571428571433,322.82608695652175 L190.53571428571433,221.83043478260865 " fill="none" stroke="lightgreen" stroke-width="1"></path><path d="M191.5178571428572,322.82608695652175 L191.5178571428572,222.00407608695647 " fill="none" stroke="lightgreen" stroke-width="1"></path><path d="M192.50000000000006,322.82608695652175 L192.50000000000006,222.17282608695652 " fill="none" stroke="lightgreen" stroke-width="1"></path><path d="M193.48214285714292,322.82608695652175 L193.48214285714292,222.33668478260867 " fill="none" stroke="lightgreen" stroke-width="1"></path><path d="M194.46428571428578,322.82608695652175 L194.46428571428578,222.49565217391304 " fill="none" stroke="lightgreen" stroke-width="1"></path><path d="M195.4464285714286,322.82608695652175 L195.4464285714286,222.64972826086952 " fill="none" stroke="lightgreen" stroke-width="1"></path><path d="M196.4285714285715,322.82608695652175 L196.4285714285715,222.79891304347822 " fill="none" stroke="lightgreen" stroke-width="1"></path><path d="M197.41071428571433,322.82608695652175 L197.41071428571433,222.94320652173914 " fill="none" stroke="lightgreen" stroke-width="1"></path><path d="M198.39285714285722,322.82608695652175 L198.39285714285722,223.08260869565217 " fill="none" stroke="lightgreen" stroke-width="1"></path><path d="M199.37500000000006,322.82608695652175 L199.37500000000006,223.21711956521736 " fill="none" stroke="lightgreen" stroke-width="1"></path><path d="M200.35714285714292,322.82608695652175 L200.35714285714292,223.34673913043477 " fill="none" stroke="lightgreen" stroke-width="1"></path><path d="M201.33928571428578,322.82608695652175 L201.33928571428578,223.47146739130434 " fill="none" stroke="lightgreen" stroke-width="1"></path><path d="M202.32142857142864,322.82608695652175 L202.32142857142864,223.59130434782608 " fill="none" stroke="lightgreen" stroke-width="1"></path><path d="M203.3035714285715,322.82608695652175 L203.3035714285715,223.70624999999998 " fill="none" stroke="lightgreen" stroke-width="1"></path><path d="M204.28571428571433,322.82608695652175 L204.28571428571433,223.81630434782605 " fill="none" stroke="lightgreen" stroke-width="1"></path><path d="M205.26785714285722,322.82608695652175 L205.26785714285722,223.92146739130433 " fill="none" stroke="lightgreen" stroke-width="1"></path><path d="M206.25000000000006,322.82608695652175 L206.25000000000006,224.02173913043472 " fill="none" stroke="lightgreen" stroke-width="1"></path><path d="M207.23214285714295,322.82608695652175 L207.23214285714295,224.11711956521734 " fill="none" stroke="lightgreen" stroke-width="1"></path><path d="M208.21428571428578,322.82608695652175 L208.21428571428578,224.20760869565217 " fill="none" stroke="lightgreen" stroke-width="1"></path><path d="M209.19642857142864,322.82608695652175 L209.19642857142864,224.2932065217391 " fill="none" stroke="lightgreen" stroke-width="1"></path><path d="M210.1785714285715,322.82608695652175 L210.1785714285715,224.37391304347827 " fill="none" stroke="lightgreen" stroke-width="1"></path><path d="M211.16071428571436,322.82608695652175 L211.16071428571436,224.44972826086953 " fill="none" stroke="lightgreen" stroke-width="1"></path><path d="M212.14285714285722,322.82608695652175 L212.14285714285722,224.52065217391302 " fill="none" stroke="lightgreen" stroke-width="1"></path><path d="M213.12500000000006,322.82608695652175 L213.12500000000006,224.58668478260867 " fill="none" stroke="lightgreen" stroke-width="1"></path><path d="M214.10714285714295,322.82608695652175 L214.10714285714295,224.64782608695648 " fill="none" stroke="lightgreen" stroke-width="1"></path><path d="M215.08928571428578,322.82608695652175 L215.08928571428578,224.70407608695652 " fill="none" stroke="lightgreen" stroke-width="1"></path><path d="M216.07142857142867,322.82608695652175 L216.07142857142867,224.75543478260866 " fill="none" stroke="lightgreen" stroke-width="1"></path><path d="M217.0535714285715,322.82608695652175 L217.0535714285715,224.80190217391302 " fill="none" stroke="lightgreen" stroke-width="1"></path><path d="M218.03571428571436,322.82608695652175 L218.03571428571436,224.84347826086955 " fill="none" stroke="lightgreen" stroke-width="1"></path><path d="M219.01785714285722,322.82608695652175 L219.01785714285722,224.88016304347823 " fill="none" stroke="lightgreen" stroke-width="1"></path><path d="M220.00000000000009,322.82608695652175 L220.00000000000009,224.91195652173914 " fill="none" stroke="lightgreen" stroke-width="1"></path><path d="M220.98214285714295,322.82608695652175 L220.98214285714295,224.93885869565216 " fill="none" stroke="lightgreen" stroke-width="1"></path><path d="M221.96428571428578,322.82608695652175 L221.96428571428578,224.9608695652174 " fill="none" stroke="lightgreen" stroke-width="1"></path><path d="M222.94642857142867,322.82608695652175 L222.94642857142867,224.9779891304348 " fill="none" stroke="lightgreen" stroke-width="1"></path><path d="M223.9285714285715,322.82608695652175 L223.9285714285715,224.9902173913043 " fill="none" stroke="lightgreen" stroke-width="1"></path><path d="M224.9107142857144,322.82608695652175 L224.9107142857144,224.99755434782608 " fill="none" stroke="lightgreen" stroke-width="1"></path><path d="M225.89285714285722,322.82608695652175 L225.89285714285722,224.99999999999997 " fill="none" stroke="lightgreen" stroke-width="1"></path><path d="M226.87500000000009,322.82608695652175 L226.87500000000009,224.99755434782608 " fill="none" stroke="lightgreen" stroke-width="1"></path><path d="M227.85714285714295,322.82608695652175 L227.85714285714295,224.9902173913043 " fill="none" stroke="lightgreen" stroke-width="1"></path><path d="M228.8392857142858,322.82608695652175 L228.8392857142858,224.9779891304348 " fill="none" stroke="lightgreen" stroke-width="1"></path><path d="M229.82142857142867,322.82608695652175 L229.82142857142867,224.9608695652174 " fill="none" stroke="lightgreen" stroke-width="1"></path><path d="M230.80357142857153,322.82608695652175 L230.80357142857153,224.9388586956521 " fill="none" stroke="lightgreen" stroke-width="1"></path><path d="M231.7857142857144,322.82608695652175 L231.7857142857144,224.91195652173909 " fill="none" stroke="lightgreen" stroke-width="1"></path><path d="M232.76785714285722,322.82608695652175 L232.76785714285722,224.88016304347823 " fill="none" stroke="lightgreen" stroke-width="1"></path><path d="M233.7500000000001,322.82608695652175 L233.7500000000001,224.84347826086955 " fill="none" stroke="lightgreen" stroke-width="1"></path><path d="M234.73214285714295,322.82608695652175 L234.73214285714295,224.80190217391302 " fill="none" stroke="lightgreen" stroke-width="1"></path><path d="M235.7142857142858,322.82608695652175 L235.7142857142858,224.75543478260866 " fill="none" stroke="lightgreen" stroke-width="1"></path><path d="M236.69642857142867,322.82608695652175 L236.69642857142867,224.70407608695652 " fill="none" stroke="lightgreen" stroke-width="1"></path><path d="M237.67857142857153,322.82608695652175 L237.67857142857153,224.64782608695648 " fill="none" stroke="lightgreen" stroke-width="1"></path><path d="M238.6607142857144,322.82608695652175 L238.6607142857144,224.58668478260867 " fill="none" stroke="lightgreen" stroke-width="1"></path><path d="M239.64285714285725,322.82608695652175 L239.64285714285725,224.52065217391302 " fill="none" stroke="lightgreen" stroke-width="1"></path><path d="M240.6250000000001,322.82608695652175 L240.6250000000001,224.44972826086953 " fill="none" stroke="lightgreen" stroke-width="1"></path><path d="M241.60714285714295,322.82608695652175 L241.60714285714295,224.37391304347827 " fill="none" stroke="lightgreen" stroke-width="1"></path><path d="M242.58928571428584,322.82608695652175 L242.58928571428584,224.2932065217391 " fill="none" stroke="lightgreen" stroke-width="1"></path><path d="M243.57142857142867,322.82608695652175 L243.57142857142867,224.20760869565217 " fill="none" stroke="lightgreen" stroke-width="1"></path><path d="M244.55357142857153,322.82608695652175 L244.55357142857153,224.11711956521734 " fill="none" stroke="lightgreen" stroke-width="1"></path><path d="M245.5357142857144,322.82608695652175 L245.5357142857144,224.02173913043472 " fill="none" stroke="lightgreen" stroke-width="1"></path><path d="M246.51785714285725,322.82608695652175 L246.51785714285725,223.92146739130433 " fill="none" stroke="lightgreen" stroke-width="1"></path><path d="M247.5000000000001,322.82608695652175 L247.5000000000001,223.81630434782605 " fill="none" stroke="lightgreen" stroke-width="1"></path><path d="M248.48214285714297,322.82608695652175 L248.48214285714297,223.70624999999998 " fill="none" stroke="lightgreen" stroke-width="1"></path><path d="M249.46428571428584,322.82608695652175 L249.46428571428584,223.59130434782602 " fill="none" stroke="lightgreen" stroke-width="1"></path><path d="M250.44642857142867,322.82608695652175 L250.44642857142867,223.47146739130434 " fill="none" stroke="lightgreen" stroke-width="1"></path><path d="M251.42857142857156,322.82608695652175 L251.42857142857156,223.34673913043477 " fill="none" stroke="lightgreen" stroke-width="1"></path><path d="M252.4107142857144,322.82608695652175 L252.4107142857144,223.21711956521736 " fill="none" stroke="lightgreen" stroke-width="1"></path><path d="M253.39285714285725,322.82608695652175 L253.39285714285725,223.08260869565217 " fill="none" stroke="lightgreen" stroke-width="1"></path><path d="M254.3750000000001,322.82608695652175 L254.3750000000001,222.94320652173909 " fill="none" stroke="lightgreen" stroke-width="1"></path><path d="M255.35714285714297,322.82608695652175 L255.35714285714297,222.79891304347822 " fill="none" stroke="lightgreen" stroke-width="1"></path><path d="M256.33928571428584,322.82608695652175 L256.33928571428584,222.64972826086952 " fill="none" stroke="lightgreen" stroke-width="1"></path><path d="M257.32142857142867,322.82608695652175 L257.32142857142867,222.49565217391304 " fill="none" stroke="lightgreen" stroke-width="1"></path><path d="M258.30357142857156,322.82608695652175 L258.30357142857156,222.33668478260867 " fill="none" stroke="lightgreen" stroke-width="1"></path><path d="M259.28571428571445,322.82608695652175 L259.28571428571445,222.17282608695646 " fill="none" stroke="lightgreen" stroke-width="1"></path><path d="M260.2678571428572,322.82608695652175 L260.2678571428572,222.00407608695647 " fill="none" stroke="lightgreen" stroke-width="1"></path><path d="M261.2500000000001,322.82608695652175 L261.2500000000001,221.83043478260865 " fill="none" stroke="lightgreen" stroke-width="1"></path><path d="M262.232142857143,322.82608695652175 L262.232142857143,221.651902173913 " fill="none" stroke="lightgreen" stroke-width="1"></path><path d="M263.21428571428584,322.82608695652175 L263.21428571428584,221.46847826086955 " fill="none" stroke="lightgreen" stroke-width="1"></path><path d="M264.19642857142867,322.82608695652175 L264.19642857142867,221.2801630434782 " fill="none" stroke="lightgreen" stroke-width="1"></path><path d="M265.17857142857156,322.82608695652175 L265.17857142857156,221.0869565217391 " fill="none" stroke="lightgreen" stroke-width="1"></path><path d="M266.16071428571445,322.82608695652175 L266.16071428571445,220.88885869565215 " fill="none" stroke="lightgreen" stroke-width="1"></path><path d="M267.1428571428573,322.82608695652175 L267.1428571428573,220.6858695652173 " fill="none" stroke="lightgreen" stroke-width="1"></path><path d="M268.1250000000001,322.82608695652175 L268.1250000000001,220.47798913043474 " fill="none" stroke="lightgreen" stroke-width="1"></path><path d="M269.107142857143,322.82608695652175 L269.107142857143,220.26521739130428 " fill="none" stroke="lightgreen" stroke-width="1"></path><path d="M270.08928571428584,322.82608695652175 L270.08928571428584,220.04755434782604 " fill="none" stroke="lightgreen" stroke-width="1"></path><path d="M271.07142857142867,322.82608695652175 L271.07142857142867,219.82499999999996 " fill="none" stroke="lightgreen" stroke-width="1"></path><path d="M272.05357142857156,322.82608695652175 L272.05357142857156,219.59755434782605 " fill="none" stroke="lightgreen" stroke-width="1"></path><path d="M273.03571428571445,322.82608695652175 L273.03571428571445,219.3652173913043 " fill="none" stroke="lightgreen" stroke-width="1"></path><path d="M274.0178571428573,322.82608695652175 L274.0178571428573,219.1279891304347 " fill="none" stroke="lightgreen" stroke-width="1"></path><path d="M275.0000000000001,322.82608695652175 L275.0000000000001,218.88586956521735 " fill="none" stroke="lightgreen" stroke-width="1"></path><path d="M275.982142857143,322.82608695652175 L275.982142857143,218.63885869565215 " fill="none" stroke="lightgreen" stroke-width="1"></path><path d="M276.9642857142859,322.82608695652175 L276.9642857142859,218.38695652173905 " fill="none" stroke="lightgreen" stroke-width="1"></path><path d="M277.9464285714287,322.82608695652175 L277.9464285714287,218.13016304347818 " fill="none" stroke="lightgreen" stroke-width="1"></path><path d="M278.92857142857156,322.82608695652175 L278.92857142857156,217.86847826086952 " fill="none" stroke="lightgreen" stroke-width="1"></path><path d="M279.91071428571445,322.82608695652175 L279.91071428571445,217.60190217391298 " fill="none" stroke="lightgreen" stroke-width="1"></path><path d="M280.8928571428573,322.82608695652175 L280.8928571428573,217.33043478260865 " fill="none" stroke="lightgreen" stroke-width="1"></path><path d="M281.8750000000001,322.82608695652175 L281.8750000000001,217.05407608695643 " fill="none" stroke="lightgreen" stroke-width="1"></path><path d="M282.857142857143,322.82608695652175 L282.857142857143,216.77282608695648 " fill="none" stroke="lightgreen" stroke-width="1"></path><path d="M283.8392857142859,322.82608695652175 L283.8392857142859,216.48668478260865 " fill="none" stroke="lightgreen" stroke-width="1"></path><path d="M284.8214285714287,322.82608695652175 L284.8214285714287,216.19565217391298 " fill="none" stroke="lightgreen" stroke-width="1"></path><path d="M285.80357142857156,322.82608695652175 L285.80357142857156,215.89972826086952 " fill="none" stroke="lightgreen" stroke-width="1"></path><path d="M286.78571428571445,322.82608695652175 L286.78571428571445,215.59891304347818 " fill="none" stroke="lightgreen" stroke-width="1"></path><path d="M287.7678571428573,322.82608695652175 L287.7678571428573,215.29320652173905 " fill="none" stroke="lightgreen" stroke-width="1"></path><path d="M288.7500000000001,322.82608695652175 L288.7500000000001,214.9826086956521 " fill="none" stroke="lightgreen" stroke-width="1"></path><path d="M289.732142857143,322.82608695652175 L289.732142857143,214.66711956521735 " fill="none" stroke="lightgreen" stroke-width="1"></path><path d="M290.7142857142859,322.82608695652175 L290.7142857142859,214.3467391304347 " fill="none" stroke="lightgreen" stroke-width="1"></path><path d="M291.6964285714287,322.82608695652175 L291.6964285714287,214.0214673913043 " fill="none" stroke="lightgreen" stroke-width="1"></path><path d="M292.67857142857156,322.82608695652175 L292.67857142857156,213.69130434782605 " fill="none" stroke="lightgreen" stroke-width="1"></path><path d="M293.66071428571445,322.82608695652175 L293.66071428571445,213.3562499999999 " fill="none" stroke="lightgreen" stroke-width="1"></path><path d="M294.64285714285734,322.82608695652175 L294.64285714285734,213.01630434782598 " fill="none" stroke="lightgreen" stroke-width="1"></path><path d="M295.62500000000017,322.82608695652175 L295.62500000000017,212.67146739130428 " fill="none" stroke="lightgreen" stroke-width="1"></path><path d="M296.607142857143,322.82608695652175 L296.607142857143,212.32173913043474 " fill="none" stroke="lightgreen" stroke-width="1"></path><path d="M297.5892857142859,322.82608695652175 L297.5892857142859,211.9671195652173 " fill="none" stroke="lightgreen" stroke-width="1"></path><path d="M298.5714285714287,322.82608695652175 L298.5714285714287,211.6076086956521 " fill="none" stroke="lightgreen" stroke-width="1"></path><path d="M299.55357142857156,322.82608695652175 L299.55357142857156,211.24320652173904 " fill="none" stroke="lightgreen" stroke-width="1"></path><path d="M300.53571428571445,322.82608695652175 L300.53571428571445,210.87391304347815 " fill="none" stroke="lightgreen" stroke-width="1"></path><path d="M301.51785714285734,322.82608695652175 L301.51785714285734,210.4997282608695 " fill="none" stroke="lightgreen" stroke-width="1"></path><path d="M302.50000000000017,322.82608695652175 L302.50000000000017,210.12065217391293 " fill="none" stroke="lightgreen" stroke-width="1"></path><path d="M303.482142857143,322.82608695652175 L303.482142857143,209.73668478260865 " fill="none" stroke="lightgreen" stroke-width="1"></path><path d="M304.4642857142859,322.82608695652175 L304.4642857142859,209.34782608695642 " fill="none" stroke="lightgreen" stroke-width="1"></path><path d="M305.4464285714287,322.82608695652175 L305.4464285714287,208.9540760869564 " fill="none" stroke="lightgreen" stroke-width="1"></path><path d="M306.42857142857156,322.82608695652175 L306.42857142857156,208.55543478260861 " fill="none" stroke="lightgreen" stroke-width="1"></path><path d="M307.41071428571445,322.82608695652175 L307.41071428571445,208.15190217391293 " fill="none" stroke="lightgreen" stroke-width="1"></path><path d="M308.39285714285734,322.82608695652175 L308.39285714285734,207.74347826086947 " fill="none" stroke="lightgreen" stroke-width="1"></path><path d="M309.37500000000017,322.82608695652175 L309.37500000000017,207.33016304347817 " fill="none" stroke="lightgreen" stroke-width="1"></path><path d="M310.357142857143,322.82608695652175 L310.357142857143,206.91195652173903 " fill="none" stroke="lightgreen" stroke-width="1"></path><path d="M311.3392857142859,322.82608695652175 L311.3392857142859,206.48885869565206 " fill="none" stroke="lightgreen" stroke-width="1"></path><path d="M312.3214285714288,322.82608695652175 L312.3214285714288,206.0608695652173 " fill="none" stroke="lightgreen" stroke-width="1"></path><path d="M313.3035714285716,322.82608695652175 L313.3035714285716,205.6279891304347 " fill="none" stroke="lightgreen" stroke-width="1"></path><path d="M314.28571428571445,322.82608695652175 L314.28571428571445,205.19021739130423 " fill="none" stroke="lightgreen" stroke-width="1"></path><path d="M315.26785714285734,322.82608695652175 L315.26785714285734,204.74755434782602 " fill="none" stroke="lightgreen" stroke-width="1"></path><path d="M316.25000000000017,322.82608695652175 L316.25000000000017,204.29999999999993 " fill="none" stroke="lightgreen" stroke-width="1"></path><path d="M317.232142857143,322.82608695652175 L317.232142857143,203.847554347826 " fill="none" stroke="lightgreen" stroke-width="1"></path><path d="M318.2142857142859,322.82608695652175 L318.2142857142859,203.39021739130428 " fill="none" stroke="lightgreen" stroke-width="1"></path><path d="M319.1964285714288,322.82608695652175 L319.1964285714288,202.92798913043472 " fill="none" stroke="lightgreen" stroke-width="1"></path><path d="M320.1785714285716,322.82608695652175 L320.1785714285716,202.46086956521728 " fill="none" stroke="lightgreen" stroke-width="1"></path><path d="M321.16071428571445,322.82608695652175 L321.16071428571445,201.98885869565206 " fill="none" stroke="lightgreen" stroke-width="1"></path><path d="M322.14285714285734,322.82608695652175 L322.14285714285734,201.511956521739 " fill="none" stroke="lightgreen" stroke-width="1"></path><path d="M323.12500000000017,322.82608695652175 L323.12500000000017,201.03016304347815 " fill="none" stroke="lightgreen" stroke-width="1"></path><path d="M324.107142857143,322.82608695652175 L324.107142857143,200.54347826086948 " fill="none" stroke="lightgreen" stroke-width="1"></path><path d="M325.0892857142859,322.82608695652175 L325.0892857142859,200.05190217391296 " fill="none" stroke="lightgreen" stroke-width="1"></path><path d="M326.07142857142867,322.82608695652175 L326.07142857142867,199.55543478260861 " fill="none" stroke="lightgreen" stroke-width="1"></path><path d="M327.05357142857156,322.82608695652175 L327.05357142857156,199.05407608695643 " fill="none" stroke="lightgreen" stroke-width="1"></path><path d="M328.03571428571433,322.82608695652175 L328.03571428571433,198.54782608695646 " fill="none" stroke="lightgreen" stroke-width="1"></path><path d="M329.0178571428572,322.82608695652175 L329.0178571428572,198.03668478260866 " fill="none" stroke="lightgreen" stroke-width="1"></path><path d="M330,322.82608695652175 L330,197.52065217391302 " fill="none" stroke="lightgreen" stroke-width="1"></path><path d="M330.9821428571429,322.82608695652175 L330.9821428571429,196.99972826086955 " fill="none" stroke="lightgreen" stroke-width="1"></path><path d="M331.9642857142857,322.82608695652175 L331.9642857142857,196.47391304347823 " fill="none" stroke="lightgreen" stroke-width="1"></path><path d="M332.94642857142856,322.82608695652175 L332.94642857142856,195.94320652173914 " fill="none" stroke="lightgreen" stroke-width="1"></path><path d="M333.9285714285714,322.82608695652175 L333.9285714285714,195.40760869565221 " fill="none" stroke="lightgreen" stroke-width="1"></path><path d="M334.9107142857142,322.82608695652175 L334.9107142857142,194.8671195652174 " fill="none" stroke="lightgreen" stroke-width="1"></path><path d="M335.89285714285705,322.82608695652175 L335.89285714285705,194.3217391304348 " fill="none" stroke="lightgreen" stroke-width="1"></path><path d="M336.8749999999999,322.82608695652175 L336.8749999999999,193.7714673913044 " fill="none" stroke="lightgreen" stroke-width="1"></path><path d="M337.8571428571427,322.82608695652175 L337.8571428571427,193.21630434782614 " fill="none" stroke="lightgreen" stroke-width="1"></path><path d="M338.83928571428555,322.82608695652175 L338.83928571428555,192.65625000000009 " fill="none" stroke="lightgreen" stroke-width="1"></path><path d="M339.82142857142844,322.82608695652175 L339.82142857142844,192.09130434782614 " fill="none" stroke="lightgreen" stroke-width="1"></path><path d="M340.8035714285712,322.82608695652175 L340.8035714285712,191.5214673913044 " fill="none" stroke="lightgreen" stroke-width="1"></path><path d="M341.7857142857141,322.82608695652175 L341.7857142857141,190.9467391304349 " fill="none" stroke="lightgreen" stroke-width="1"></path><path d="M342.7678571428569,322.82608695652175 L342.7678571428569,190.3671195652175 " fill="none" stroke="lightgreen" stroke-width="1"></path><path d="M343.7499999999998,322.82608695652175 L343.7499999999998,189.78260869565233 " fill="none" stroke="lightgreen" stroke-width="1"></path><path d="M344.73214285714255,322.82608695652175 L344.73214285714255,189.19320652173926 " fill="none" stroke="lightgreen" stroke-width="1"></path><path d="M345.71428571428544,322.82608695652175 L345.71428571428544,188.5989130434784 " fill="none" stroke="lightgreen" stroke-width="1"></path><path d="M346.6964285714282,322.82608695652175 L346.6964285714282,187.99972826086977 " fill="none" stroke="lightgreen" stroke-width="1"></path><path d="M347.6785714285711,322.82608695652175 L347.6785714285711,187.39565217391325 " fill="none" stroke="lightgreen" stroke-width="1"></path><path d="M348.66071428571394,322.82608695652175 L348.66071428571394,186.78668478260894 " fill="none" stroke="lightgreen" stroke-width="1"></path><path d="M349.64285714285677,322.82608695652175 L349.64285714285677,186.17282608695675 " fill="none" stroke="lightgreen" stroke-width="1"></path><path d="M350.6249999999996,322.82608695652175 L350.6249999999996,185.55407608695677 " fill="none" stroke="lightgreen" stroke-width="1"></path><path d="M351.60714285714243,322.82608695652175 L351.60714285714243,184.93043478260896 " fill="none" stroke="lightgreen" stroke-width="1"></path><path d="M352.58928571428527,322.82608695652175 L352.58928571428527,184.30190217391336 " fill="none" stroke="lightgreen" stroke-width="1"></path><path d="M353.5714285714281,322.82608695652175 L353.5714285714281,183.66847826086982 " fill="none" stroke="lightgreen" stroke-width="1"></path><path d="M354.55357142857093,322.82608695652175 L354.55357142857093,183.03016304347855 " fill="none" stroke="lightgreen" stroke-width="1"></path><path d="M355.53571428571377,322.82608695652175 L355.53571428571377,182.38695652173945 " fill="none" stroke="lightgreen" stroke-width="1"></path><path d="M356.51785714285666,322.82608695652175 L356.51785714285666,181.7388586956525 " fill="none" stroke="lightgreen" stroke-width="1"></path><path d="M357.49999999999943,322.82608695652175 L357.49999999999943,181.08586956521773 " fill="none" stroke="lightgreen" stroke-width="1"></path><path d="M358.4821428571423,322.82608695652175 L358.4821428571423,180.42798913043518 " fill="none" stroke="lightgreen" stroke-width="1"></path><path d="M359.4642857142851,322.82608695652175 L359.4642857142851,179.76521739130473 " fill="none" stroke="lightgreen" stroke-width="1"></path><path d="M360.446428571428,322.82608695652175 L360.446428571428,179.0975543478265 " fill="none" stroke="lightgreen" stroke-width="1"></path><path d="M361.42857142857076,322.82608695652175 L361.42857142857076,178.42500000000044 " fill="none" stroke="lightgreen" stroke-width="1"></path><path d="M362.41071428571365,322.82608695652175 L362.41071428571365,177.74755434782654 " fill="none" stroke="lightgreen" stroke-width="1"></path><path d="M363.3928571428565,322.82608695652175 L363.3928571428565,177.0652173913048 " fill="none" stroke="lightgreen" stroke-width="1"></path><path d="M364.3749999999993,322.82608695652175 L364.3749999999993,176.37798913043522 " fill="none" stroke="lightgreen" stroke-width="1"></path><path d="M365.35714285714215,322.82608695652175 L365.35714285714215,175.68586956521787 " fill="none" stroke="lightgreen" stroke-width="1"></path><path d="M366.339285714285,322.82608695652175 L366.339285714285,174.98885869565274 " fill="none" stroke="lightgreen" stroke-width="1"></path><path d="M367.3214285714278,322.82608695652175 L367.3214285714278,174.28695652173965 " fill="none" stroke="lightgreen" stroke-width="1"></path><path d="M368.30357142857065,322.82608695652175 L368.30357142857065,173.5801630434788 " fill="none" stroke="lightgreen" stroke-width="1"></path><path d="M369.2857142857135,322.82608695652175 L369.2857142857135,172.8684782608701 " fill="none" stroke="lightgreen" stroke-width="1"></path><path d="M370.2678571428563,322.82608695652175 L370.2678571428563,172.1519021739136 " fill="none" stroke="lightgreen" stroke-width="1"></path><path d="M371.2499999999992,322.82608695652175 L371.2499999999992,171.4304347826093 " fill="none" stroke="lightgreen" stroke-width="1"></path><path d="M372.232142857142,322.82608695652175 L372.232142857142,170.70407608695714 " fill="none" stroke="lightgreen" stroke-width="1"></path><path d="M373.21428571428487,322.82608695652175 L373.21428571428487,169.97282608695716 " fill="none" stroke="lightgreen" stroke-width="1"></path><path d="M374.19642857142765,322.82608695652175 L374.19642857142765,169.2366847826094 " fill="none" stroke="lightgreen" stroke-width="1"></path><path d="M375.17857142857054,322.82608695652175 L375.17857142857054,168.49565217391373 " fill="none" stroke="lightgreen" stroke-width="1"></path><path d="M376.1607142857133,322.82608695652175 L376.1607142857133,167.74972826087028 " fill="none" stroke="lightgreen" stroke-width="1"></path><path d="M377.1428571428562,322.82608695652175 L377.1428571428562,166.99891304347895 " fill="none" stroke="lightgreen" stroke-width="1"></path><path d="M378.124999999999,322.82608695652175 L378.124999999999,166.2432065217399 " fill="none" stroke="lightgreen" stroke-width="1"></path><path d="M379.10714285714187,322.82608695652175 L379.10714285714187,165.48260869565294 " fill="none" stroke="lightgreen" stroke-width="1"></path><path d="M380.0892857142847,322.82608695652175 L380.0892857142847,164.7171195652182 " fill="none" stroke="lightgreen" stroke-width="1"></path><path d="M381.07142857142753,322.82608695652175 L381.07142857142753,163.9467391304356 " fill="none" stroke="lightgreen" stroke-width="1"></path><path d="M382.05357142857036,322.82608695652175 L382.05357142857036,163.17146739130519 " fill="none" stroke="lightgreen" stroke-width="1"></path><path d="M383.0357142857132,322.82608695652175 L383.0357142857132,162.39130434782695 " fill="none" stroke="lightgreen" stroke-width="1"></path><path d="M384.01785714285603,322.82608695652175 L384.01785714285603,161.60625000000087 " fill="none" stroke="lightgreen" stroke-width="1"></path><path d="M384.99999999999886,322.82608695652175 L384.99999999999886,160.81630434782696 " fill="none" stroke="lightgreen" stroke-width="1"></path><path d="M385.9821428571417,322.82608695652175 L385.9821428571417,160.02146739130526 " fill="none" stroke="lightgreen" stroke-width="1"></path><path d="M386.96428571428453,322.82608695652175 L386.96428571428453,159.22173913043574 " fill="none" stroke="lightgreen" stroke-width="1"></path><path d="M387.94642857142736,322.82608695652175 L387.94642857142736,158.41711956521837 " fill="none" stroke="lightgreen" stroke-width="1"></path><path d="M388.9285714285702,322.82608695652175 L388.9285714285702,157.60760869565317 " fill="none" stroke="lightgreen" stroke-width="1"></path><path d="M389.910714285713,322.82608695652175 L389.910714285713,156.79320652174013 " fill="none" stroke="lightgreen" stroke-width="1"></path><path d="M390.89285714285586,322.82608695652175 L390.89285714285586,155.9739130434793 " fill="none" stroke="lightgreen" stroke-width="1"></path><path d="M391.87499999999875,322.82608695652175 L391.87499999999875,155.14972826087066 " fill="none" stroke="lightgreen" stroke-width="1"></path><path d="M392.8571428571416,322.82608695652175 L392.8571428571416,154.3206521739141 " fill="none" stroke="lightgreen" stroke-width="1"></path><path d="M393.8392857142844,322.82608695652175 L393.8392857142844,153.48668478260979 " fill="none" stroke="lightgreen" stroke-width="1"></path><path d="M394.82142857142725,322.82608695652175 L394.82142857142725,152.64782608695768 " fill="none" stroke="lightgreen" stroke-width="1"></path><path d="M395.8035714285701,322.82608695652175 L395.8035714285701,151.80407608695768 " fill="none" stroke="lightgreen" stroke-width="1"></path><path d="M396.7857142857129,322.82608695652175 L396.7857142857129,150.9554347826099 " fill="none" stroke="lightgreen" stroke-width="1"></path><path d="M397.76785714285575,322.82608695652175 L397.76785714285575,150.10190217391423 " fill="none" stroke="lightgreen" stroke-width="1"></path><path d="M398.7499999999986,322.82608695652175 L398.7499999999986,149.24347826087077 " fill="none" stroke="lightgreen" stroke-width="1"></path><path d="M399.7321428571414,322.82608695652175 L399.7321428571414,148.38016304347954 " fill="none" stroke="lightgreen" stroke-width="1"></path><path d="M400.71428571428424,322.82608695652175 L400.71428571428424,147.51195652174042 " fill="none" stroke="lightgreen" stroke-width="1"></path><path d="M401.6964285714271,322.82608695652175 L401.6964285714271,146.6388586956535 " fill="none" stroke="lightgreen" stroke-width="1"></path><path d="M402.6785714285699,322.82608695652175 L402.6785714285699,145.7608695652187 " fill="none" stroke="lightgreen" stroke-width="1"></path><path d="M403.66071428571274,322.82608695652175 L403.66071428571274,144.87798913043613 " fill="none" stroke="lightgreen" stroke-width="1"></path><path d="M404.6428571428556,322.82608695652175 L404.6428571428556,143.99021739130578 " fill="none" stroke="lightgreen" stroke-width="1"></path><path d="M405.6249999999984,322.82608695652175 L405.6249999999984,143.09755434782753 " fill="none" stroke="lightgreen" stroke-width="1"></path><path d="M406.60714285714124,322.82608695652175 L406.60714285714124,142.2000000000015 " fill="none" stroke="lightgreen" stroke-width="1"></path><path d="M407.58928571428413,322.82608695652175 L407.58928571428413,141.29755434782757 " fill="none" stroke="lightgreen" stroke-width="1"></path><path d="M408.57142857142696,322.82608695652175 L408.57142857142696,140.39021739130587 " fill="none" stroke="lightgreen" stroke-width="1"></path><path d="M409.5535714285698,322.82608695652175 L409.5535714285698,139.47798913043627 " fill="none" stroke="lightgreen" stroke-width="1"></path><path d="M410.53571428571263,322.82608695652175 L410.53571428571263,138.560869565219 " fill="none" stroke="lightgreen" stroke-width="1"></path><path d="M411.51785714285546,322.82608695652175 L411.51785714285546,137.63885869565374 " fill="none" stroke="lightgreen" stroke-width="1"></path><path d="M412.4999999999983,322.82608695652175 L412.4999999999983,136.71195652174075 " fill="none" stroke="lightgreen" stroke-width="1"></path><path d="M413.4821428571411,322.82608695652175 L413.4821428571411,135.78016304347992 " fill="none" stroke="lightgreen" stroke-width="1"></path><path d="M414.46428571428396,322.82608695652175 L414.46428571428396,134.84347826087125 " fill="none" stroke="lightgreen" stroke-width="1"></path><path d="M415.4464285714268,322.82608695652175 L415.4464285714268,133.90190217391475 " fill="none" stroke="lightgreen" stroke-width="1"></path><path d="M416.4285714285696,322.82608695652175 L416.4285714285696,132.95543478261047 " fill="none" stroke="lightgreen" stroke-width="1"></path><path d="M417.41071428571246,322.82608695652175 L417.41071428571246,132.0040760869583 " fill="none" stroke="lightgreen" stroke-width="1"></path><path d="M418.3928571428553,322.82608695652175 L418.3928571428553,131.04782608695834 " fill="none" stroke="lightgreen" stroke-width="1"></path><path d="M419.3749999999981,322.82608695652175 L419.3749999999981,130.0866847826105 " fill="none" stroke="lightgreen" stroke-width="1"></path><path d="M420.35714285714096,322.82608695652175 L420.35714285714096,129.12065217391486 " fill="none" stroke="lightgreen" stroke-width="1"></path><path d="M421.3392857142838,322.82608695652175 L421.3392857142838,128.14972826087146 " fill="none" stroke="lightgreen" stroke-width="1"></path><path d="M422.3214285714266,322.82608695652175 L422.3214285714266,127.17391304348018 " fill="none" stroke="lightgreen" stroke-width="1"></path><path d="M29.464285714285722,0 L29.464285714285722,450 M78.57142857142858,0 L78.57142857142858,450 M127.67857142857144,0 L127.67857142857144,450 M176.7857142857143,0 L176.7857142857143,450 M225.89285714285717,0 L225.89285714285717,450 M275,0 L275,450 M324.1071428571429,0 L324.1071428571429,450 M373.2142857142858,0 L373.2142857142858,450 M422.3214285714286,0 L422.3214285714286,450 M471.42857142857144,0 L471.42857142857144,450 M520.5357142857143,0 L520.5357142857143,450 M0,420.6521739130435 L550,420.6521739130435 M0,371.7391304347826 L550,371.7391304347826 M0,322.82608695652175 L550,322.82608695652175 M0,273.9130434782609 L550,273.9130434782609 M0,224.99999999999997 L550,224.99999999999997 M0,176.0869565217391 L550,176.0869565217391 M0,127.17391304347822 L550,127.17391304347822 M0,78.26086956521735 L550,78.26086956521735 M0,29.347826086956474 L550,29.347826086956474 " fill="none" stroke="#aaaaaa" stroke-width="0.5"></path><path d="M0,322.82608695652175 L550,322.82608695652175 M127.67857142857144,0 L127.67857142857144,450 M29.464285714285722,318.82608695652175 L29.464285714285722,326.82608695652175 M225.89285714285717,318.82608695652175 L225.89285714285717,326.82608695652175 M324.1071428571429,318.82608695652175 L324.1071428571429,326.82608695652175 M422.3214285714286,318.82608695652175 L422.3214285714286,326.82608695652175 M520.5357142857143,318.82608695652175 L520.5357142857143,326.82608695652175 M123.67857142857144,420.6521739130435 L131.67857142857144,420.6521739130435 M123.67857142857144,224.99999999999997 L131.67857142857144,224.99999999999997 M123.67857142857144,127.17391304347822 L131.67857142857144,127.17391304347822 M123.67857142857144,29.347826086956474 L131.67857142857144,29.347826086956474 " fill="none" stroke="black" stroke-width="1"></path><text x="29.464285714285722" y="350.82608695652175" fill="black" font-family="sans" font-weight="normal" font-style="normal" font-size="25" text-anchor="middle">-1</text><text x="225.89285714285717" y="350.82608695652175" fill="black" font-family="sans" font-weight="normal" font-style="normal" font-size="25" text-anchor="middle">1</text><text x="324.1071428571429" y="350.82608695652175" fill="black" font-family="sans" font-weight="normal" font-style="normal" font-size="25" text-anchor="middle">2</text><text x="422.3214285714286" y="350.82608695652175" fill="black" font-family="sans" font-weight="normal" font-style="normal" font-size="25" text-anchor="middle">3</text><text x="520.5357142857143" y="350.82608695652175" fill="black" font-family="sans" font-weight="normal" font-style="normal" font-size="25" text-anchor="middle">4</text><text x="112.67857142857144" y="428.6521739130435" fill="black" font-family="sans" font-weight="normal" font-style="normal" font-size="25" text-anchor="end">-1</text><text x="112.67857142857144" y="232.99999999999997" fill="black" font-family="sans" font-weight="normal" font-style="normal" font-size="25" text-anchor="end">1</text><text x="112.67857142857144" y="135.17391304347822" fill="black" font-family="sans" font-weight="normal" font-style="normal" font-size="25" text-anchor="end">2</text><text x="112.67857142857144" y="37.34782608695647" fill="black" font-family="sans" font-weight="normal" font-style="normal" font-size="25" text-anchor="end">3</text><path d="M0,95.62499999999997 L2.75,98.75582608695646 L5.5,101.84830434782609 L8.250000000000014,104.90243478260862 L11.000000000000014,107.91821739130432 L13.750000000000014,110.89565217391296 L16.500000000000014,113.83473913043477 L19.250000000000014,116.73547826086951 L22.00000000000003,119.59786956521737 L24.75000000000003,122.42191304347824 L27.50000000000003,125.2076086956522 L30.25000000000003,127.95495652173912 L33.00000000000003,130.6639565217391 L35.75000000000004,133.33460869565218 L38.50000000000004,135.96691304347823 L41.25000000000004,138.56086956521742 L44.00000000000004,141.11647826086957 L46.75000000000004,143.6337391304348 L49.50000000000004,146.112652173913 L52.25000000000006,148.5532173913044 L55.00000000000006,150.9554347826087 L57.75000000000006,153.3193043478261 L60.50000000000006,155.6448260869565 L63.25000000000006,157.932 L66.00000000000006,160.18082608695656 L68.75000000000007,162.3913043478261 L71.50000000000007,164.5634347826087 L74.25000000000007,166.69721739130435 L77.00000000000009,168.79265217391307 L79.75000000000009,170.8497391304348 L82.50000000000009,172.86847826086958 L85.25000000000009,174.84886956521743 L88.00000000000009,176.7909130434783 L90.75000000000009,178.6946086956522 L93.50000000000009,180.55995652173917 L96.2500000000001,182.38695652173917 L99.0000000000001,184.1756086956522 L101.7500000000001,185.9259130434783 L104.5000000000001,187.63786956521741 L107.2500000000001,189.31147826086962 L110.0000000000001,190.9467391304348 L112.7500000000001,192.54365217391305 L115.5000000000001,194.10221739130438 L118.2500000000001,195.62243478260868 L121.0000000000001,197.10430434782612 L123.7500000000001,198.54782608695652 L126.5000000000001,199.953 L129.2500000000001,201.3198260869565 L132.0000000000001,202.6483043478261 L134.7500000000001,203.9384347826087 L137.5000000000001,205.19021739130434 L140.2500000000001,206.40365217391306 L143.0000000000001,207.5787391304348 L145.7500000000001,208.71547826086956 L148.5000000000001,209.8138695652174 L151.2500000000001,210.87391304347827 L154.00000000000009,211.89560869565216 L156.7500000000001,212.87895652173913 L159.5000000000001,213.82395652173912 L162.2500000000001,214.7306086956522 L165.0000000000001,215.5989130434783 L167.7500000000001,216.4288695652174 L170.5000000000001,217.22047826086956 L173.2500000000001,217.97373913043478 L176.0000000000001,218.68865217391303 L178.7500000000001,219.36521739130436 L181.5000000000001,220.0034347826087 L184.2500000000001,220.60330434782608 L187.0000000000001,221.16482608695648 L189.7500000000001,221.68799999999996 L192.5000000000001,222.17282608695652 L195.25000000000014,222.61930434782604 L198.00000000000014,223.02743478260865 L200.75000000000014,223.39721739130434 L203.50000000000014,223.72865217391305 L206.25000000000014,224.02173913043478 L209.00000000000017,224.27647826086954 L211.75000000000017,224.49286956521738 L214.50000000000017,224.67091304347824 L217.25000000000017,224.81060869565212 L220.00000000000017,224.91195652173914 L222.75000000000017,224.97495652173913 L225.50000000000017,224.99960869565214 L228.25000000000017,224.98591304347823 L231.00000000000017,224.93386956521735 L233.75000000000017,224.84347826086955 L236.50000000000017,224.7147391304347 L239.25000000000017,224.547652173913 L242.00000000000017,224.34221739130427 L244.75000000000017,224.09843478260868 L247.50000000000017,223.81630434782605 L250.25000000000017,223.4958260869565 L253.00000000000017,223.13699999999992 L255.75000000000017,222.73982608695647 L258.5000000000002,222.304304347826 L261.2500000000002,221.83043478260865 L264.0000000000002,221.31821739130427 L266.7500000000002,220.76765217391298 L269.5000000000002,220.1787391304347 L272.2500000000002,219.55147826086952 L275.0000000000002,218.88586956521735 L277.7500000000002,218.1819130434782 L280.5000000000002,217.43960869565208 L283.2500000000002,216.65895652173904 L286.0000000000002,215.83995652173903 L288.7500000000002,214.9826086956521 L291.5000000000002,214.08691304347818 L294.2500000000002,213.1528695652173 L297.0000000000002,212.18047826086948 L299.7500000000002,211.1697391304347 L302.5000000000002,210.12065217391293 L305.2500000000002,209.03321739130425 L308.0000000000002,207.9074347826086 L310.7500000000002,206.74330434782595 L313.5000000000002,205.5408260869564 L316.2500000000002,204.29999999999987 L319.0000000000002,203.02082608695636 L321.7500000000002,201.703304347826 L324.5000000000002,200.34743478260853 L327.2500000000002,198.9532173913042 L330.0000000000002,197.5206521739129 L332.7500000000002,196.04973913043463 L335.5000000000002,194.54047826086943 L338.2500000000002,192.9928695652172 L341.0000000000002,191.40691304347806 L343.7500000000002,189.782608695652 L346.5000000000003,188.119956521739 L349.2500000000003,186.41895652173898 L352.0000000000003,184.67960869565198 L354.7500000000003,182.90191304347806 L357.5000000000003,181.08586956521717 L360.2500000000003,179.23147826086935 L363.0000000000003,177.33873913043462 L365.7500000000003,175.40765217391285 L368.5000000000003,173.43821739130416 L371.2500000000003,171.43043478260844 L374.00000000000034,169.38430434782586 L376.75000000000034,167.29982608695624 L379.50000000000034,165.17699999999977 L382.25000000000034,163.01582608695625 L385.0000000000003,160.81630434782582 L387.7500000000003,158.57843478260847 L390.50000000000034,156.30221739130408 L393.25000000000034,153.98765217391278 L396.00000000000034,151.6347391304345 L398.75000000000034,149.2434782608693 L401.50000000000034,146.81386956521712 L404.25000000000034,144.34591304347796 L407.00000000000034,141.8396086956519 L409.75000000000034,139.29495652173884 L412.50000000000034,136.7119565217388 L415.25000000000034,134.09060869565187 L418.00000000000034,131.43091304347794 L420.75000000000034,128.73286956521704 L423.50000000000034,125.99647826086925 L426.25000000000034,123.22173913043443 L429.00000000000034,120.40865217391271 L431.75000000000034,117.557217391304 L434.50000000000034,114.66743478260835 L437.25000000000034,111.73930434782568 L440.00000000000034,108.77282608695614 L442.75000000000034,105.76799999999957 L445.50000000000034,102.72482608695614 L448.2500000000004,99.64330434782568 L451.0000000000004,96.52343478260826 L453.7500000000004,93.36521739130396 L456.5000000000004,90.16865217391259 L459.2500000000004,86.93373913043433 L462.0000000000004,83.66047826086913 L464.7500000000004,80.34886956521692 L467.5000000000004,76.99891304347776 L470.2500000000004,73.6106086956517 L473.0000000000004,70.18395652173865 L475.7500000000004,66.71895652173865 L478.5000000000004,63.215608695651696 L481.2500000000004,59.67391304347777 L484.0000000000004,56.09386956521686 L486.7500000000004,52.47547826086904 L489.5000000000004,48.81873913043424 L492.2500000000004,45.12365217391246 L495.0000000000004,41.390217391303764 L497.7500000000004,37.61843478260815 L500.5000000000004,33.8083043478255 L503.2500000000004,29.95982608695593 L506.00000000000045,26.072999999999382 L508.75000000000045,22.147826086955916 L511.50000000000045,18.184304347825474 L514.2500000000005,14.182434782608055 L517.0000000000005,10.142217391303717 L519.7500000000005,6.063652173912402 L522.5000000000005,1.9467391304341106 L525.2500000000005,-2.2085217391310437 " fill="none" stroke="blue" stroke-width="4"></path><text x="373.2142857142858" y="86.26086956521735" fill="blue" font-family="times" font-weight="normal" font-style="italic" font-size="32" text-anchor="middle">y=f(x)</text><path d="M127.67857142857144,322.82608695652175 L127.67857142857144,200.54347826086953 " fill="none" stroke="black" stroke-width="3"></path><path d="M225.89285714285717,322.82608695652175 L225.89285714285717,224.99999999999997 " fill="none" stroke="black" stroke-width="3"></path><path d="M324.1071428571429,322.82608695652175 L324.1071428571429,200.54347826086953 " fill="none" stroke="black" stroke-width="3"></path><path d="M422.3214285714286,322.82608695652175 L422.3214285714286,127.17391304347822 " fill="none" stroke="black" stroke-width="3"></path><path d="M127.67857142857144,322.82608695652175 L422.3214285714286,322.82608695652175 " fill="none" stroke="black" stroke-width="3"></path><path d="M127.67857142857144,224.99999999999997 L422.3214285714286,224.99999999999997 " fill="none" stroke="black" stroke-width="3"></path><asciisvg>initPicture(-1.3,4.3,-1.3,3.3)

f = function(x){ return 1+(x-1)*(x-1)*(0.25) }

// 
//strokewidth = "1"
stroke= "lightgreen"
var delta_x = .01
for (var x_i = 0; x_i &lt; 3; x_i += delta_x) {
	line([x_i,0],[x_i,f(x_i)])
//	line([x_i,f(x_i)], [x_i+delta_x, f(x_i)])
//	line([x_i+delta_x,0],[x_i+delta_x,f(x_i)])
}

fontsize=25
//gridstroke = "black"
axes(1, 1, "labels", .5)

fontstyle="italic"
fontfamily="times"


fontsize=16
strokewidth = "4"
stroke = "blue"
plot(f)
//plot("(x-1)^2/4+1")

//stroke = "red"
//plot(["5*t*cos(pi*t)", "5*t*sin(pi*t)"],0,1)

//stroke = "green"

//marker = "arrowdot"
//line([0,1], [pi/2,1])
//dot([pi,0], "open", cpi)

fontfill = "blue"
fontsize = 32
text([2.5,2.5], "y=f(x)")
						
stroke = "black"
strokewidth = "3"
line([0,0],[0,f(0)])
line([1,0],[1,f(1)])
line([2,0],[2,f(2)])
line([3,0],[3,f(3)])
line([0,0],[3,0])
line([0,1],[3,1])

</asciisvg></svg> 

