<svg width="550" height="450" id="target"><rect x="0" y="0" width="550" height="450" fill="white"></rect><rect x="0" y="0" width="550" height="450" fill="white"></rect><path d="M19.186046511627893,0 L19.186046511627893,450 M83.13953488372093,0 L83.13953488372093,450 M147.09302325581393,0 L147.09302325581393,450 M211.04651162790697,0 L211.04651162790697,450 M275,0 L275,450 M338.95348837209303,0 L338.95348837209303,450 M402.90697674418607,0 L402.90697674418607,450 M466.8604651162791,0 L466.8604651162791,450 M530.8139534883721,0 L530.8139534883721,450 M0,429.5454545454545 L550,429.5454545454545 M0,361.3636363636364 L550,361.3636363636364 M0,293.18181818181824 L550,293.18181818181824 M0,225 L550,225 M0,156.8181818181818 L550,156.8181818181818 M0,88.63636363636363 L550,88.63636363636363 M0,20.45454545454544 L550,20.45454545454544 " fill="none" stroke="#aaaaaa" stroke-width="0.5"></path><path d="M0,225 L550,225 M275,0 L275,450 M19.186046511627893,221 L19.186046511627893,229 M83.13953488372093,221 L83.13953488372093,229 M147.09302325581393,221 L147.09302325581393,229 M211.04651162790697,221 L211.04651162790697,229 M338.95348837209303,221 L338.95348837209303,229 M402.90697674418607,221 L402.90697674418607,229 M466.8604651162791,221 L466.8604651162791,229 M530.8139534883721,221 L530.8139534883721,229 M271,429.5454545454545 L279,429.5454545454545 M271,361.3636363636364 L279,361.3636363636364 M271,293.18181818181824 L279,293.18181818181824 M271,156.8181818181818 L279,156.8181818181818 M271,88.63636363636363 L279,88.63636363636363 M271,20.45454545454544 L279,20.45454545454544 " fill="none" stroke="black" stroke-width="1"></path><text x="19.186046511627893" y="253" fill="black" font-family="sans" font-weight="normal" font-style="normal" font-size="25" text-anchor="middle">-4</text><text x="83.13953488372093" y="253" fill="black" font-family="sans" font-weight="normal" font-style="normal" font-size="25" text-anchor="middle">-3</text><text x="147.09302325581393" y="253" fill="black" font-family="sans" font-weight="normal" font-style="normal" font-size="25" text-anchor="middle">-2</text><text x="211.04651162790697" y="253" fill="black" font-family="sans" font-weight="normal" font-style="normal" font-size="25" text-anchor="middle">-1</text><text x="338.95348837209303" y="253" fill="black" font-family="sans" font-weight="normal" font-style="normal" font-size="25" text-anchor="middle">1</text><text x="402.90697674418607" y="253" fill="black" font-family="sans" font-weight="normal" font-style="normal" font-size="25" text-anchor="middle">2</text><text x="466.8604651162791" y="253" fill="black" font-family="sans" font-weight="normal" font-style="normal" font-size="25" text-anchor="middle">3</text><text x="530.8139534883721" y="253" fill="black" font-family="sans" font-weight="normal" font-style="normal" font-size="25" text-anchor="middle">4</text><text x="260" y="437.5454545454545" fill="black" font-family="sans" font-weight="normal" font-style="normal" font-size="25" text-anchor="end">-3</text><text x="260" y="369.3636363636364" fill="black" font-family="sans" font-weight="normal" font-style="normal" font-size="25" text-anchor="end">-2</text><text x="260" y="301.18181818181824" fill="black" font-family="sans" font-weight="normal" font-style="normal" font-size="25" text-anchor="end">-1</text><text x="260" y="164.8181818181818" fill="black" font-family="sans" font-weight="normal" font-style="normal" font-size="25" text-anchor="end">1</text><text x="260" y="96.63636363636363" fill="black" font-family="sans" font-weight="normal" font-style="normal" font-size="25" text-anchor="end">2</text><text x="260" y="28.45454545454544" fill="black" font-family="sans" font-weight="normal" font-style="normal" font-size="25" text-anchor="end">3</text><path d="M62.67441860465138,-5.618181818180716 L64.59302325581416,3.811363636364746 L66.51162790697694,13.118181818182848 L68.43023255813972,22.302272727273618 L70.3488372093025,31.363636363637283 L72.26744186046528,40.30227272727359 L74.18604651162806,49.11818181818251 L76.10465116279084,57.81136363636426 L78.02325581395363,66.38181818181874 L79.9418604651164,74.82954545454601 L81.86046511627916,83.15454545454594 L83.77906976744194,91.35681818181865 L85.69767441860472,99.43636363636392 L87.6162790697675,107.39318181818203 L89.53488372093028,115.22727272727292 L91.45348837209306,122.93863636363659 L93.37209302325584,130.52727272727287 L95.29069767441862,137.99318181818188 L97.2093023255814,145.33636363636367 L99.12790697674419,152.5568181818182 L101.04651162790697,159.65454545454537 L102.96511627906975,166.62954545454534 L104.8837209302325,173.48181818181803 L106.80232558139528,180.21136363636344 L108.72093023255806,186.81818181818159 L110.63953488372084,193.30227272727245 L112.55813953488362,199.66363636363604 L114.4767441860464,205.90227272727242 L116.39534883720918,212.01818181818152 L118.31395348837196,218.01136363636328 L120.23255813953475,223.88181818181778 L122.15116279069753,229.629545454545 L124.06976744186031,235.254545454545 L125.98837209302306,240.75681818181766 L127.90697674418584,246.13636363636311 L129.82558139534862,251.3931818181813 L131.7441860465114,256.52727272727213 L133.66279069767418,261.5386363636358 L135.58139534883696,266.4272727272721 L137.49999999999974,271.19318181818124 L139.41860465116252,275.836363636363 L141.3372093023253,280.3568181818176 L143.2558139534881,284.7545454545448 L145.17441860465087,289.02954545454475 L147.09302325581365,293.18181818181756 L149.01162790697643,297.211363636363 L150.9302325581392,301.11818181818126 L152.84883720930202,304.90227272727213 L154.7674418604648,308.56363636363585 L156.68604651162758,312.1022727272722 L158.6046511627904,315.51818181818135 L160.5232558139532,318.8113636363631 L162.44186046511598,321.98181818181774 L164.36046511627876,325.029545454545 L166.27906976744157,327.95454545454504 L168.19767441860435,330.7568181818177 L170.11627906976713,333.43636363636324 L172.03488372092994,335.9931818181815 L173.95348837209275,338.42727272727234 L175.8720930232555,340.73863636363603 L177.7906976744183,342.92727272727245 L179.70930232558112,344.9931818181815 L181.6279069767439,346.93636363636335 L183.54651162790668,348.75681818181795 L185.4651162790695,350.45454545454527 L187.38372093023227,352.0295454545453 L189.30232558139505,353.48181818181797 L191.22093023255786,354.81136363636347 L193.13953488372067,356.0181818181817 L195.05813953488345,357.1022727272725 L196.97674418604623,358.0636363636363 L198.89534883720904,358.9022727272726 L200.81395348837182,359.6181818181817 L202.7325581395346,360.21136363636356 L204.6511627906974,360.68181818181813 L206.56976744186022,361.0295454545454 L208.48837209302297,361.25454545454545 L210.40697674418578,361.3568181818182 L212.3255813953486,361.33636363636367 L214.24418604651137,361.19318181818187 L216.16279069767415,360.9272727272728 L218.08139534883696,360.53863636363644 L219.99999999999974,360.0272727272728 L221.91860465116252,359.3931818181819 L223.83720930232533,358.63636363636374 L225.75581395348814,357.7568181818183 L227.67441860465092,356.7545454545457 L229.5930232558137,355.6295454545457 L231.5116279069765,354.3818181818183 L233.4302325581393,353.01136363636385 L235.34883720930208,351.51818181818203 L237.26744186046488,349.90227272727293 L239.18604651162767,348.16363636363656 L241.10465116279047,346.302272727273 L243.02325581395326,344.3181818181821 L244.94186046511606,342.2113636363639 L246.86046511627885,339.9818181818184 L248.77906976744163,337.6295454545458 L250.69767441860444,335.15454545454577 L252.61627906976722,332.55681818181847 L254.53488372093003,329.836363636364 L256.4534883720928,326.99318181818217 L258.3720930232556,324.02727272727304 L260.29069767441837,320.93863636363676 L262.2093023255812,317.7272727272731 L264.127906976744,314.39318181818226 L266.04651162790674,310.93636363636404 L267.96511627906955,307.35681818181865 L269.88372093023236,303.6545454545459 L271.8023255813951,299.82954545454595 L273.7209302325579,295.88181818181863 L275.6395348837207,291.81136363636415 L277.5581395348835,287.6181818181823 L279.4767441860463,283.30227272727325 L281.3953488372091,278.8636363636369 L283.3139534883719,274.30227272727325 L285.23255813953466,269.61818181818234 L287.15116279069747,264.8113636363642 L289.0697674418602,259.88181818181874 L290.98837209302303,254.829545454546 L292.90697674418584,249.65454545454605 L294.82558139534865,244.35681818181877 L296.7441860465114,238.93636363636426 L298.6627906976742,233.39318181818243 L300.581395348837,227.72727272727337 L302.4999999999998,221.938636363637 L304.4186046511626,216.02727272727338 L306.3372093023254,209.99318181818245 L308.2558139534882,203.8363636363643 L310.17441860465095,197.55681818181887 L312.09302325581376,191.1545454545461 L314.01162790697657,184.62954545454613 L315.9302325581393,177.98181818181888 L317.84883720930213,171.21136363636435 L319.76744186046494,164.3181818181825 L321.6860465116277,157.30227272727348 L323.6046511627905,150.16363636363712 L325.5232558139533,142.90227272727344 L327.44186046511606,135.51818181818254 L329.3604651162789,128.01136363636436 L331.2790697674417,120.38181818181891 L333.1976744186045,112.62954545454619 L335.11627906976724,104.75454545454619 L337.03488372093005,96.75681818181891 L338.95348837209286,88.63636363636442 " fill="none" stroke="blue" stroke-width="2"></path><path d="M338.95348837209303,88.63636363636363 L339.2732558139535,88.97727272727275 L339.59302325581393,89.31818181818176 L339.9127906976744,89.65909090909088 L340.23255813953483,90 L340.55232558139534,90.34090909090901 L340.8720930232558,90.68181818181813 L341.19186046511624,91.02272727272725 L341.5116279069767,91.36363636363626 L341.83139534883713,91.70454545454538 L342.15116279069764,92.0454545454545 L342.4709302325581,92.38636363636351 L342.79069767441854,92.72727272727263 L343.110465116279,93.06818181818176 L343.43023255813944,93.40909090909076 L343.7499999999999,93.74999999999989 L344.06976744186034,94.09090909090895 L344.3895348837208,94.43181818181802 L344.7093023255813,94.77272727272714 L345.02906976744174,95.1136363636362 L345.3488372093022,95.45454545454527 L345.66860465116264,95.79545454545439 L345.98837209302314,96.13636363636346 L346.3081395348836,96.47727272727252 L346.62790697674404,96.81818181818164 L346.9476744186045,97.15909090909071 L347.26744186046494,97.49999999999977 L347.5872093023254,97.8409090909089 L347.90697674418584,98.18181818181796 L348.2267441860463,98.52272727272702 L348.5465116279068,98.86363636363615 L348.86627906976724,99.20454545454521 L349.1860465116277,99.54545454545428 L349.50581395348814,99.8863636363634 L349.8255813953486,100.22727272727246 L350.1453488372091,100.56818181818153 L350.46511627906955,100.90909090909065 L350.78488372093,101.24999999999972 L351.10465116279045,101.59090909090878 L351.4244186046509,101.9318181818179 L351.74418604651135,102.27272727272697 L352.0639534883718,102.61363636363603 L352.38372093023224,102.95454545454515 L352.70348837209275,103.29545454545422 L353.0232558139532,103.63636363636328 L353.34302325581365,103.9772727272724 L353.6627906976741,104.31818181818147 L353.98255813953455,104.65909090909054 L354.30232558139505,104.99999999999966 L354.6220930232555,105.34090909090872 L354.94186046511595,105.68181818181779 L355.2616279069764,106.02272727272691 L355.58139534883685,106.36363636363598 L355.9011627906973,106.70454545454504 L356.22093023255775,107.04545454545416 L356.54069767441825,107.38636363636323 L356.8604651162787,107.7272727272723 L357.18023255813915,108.06818181818142 L357.4999999999996,108.40909090909048 L357.81976744186005,108.74999999999955 L358.13953488372056,109.09090909090867 L358.459302325581,109.43181818181773 L358.77906976744146,109.7727272727268 L359.0988372093019,110.11363636363592 L359.41860465116235,110.45454545454498 L359.7383720930228,110.79545454545405 L360.05813953488325,111.13636363636317 L360.3779069767437,111.47727272727224 L360.6976744186042,111.8181818181813 L361.01744186046466,112.15909090909042 L361.3372093023251,112.49999999999949 L361.65697674418556,112.84090909090855 L361.976744186046,113.18181818181768 L362.2965116279065,113.52272727272674 L362.61627906976696,113.8636363636358 L362.9360465116274,114.20454545454493 L363.25581395348786,114.54545454545399 L363.5755813953483,114.88636363636306 L363.89534883720876,115.22727272727218 L364.2151162790692,115.56818181818124 L364.5348837209297,115.90909090909031 L364.85465116279016,116.24999999999943 L365.1744186046506,116.5909090909085 L365.49418604651106,116.93181818181756 L365.8139534883715,117.27272727272668 L366.133720930232,117.61363636363575 L366.45348837209247,117.95454545454481 L366.7732558139529,118.29545454545394 L367.09302325581336,118.636363636363 L367.4127906976738,118.97727272727207 L367.73255813953426,119.31818181818119 L368.0523255813947,119.65909090909025 L368.37209302325516,119.99999999999932 L368.69186046511567,120.34090909090844 L369.0116279069761,120.6818181818175 L369.33139534883657,121.02272727272657 L369.651162790697,121.36363636363569 L369.97093023255746,121.70454545454476 L370.29069767441797,122.04545454545382 L370.6104651162784,122.38636363636294 L370.93023255813887,122.72727272727201 L371.2499999999993,123.06818181818107 L371.56976744185977,123.40909090909014 L371.8895348837202,123.74999999999926 L372.20930232558067,124.09090909090833 L372.5290697674411,124.43181818181739 L372.8488372093016,124.77272727272651 L373.16860465116207,125.11363636363558 L373.4883720930225,125.45454545454464 L373.80813953488297,125.79545454545377 L374.1279069767435,126.13636363636283 L374.4476744186039,126.4772727272719 L374.7674418604644,126.81818181818102 L375.0872093023248,127.15909090909008 L375.4069767441853,127.49999999999915 L375.7267441860457,127.84090909090821 L376.04651162790617,128.18181818181733 L376.3662790697666,128.5227272727264 L376.6860465116271,128.86363636363546 L377.0058139534876,129.2045454545446 L377.325581395348,129.54545454545365 L377.6453488372085,129.88636363636272 L377.9651162790689,130.22727272727184 L378.28488372092943,130.5681818181809 L378.6046511627899,130.90909090908997 L378.9244186046503,131.2499999999991 L379.2441860465108,131.59090909090816 L379.5639534883712,131.93181818181722 L379.8837209302317,132.27272727272634 L380.2034883720921,132.6136363636354 L380.5232558139526,132.95454545454447 L380.8430232558131,133.2954545454536 L381.16279069767353,133.63636363636266 L381.482558139534,133.97727272727172 L381.8023255813944,134.31818181818085 L382.12209302325493,134.6590909090899 L382.4418604651154,134.99999999999898 L382.76162790697583,135.3409090909081 L383.0813953488363,135.68181818181716 L383.40116279069673,136.02272727272623 L383.7209302325572,136.36363636363535 L384.04069767441763,136.70454545454442 L384.3604651162781,137.04545454545348 L384.6802325581386,137.3863636363626 L384.99999999999903,137.72727272727167 L385.3197674418595,138.06818181818073 L385.63953488371993,138.40909090908985 L385.9593023255804,138.74999999999892 L386.2790697674409,139.09090909090799 L386.59883720930134,139.4318181818171 L386.9186046511618,139.77272727272617 L387.23837209302224,140.11363636363524 L387.5581395348827,140.45454545454436 L387.87790697674313,140.79545454545342 L388.1976744186036,141.1363636363625 L388.51744186046403,141.4772727272716 L388.83720930232454,141.81818181818068 L389.156976744185,142.15909090908974 L389.47674418604544,142.49999999999886 L389.7965116279059,142.84090909090793 L390.1162790697664,143.181818181817 L390.43604651162684,143.52272727272612 L390.7558139534873,143.86363636363518 L391.07558139534774,144.20454545454425 L391.3953488372082,144.54545454545337 L391.71511627906864,144.88636363636243 L392.0348837209291,145.2272727272715 L392.35465116278954,145.56818181818062 L392.67441860465004,145.90909090908968 L392.9941860465105,146.24999999999875 L393.31395348837094,146.59090909090787 L393.6337209302314,146.93181818181694 L393.95348837209184,147.272727272726 L394.27325581395235,147.61363636363512 L394.5930232558128,147.9545454545442 L394.91279069767324,148.29545454545325 L395.2325581395337,148.63636363636238 L395.55232558139414,148.97727272727144 L395.8720930232546,149.3181818181805 L396.19186046511504,149.65909090908963 L396.5116279069755,149.9999999999987 L396.831395348836,150.34090909090776 L397.15116279069645,150.68181818181688 L397.4709302325569,151.02272727272594 L397.79069767441734,151.363636363635 L398.11046511627785,151.70454545454413 L398.4302325581383,152.0454545454532 L398.74999999999875,152.38636363636226 L399.0697674418592,152.72727272727138 L399.38953488371965,153.06818181818045 L399.7093023255801,153.4090909090895 L400.02906976744055,153.74999999999864 L400.348837209301,154.0909090909077 L400.6686046511615,154.43181818181677 L400.98837209302195,154.7727272727259 L401.3081395348824,155.11363636363495 L401.62790697674285,155.45454545454402 L401.9476744186033,155.79545454545314 L402.2674418604638,156.1363636363622 L402.58720930232425,156.47727272727127 L402.9069767441847,156.8181818181804 " fill="none" stroke="blue" stroke-width="2"></path><path d="M402.90697674418607,156.8181818181818 L403.2267441860465,157.15951811413635 L403.54651162790697,157.50171312182454 L403.8662790697674,157.84477335491448 L404.18604651162786,158.1887054098409 L404.5058139534883,158.5335159672852 L404.82558139534876,158.87921179368942 L405.14534883720927,159.22579974280563 L405.4651162790697,159.57328675728115 L405.78488372093017,159.9216798702813 L406.1046511627907,160.27098620715043 L406.4244186046511,160.62121298711185 L406.7441860465116,160.97236752500913 L407.063953488372,161.3244572330882 L407.38372093023247,161.67748962282326 L407.7034883720929,162.03147230678616 L408.02325581395337,162.38641300056207 L408.3430232558138,162.74231952471132 L408.66279069767427,163.09919980678 L408.9825581395348,163.45706188336044 L409.3023255813952,163.8159139022025 L409.6220930232557,164.17576412437825 L409.9418604651162,164.5366209265007 L410.2616279069766,164.89849280299904 L410.5813953488371,165.26138836845172 L410.9011627906975,165.62531635997908 L411.220930232558,165.9902856396978 L411.5406976744184,166.35630519723884 L411.8604651162789,166.7233841523311 L412.1802325581393,167.09153175745251 L412.4999999999998,167.4607574005513 L412.8197674418602,167.83107060783902 L413.1395348837207,168.20248104665865 L413.4593023255812,168.57499852842886 L413.7790697674416,168.9486330116684 L414.09883720930213,169.3233946051023 L414.4186046511626,169.69929357085311 L414.73837209302303,170.07634032771932 L415.0581395348835,170.45454545454515 L415.37790697674393,170.83391969368358 L415.6976744186044,171.21447395455658 L416.0174418604648,171.5962193173155 L416.3372093023253,171.97916703660525 L416.6569767441857,172.36332854543588 L416.97674418604623,172.74871545916534 L417.2965116279067,173.13533957959731 L417.61627906976713,173.52321289919797 L417.9360465116276,173.91234760543665 L418.2558139534881,174.30275608525398 L418.57558139534854,174.69445092966254 L418.895348837209,175.0874449384852 L419.21511627906943,175.48175112523546 L419.5348837209299,175.87738272214557 L419.85465116279033,176.27435318534788 L420.1744186046508,176.67267620021505 L420.49418604651123,177.07236568686494 L420.8139534883717,177.4734358058372 L421.1337209302322,177.8759009639466 L421.45348837209264,178.2797758203219 L421.7732558139531,178.68507529263587 L422.0930232558136,179.09181456353463 L422.41279069767404,179.500009087274 L422.7325581395345,179.90967459657116 L423.05232558139494,180.32082710968 L423.3720930232554,180.7334829376996 L423.69186046511584,181.14765869212454 L424.0116279069763,181.56337129264784 L424.33139534883674,181.98063797522605 L424.6511627906972,182.3994763004181 L424.9709302325577,182.81990416200858 L425.29069767441814,183.24193979592826 L425.6104651162786,183.6656017894834 L425.93023255813904,184.09090909090844 L426.24999999999955,184.51788101925462 L426.56976744186,184.9465372746297 L426.88953488372044,185.37689794880458 L427.2093023255809,185.80898353620188 L427.52906976744134,186.2428149452848 L427.8488372093018,186.6784135103631 L428.16860465116224,187.11580100383532 L428.4883720930227,187.55499964888787 L428.80813953488314,187.99603213267073 L429.12790697674365,188.43892161997275 L429.4476744186041,188.88369176741952 L429.76744186046454,189.33036673821863 L430.08720930232505,189.77897121747804 L430.4069767441855,190.22953042812532 L430.72674418604595,190.6820701474566 L431.0465116279064,191.1366167243462 L431.36627906976685,191.59319709714907 L431.6860465116273,192.05183881233097 L432.00581395348775,192.5125700438623 L432.3255813953482,192.97541961341454 L432.64534883720864,193.44041701140048 L432.9651162790691,193.90759241890106 L433.2848837209296,194.3769767305256 L433.60465116279005,194.84860157825386 L433.9244186046505,195.32249935631273 L434.244186046511,195.79870324714193 L434.56395348837145,196.2772472485088 L434.8837209302319,196.75816620183343 L435.20348837209235,197.24149582179245 L435.5232558139528,197.72727272727167 L435.84302325581325,198.21553447374356 L436.1627906976737,198.70631958715103 L436.48255813953415,199.19966759938376 L436.8023255813946,199.6956190854392 L437.1220930232551,200.194215702368 L437.44186046511555,200.69550023010885 L437.761627906976,201.19951661432583 L438.0813953488365,201.70631001137104 L438.40116279069696,202.21592683550108 L438.7209302325574,202.72841480848786 L439.04069767441786,203.24382301177428 L439.3604651162783,203.7622019413351 L439.68023255813875,204.28360356541714 L439.9999999999992,204.80808138534604 L440.31976744185965,205.3356904996001 L440.6395348837201,205.86648767136893 L440.95930232558055,206.40053139983144 L441.27906976744106,206.93788199540643 L441.5988372093015,207.47860165924948 L441.91860465116196,208.02275456729313 L442.23837209302246,208.5704069591518 L442.5581395348829,209.12162723223975 L442.87790697674336,209.6764860414811 L443.1976744186038,210.23505640502276 L443.51744186046426,210.79741381639911 L443.8372093023247,211.36363636363478 L444.15697674418516,211.93380485581895 L444.4767441860456,212.50800295773092 L444.79651162790606,213.08631733315246 L445.11627906976656,213.66883779756245 L445.436046511627,214.25565748097404 L445.75581395348746,214.84687300175244 L446.07558139534797,215.4425846523298 L446.3953488372084,216.04289659782944 L446.71511627906887,216.6479170887131 L447.0348837209293,217.2577586886797 L447.35465116278976,217.87253851917592 L447.6744186046502,218.49237852202094 L447.99418604651066,219.11740574181482 L448.3139534883711,219.74775262998213 L448.63372093023156,220.38355737251186 L448.953488372092,221.024964243691 L449.2732558139525,221.67212398839678 L449.59302325581297,222.32519423581664 L449.9127906976734,222.98433994781385 L450.2325581395339,223.64973390555082 L450.55232558139437,224.32155723843823 L450.8720930232548,224.99999999999784 L451.19186046511527,225.68526179582733 L451.5116279069757,226.37755246954742 L451.83139534883617,227.0770928534114 L452.1511627906966,227.78411559118786 L452.47093023255707,228.49886604200805 L452.7906976744175,229.22160327513262 L453.110465116278,229.95260116707232 L453.43023255813847,230.69214961423603 L453.7499999999989,231.44055587633324 L454.0697674418594,232.19814606818494 L454.3895348837199,232.96526682048932 L454.7093023255803,233.74228713353358 L455.0290697674408,234.52960045197932 L455.3488372093012,235.3276269938251 L455.6686046511617,236.13681637267382 L455.9883720930221,236.95765055975625 L456.30813953488257,237.79064724111544 L456.627906976743,238.63636363636056 L456.94767441860347,239.49540085900725 L457.267441860464,240.36840891535024 L457.5872093023244,241.25609246001557 L457.9069767441849,242.1592174530793 L458.2267441860454,243.0786188976134 L458.54651162790583,244.015209880033 L458.8662790697663,244.9699921918227 L459.1860465116267,245.94406888448145 L459.5058139534872,246.93865920596028 L459.8255813953476,247.95511649514975 L460.1453488372081,248.99494978357876 L460.4651162790685,250.05985008860887 L460.784883720929,251.15172270702544 L461.1046511627895,252.27272727272288 L461.42441860464993,253.4253279896866 L461.7441860465104,254.61235738981998 L462.0639534883709,255.83709835191559 L462.38372093023133,257.10339121275047 L462.7034883720918,258.41577604368024 L463.02325581395223,259.7796853256784 L463.3430232558127,261.20171072847074 L463.66279069767313,262.6899821249967 L463.9825581395336,264.2547225878165 L464.30232558139403,265.90909090908394 L464.6220930232545,267.6705178174429 L464.9418604651149,269.56294353314354 L465.26162790697543,271.6208341352066 L465.5813953488359,273.8970877858114 L465.90116279069633,276.48075175373936 L466.22093023255684,279.5454545454402 L466.5406976744173,283.5394529837994 L466.86046511627774,293.18179827259553 " fill="none" stroke="blue" stroke-width="2"></path><path d="M466.8604651162791,293.18181818181824 L467.5,299.9999999999999 L468.1395348837209,302.8241833798164 L468.7790697674418,304.99125550615133 L469.41860465116275,306.81818181818164 L470.05813953488365,308.4277362102257 L470.6976744186046,309.8828846098852 L471.3372093023255,311.2210316663493 L471.9767441860464,312.4665485778147 L472.6162790697673,313.6363636363634 L473.25581395348826,314.7428022284205 L473.89534883720916,315.79516902515024 L474.5348837209301,316.8006928304844 L475.174418604651,317.76512233270876 L475.8139534883719,318.6931185461857 L476.4534883720928,319.5885228150503 L477.0930232558137,320.45454545454515 L477.73255813953466,321.2939019928474 L478.3720930232556,322.108913775813 L479.0116279069765,322.90158370595884 L479.6511627906974,323.67365423863316 L480.2906976744183,324.42665246560773 L480.9302325581392,325.1619256351594 L481.56976744186017,325.88066947713185 L482.2093023255811,326.58395103795203 L482.848837209302,327.2727272727269 L483.4883720930229,327.94786031995045 L484.1279069767438,328.6101301548176 L484.7674418604647,329.26024515088045 L485.40697674418567,329.8988509577349 L486.04651162790657,330.5265380117155 L486.6860465116275,331.1438479283861 L487.3255813953484,331.7512789738113 L487.9651162790693,332.34929077184984 L488.6046511627902,332.9383083739448 L489.2441860465112,333.51872579386054 L489.8837209302321,334.09090909090867 L490.523255813953,334.65519907021474 L491.1627906976739,335.21191365660627 L491.8023255813948,335.7613499890796 L492.4418604651157,336.30378627502296 L493.0813953488366,336.83948343704174 L493.7209302325576,337.3686865800531 L494.36046511627853,337.8916263020586 L494.99999999999943,338.40851986848224 L495.63953488372033,338.91957226704073 L496.27906976744123,339.42497715767183 L496.9186046511621,339.92491773000665 L497.5581395348831,340.4195674791507 L498.19767441860404,340.9090909090904 L498.83720930232494,341.39364417180957 L499.47674418604583,341.87337564915526 L500.11627906976673,342.3484264835994 L500.75581395348763,342.8189310632757 L501.3953488372086,343.285017466019 L502.0348837209295,343.74680786656086 L502.67441860465044,344.20441891055316 L503.31395348837134,344.65796205866366 L503.95348837209224,345.10754390361706 L504.59302325581314,345.55326646274 L505.2325581395341,345.99522744828244 L505.872093023255,346.4335205175448 L506.51162790697595,346.86823550462543 L507.15116279069684,347.2994586354115 L507.79069767441774,347.7272727272722 L508.43023255813864,348.15175737476227 L509.06976744185954,348.57298912251736 L509.7093023255805,348.9910416264024 L510.34883720930145,349.40598580387655 L510.98837209302235,349.81788997444085 L511.62790697674325,350.22681999095914 L512.2674418604641,350.6328393625655 L512.906976744185,351.03600936980786 L513.546511627906,351.4363891726189 L514.186046511627,351.8340359116537 L514.8255813953479,352.2290048034838 L515.4651162790688,352.62134923009944 L516.1046511627897,353.0111208231275 L516.7441860465105,353.39836954314376 L517.3837209302314,353.7831437544238 L518.0232558139523,354.1654902954482 L518.6627906976734,354.54545454545394 L519.3023255813943,354.9230804872999 L519.9418604651152,355.2984107668923 L520.581395348836,355.6714867493972 L521.220930232557,356.0423485724508 L521.860465116278,356.411035196561 L522.4999999999989,356.7775844528776 L523.1395348837198,357.1420330885006 L523.7790697674407,357.5044168094762 L524.4186046511616,357.8647703216252 L525.0581395348825,358.22312736933645 L525.6976744186034,358.57952077244545 L526.3372093023244,358.93398246131494 L526.9767441860453,359.2865435102219 L527.6162790697662,359.63723416915127 L528.2558139534871,359.98608389408594 L528.895348837208,360.3331213758818 L529.534883720929,360.67837456780615 L530.1744186046499,361.02187071181424 L530.8139534883708,361.3636363636356 L531.4534883720917,361.70369741673267 L532.0930232558126,362.0420791251952 L532.7325581395335,362.378806125628 L533.3720930232544,362.71390245808266 L534.0116279069753,363.04739158608743 L534.6511627906962,363.3792964158197 L535.2906976744172,363.70963931446704 L535.9302325581381,364.038442127817 L536.569767441859,364.3657261971166 L537.20930232558,364.6915123752369 L537.8488372093009,365.015821042177 L538.4883720930218,365.33867211994266 L539.1279069767427,365.66008508682637 L539.7674418604636,365.9800789911218 L540.4069767441845,366.2986724642965 L541.0465116279054,366.6158837336516 L541.6860465116263,366.9317306344899 L542.3255813953472,367.2462306218189 L542.9651162790682,367.5594007816064 L543.6046511627891,367.87125784161276 L544.24418604651,368.18181818181733 L544.883720930231,368.49109784445784 L545.5232558139519,368.7991125436997 L546.1627906976728,369.10587767495406 L546.8023255813937,369.41140832385565 L547.4418604651146,369.71571927492073 L548.0813953488355,370.0188250198945 L548.7209302325564,370.3207397658043 L549.3604651162773,370.6214774427302 L549.9999999999982,370.921051711304 L550.6395348837191,371.21947596995096 " fill="none" stroke="blue" stroke-width="2"></path><text x="434.8837209302326" y="62.545454545454504" fill="black" font-family="times" font-weight="normal" font-style="italic" font-size="32" text-anchor="middle">y=f(x)</text><asciisvg>initPicture(-4.3,4.3,-3.3,3.3)
fontsize=25
axes(1, 1, "labels", 1)

fontstyle="italic"
fontfamily="times"

fontsize=16
strokewidth = "2"
stroke = "blue"
plot("-(-2x-x^2+1)",-5,1)
plot("-(-2+x-1)",1,2)
plot("-(1-2sqrt(3-x))",2,3)
plot("-(1+sqrt(x-3))",3,5)

stroke = "red"

fontsize = 32
text([2.5,2.5], "y=f(x)")


//stroke = "red"
//plot(["5*t*cos(pi*t)", "5*t*sin(pi*t)"],0,1)

//stroke = "green"

//marker = "arrowdot"
//line([0,1], [pi/2,1])
//dot([pi,0], "open", cpi)

//text([-2.5,-2.5], "ASCIIsvg Examplee")
						</asciisvg></svg> 

