<svg width="550" height="450" id="target"><rect x="0" y="0" width="550" height="450" fill="white"></rect><rect x="0" y="0" width="550" height="450" fill="white"></rect><path d="M275,0 L275,450 M0,225 L550,225 " fill="none" stroke="#aaaaaa" stroke-width="0.5"></path><path d="M0,225 L550,225 M275,0 L275,450 M594.7674418604652,221 L594.7674418604652,229 M271,-115.90909090909093 L279,-115.90909090909093 " fill="none" stroke="black" stroke-width="1"></path><text x="594.7674418604652" y="253" fill="black" font-family="sans" font-weight="normal" font-style="normal" font-size="25" text-anchor="middle">5</text><text x="260" y="-107.90909090909093" fill="black" font-family="sans" font-weight="normal" font-style="normal" font-size="25" text-anchor="end">5</text><path d="M0,232.92811839323468 L2.75,233.00820039720674 L5.5,233.08991672779047 L8.25,233.17331793116978 L11.000000000000057,233.25845665961947 L13.750000000000057,233.3453877823523 L16.500000000000057,233.43416850344113 L19.250000000000057,233.5248584873491 L22.000000000000085,233.6175199926464 L24.750000000000085,233.71221801454362 L27.500000000000085,233.80902043692743 L30.250000000000114,233.9079981946457 L33.000000000000114,234.0092254468576 L35.750000000000114,234.11277976233873 L38.50000000000014,234.2187423177147 L41.25000000000014,234.32719810968786 L44.00000000000014,234.43823618242226 L46.75000000000017,234.55194987136707 L49.50000000000017,234.66843706492034 L52.25000000000017,234.78780048547492 L55.0000000000002,234.91014799154334 L57.7500000000002,235.03559290282868 L60.5000000000002,235.1642543503009 L63.25000000000023,235.29625765355155 L66.00000000000023,235.43173472794035 L68.75000000000023,235.5708245243129 L71.50000000000026,235.71367350437117 L74.25000000000026,235.86043615511602 L77.00000000000026,236.01127554615925 L79.75000000000028,236.16636393413336 L82.50000000000028,236.3258834189067 L85.25000000000028,236.49002665686186 L88.00000000000031,236.65899763710985 L90.75000000000031,236.83301252721594 L93.50000000000031,237.01230059581013 L96.25000000000034,237.19710522036104 L99.00000000000034,237.3876849894292 L101.75000000000034,237.5843149098963 L104.50000000000037,237.7872877310237 L107.25000000000037,237.9969153987454 L110.0000000000004,238.21353065539114 L112.7500000000004,238.43748880209267 L115.5000000000004,238.6691696435081 L118.25000000000043,238.90897963725388 L121.00000000000043,239.15735427363336 L123.75000000000043,239.4147607149722 L126.50000000000045,239.68170072821238 L129.25000000000045,239.95871394949944 L132.00000000000045,240.24638152545134 L134.75000000000048,240.54533018281313 L137.50000000000048,240.85623678646942 L140.25000000000048,241.17983345558105 L143.0000000000005,241.51691331923894 L145.7500000000005,241.86833700688237 L148.5000000000005,242.23503998529281 L151.2500000000005,242.6180408738549 L154.0000000000005,243.01845089371523 L156.7500000000005,243.43748463542954 L159.50000000000048,243.87647236484452 L162.25000000000048,244.33687412984074 L165.00000000000048,244.8202959830868 L167.75000000000045,245.3285087006018 L170.50000000000045,245.86346945588082 L173.25000000000045,246.42734700874246 L176.00000000000045,247.02255109231862 L178.75000000000045,247.65176683781345 L181.50000000000045,248.31799527421975 L184.25000000000045,249.02460119162032 L187.00000000000045,249.77536997885846 L189.75000000000045,250.57457546204745 L192.50000000000045,251.4270613107824 L195.25000000000043,252.33833928701625 L198.00000000000043,253.31470854726683 L200.75000000000043,254.36340145642487 L203.5000000000004,255.4927630509028 L206.2500000000004,256.7124735729389 L209.0000000000004,258.033826638478 L211.7500000000004,259.47007997058574 L214.5000000000004,261.03690178743057 L217.2500000000004,262.7529447296892 L220.00000000000043,264.64059196617364 L222.75000000000043,266.72693891176175 L225.50000000000043,269.04510218463747 L228.25000000000043,271.6359905484397 L231.00000000000043,274.55073995771716 L233.75000000000043,277.854122621565 L236.50000000000043,281.629417094534 L239.25000000000043,285.98552610180593 L242.00000000000045,291.06765327695643 L244.75000000000043,297.0738035748617 L247.50000000000043,304.281183932348 L250.25000000000043,313.0902043692756 L253.00000000000043,324.10147991543533 L255.75000000000043,338.2588341890694 L258.50000000000045,357.1353065539147 L261.25000000000045,383.56236786469844 L264.00000000000045,423.20295983087453 L266.75000000000045,489.2706131078362 " fill="none" stroke="blue" stroke-width="2"></path><path d="M283.25000000000045,-39.27061310780874 L286.00000000000045,26.7970401691409 L288.75000000000045,66.43763213531145 L291.50000000000045,92.86469344609219 L294.25000000000045,111.74116581093574 L297.00000000000045,125.89852008456853 L299.7500000000004,136.90979563072733 L302.5000000000004,145.71881606765447 L305.2500000000004,152.92619642514035 L308.0000000000004,158.93234672304527 L310.75000000000045,164.01447389819555 L313.50000000000045,168.37058290546724 L316.25000000000045,172.14587737843607 L319.00000000000045,175.44926004228375 L321.75000000000045,178.36400945156117 L324.50000000000045,180.95489781536332 L327.25000000000045,183.27306108823893 L330.00000000000045,185.35940803382698 L332.75000000000045,187.24705527031136 L335.50000000000045,188.96309821256995 L338.25000000000045,190.5299200294147 L341.00000000000045,191.9661733615224 L343.75000000000045,193.2875264270615 L346.50000000000045,194.5072369490976 L349.25000000000045,195.63659854357547 L352.00000000000045,196.68529145273345 L354.75000000000045,197.66166071298403 L357.5000000000004,198.5729386892179 L360.2500000000004,199.42542453795278 L363.0000000000004,200.22463002114176 L365.7500000000004,200.9753988083799 L368.5000000000004,201.68200472578047 L371.2500000000004,202.34823316218672 L374.0000000000004,202.97744890768155 L376.7500000000004,203.5726529912577 L379.5000000000004,204.13653054411935 L382.2500000000004,204.67149129939833 L385.00000000000034,205.17970401691338 L387.75000000000034,205.66312587015938 L390.50000000000034,206.1235276351556 L393.25000000000034,206.56251536457057 L396.00000000000034,206.9815491062849 L398.75000000000034,207.3819591261452 L401.50000000000034,207.7649600147073 L404.25000000000034,208.13166299311774 L407.00000000000034,208.48308668076112 L409.75000000000034,208.82016654441907 L412.50000000000034,209.1437632135307 L415.25000000000034,209.45466981718698 L418.0000000000004,209.75361847454877 L420.7500000000004,210.04128605050067 L423.5000000000004,210.31829927178768 L426.25000000000045,210.5852392850279 L429.00000000000045,210.8426457263667 L431.75000000000045,211.09102036274624 L434.50000000000045,211.33083035649196 L437.25000000000045,211.56251119790738 L440.00000000000045,211.78646934460892 L442.75000000000045,212.00308460125467 L445.50000000000045,212.21271226897636 L448.25000000000045,212.41568509010375 L451.0000000000005,212.61231501057085 L453.7500000000005,212.80289477963902 L456.50000000000057,212.98769940418993 L459.25000000000057,213.16698747278411 L462.00000000000057,213.3410023628902 L464.75000000000057,213.5099733431382 L467.50000000000057,213.67411658109336 L470.25000000000057,213.8336360658667 L473.00000000000057,213.98872445384075 L475.75000000000057,214.13956384488404 L478.50000000000057,214.28632649562883 L481.2500000000006,214.42917547568715 L484.0000000000006,214.56826527205965 L486.7500000000006,214.7037423464485 L489.5000000000007,214.83574564969916 L492.2500000000007,214.96440709717132 L495.0000000000007,215.08985200845666 L497.7500000000007,215.21219951452514 L500.5000000000007,215.33156293507972 L503.2500000000007,215.44805012863293 L506.0000000000007,215.5617638175778 L508.7500000000007,215.6728018903122 L511.5000000000007,215.7812576822853 L514.2500000000007,215.88722023766132 L517.0000000000007,215.99077455314244 L519.7500000000007,216.0920018053543 L522.5000000000008,216.19097956307263 L525.2500000000008,216.28778198545643 L528.0000000000008,216.38248000735365 L530.7500000000008,216.4751415126509 L533.5000000000008,216.56583149655887 L536.2500000000008,216.65461221764775 L539.0000000000008,216.7415433403806 L541.7500000000009,216.82668206883028 L544.5000000000009,216.91008327220953 L547.2500000000009,216.99179960279326 " fill="none" stroke="blue" stroke-width="2"></path><asciisvg>initPicture(-4.3,4.3,-3.3,3.3)
fontsize=25
axes(5, 5, "labels", 5)

fontstyle="italic"
fontfamily="times"

fontsize=16
strokewidth = "2"
stroke = "blue"
plot("1/(2x)")

//stroke = "red"
//plot(["5*t*cos(pi*t)", "5*t*sin(pi*t)"],0,1)

//stroke = "green"

//marker = "arrowdot"
//line([0,1], [pi/2,1])
//dot([pi,0], "open", cpi)

//text([-2.5,-2.5], "ASCIIsvg Examplee")
						</asciisvg></svg> 

