<svg width="550" height="450" id="target"><rect x="0" y="0" width="550" height="450" fill="white"></rect><rect x="0" y="0" width="550" height="450" fill="white"></rect><path d="M19.186046511627914,0 L19.186046511627914,450 M83.13953488372094,0 L83.13953488372094,450 M147.09302325581396,0 L147.09302325581396,450 M211.046511627907,0 L211.046511627907,450 M275,0 L275,450 M338.95348837209303,0 L338.95348837209303,450 M402.90697674418607,0 L402.90697674418607,450 M466.8604651162791,0 L466.8604651162791,450 M530.8139534883721,0 L530.8139534883721,450 M0,434.30232558139534 L550,434.30232558139534 M0,381.9767441860465 L550,381.9767441860465 M0,329.6511627906977 L550,329.6511627906977 M0,277.3255813953488 L550,277.3255813953488 M0,225 L550,225 M0,172.67441860465112 L550,172.67441860465112 M0,120.34883720930229 L550,120.34883720930229 M0,68.02325581395347 L550,68.02325581395347 M0,15.697674418604592 L550,15.697674418604592 " fill="none" stroke="#aaaaaa" stroke-width="0.5"></path><path d="M0,381.9767441860465 L550,381.9767441860465 M83.13953488372094,0 L83.13953488372094,450 M19.186046511627914,377.9767441860465 L19.186046511627914,385.9767441860465 M147.09302325581396,377.9767441860465 L147.09302325581396,385.9767441860465 M211.046511627907,377.9767441860465 L211.046511627907,385.9767441860465 M275,377.9767441860465 L275,385.9767441860465 M338.95348837209303,377.9767441860465 L338.95348837209303,385.9767441860465 M402.90697674418607,377.9767441860465 L402.90697674418607,385.9767441860465 M466.8604651162791,377.9767441860465 L466.8604651162791,385.9767441860465 M530.8139534883721,377.9767441860465 L530.8139534883721,385.9767441860465 M79.13953488372094,434.30232558139534 L87.13953488372094,434.30232558139534 M79.13953488372094,329.6511627906977 L87.13953488372094,329.6511627906977 M79.13953488372094,277.3255813953488 L87.13953488372094,277.3255813953488 M79.13953488372094,225 L87.13953488372094,225 M79.13953488372094,172.67441860465112 L87.13953488372094,172.67441860465112 M79.13953488372094,120.34883720930229 L87.13953488372094,120.34883720930229 M79.13953488372094,68.02325581395347 L87.13953488372094,68.02325581395347 M79.13953488372094,15.697674418604592 L87.13953488372094,15.697674418604592 " fill="none" stroke="black" stroke-width="1"></path><text x="19.186046511627914" y="409.9767441860465" fill="black" font-family="sans" font-weight="normal" font-style="normal" font-size="25" text-anchor="middle">-1</text><text x="147.09302325581396" y="409.9767441860465" fill="black" font-family="sans" font-weight="normal" font-style="normal" font-size="25" text-anchor="middle">1</text><text x="211.046511627907" y="409.9767441860465" fill="black" font-family="sans" font-weight="normal" font-style="normal" font-size="25" text-anchor="middle">2</text><text x="275" y="409.9767441860465" fill="black" font-family="sans" font-weight="normal" font-style="normal" font-size="25" text-anchor="middle">3</text><text x="338.95348837209303" y="409.9767441860465" fill="black" font-family="sans" font-weight="normal" font-style="normal" font-size="25" text-anchor="middle">4</text><text x="402.90697674418607" y="409.9767441860465" fill="black" font-family="sans" font-weight="normal" font-style="normal" font-size="25" text-anchor="middle">5</text><text x="466.8604651162791" y="409.9767441860465" fill="black" font-family="sans" font-weight="normal" font-style="normal" font-size="25" text-anchor="middle">6</text><text x="530.8139534883721" y="409.9767441860465" fill="black" font-family="sans" font-weight="normal" font-style="normal" font-size="25" text-anchor="middle">7</text><text x="68.13953488372094" y="442.30232558139534" fill="black" font-family="sans" font-weight="normal" font-style="normal" font-size="25" text-anchor="end">-1</text><text x="68.13953488372094" y="337.6511627906977" fill="black" font-family="sans" font-weight="normal" font-style="normal" font-size="25" text-anchor="end">1</text><text x="68.13953488372094" y="285.3255813953488" fill="black" font-family="sans" font-weight="normal" font-style="normal" font-size="25" text-anchor="end">2</text><text x="68.13953488372094" y="233" fill="black" font-family="sans" font-weight="normal" font-style="normal" font-size="25" text-anchor="end">3</text><text x="68.13953488372094" y="180.67441860465112" fill="black" font-family="sans" font-weight="normal" font-style="normal" font-size="25" text-anchor="end">4</text><text x="68.13953488372094" y="128.3488372093023" fill="black" font-family="sans" font-weight="normal" font-style="normal" font-size="25" text-anchor="end">5</text><text x="68.13953488372094" y="76.02325581395347" fill="black" font-family="sans" font-weight="normal" font-style="normal" font-size="25" text-anchor="end">6</text><text x="68.13953488372094" y="23.697674418604592" fill="black" font-family="sans" font-weight="normal" font-style="normal" font-size="25" text-anchor="end">7</text><path d="M147.09302325581396,282.5581395348837 L148.37209302325584,281.8997189914074 L149.6511627906977,281.2498499690405 L150.93023255813955,280.60826009639595 L152.2093023255814,279.9746906226575 L153.48837209302326,279.3488954982333 L154.76744186046514,278.7306405329606 L156.046511627907,278.1197026240602 L157.32558139534888,277.51586904694346 L158.60465116279073,276.91893680276667 L159.88372093023258,276.3287120173102 L161.16279069767444,275.7450093863617 L162.4418604651163,275.16765166330623 L163.72093023255817,274.59646918508446 L165.00000000000003,274.03129943308625 L166.2790697674419,273.4719866259017 L167.55813953488376,272.9183813411654 L168.83720930232562,272.37034016400906 L170.11627906976747,271.82772535988215 L171.39534883720933,271.2904045697193 L172.67441860465118,270.75825052562857 L173.95348837209306,270.2311407854461 L175.23255813953494,269.7089574846587 L176.5116279069768,269.1915871043336 L177.79069767441865,268.67892025381786 L179.0697674418605,268.17085146708155 L180.34883720930236,267.6672790116784 L181.6279069767442,267.168104709387 L182.9069767441861,266.6732337676769 L184.18604651162795,266.18257462121505 L185.46511627906983,265.69603878269766 L186.7441860465117,265.21354070234725 L188.02325581395354,264.73499763547295 L189.3023255813954,264.2603295175374 L190.58139534883725,263.78945884622146 L191.86046511627913,263.32231057001474 L193.13953488372098,262.8588119828999 L194.41860465116287,262.39889262472997 L195.69767441860472,261.94248418692973 L196.97674418604657,261.48952042317876 L198.25581395348843,261.0399370647615 L199.53488372093028,260.59367174028966 L200.81395348837216,260.15066389952796 L202.09302325581402,259.7108547410691 L203.3720930232559,259.2741871436257 L204.65116279069775,258.8406056007214 L205.9302325581396,258.4100561585791 L207.20930232558146,257.98248635701844 L208.48837209302332,257.55784517318705 L209.76744186046517,257.13608296796195 L211.04651162790705,256.7171514348702 L212.32558139534893,256.30100355138416 L213.6046511627908,255.8875935324611 L214.88372093023264,255.47687678620088 L216.1627906976745,255.06880987150646 L217.44186046511635,254.66335045763861 L218.7209302325582,254.2604572855622 L220.00000000000006,253.86009013098908 L221.27906976744197,253.46220976902828 L222.55813953488382,253.06677794035846 L223.83720930232568,252.67375731884465 L225.11627906976753,252.28311148052467 L226.39534883720938,251.89480487389562 L227.67441860465124,251.50880279143473 L228.9534883720931,251.12507134229315 L230.232558139535,250.74357742610403 L231.51162790697686,250.3642887078505 L232.7906976744187,249.98717359374234 L234.06976744186056,249.61220120805126 L235.34883720930242,249.23934137086064 L236.62790697674427,248.8685645766849 L237.90697674418612,248.49984197391825 L239.18604651162804,248.13314534507384 L240.4651162790699,247.76844708777696 L241.74418604651174,247.40572019647686 L243.0232558139536,247.0449382448462 L244.30232558139545,246.68607536883417 L245.5813953488373,246.32910625034742 L246.86046511627916,245.97400610152783 L248.139534883721,245.62075064960243 L249.41860465116292,245.26931612228015 L250.69767441860478,244.91967923367145 L251.97674418604663,244.57181717070785 L253.25581395348848,244.22570758004088 L254.53488372093034,243.88132855539948 L255.8139534883722,243.5386586253863 L257.09302325581405,243.19767674169532 L258.37209302325596,242.85836226773256 L259.6511627906978,242.52069496762306 L260.93023255813966,242.18465499558954 L262.2093023255815,241.85022288568643 L263.4883720930234,241.5173795418748 L264.7674418604652,241.18610622842584 L266.0465116279071,240.85638456063873 L267.325581395349,240.52819649586024 L268.60465116279084,240.2015243247954 L269.8837209302327,239.87635066309662 L271.16279069767455,239.55265844322156 L272.4418604651164,239.23043090654852 L273.72093023255826,238.90965159574 L275.0000000000001,238.59030434734484 L276.279069767442,238.27237328463036 L277.5581395348839,237.95584281063515 L278.83720930232573,237.6406976014345 L280.1162790697676,237.32692259961175 L281.39534883720944,237.01450300792578 L282.6744186046513,236.70342428316985 L283.95348837209315,236.39367213021308 L285.232558139535,236.08523249621908 L286.5116279069769,235.77809156503457 L287.79069767441877,235.47223575174274 L289.0697674418606,235.16765169737494 L290.3488372093025,234.8643262637754 L291.6279069767443,234.56224652861363 L292.9069767441862,234.2613997805392 L294.18604651162804,233.9617735144741 L295.46511627906995,233.66335542703825 L296.7441860465118,233.36613341210307 L298.02325581395365,233.0700955564692 L299.3023255813955,232.77523013566383 L300.58139534883736,232.4815256098542 L301.8604651162792,232.18897061987303 L303.13953488372107,231.8975539833517 L304.418604651163,231.6072646909587 L305.69767441860483,231.3180919027393 L306.9767441860467,231.0300249445528 L308.25581395348854,230.7430533046051 L309.5348837209304,230.45716663007272 L310.81395348837225,230.17235472381572 L312.0930232558141,229.88860754117673 L313.37209302325596,229.60591518686329 L314.65116279069787,229.32426791191062 L315.9302325581397,229.04365611072308 L317.2093023255816,228.76407031819048 L318.48837209302343,228.48550120687895 L319.7674418604653,228.2079395842918 L321.04651162790714,227.93137639020006 L322.325581395349,227.6558026940399 L323.6046511627909,227.3812096923741 L324.88372093023276,227.10758870641763 L326.1627906976746,226.83493117962303 L327.44186046511646,226.563228675326 L328.7209302325583,226.29247287444753 L330.00000000000017,226.02265557325245 L331.279069767442,225.7537686811619 L332.55813953488394,225.4858042186181 L333.8372093023258,225.2187543150004 L335.11627906976764,224.9526112065907 L336.3953488372095,224.6873672345872 L337.67441860465135,224.4230148431647 L338.9534883720932,224.15954657758016 L340.23255813953506,223.89695508232285 L341.5116279069769,223.6352330993069 L342.7906976744187,223.37437346610608 L344.06976744186056,223.11436911422834 L345.3488372093024,222.8552130674305 L346.6279069767442,222.59689844007073 L347.90697674418607,222.33941843549877 L349.1860465116279,222.08276634448168 L350.4651162790697,221.82693554366563 L351.7441860465116,221.57191949407155 L353.0232558139534,221.31771173962414 L354.3023255813952,221.06430590571352 L355.5813953488371,220.81169569778854 L356.8604651162789,220.5598748999804 L358.1395348837207,220.30883737375711 L359.4186046511626,220.05857705660617 L360.6976744186044,219.8090879607464 L361.97674418604623,219.5603641718667 L363.2558139534881,219.3123998478926 L364.5348837209299,219.06518921777865 L365.81395348837174,218.81872658032592 L367.0930232558136,218.57300630302547 L368.3720930232554,218.32802282092507 L369.65116279069724,218.0837706355203 L370.93023255813904,217.84024431366834 L372.2093023255809,217.59743848652465 L373.48837209302275,217.35534784850074 L374.76744186046454,217.11396715624448 L376.0465116279064,216.87329122764055 L377.32558139534825,216.63331494083099 L378.60465116279005,216.39403323325638 L379.8837209302319,216.15544110071573 L381.16279069767376,215.9175335964456 L382.44186046511555,215.68030583021732 L383.7209302325574,215.44375296745244 L384.9999999999992,215.20787022835577 L386.27906976744106,214.97265288706535 L387.5581395348829,214.73809627081897 L388.8372093023247,214.5041957591377 L390.11627906976656,214.27094678302444 L391.3953488372084,214.0383448241788 L392.6744186046502,213.80638541422672 L393.95348837209207,213.57506413396493 L395.2325581395339,213.3443766126203 L396.5116279069757,213.11431852712246 L397.7906976744176,212.8848856013919 L399.06976744185937,212.65607360563928 L400.3488372093012,212.42787835568004 L401.6279069767431,212.20029571226075 L402.9069767441849,211.97332158039836 " fill="none" stroke="blue" stroke-width="2"></path><path d="M83.13953488372094,381.9767441860465 L83.4593023255814,364.9764019254817 L83.77906976744187,360.55765511654346 L84.09883720930233,357.458007865668 L84.4186046511628,354.9903829978065 L84.73837209302327,352.9065678352093 L85.05813953488374,351.08507217917963 L85.3779069767442,349.45625935800877 L85.69767441860466,347.9760596649169 L86.01744186046513,346.6146072635 L86.33720930232559,345.3506170774706 L86.65697674418605,344.1683214656862 L86.97674418604652,343.05567635814674 L87.296511627907,342.0032497256553 L87.61627906976746,341.00350079841496 L87.93604651162792,340.05029483529097 L88.25581395348838,339.13856604704046 L88.57558139534885,338.26407709656695 L88.89534883720931,337.4232435080654 L89.21511627906978,336.61300286911796 L89.53488372093024,335.83071566582646 L89.85465116279072,335.0740889166205 L90.17441860465118,334.3411165373409 L90.49418604651164,333.63003218505105 L90.8139534883721,332.9392715452895 L91.13372093023257,332.2674418604651 L91.45348837209303,331.6132970775435 L91.7732558139535,330.975717404352 L92.09302325581396,330.35369235950355 L92.41279069767444,329.74630661649496 L92.7325581395349,329.15272810167835 L93.05232558139537,328.5721979246764 L93.37209302325583,328.0040218095664 L93.69186046511629,327.44756276360596 L94.01162790697676,326.90223477296433 L94.33139534883722,326.36749735583754 L94.6511627906977,325.8428508353526 L94.97093023255816,325.3278322199322 L95.29069767441862,324.82201159886245 L95.61046511627909,324.32498897686173 L95.93023255813955,323.8363914843721 L96.25000000000001,323.35587091075973 L96.56976744186048,322.883101516134 L96.88953488372096,322.4177780844732 L97.20930232558142,321.9596141864881 L97.52906976744188,321.508340625404 L97.84883720930235,321.06370404278726 L98.16860465116281,320.6254656648361 L98.48837209302327,320.1934001723128 L98.80813953488374,319.7672946796168 L99.1279069767442,319.34694781045835 L99.44767441860466,318.9321688592538 L99.76744186046514,318.5227770287765 L100.0872093023256,318.11860073580436 L100.40697674418607,317.7194769775374 L100.72674418604653,317.3252507524456 L101.046511627907,316.93577452997107 L101.36627906976746,316.55090776416984 L101.68604651162792,316.1705164469485 L102.0058139534884,315.79447269704883 L102.32558139534886,315.4226543813657 L102.64534883720933,315.0549447655602 L102.96511627906979,314.6912321912617 L103.28488372093025,314.33140977744034 L103.60465116279072,313.9753751437872 L103.92441860465118,313.6230301541633 L104.24418604651166,313.2742806783772 L104.56395348837212,312.929036370723 L104.88372093023258,312.5872104638709 L105.20348837209305,312.2487195768348 L105.52325581395351,311.9134835358665 L105.84302325581397,311.5814252072362 L106.16279069767444,311.2524703409534 L106.48255813953492,310.9265474245716 L106.80232558139538,310.6035875462975 L107.12209302325584,310.2835242666957 L107.4418604651163,309.9662934983408 L107.76162790697677,309.65183339282913 L108.08139534883723,309.3400842346082 L108.4011627906977,309.0309883411328 L108.72093023255817,308.72448996889466 L109.04069767441864,308.42053522491096 L109.3604651162791,308.1190719832929 L109.68023255813956,307.8200498065424 L110.00000000000003,307.52341987125783 L110.31976744186049,307.22913489795036 L110.63953488372096,306.9371490846991 L110.95930232558143,306.6474180443929 L111.27906976744188,306.35989874532584 L111.59883720930236,306.0745494549311 L111.91860465116282,305.7913296864549 L112.23837209302329,305.5102001483848 L112.55813953488375,305.23112269646276 L112.87790697674421,304.9540602881233 L113.19767441860469,304.6789769392103 L113.51744186046514,304.4058376828348 L113.83720930232562,304.134608530247 L114.15697674418608,303.8652564336042 L114.47674418604655,303.59774925052346 L114.79651162790701,303.33205571031687 L115.11627906976747,303.06814538181334 L115.43604651162795,302.8059886426767 L115.7558139534884,302.5455566501374 L116.07558139534888,302.2868213130586 L116.39534883720934,302.02975526526404 L116.7151162790698,301.774331840059 L117.03488372093027,301.52052504588 L117.35465116279073,301.2683095430134 L117.67441860465121,301.0176606213263 L117.99418604651166,300.76855417895655 L118.31395348837214,300.5209667019125 L118.6337209302326,300.2748752445359 L118.95348837209306,300.0302574107833 L119.27325581395353,299.78709133628547 L119.59302325581399,299.54535567114544 L119.91279069767447,299.30502956343867 L120.23255813953492,299.06609264338107 L120.5523255813954,298.8285250081318 L120.87209302325584,298.5923072072011 L121.19186046511632,298.35742022843266 L121.51162790697678,298.12384548453537 L121.83139534883725,297.8915648001365 L122.15116279069773,297.66056039933324 L122.47093023255817,297.4308148937191 L122.79069767441865,297.20231127086316 L123.1104651162791,296.9750328832223 L123.43023255813958,296.74896343746565 L123.75000000000004,296.5240869841937 L124.0697674418605,296.3003879080344 L124.38953488372097,296.0778509180989 L124.70930232558143,295.8564610387823 L125.02906976744191,295.6362036008934 L125.34883720930236,295.41706423309955 L125.66860465116284,295.19902885367367 L125.9883720930233,294.98208366252965 L126.30813953488376,294.76621513353484 L126.62790697674423,294.5514100070874 L126.94767441860469,294.3376552829475 L127.26744186046517,294.12493821331293 L127.58720930232562,293.9132462961274 L127.9069767441861,293.7025672686135 L128.22674418604657,293.49288910102064 L128.54651162790702,293.28419999057934 L128.86627906976747,293.0764883556536 L129.18604651162795,292.86974283008425 L129.50581395348843,292.6639522577145 L129.82558139534888,292.45910568709166 L130.14534883720935,292.2551923663378 L130.46511627906983,292.0522017381827 L130.78488372093028,291.8501234351535 L131.10465116279073,291.64894727491395 L131.4244186046512,291.4486632557493 L131.7441860465117,291.24926155218935 L132.06395348837214,291.0507325107667 L132.3837209302326,290.85306664590297 L132.7034883720931,290.6562546359206 L133.02325581395354,290.4602873191734 L133.343023255814,290.26515569029317 L133.66279069767447,290.07085089654777 L133.98255813953494,289.8773642343059 L134.3023255813954,289.68468714560635 L134.62209302325587,289.4928112148262 L134.94186046511635,289.3017281654459 L135.2616279069768,289.1114298569074 L135.58139534883725,288.92190828156174 L135.90116279069773,288.7331555617033 L136.2209302325582,288.54516394668843 L136.54069767441865,288.3579258101339 L136.86046511627913,288.1714336471945 L137.18023255813958,287.9856800719151 L137.50000000000006,287.80065781465663 L137.8197674418605,287.6163597195921 L138.13953488372098,287.43277874227067 L138.45930232558146,287.2499079472482 L138.7790697674419,287.067740505781 L139.0988372093024,286.88626969358177 L139.41860465116284,286.70548888863533 L139.73837209302332,286.5253915690714 L140.05813953488376,286.34597131109444 L140.37790697674424,286.1672217869669 L140.69767441860472,285.98913676304494 L141.01744186046517,285.8117100978658 L141.33720930232565,285.6349357402832 L141.6569767441861,285.45880772765156 L141.97674418604657,285.2833201840556 L142.29651162790702,285.1084673185853 L142.6162790697675,284.93424342365415 L142.93604651162798,284.7606428733594 L143.25581395348843,284.5876601218831 L143.5755813953489,284.4152897019333 L143.89534883720935,284.24352622322294 L144.21511627906983,284.0723643709864 L144.53488372093028,283.9017989045324 L144.85465116279076,283.7318246558317 L145.17441860465124,283.56243652813885 L145.4941860465117,283.3936294946475 L145.81395348837216,283.22539859717733 L146.1337209302326,283.05773894489244 L146.4534883720931,282.89064571305 L146.77325581395354,282.72411414177833 " fill="none" stroke="blue" stroke-width="2"></path><path d="M402.90697674418607,211.9733215803982 L403.2267441860466,211.9733215803982 L403.546511627907,211.9733215803982 L403.8662790697675,211.9733215803982 L404.1860465116279,211.9733215803982 L404.50581395348837,211.9733215803982 L404.8255813953488,211.9733215803982 L405.14534883720927,211.9733215803982 L405.4651162790698,211.9733215803982 L405.7848837209302,211.9733215803982 L406.1046511627907,211.9733215803982 L406.4244186046511,211.9733215803982 L406.7441860465116,211.9733215803982 L407.063953488372,211.9733215803982 L407.3837209302325,211.9733215803982 L407.703488372093,211.9733215803982 L408.0232558139534,211.9733215803982 L408.3430232558139,211.9733215803982 L408.6627906976743,211.9733215803982 L408.9825581395348,211.9733215803982 L409.3023255813953,211.9733215803982 L409.62209302325573,211.9733215803982 L409.9418604651162,211.9733215803982 L410.2616279069766,211.9733215803982 L410.5813953488371,211.9733215803982 L410.9011627906975,211.9733215803982 L411.22093023255803,211.9733215803982 L411.5406976744185,211.9733215803982 L411.86046511627893,211.9733215803982 L412.1802325581394,211.9733215803982 L412.49999999999983,211.9733215803982 L412.8197674418603,211.9733215803982 L413.1395348837207,211.9733215803982 L413.45930232558123,211.9733215803982 L413.7790697674417,211.9733215803982 L414.09883720930213,211.9733215803982 L414.4186046511626,211.9733215803982 L414.73837209302303,211.9733215803982 L415.0581395348835,211.9733215803982 L415.377906976744,211.9733215803982 L415.69767441860444,211.9733215803982 L416.0174418604649,211.9733215803982 L416.33720930232533,211.9733215803982 L416.6569767441858,211.9733215803982 L416.97674418604623,211.9733215803982 L417.29651162790674,211.9733215803982 L417.6162790697672,211.9733215803982 L417.93604651162764,211.9733215803982 L418.2558139534881,211.9733215803982 L418.57558139534854,211.9733215803982 L418.895348837209,211.9733215803982 L419.2151162790695,211.9733215803982 L419.53488372092994,211.9733215803982 L419.8546511627904,211.9733215803982 L420.17441860465084,211.9733215803982 L420.4941860465113,211.9733215803982 L420.81395348837174,211.9733215803982 L421.1337209302322,211.9733215803982 L421.4534883720927,211.9733215803982 L421.77325581395314,211.9733215803982 L422.0930232558136,211.9733215803982 L422.41279069767404,211.9733215803982 L422.7325581395345,211.9733215803982 L423.05232558139494,211.9733215803982 L423.37209302325545,211.9733215803982 L423.6918604651159,211.9733215803982 L424.01162790697634,211.9733215803982 L424.3313953488368,211.9733215803982 L424.65116279069724,211.9733215803982 L424.9709302325577,211.9733215803982 L425.2906976744182,211.9733215803982 L425.61046511627865,211.9733215803982 L425.9302325581391,211.9733215803982 L426.24999999999955,211.9733215803982 L426.56976744186,211.9733215803982 L426.88953488372044,211.9733215803982 L427.2093023255809,211.9733215803982 L427.5290697674414,211.9733215803982 L427.84883720930185,211.9733215803982 L428.1686046511623,211.9733215803982 L428.48837209302275,211.9733215803982 L428.8081395348832,211.9733215803982 L429.12790697674365,211.9733215803982 L429.44767441860415,211.9733215803982 L429.7674418604646,211.9733215803982 L430.08720930232505,211.9733215803982 L430.4069767441855,211.9733215803982 L430.72674418604595,211.9733215803982 L431.0465116279064,211.9733215803982 L431.3662790697669,211.9733215803982 L431.68604651162735,211.9733215803982 L432.0058139534878,211.9733215803982 L432.32558139534825,211.9733215803982 L432.6453488372087,211.9733215803982 L432.96511627906915,211.9733215803982 L433.28488372092966,211.9733215803982 L433.6046511627901,211.9733215803982 L433.92441860465055,211.9733215803982 L434.244186046511,211.9733215803982 L434.56395348837145,211.9733215803982 L434.8837209302319,211.9733215803982 L435.20348837209235,211.9733215803982 L435.52325581395286,211.9733215803982 L435.8430232558133,211.9733215803982 L436.16279069767376,211.9733215803982 L436.4825581395342,211.9733215803982 L436.80232558139465,211.9733215803982 L437.1220930232551,211.9733215803982 L437.4418604651156,211.9733215803982 L437.76162790697606,211.9733215803982 L438.0813953488365,211.9733215803982 L438.40116279069696,211.9733215803982 L438.7209302325574,211.9733215803982 L439.04069767441786,211.9733215803982 L439.36046511627836,211.9733215803982 L439.6802325581388,211.9733215803982 L439.99999999999926,211.9733215803982 L440.3197674418597,211.9733215803982 L440.63953488372016,211.9733215803982 L440.9593023255806,211.9733215803982 L441.2790697674411,211.9733215803982 L441.59883720930156,211.9733215803982 L441.918604651162,211.9733215803982 L442.23837209302246,211.9733215803982 L442.5581395348829,211.9733215803982 L442.87790697674336,211.9733215803982 L443.1976744186038,211.9733215803982 L443.5174418604643,211.9733215803982 L443.83720930232477,211.9733215803982 L444.1569767441852,211.9733215803982 L444.47674418604566,211.9733215803982 L444.7965116279061,211.9733215803982 L445.11627906976656,211.9733215803982 L445.43604651162707,211.9733215803982 L445.7558139534875,211.9733215803982 L446.07558139534797,211.9733215803982 L446.3953488372084,211.9733215803982 L446.71511627906887,211.9733215803982 L447.0348837209293,211.9733215803982 L447.3546511627898,211.9733215803982 L447.67441860465027,211.9733215803982 L447.9941860465107,211.9733215803982 L448.31395348837117,211.9733215803982 L448.6337209302316,211.9733215803982 L448.95348837209207,211.9733215803982 L449.2732558139525,211.9733215803982 L449.593023255813,211.9733215803982 L449.9127906976735,211.9733215803982 L450.2325581395339,211.9733215803982 L450.55232558139437,211.9733215803982 L450.8720930232548,211.9733215803982 L451.19186046511527,211.9733215803982 L451.5116279069758,211.9733215803982 L451.8313953488362,211.9733215803982 L452.1511627906967,211.9733215803982 L452.4709302325571,211.9733215803982 L452.7906976744176,211.9733215803982 L453.110465116278,211.9733215803982 L453.4302325581385,211.9733215803982 L453.749999999999,211.9733215803982 L454.0697674418594,211.9733215803982 L454.3895348837199,211.9733215803982 L454.7093023255803,211.9733215803982 L455.0290697674408,211.9733215803982 L455.3488372093013,211.9733215803982 L455.66860465116173,211.9733215803982 L455.9883720930222,211.9733215803982 L456.3081395348826,211.9733215803982 L456.6279069767431,211.9733215803982 L456.9476744186035,211.9733215803982 L457.267441860464,211.9733215803982 L457.5872093023245,211.9733215803982 L457.90697674418493,211.9733215803982 L458.2267441860454,211.9733215803982 L458.54651162790583,211.9733215803982 L458.8662790697663,211.9733215803982 L459.1860465116267,211.9733215803982 L459.50581395348723,211.9733215803982 L459.8255813953477,211.9733215803982 L460.14534883720813,211.9733215803982 L460.4651162790686,211.9733215803982 L460.78488372092903,211.9733215803982 L461.1046511627895,211.9733215803982 L461.42441860465,211.9733215803982 L461.74418604651044,211.9733215803982 L462.0639534883709,211.9733215803982 L462.38372093023133,211.9733215803982 L462.7034883720918,211.9733215803982 L463.02325581395223,211.9733215803982 L463.34302325581274,211.9733215803982 L463.6627906976732,211.9733215803982 L463.98255813953364,211.9733215803982 L464.3023255813941,211.9733215803982 L464.62209302325454,211.9733215803982 L464.941860465115,211.9733215803982 L465.26162790697543,211.9733215803982 L465.58139534883594,211.9733215803982 L465.9011627906964,211.9733215803982 L466.22093023255684,211.9733215803982 L466.5406976744173,211.9733215803982 L466.86046511627774,211.9733215803982 " fill="none" stroke="blue" stroke-width="2"></path><path d="M466.8604651162791,211.9733215803982 L467.8197674418605,205.56477283474453 L468.77906976744185,202.91026502916577 L469.73837209302326,200.87338955014434 L470.6976744186046,199.15622408909098 L471.656976744186,197.64337094799566 L472.61627906976736,196.2756471617937 L473.57558139534876,195.01789533456383 L474.5348837209301,193.84720847793335 L475.4941860465115,192.74767534343738 L476.45348837209286,191.70771104791766 L477.41279069767427,190.71856994036244 L478.3720930232556,189.77345751989048 L479.33139534883696,188.8669704766337 L480.29069767441837,187.9947278277225 L481.2499999999997,187.15311901512337 L482.2093023255811,186.33912659778377 L483.16860465116247,185.55019819514882 L484.1279069767439,184.78415192670093 L485.0872093023252,184.0391052233398 L486.0465116279066,183.31342031559325 L487.005813953488,182.60566185862626 L487.9651162790694,181.91456354618782 L488.9244186046507,181.23900148730644 L489.88372093023213,180.57797274318915 L490.8430232558135,179.93057785213017 L491.8023255813949,179.29600647249987 L492.76162790697623,178.6735254896367 L493.72093023255763,178.06246908872947 L494.680232558139,177.46223041049842 L495.6395348837204,176.872254491739 L496.59883720930173,176.292032256889 L497.55813953488314,175.7210953754685 L498.5174418604645,175.15901183759837 L499.4767441860459,174.6053821287208 L500.43604651162724,174.0598359072285 L501.3953488372086,173.52202910647657 L502.35465116279,172.9916413967468 L503.31395348837134,172.46837395398182 L504.27325581395274,171.95194749115285 L505.2325581395341,171.44210051543723 L506.1918604651155,170.9385877803337 L507.15116279069684,170.4411789067102 L508.11046511627825,169.949657150782 L509.0697674418596,169.46381830032675 L510.029069767441,168.98346968319078 L510.98837209302235,168.50842927443193 L511.94767441860375,168.0385248903637 L512.906976744185,167.57359345938283 L513.8662790697665,167.11348036082296 L514.8255813953479,166.65803882423614 L515.7848837209292,166.20712938248494 L516.7441860465105,165.7606193728692 L517.703488372092,165.3183824812291 L518.6627906976734,164.88029832458471 L519.6220930232547,164.4462520684031 L520.581395348836,164.01613407504686 L521.5406976744175,163.58983958035145 L522.4999999999989,163.1672683956316 L523.4593023255802,162.74832463271235 L524.4186046511616,162.33291644984854 L525.3779069767429,161.9209558166251 L526.3372093023244,161.5123582961332 L527.2965116279057,161.1070428428951 L528.2558139534871,160.70493161516936 L529.2151162790684,160.30594980040348 L530.1744186046499,159.9100254527267 L531.1337209302312,159.5170893414828 L532.0930232558126,159.12707480989945 L533.0523255813939,158.7399176430783 L534.0116279069754,158.3555559445636 L534.9709302325567,157.97393002081947 L535.9302325581381,157.59498227300372 L536.8895348837194,157.21865709548388 L537.8488372093009,156.84490078058786 L538.8081395348822,156.47366142912904 L539.7674418604636,156.10488886628139 L540.7267441860449,155.73853456242136 L541.6860465116264,155.37455155858027 L542.6453488372077,155.012894396185 L543.6046511627891,154.65351905078836 L544.5639534883704,154.29638286951575 L545.5232558139518,153.9414445119774 L546.4825581395332,153.58866389441255 L547.4418604651146,153.23800213685433 L548.4011627906959,152.88942151311625 L549.3604651162773,152.54288540341912 L550.3197674418587,152.19835824949018 " fill="none" stroke="blue" stroke-width="2"></path><path d="M466.8604651162791,211.9733215803982 L467.0203488372094,209.35704251063055 L467.1802325581396,208.27334423697988 L467.3401162790699,207.44179330478153 L467.50000000000017,206.7407634408629 L467.6598837209304,206.12314373228776 L467.8197674418607,205.56477283474396 L467.9796511627909,205.05129780144955 L468.1395348837212,204.57336689356163 L468.2994186046514,204.1244843710952 L468.4593023255817,203.6999207253058 L468.61918604651197,203.2961055591188 L468.7790697674422,202.91026502916498 L468.9389534883725,202.54019324342767 L469.0988372093027,202.18410167313993 L469.258720930233,201.84051631415701 L469.41860465116326,201.50820530132756 L469.5784883720935,201.18612662965342 L469.73837209302377,200.87338955014332 L469.898255813954,200.56922550718036 L470.0581395348843,200.27296588417744 L470.2180232558145,199.98402470405927 L470.3779069767448,199.7018849994638 L470.53779069767506,199.42608794382318 L470.6976744186053,199.15622408908985 L470.85755813953557,198.89192623155992 L471.0174418604658,198.6328635506485 L471.1773255813961,198.3787367535483 L471.3372093023263,198.12927402250097 L471.4970930232566,197.88422760824278 L471.65697674418686,197.6433709479944 L471.8168604651171,197.40649621252777 L471.97674418604737,197.17341220672506 L472.1366279069776,196.94394256329167 L472.2965116279079,196.71792418109237 L472.45639534883816,196.49520586879908 L472.6162790697684,196.27564716179228 L472.77616279069866,196.059117286012 L472.9360465116289,195.84549424704778 L473.09593023255917,195.63466402644758 L473.2558139534894,195.4265198702135 L473.4156976744197,195.22096165688066 L473.57558139534996,195.01789533456235 L473.7354651162802,194.8172324179788 L473.89534883721046,194.61888953783944 L474.0552325581407,194.422788036067 L474.21511627907097,194.22885360128998 L474.3750000000012,194.0370159398126 L474.5348837209315,193.84720847793176 L474.69476744186176,193.65936809202464 L474.854651162792,193.4734348633068 L475.01453488372226,193.28935185455782 L475.1744186046525,193.1070649064572 L475.33430232558277,192.92652245146508 L475.49418604651305,192.74767534343562 L475.6540697674433,192.57047670136728 L475.81395348837356,192.3948817658818 L475.9738372093038,192.22084776718827 L476.13372093023406,192.04833380342706 L476.2936046511643,191.87730072841475 L476.45348837209457,191.7077110479159 L476.61337209302485,191.539528823664 L476.7732558139551,191.3727195844354 L476.93313953488536,191.20725024355238 L477.0930232558156,191.04308902225694 L477.25290697674586,190.88020537845262 L477.4127906976761,190.71856994036057 L477.57267441860637,190.55815444468362 L477.73255813953665,190.3989316789087 L477.8924418604669,190.24087542741313 L478.05232558139716,190.08396042107472 L478.2122093023274,189.9281622901094 L478.37209302325766,189.77345751988855 L478.53197674418794,189.6198234095075 L478.69186046511817,189.46723803290115 L478.85174418604845,189.31568020231515 L479.0116279069787,189.16512943396265 L479.17151162790896,189.0155659157076 L479.3313953488392,188.86697047663165 L479.49127906976946,188.71932455834974 L479.65116279069974,188.57261018795668 L479.81104651162997,188.4268099524893 L479.97093023256025,188.2819069748042 L480.1308139534905,188.13788489077456 L480.29069767442076,187.99472782772034 L480.450581395351,187.85242038399048 L480.61046511628126,187.71094760962262 L480.77034883721154,187.57029498801268 L480.93023255814177,187.43044841852947 L481.09011627907205,187.2913942000156 L481.2500000000023,187.15311901512115 L481.40988372093256,187.01560991541794 L481.56976744186284,186.87885430724822 L481.72965116279306,186.74283993826344 L481.88953488372334,186.60755488461302 L482.04941860465357,186.47298753874475 L482.20930232558385,186.3391265977815 L482.3691860465141,186.20596105244118 L482.52906976744435,186.07348017647024 L482.68895348837464,185.94167351656012 L482.84883720930486,185.81053088272165 L483.00872093023514,185.68004233909141 L483.16860465116537,185.55019819514644 L483.32848837209565,185.42098899730598 L483.48837209302593,185.2924055208989 L483.64825581395615,185.16443876247848 L483.80813953488644,185.0370799324649 L483.96802325581666,184.91032044810026 L484.12790697674694,184.78415192669854 L484.28779069767717,184.65856617917655 L484.44767441860745,184.53355520385134 L484.60755813953773,184.40911118049053 L484.76744186046795,184.28522646460374 L484.92732558139824,184.16189358196226 L485.08720930232846,184.0391052233373 L485.24709302325874,183.91685423944466 L485.40697674418897,183.79513363608748 L485.56686046511925,183.67393656948673 L485.72674418604953,183.5532563417907 L485.88662790697975,183.43308639675598 L486.04651162791004,183.3134203155907 L486.20639534884026,183.194251812954 L486.36627906977054,183.07557473310362 L486.5261627907008,182.95738304618516 L486.68604651163105,182.83967084465735 L486.84593023256133,182.7224323398463 L487.00581395349155,182.60566185862365 L487.16569767442184,182.48935384020348 L487.32558139535206,182.373502833052 L487.48546511628234,182.258103491906 L487.6453488372126,182.14315057489512 L487.80523255814285,182.02863894076313 L487.96511627907313,181.91456354618515 L488.12500000000335,181.8009194431757 L488.28488372093364,181.68770177658416 L488.44476744186386,181.57490578167477 L488.60465116279414,181.4625267817866 L488.7645348837244,181.3505601860711 L488.92441860465465,181.2390014873037 L489.08430232558493,181.12784625976656 L489.24418604651515,181.01709015720007 L489.40406976744543,180.90672891081977 L489.5639534883757,180.79675832739662 L489.72383720930594,180.68717428739785 L489.8837209302362,180.57797274318636 L490.04360465116645,180.4691497172763 L490.20348837209673,180.36070130064246 L490.36337209302695,180.25262365108193 L490.52325581395723,180.14491299162592 L490.6831395348875,180.03756560899933 L490.84302325581774,179.93057785212733 L491.002906976748,179.82394613068618 L491.16279069767825,179.71766691369749 L491.3226744186085,179.61173672816398 L491.48255813953875,179.50615215774513 L491.64244186046903,179.40090984147156 L491.8023255813993,179.29600647249697 L491.96220930232954,179.1914387968854 L492.1220930232598,179.0872036124337 L492.28197674419005,178.9832977675274 L492.4418604651203,178.8797181600288 L492.6017441860506,178.7764617361962 L492.76162790698083,178.67352548963368 L492.9215116279111,178.57090646026955 L493.08139534884134,178.4686017333632 L493.2412790697716,178.36660843853906 L493.40116279070185,178.2649237488472 L493.5610465116321,178.16354487984876 L493.7209302325624,178.06246908872646 L493.88081395349263,177.96169367341872 L494.0406976744229,177.86121597177697 L494.20058139535314,177.76103336074482 L494.3604651162834,177.6611432555594 L494.52034883721365,177.561543108973 L494.6802325581439,177.46223041049535 L494.8401162790742,177.36320268565515 L495.00000000000443,177.2644574952808 L495.1598837209347,177.1659924347993 L495.31976744186494,177.06780513355324 L495.4796511627952,176.96989325413472 L495.6395348837255,176.87225449173587 L495.7994186046557,176.77488657351648 L495.959302325586,176.67778725798598 L496.11918604651623,176.58095433440172 L496.2790697674465,176.48438562218178 L496.43895348837674,176.38807897033172 L496.598837209307,176.29203225688588 L496.7587209302373,176.1962433883616 L496.9186046511675,176.1007102992271 L497.0784883720978,176.00543095138147 L497.23837209302803,175.91040333364765 L497.3982558139583,175.8156254612769 L497.55813953488854,175.72109537546532 L497.7180232558188,175.62681114288125 L497.8779069767491,175.53277085520426 L498.0377906976793,175.4389726286742 L498.1976744186096,175.34541460365108 L498.35755813953983,175.25209494418488 L498.5174418604701,175.15901183759507 L498.6773255814004,175.0661634940601 " fill="none" stroke="blue" stroke-width="2"></path><text x="134.30232558139537" y="49.86046511627903" fill="black" font-family="times" font-weight="normal" font-style="italic" font-size="32" text-anchor="middle">r (cm)</text><text x="498.8372093023256" y="363.8139534883721" fill="black" font-family="times" font-weight="normal" font-style="italic" font-size="32" text-anchor="middle">t (s)</text><asciisvg>initPicture(-1.3,7.3,-1.3,7.3)
fontsize=25
axes(1, 1, "labels", 1)

fontstyle="italic"
fontfamily="times"

fontsize=16
strokewidth = "2"
stroke = "blue"
plot("1.9*x^(1/3)",1,5)
plot("1.9*x^(1/3)",0,1)
plot("1.9*5^(1/3)",5,6)
plot("1.9*5^(1/3)+(x-6)^(1/2)",6,9)
plot("1.9*5^(1/3)+(x-6)^(1/2)",6,6.5)

//stroke = "red"
//plot(["5*t*cos(pi*t)", "5*t*sin(pi*t)"],0,1)

//stroke = "green"

//marker = "arrowdot"
//line([0,1], [pi/2,1])
//dot([pi,0], "open", cpi)

fontsize = 32
text([0.8,6.5], "r (cm)")
text([6.5,0.5], "t (s)")

						
						</asciisvg></svg> 

