<svg width="550" height="450" id="target"><rect x="0" y="0" width="550" height="450" fill="white"></rect><rect x="0" y="0" width="550" height="450" fill="white"></rect><path d="M19.186046511627893,0 L19.186046511627893,450 M83.13953488372093,0 L83.13953488372093,450 M147.09302325581393,0 L147.09302325581393,450 M211.04651162790697,0 L211.04651162790697,450 M275,0 L275,450 M338.95348837209303,0 L338.95348837209303,450 M402.90697674418607,0 L402.90697674418607,450 M466.8604651162791,0 L466.8604651162791,450 M530.8139534883721,0 L530.8139534883721,450 M0,429.5454545454545 L550,429.5454545454545 M0,361.3636363636364 L550,361.3636363636364 M0,293.18181818181824 L550,293.18181818181824 M0,225 L550,225 M0,156.8181818181818 L550,156.8181818181818 M0,88.63636363636363 L550,88.63636363636363 M0,20.45454545454544 L550,20.45454545454544 " fill="none" stroke="#aaaaaa" stroke-width="0.5"></path><path d="M0,225 L550,225 M275,0 L275,450 M19.186046511627893,221 L19.186046511627893,229 M83.13953488372093,221 L83.13953488372093,229 M147.09302325581393,221 L147.09302325581393,229 M211.04651162790697,221 L211.04651162790697,229 M338.95348837209303,221 L338.95348837209303,229 M402.90697674418607,221 L402.90697674418607,229 M466.8604651162791,221 L466.8604651162791,229 M530.8139534883721,221 L530.8139534883721,229 M271,429.5454545454545 L279,429.5454545454545 M271,361.3636363636364 L279,361.3636363636364 M271,293.18181818181824 L279,293.18181818181824 M271,156.8181818181818 L279,156.8181818181818 M271,88.63636363636363 L279,88.63636363636363 M271,20.45454545454544 L279,20.45454545454544 " fill="none" stroke="black" stroke-width="1"></path><text x="19.186046511627893" y="253" fill="black" font-family="sans" font-weight="normal" font-style="normal" font-size="25" text-anchor="middle">-4</text><text x="83.13953488372093" y="253" fill="black" font-family="sans" font-weight="normal" font-style="normal" font-size="25" text-anchor="middle">-3</text><text x="147.09302325581393" y="253" fill="black" font-family="sans" font-weight="normal" font-style="normal" font-size="25" text-anchor="middle">-2</text><text x="211.04651162790697" y="253" fill="black" font-family="sans" font-weight="normal" font-style="normal" font-size="25" text-anchor="middle">-1</text><text x="338.95348837209303" y="253" fill="black" font-family="sans" font-weight="normal" font-style="normal" font-size="25" text-anchor="middle">1</text><text x="402.90697674418607" y="253" fill="black" font-family="sans" font-weight="normal" font-style="normal" font-size="25" text-anchor="middle">2</text><text x="466.8604651162791" y="253" fill="black" font-family="sans" font-weight="normal" font-style="normal" font-size="25" text-anchor="middle">3</text><text x="530.8139534883721" y="253" fill="black" font-family="sans" font-weight="normal" font-style="normal" font-size="25" text-anchor="middle">4</text><text x="260" y="437.5454545454545" fill="black" font-family="sans" font-weight="normal" font-style="normal" font-size="25" text-anchor="end">-3</text><text x="260" y="369.3636363636364" fill="black" font-family="sans" font-weight="normal" font-style="normal" font-size="25" text-anchor="end">-2</text><text x="260" y="301.18181818181824" fill="black" font-family="sans" font-weight="normal" font-style="normal" font-size="25" text-anchor="end">-1</text><text x="260" y="164.8181818181818" fill="black" font-family="sans" font-weight="normal" font-style="normal" font-size="25" text-anchor="end">1</text><text x="260" y="96.63636363636363" fill="black" font-family="sans" font-weight="normal" font-style="normal" font-size="25" text-anchor="end">2</text><text x="260" y="28.45454545454544" fill="black" font-family="sans" font-weight="normal" font-style="normal" font-size="25" text-anchor="end">3</text><path d="M275,88.63636363636363 L275.63953488372096,90 L276.27906976744185,91.36363636363637 L276.9186046511628,92.72727272727275 L277.5581395348837,94.09090909090912 L278.19767441860466,95.45454545454544 L278.83720930232556,96.81818181818181 L279.4767441860465,98.18181818181819 L280.1162790697674,99.5454545454545 L280.75581395348837,100.90909090909088 L281.3953488372093,102.27272727272725 L282.0348837209302,103.63636363636363 L282.6744186046512,105 L283.3139534883721,106.36363636363637 L283.95348837209303,107.72727272727275 L284.59302325581393,109.09090909090907 L285.2325581395349,110.45454545454544 L285.87209302325584,111.81818181818181 L286.51162790697674,113.18181818181819 L287.1511627906977,114.54545454545456 L287.7906976744186,115.90909090909088 L288.43023255813955,117.27272727272725 L289.06976744186045,118.63636363636363 L289.7093023255814,120 L290.34883720930236,121.36363636363637 L290.98837209302326,122.72727272727275 L291.6279069767442,124.09090909090907 L292.2674418604651,125.45454545454544 L292.90697674418607,126.81818181818181 L293.54651162790697,128.1818181818182 L294.1860465116279,129.54545454545456 L294.8255813953488,130.90909090909088 L295.4651162790698,132.27272727272725 L296.10465116279073,133.63636363636363 L296.74418604651163,135 L297.3837209302326,136.36363636363637 L298.0232558139535,137.72727272727275 L298.66279069767444,139.09090909090912 L299.30232558139534,140.4545454545455 L299.9418604651163,141.8181818181818 L300.58139534883725,143.1818181818182 L301.22093023255815,144.54545454545456 L301.8604651162791,145.90909090909093 L302.5,147.2727272727273 L303.13953488372096,148.63636363636363 L303.77906976744185,150 L304.4186046511628,151.36363636363637 L305.05813953488376,152.72727272727275 L305.69767441860466,154.09090909090912 L306.3372093023256,155.4545454545455 L306.9767441860465,156.81818181818187 L307.6162790697675,158.1818181818182 L308.25581395348837,159.54545454545456 L308.8953488372093,160.90909090909093 L309.5348837209302,162.2727272727273 L310.1744186046512,163.63636363636368 L310.81395348837214,165.00000000000006 L311.45348837209303,166.36363636363637 L312.093023255814,167.72727272727275 L312.7325581395349,169.09090909090912 L313.37209302325584,170.4545454545455 L314.01162790697674,171.81818181818187 L314.6511627906977,173.18181818181824 L315.29069767441865,174.54545454545462 L315.93023255813955,175.90909090909093 L316.5697674418605,177.2727272727273 L317.2093023255814,178.63636363636368 L317.84883720930236,180.00000000000006 L318.48837209302326,181.36363636363643 L319.1279069767442,182.72727272727275 L319.76744186046517,184.09090909090912 L320.40697674418607,185.4545454545455 L321.046511627907,186.81818181818187 L321.6860465116279,188.18181818181824 L322.3255813953489,189.54545454545462 L322.9651162790698,190.909090909091 L323.60465116279073,192.2727272727273 L324.2441860465117,193.63636363636368 L324.8837209302326,195.00000000000006 L325.52325581395354,196.36363636363643 L326.16279069767444,197.7272727272728 L326.8023255813954,199.09090909090918 L327.4418604651163,200.4545454545455 L328.08139534883725,201.81818181818187 L328.7209302325582,203.18181818181824 L329.3604651162791,204.54545454545462 L330.00000000000006,205.909090909091 L330.63953488372096,207.27272727272737 L331.2790697674419,208.63636363636374 L331.9186046511628,210.00000000000006 L332.55813953488376,211.36363636363643 L333.1976744186047,212.7272727272728 L333.8372093023256,214.09090909090918 L334.4767441860466,215.45454545454555 L335.1162790697675,216.81818181818193 L335.7558139534884,218.18181818181824 L336.3953488372093,219.54545454545462 L337.0348837209303,220.909090909091 L337.67441860465124,222.27272727272737 L338.31395348837214,223.63636363636374 L338.9534883720931,225.0000000000001 L339.593023255814,226.36363636363643 L340.23255813953494,227.7272727272728 L340.87209302325584,229.09090909090918 L341.5116279069768,230.45454545454555 L342.15116279069775,231.81818181818193 L342.79069767441865,233.1818181818183 L343.43023255813955,234.54545454545462 L344.0697674418605,235.909090909091 L344.70930232558146,237.27272727272737 L345.34883720930236,238.63636363636374 L345.9883720930233,240.0000000000001 L346.62790697674427,241.3636363636365 L347.26744186046517,242.72727272727286 L347.90697674418607,244.09090909090918 L348.546511627907,245.45454545454555 L349.186046511628,246.81818181818193 L349.8255813953489,248.1818181818183 L350.46511627906983,249.54545454545467 L351.1046511627908,250.90909090909105 L351.7441860465117,252.27272727272737 L352.3837209302326,253.63636363636374 L353.02325581395354,255.0000000000001 L353.6627906976745,256.3636363636365 L354.3023255813954,257.72727272727286 L354.94186046511635,259.09090909090924 L355.5813953488373,260.4545454545456 L356.2209302325582,261.8181818181819 L356.8604651162791,263.1818181818183 L357.50000000000006,264.5454545454547 L358.139534883721,265.90909090909105 L358.7790697674419,267.2727272727274 L359.41860465116287,268.63636363636374 L360.0581395348838,270.0000000000001 L360.6976744186047,271.3636363636365 L361.3372093023256,272.72727272727286 L361.9767441860466,274.09090909090924 L362.61627906976753,275.4545454545456 L363.2558139534884,276.818181818182 L363.8953488372094,278.1818181818183 L364.5348837209303,279.5454545454547 L365.17441860465124,280.90909090909105 L365.81395348837214,282.2727272727274 L366.4534883720931,283.6363636363638 L367.09302325581405,285.00000000000017 L367.73255813953494,286.3636363636365 L368.3720930232559,287.72727272727286 L369.0116279069768,289.09090909090924 L369.65116279069775,290.4545454545456 L370.29069767441865,291.818181818182 L370.9302325581396,293.18181818181836 L371.56976744186056,294.54545454545473 L372.20930232558146,295.9090909090911 L372.8488372093024,297.2727272727275 L373.4883720930233,298.63636363636374 L374.12790697674427,300.0000000000001 L374.76744186046517,301.3636363636365 L375.4069767441861,302.72727272727286 L376.0465116279071,304.09090909090924 L376.686046511628,305.4545454545456 L377.32558139534893,306.818181818182 L377.96511627906983,308.18181818181836 L378.6046511627908,309.54545454545473 L379.2441860465117,310.9090909090911 L379.88372093023264,312.2727272727275 L380.5232558139536,313.63636363636385 L381.1627906976745,315.0000000000002 L381.80232558139545,316.3636363636365 L382.44186046511635,317.72727272727286 L383.0813953488373,319.09090909090924 L383.7209302325582,320.4545454545456 L384.36046511627916,321.818181818182 L385.0000000000001,323.18181818181836 L385.639534883721,324.54545454545473 L386.27906976744197,325.9090909090911 L386.91860465116287,327.2727272727275 L387.5581395348838,328.63636363636385 L388.1976744186047,330.0000000000002 L388.8372093023257,331.3636363636366 L389.47674418604663,332.727272727273 L390.11627906976753,334.09090909090924 L390.7558139534885,335.4545454545456 L391.3953488372094,336.818181818182 L392.03488372093034,338.18181818181836 L392.67441860465124,339.54545454545473 L393.3139534883722,340.9090909090911 L393.95348837209315,342.2727272727275 L394.59302325581405,343.63636363636385 L395.232558139535,345.0000000000002 L395.8720930232559,346.3636363636366 L396.51162790697686,347.727272727273 L397.15116279069775,349.09090909090935 L397.7906976744187,350.4545454545457 L398.43023255813966,351.818181818182 L399.06976744186056,353.18181818181836 L399.7093023255815,354.54545454545473 L400.3488372093024,355.9090909090911 L400.9883720930234,357.2727272727275 L401.62790697674427,358.63636363636385 L402.2674418604652,360.0000000000002 " fill="none" stroke="blue" stroke-width="2"></path><path d="M402.90697674418607,88.63636363636363 L403.54651162790697,90 L404.18604651162786,91.36363636363626 L404.82558139534876,92.72727272727263 L405.4651162790697,94.09090909090895 L406.1046511627907,95.45454545454527 L406.7441860465116,96.81818181818164 L407.38372093023247,98.18181818181796 L408.02325581395337,99.54545454545428 L408.66279069767427,100.90909090909065 L409.3023255813952,102.27272727272697 L409.9418604651162,103.63636363636328 L410.5813953488371,104.99999999999966 L411.220930232558,106.36363636363598 L411.8604651162789,107.7272727272723 L412.4999999999998,109.09090909090867 L413.1395348837207,110.45454545454498 L413.7790697674416,111.8181818181813 L414.4186046511626,113.18181818181768 L415.0581395348835,114.54545454545399 L415.6976744186044,115.90909090909031 L416.3372093023253,117.27272727272668 L416.97674418604623,118.636363636363 L417.61627906976713,119.99999999999932 L418.2558139534881,121.36363636363569 L418.895348837209,122.72727272727201 L419.5348837209299,124.09090909090833 L420.1744186046508,125.45454545454464 L420.8139534883717,126.81818181818102 L421.45348837209264,128.18181818181733 L422.0930232558136,129.54545454545365 L422.7325581395345,130.90909090908997 L423.3720930232554,132.27272727272634 L424.0116279069763,133.63636363636266 L424.6511627906972,134.99999999999898 L425.29069767441814,136.36363636363535 L425.93023255813904,137.72727272727167 L426.56976744186,139.09090909090799 L427.2093023255809,140.45454545454436 L427.8488372093018,141.81818181818068 L428.4883720930227,143.181818181817 L429.12790697674365,144.54545454545337 L429.76744186046454,145.90909090908968 L430.4069767441855,147.272727272726 L431.0465116279064,148.63636363636238 L431.6860465116273,149.9999999999987 L432.3255813953482,151.363636363635 L432.9651162790691,152.72727272727138 L433.60465116279005,154.0909090909077 L434.244186046511,155.45454545454402 L434.8837209302319,156.8181818181804 L435.5232558139528,158.1818181818167 L436.1627906976737,159.54545454545303 L436.8023255813946,160.90909090908934 L437.44186046511555,162.27272727272572 L438.0813953488365,163.63636363636203 L438.7209302325574,164.99999999999835 L439.3604651162783,166.36363636363473 L439.9999999999992,167.72727272727104 L440.6395348837201,169.09090909090736 L441.27906976744106,170.45454545454368 L441.91860465116196,171.81818181818005 L442.5581395348829,173.18181818181637 L443.1976744186038,174.54545454545269 L443.8372093023247,175.90909090908906 L444.4767441860456,177.27272727272538 L445.11627906976656,178.6363636363617 L445.75581395348746,179.99999999999807 L446.3953488372084,181.36363636363438 L447.0348837209293,182.7272727272707 L447.6744186046502,184.09090909090708 L448.3139534883711,185.4545454545434 L448.953488372092,186.8181818181797 L449.59302325581297,188.18181818181608 L450.2325581395339,189.5454545454524 L450.8720930232548,190.90909090908872 L451.5116279069757,192.2727272727251 L452.1511627906966,193.6363636363614 L452.7906976744175,194.99999999999773 L453.43023255813847,196.36363636363404 L454.0697674418594,197.72727272727042 L454.7093023255803,199.09090909090673 L455.3488372093012,200.45454545454305 L455.9883720930221,201.81818181817943 L456.627906976743,203.18181818181574 L457.267441860464,204.54545454545206 L457.9069767441849,205.90909090908843 L458.54651162790583,207.27272727272475 L459.1860465116267,208.63636363636107 L459.8255813953476,209.99999999999739 L460.4651162790685,211.36363636363376 L461.1046511627895,212.72727272727008 L461.7441860465104,214.0909090909064 L462.38372093023133,215.45454545454277 L463.02325581395223,216.81818181817908 L463.66279069767313,218.1818181818154 L464.30232558139403,219.54545454545178 L464.9418604651149,220.9090909090881 L465.5813953488359,222.2727272727244 L466.22093023255684,223.63636363636078 L466.86046511627774,224.9999999999971 L467.49999999999864,226.36363636363342 L468.13953488371953,227.72727272726974 L468.77906976744043,229.0909090909061 L469.4186046511614,230.45454545454243 L470.0581395348823,231.81818181817874 L470.69767441860324,233.18181818181512 L471.33720930232414,234.54545454545143 L471.97674418604504,235.90909090908775 L472.61627906976594,237.27272727272413 L473.2558139534869,238.63636363636044 L473.8953488372078,239.99999999999676 L474.53488372092875,241.36363636363313 L475.17441860464965,242.72727272726945 L475.81395348837054,244.09090909090577 L476.45348837209144,245.45454545454209 L477.09302325581234,246.81818181817846 L477.7325581395333,248.18181818181478 L478.37209302325425,249.5454545454511 L479.01162790697515,250.90909090908747 L479.65116279069605,252.27272727272378 L480.29069767441695,253.6363636363601 L480.93023255813785,254.99999999999648 L481.5697674418588,256.3636363636328 L482.20930232557976,257.7272727272691 L482.84883720930065,259.0909090909055 L483.48837209302155,260.4545454545418 L484.12790697674245,261.8181818181781 L484.76744186046335,263.1818181818145 L485.4069767441843,264.5454545454508 L486.0465116279052,265.9090909090871 L486.68604651162616,267.27272727272344 L487.32558139534706,268.6363636363598 L487.96511627906796,269.99999999999613 L488.60465116278885,271.36363636363245 L489.2441860465098,272.7272727272688 L489.8837209302307,274.09090909090514 L490.52325581395166,275.45454545454146 L491.16279069767256,276.81818181817783 L491.80232558139346,278.18181818181415 L492.44186046511436,279.54545454545047 L493.08139534883526,280.9090909090868 L493.7209302325562,282.27272727272316 L494.36046511627717,283.6363636363595 L494.99999999999807,284.9999999999958 L495.63953488371897,286.36363636363217 L496.27906976743986,287.7272727272684 L496.91860465116076,289.0909090909048 L497.5581395348817,290.4545454545412 L498.1976744186027,291.81818181817744 L498.8372093023236,293.1818181818138 L499.47674418604447,294.5454545454502 L500.11627906976537,295.90909090908644 L500.75581395348627,297.2727272727228 L501.3953488372072,298.6363636363592 L502.0348837209281,299.99999999999545 L502.6744186046491,301.3636363636318 L503.31395348837,302.7272727272682 L503.9534883720909,304.09090909090446 L504.5930232558118,305.45454545454083 L505.2325581395327,306.8181818181772 L505.8720930232536,308.18181818181347 L506.5116279069746,309.54545454544984 L507.1511627906955,310.9090909090862 L507.7906976744164,312.2727272727225 L508.4302325581373,313.63636363635885 L509.0697674418582,314.9999999999952 L509.70930232557913,316.3636363636315 L510.3488372093001,317.72727272726786 L510.988372093021,319.09090909090423 L511.6279069767419,320.4545454545405 L512.2674418604628,321.81818181817687 L512.9069767441837,323.18181818181324 L513.5465116279047,324.5454545454495 L514.1860465116256,325.9090909090859 L514.8255813953465,327.27272727272225 L515.4651162790674,328.6363636363585 L516.1046511627883,329.9999999999949 L516.7441860465092,331.36363636363126 L517.3837209302301,332.7272727272675 L518.023255813951,334.0909090909039 L518.662790697672,335.45454545454015 L519.3023255813929,336.8181818181765 L519.9418604651138,338.1818181818129 L520.5813953488347,339.54545454544916 L521.2209302325557,340.90909090908553 L521.8604651162766,342.2727272727219 L522.4999999999975,343.63636363635817 L523.1395348837184,344.99999999999454 L523.7790697674393,346.3636363636309 L524.4186046511602,347.7272727272672 L525.0581395348811,349.09090909090355 L525.697674418602,350.4545454545399 L526.337209302323,351.8181818181762 L526.9767441860439,353.18181818181256 L527.6162790697648,354.5454545454488 L528.2558139534857,355.9090909090852 L528.8953488372066,357.27272727272157 L529.5348837209276,358.6363636363578 L530.1744186046485,359.9999999999942 L530.8139534883694,361.3636363636306 " fill="none" stroke="blue" stroke-width="2"></path><path d="M147.09302325581393,88.63636363636363 L147.7325581395349,89.99318181818182 L148.37209302325581,91.33636363636367 L149.01162790697674,92.66590909090905 L149.65116279069767,93.9818181818182 L150.2906976744186,95.28409090909088 L150.93023255813955,96.57272727272726 L151.56976744186045,97.8477272727273 L152.2093023255814,99.10909090909092 L152.8488372093023,100.3568181818182 L153.48837209302326,101.59090909090912 L154.12790697674419,102.81136363636364 L154.7674418604651,104.0181818181818 L155.40697674418607,105.21136363636361 L156.04651162790697,106.39090909090908 L156.68604651162792,107.55681818181819 L157.32558139534882,108.70909090909095 L157.96511627906978,109.8477272727273 L158.6046511627907,110.9727272727273 L159.24418604651163,112.08409090909095 L159.88372093023256,113.18181818181819 L160.52325581395348,114.26590909090908 L161.16279069767444,115.33636363636367 L161.80232558139534,116.3931818181818 L162.4418604651163,117.43636363636364 L163.08139534883722,118.46590909090912 L163.72093023255815,119.4818181818182 L164.36046511627907,120.48409090909092 L165,121.4727272727273 L165.63953488372096,122.44772727272726 L166.27906976744185,123.40909090909093 L166.9186046511628,124.3568181818182 L167.55813953488374,125.29090909090911 L168.19767441860466,126.21136363636367 L168.8372093023256,127.11818181818182 L169.47674418604652,128.01136363636363 L170.11627906976747,128.89090909090913 L170.75581395348837,129.75681818181818 L171.39534883720933,130.60909090909092 L172.03488372093025,131.44772727272732 L172.67441860465118,132.2727272727273 L173.3139534883721,133.08409090909095 L173.95348837209303,133.88181818181818 L174.593023255814,134.6659090909091 L175.2325581395349,135.43636363636364 L175.87209302325584,136.19318181818187 L176.51162790697677,136.93636363636364 L177.1511627906977,137.6659090909091 L177.79069767441862,138.38181818181818 L178.43023255813955,139.08409090909095 L179.0697674418605,139.7727272727273 L179.7093023255814,140.44772727272732 L180.34883720930236,141.10909090909092 L180.9883720930233,141.75681818181818 L181.6279069767442,142.39090909090913 L182.26744186046514,143.01136363636363 L182.90697674418607,143.61818181818182 L183.54651162790702,144.21136363636367 L184.18604651162792,144.7909090909091 L184.82558139534888,145.3568181818182 L185.46511627906978,145.90909090909093 L186.10465116279073,146.44772727272732 L186.74418604651166,146.9727272727273 L187.38372093023258,147.48409090909092 L188.02325581395354,147.9818181818182 L188.66279069767444,148.46590909090912 L189.3023255813954,148.93636363636364 L189.9418604651163,149.39318181818186 L190.58139534883725,149.83636363636367 L191.22093023255817,150.26590909090908 L191.8604651162791,150.6818181818182 L192.50000000000006,151.08409090909095 L193.13953488372096,151.4727272727273 L193.7790697674419,151.8477272727273 L194.4186046511628,152.20909090909095 L195.05813953488376,152.5568181818182 L195.6976744186047,152.89090909090908 L196.33720930232562,153.21136363636367 L196.97674418604655,153.5181818181818 L197.61627906976747,153.81136363636364 L198.25581395348843,154.09090909090912 L198.89534883720933,154.3568181818182 L199.53488372093028,154.60909090909092 L200.1744186046512,154.8477272727273 L200.81395348837214,155.07272727272726 L201.45348837209306,155.28409090909093 L202.093023255814,155.4818181818182 L202.73255813953494,155.6659090909091 L203.37209302325584,155.83636363636367 L204.0116279069768,155.99318181818182 L204.65116279069773,156.13636363636363 L205.29069767441865,156.26590909090908 L205.93023255813958,156.38181818181818 L206.5697674418605,156.48409090909092 L207.20930232558146,156.57272727272726 L207.84883720930236,156.64772727272725 L208.48837209302332,156.70909090909095 L209.12790697674424,156.75681818181818 L209.76744186046517,156.79090909090905 L210.4069767441861,156.81136363636364 L211.04651162790702,156.8181818181818 L211.68604651162798,156.81136363636364 L212.32558139534888,156.79090909090905 L212.96511627906983,156.75681818181818 L213.60465116279076,156.7090909090909 L214.2441860465117,156.64772727272725 L214.8837209302326,156.57272727272726 L215.52325581395354,156.48409090909092 L216.16279069767447,156.38181818181818 L216.8023255813954,156.26590909090908 L217.44186046511635,156.13636363636363 L218.08139534883728,155.99318181818182 L218.7209302325582,155.83636363636361 L219.36046511627913,155.66590909090905 L220.00000000000006,155.48181818181814 L220.63953488372098,155.28409090909088 L221.2790697674419,155.07272727272726 L221.91860465116287,154.84772727272724 L222.5581395348838,154.60909090909087 L223.19767441860472,154.35681818181814 L223.83720930232565,154.09090909090907 L224.47674418604657,153.81136363636358 L225.1162790697675,153.5181818181818 L225.75581395348843,153.21136363636356 L226.39534883720938,152.89090909090908 L227.0348837209303,152.55681818181813 L227.67441860465124,152.20909090909083 L228.31395348837216,151.84772727272724 L228.9534883720931,151.47272727272724 L229.59302325581402,151.08409090909083 L230.23255813953494,150.68181818181813 L230.8720930232559,150.26590909090902 L231.51162790697683,149.83636363636356 L232.15116279069775,149.3931818181818 L232.79069767441868,148.93636363636358 L233.4302325581396,148.465909090909 L234.06976744186053,147.98181818181808 L234.70930232558146,147.4840909090908 L235.34883720930242,146.97272727272718 L235.98837209302332,146.4477272727272 L236.62790697674427,145.90909090909082 L237.2674418604652,145.35681818181808 L237.90697674418612,144.790909090909 L238.54651162790705,144.21136363636356 L239.18604651162798,143.6181818181817 L239.82558139534893,143.0113636363635 L240.46511627906983,142.39090909090902 L241.1046511627908,141.75681818181806 L241.74418604651171,141.1090909090908 L242.38372093023264,140.4477272727272 L243.02325581395357,139.7727272727272 L243.6627906976745,139.08409090909083 L244.30232558139542,138.38181818181806 L244.94186046511635,137.665909090909 L245.5813953488373,136.93636363636352 L246.22093023255823,136.1931818181817 L246.86046511627916,135.43636363636352 L247.50000000000009,134.665909090909 L248.139534883721,133.88181818181806 L248.77906976744194,133.08409090909078 L249.41860465116287,132.27272727272714 L250.05813953488382,131.44772727272715 L250.69767441860475,130.6090909090908 L251.33720930232568,129.75681818181806 L251.9767441860466,128.89090909090896 L252.61627906976753,128.0113636363635 L253.25581395348846,127.11818181818171 L253.89534883720938,126.2113636363635 L254.53488372093034,125.29090909090894 L255.17441860465127,124.35681818181803 L255.8139534883722,123.40909090909076 L256.45348837209315,122.44772727272715 L257.09302325581405,121.47272727272713 L257.732558139535,120.48409090909075 L258.3720930232559,119.48181818181803 L259.01162790697686,118.46590909090895 L259.65116279069775,117.43636363636347 L260.2906976744187,116.39318181818163 L260.93023255813966,115.33636363636344 L261.56976744186056,114.2659090909089 L262.2093023255815,113.18181818181802 L262.8488372093024,112.08409090909072 L263.4883720930234,110.97272727272707 L264.12790697674427,109.84772727272707 L264.7674418604652,108.70909090909072 L265.4069767441861,107.55681818181802 L266.0465116279071,106.39090909090885 L266.68604651162804,105.21136363636344 L267.32558139534893,104.01818181818157 L267.9651162790699,102.81136363636341 L268.6046511627908,101.5909090909089 L269.24418604651174,100.35681818181797 L269.88372093023264,99.1090909090907 L270.5232558139536,97.84772727272707 L271.1627906976745,96.5727272727271 L271.80232558139545,95.28409090909071 L272.4418604651164,93.98181818181797 L273.0813953488373,92.66590909090883 L273.72093023255826,91.33636363636344 L274.36046511627916,89.9931818181816 " fill="none" stroke="blue" stroke-width="2"></path><path d="M-0.6395348837218648,88.63636363636363 L0.3197674418594829,88.63636363636363 L1.2790697674408875,88.63636363636363 L2.2383720930222353,88.63636363636363 L3.19767441860364,88.63636363636363 L4.156976744184988,88.63636363636363 L5.116279069766392,88.63636363636363 L6.07558139534774,88.63636363636363 L7.034883720929088,88.63636363636363 L7.994186046510492,88.63636363636363 L8.95348837209184,88.63636363636363 L9.912790697673245,88.63636363636363 L10.872093023254592,88.63636363636363 L11.831395348835997,88.63636363636363 L12.790697674417345,88.63636363636363 L13.74999999999875,88.63636363636363 L14.709302325580097,88.63636363636363 L15.668604651161502,88.63636363636363 L16.62790697674285,88.63636363636363 L17.587209302324254,88.63636363636363 L18.546511627905602,88.63636363636363 L19.505813953487007,88.63636363636363 L20.46511627906841,88.63636363636363 L21.424418604649816,88.63636363636363 L22.38372093023122,88.63636363636363 L23.343023255812625,88.63636363636363 L24.30232558139403,88.63636363636363 L25.261627906975434,88.63636363636363 L26.22093023255684,88.63636363636363 L27.180232558138243,88.63636363636363 L28.139534883719648,88.63636363636363 L29.098837209301053,88.63636363636363 L30.058139534882457,88.63636363636363 L31.01744186046386,88.63636363636363 L31.976744186045266,88.63636363636363 L32.93604651162667,88.63636363636363 L33.895348837208076,88.63636363636363 L34.85465116278948,88.63636363636363 L35.813953488370885,88.63636363636363 L36.77325581395229,88.63636363636363 L37.732558139533694,88.63636363636363 L38.69186046511507,88.63636363636363 L39.651162790696475,88.63636363636363 L40.61046511627788,88.63636363636363 L41.569767441859284,88.63636363636363 L42.52906976744069,88.63636363636363 L43.48837209302209,88.63636363636363 L44.4476744186035,88.63636363636363 L45.4069767441849,88.63636363636363 L46.36627906976631,88.63636363636363 L47.32558139534771,88.63636363636363 L48.284883720929116,88.63636363636363 L49.24418604651052,88.63636363636363 L50.203488372091925,88.63636363636363 L51.16279069767333,88.63636363636363 L52.122093023254735,88.63636363636363 L53.08139534883614,88.63636363636363 L54.040697674417544,88.63636363636363 L54.99999999999895,88.63636363636363 L55.95930232558035,88.63636363636363 L56.91860465116176,88.63636363636363 L57.87790697674316,88.63636363636363 L58.83720930232457,88.63636363636363 L59.79651162790597,88.63636363636363 L60.75581395348735,88.63636363636363 L61.71511627906875,88.63636363636363 L62.67441860465016,88.63636363636363 L63.63372093023156,88.63636363636363 L64.59302325581297,88.63636363636363 L65.55232558139437,88.63636363636363 L66.51162790697578,88.63636363636363 L67.47093023255718,88.63636363636363 L68.43023255813858,88.63636363636363 L69.38953488371999,88.63636363636363 L70.3488372093014,88.63636363636363 L71.3081395348828,88.63636363636363 L72.2674418604642,88.63636363636363 L73.22674418604561,88.63636363636363 L74.18604651162701,88.63636363636363 L75.14534883720842,88.63636363636363 L76.10465116278982,88.63636363636363 L77.06395348837123,88.63636363636363 L78.02325581395263,88.63636363636363 L78.98255813953404,88.63636363636363 L79.94186046511544,88.63636363636363 L80.90116279069684,88.63636363636363 L81.86046511627822,88.63636363636363 L82.81976744185963,88.63636363636363 L83.77906976744103,88.63636363636363 L84.73837209302243,88.63636363636363 L85.69767441860384,88.63636363636363 L86.65697674418524,88.63636363636363 L87.61627906976665,88.63636363636363 L88.57558139534805,88.63636363636363 L89.53488372092946,88.63636363636363 L90.49418604651086,88.63636363636363 L91.45348837209227,88.63636363636363 L92.41279069767367,88.63636363636363 L93.37209302325508,88.63636363636363 L94.33139534883648,88.63636363636363 L95.29069767441788,88.63636363636363 L96.24999999999929,88.63636363636363 L97.2093023255807,88.63636363636363 L98.1686046511621,88.63636363636363 L99.1279069767435,88.63636363636363 L100.08720930232491,88.63636363636363 L101.04651162790631,88.63636363636363 L102.00581395348772,88.63636363636363 L102.96511627906912,88.63636363636363 L103.9244186046505,88.63636363636363 L104.8837209302319,88.63636363636363 L105.8430232558133,88.63636363636363 L106.80232558139471,88.63636363636363 L107.76162790697612,88.63636363636363 L108.72093023255752,88.63636363636363 L109.68023255813893,88.63636363636363 L110.63953488372033,88.63636363636363 L111.59883720930173,88.63636363636363 L112.55813953488314,88.63636363636363 L113.51744186046454,88.63636363636363 L114.47674418604595,88.63636363636363 L115.43604651162735,88.63636363636363 L116.39534883720876,88.63636363636363 L117.35465116279016,88.63636363636363 L118.31395348837157,88.63636363636363 L119.27325581395297,88.63636363636363 L120.23255813953438,88.63636363636363 L121.19186046511578,88.63636363636363 L122.15116279069719,88.63636363636363 L123.11046511627859,88.63636363636363 L124.06976744186,88.63636363636363 L125.0290697674414,88.63636363636363 L125.98837209302278,88.63636363636363 L126.94767441860418,88.63636363636363 L127.90697674418558,88.63636363636363 L128.866279069767,88.63636363636363 L129.8255813953484,88.63636363636363 L130.7848837209298,88.63636363636363 L131.7441860465112,88.63636363636363 L132.7034883720926,88.63636363636363 L133.662790697674,88.63636363636363 L134.62209302325542,88.63636363636363 L135.58139534883682,88.63636363636363 L136.54069767441823,88.63636363636363 L137.49999999999963,88.63636363636363 L138.45930232558104,88.63636363636363 L139.41860465116244,88.63636363636363 L140.37790697674384,88.63636363636363 L141.33720930232525,88.63636363636363 L142.29651162790665,88.63636363636363 L143.25581395348806,88.63636363636363 L144.21511627906946,88.63636363636363 L145.17441860465087,88.63636363636363 L146.13372093023227,88.63636363636363 L147.09302325581365,88.63636363636363 " fill="none" stroke="blue" stroke-width="2"></path><path d="M408.90697674418607,88.63636363636363 C408.90697674418607,91.95007213534839,406.2206852431708,94.63636363636363,402.90697674418607,94.63636363636363 C399.59326824520133,94.63636363636363,396.90697674418607,91.95007213534839,396.90697674418607,88.63636363636363 C396.90697674418607,85.32265513737886,399.59326824520133,82.63636363636363,402.90697674418607,82.63636363636363 C406.2206852431708,82.63636363636363,408.90697674418607,85.32265513737886,408.90697674418607,88.63636363636363 M402.90697674418607,88.63636363636363 " fill="white" stroke="blue" stroke-width="2"></path><path d="M408.90697674418607,361.3636363636364 C408.90697674418607,364.6773448626211,406.2206852431708,367.3636363636364,402.90697674418607,367.3636363636364 C399.59326824520133,367.3636363636364,396.90697674418607,364.6773448626211,396.90697674418607,361.3636363636364 C396.90697674418607,358.04992786465164,399.59326824520133,355.3636363636364,402.90697674418607,355.3636363636364 C406.2206852431708,355.3636363636364,408.90697674418607,358.04992786465164,408.90697674418607,361.3636363636364 M402.90697674418607,361.3636363636364 " fill="white" stroke="blue" stroke-width="2"></path><path d="M408.90697674418607,293.18181818181824 C408.90697674418607,296.495526680803,406.2206852431708,299.18181818181824,402.90697674418607,299.18181818181824 C399.59326824520133,299.18181818181824,396.90697674418607,296.495526680803,396.90697674418607,293.18181818181824 C396.90697674418607,289.8681096828335,399.59326824520133,287.18181818181824,402.90697674418607,287.18181818181824 C406.2206852431708,287.18181818181824,408.90697674418607,289.8681096828335,408.90697674418607,293.18181818181824 M402.90697674418607,293.18181818181824 " fill="blue" stroke="blue" stroke-width="2"></path><text x="115.11627906976744" y="335.27272727272725" fill="black" font-family="times" font-weight="normal" font-style="italic" font-size="36" text-anchor="middle">y=f(x)</text><asciisvg>initPicture(-4.3,4.3,-3.3,3.3)
fontsize=25
axes(1, 1, "labels", 1)

fontstyle="italic"
fontfamily="times"

fontsize=16
strokewidth = "2"
stroke = "blue"
plot("-2x+2",0,2)
plot("-2x+6",2,4)
plot("1+(x+1)^2",-2,0)
plot("2",-5,-2)

dotradius = "6"
dot([2,2],"open")
dot([2,-2],"open")
dot([2,-1],"closed")

fontsize=36
text([-2.5,-1.5], "y=f(x)")

//stroke = "red"
//plot(["5*t*cos(pi*t)", "5*t*sin(pi*t)"],0,1)

//stroke = "green"

//marker = "arrowdot"
//line([0,1], [pi/2,1])
//dot([pi,0], "open", cpi)

//text([-2.5,-2.5], "ASCIIsvg Examplee")
						</asciisvg></svg> 

