<svg width="550" height="450" id="target"><rect x="0" y="0" width="550" height="450" fill="white"></rect><rect x="0" y="0" width="550" height="450" fill="white"></rect><path d="M-3.321032247382277,181.53927342622592 L3.7477692951990207,176.78817401000833 L11.217964025773142,172.46500617437817 L19.04999611126422,168.6081426630982 L27.20109802461826,165.25181726973665 L35.6256701524008,162.42582097609227 L44.27568554019433,160.15523752533045 L53.10111618324535,158.4602207769036 L62.05037707857642,157.3558158194674 L71.0707840971244,156.85182542960922 L80.1090216117999,156.95272306170875 L89.11161573076743,157.65761314124057 L98.02540893549525,158.960239013957 L106.79803191065295,160.8490384803937 L115.37836837786173,163.3072464227714 L123.71700880740013,166.31304361336748 L131.76668898068758,169.83975038352634 L139.4827095108346,173.8560634342869 L146.82333259756527,178.3263336866804 L153.7501524948873,183.21088270547898 L160.22843640321224,188.46635488779583 L166.2274327601436,194.04610229048563 L171.72064419352174,199.90059868059035 L176.68606271397476,205.97787913368916 L181.10636505939055,212.2240012782463 L184.96906645741743,218.58352409191974 L188.26663144118737,225.00000000000034 L190.99654073465362,231.41647590808088 L193.16131361386297,237.77599872175432 L194.76848554568338,244.02212086631147 L195.83054130246654,250.09940131941022 L196.36480414632462,255.95389770951493 L196.39328206662944,261.5336451122047 L195.9424724355407,266.78911729452153 L195.0431268154549,271.67366631332004 L193.72997800596045,276.1439365657135 L192.04143175304966,280.16024961647395 L190.01922585699847,283.68695638663274 L187.70805970469632,286.6927535772288 L185.15519751472374,289.1509615196064 L182.41004881680232,291.0397609860431 L179.52372988931074,292.3423868587595 L176.54861004757947,293.04727693829125 L173.53784681014028,293.1481745703908 L170.54491406882858,292.64418418053253 L167.62312745073376,291.5397792230963 L164.82517108491902,289.84476247466944 L162.2026299743618,287.5741790239076 L159.80553212381548,284.74818273026324 L157.68190448769775,281.39185733690175 L155.87734667944292,277.53499382562177 L154.43462622610502,273.2118259899916 L153.39329896076003,268.460726573774 L152.7893579221311,263.3238666717359 L152.6549138778288,257.84684141602577 L153.01791030690453,252.0782652705529 L153.90187537155234,246.06934052556426 L155.32571307947552,239.8734028224912 L157.30353549057602,233.54544774302042 L159.84453745731167,227.14164266441753 L162.9529150105348,220.71882821391011 L166.62782811522547,214.33401374725668 L170.8634081267016,208.04387132966872 L175.64880988112472,201.90423271054806 L180.9683079579421,195.9695937569266 L186.8014362598325,190.29263074429264 L193.12316967123527,184.92373279824022 L199.90414618304743,179.9105546370235 L207.11092751189508,175.29759358490355 L214.7062959007041,171.1257946107482 L222.64958446614654,167.4321868975897 L230.897038160776,164.24955516897478 L239.40220214592642,161.6061486894373 L248.11633412814882,159.5254305220265 L256.9888369992585,158.02586926849847 L265.9677079398494,157.12077514069904 L275.0000000000004,156.8181818181818 L284.0322920601514,157.1207751406991 L293.0111630007423,158.02586926849852 L301.883665871852,159.52543052202668 L310.5977978540743,161.60614868943753 L319.10296183922475,164.24955516897506 L327.3504155338542,167.43218689759004 L335.2937040992966,171.12579461074859 L342.88907248810557,175.29759358490395 L350.0958538169532,179.91055463702395 L356.8768303287653,184.92373279824068 L363.198563740168,190.2926307442931 L369.0316920420584,195.9695937569271 L374.3511901188757,201.90423271054857 L379.1365918732988,208.0438713296693 L383.3721718847749,214.33401374725725 L387.0470849894655,220.71882821391074 L390.1554625426886,227.1416426644181 L392.6964645094242,233.545447743021 L394.67428692052465,239.87340282249176 L396.09812462844775,246.06934052556483 L396.98208969309553,252.07826527055346 L397.3450861221712,257.8468414160262 L397.2106420778689,263.32386667173637 L396.60670103923985,268.4607265737745 L395.56537377389486,273.211825989992 L394.12265332055694,277.5349938256221 L392.3180955123021,281.39185733690204 L390.1944678761843,284.7481827302635 L387.797370025638,287.57417902390785 L385.17482891508075,289.84476247466966 L382.37687254926595,291.5397792230965 L379.4550859311712,292.64418418053265 L376.46215318985946,293.1481745703908 L373.45138995242024,293.04727693829125 L370.476270110689,292.34238685875937 L367.5899511831974,291.039760986043 L364.84480248527603,289.1509615196062 L362.29194029530345,286.6927535772286 L359.9807741430013,283.68695638663246 L357.95856824695016,280.1602496164736 L356.27002199403944,276.1439365657131 L354.956873184545,271.6736663133196 L354.05752756445924,266.789117294521 L353.60671793337053,261.53364511220417 L353.6351958536754,255.95389770951442 L354.1694586975335,250.0994013194097 L355.23151445431677,244.0221208663109 L356.8386863861372,237.7759987217537 L359.0034592653466,231.41647590808026 L361.7333685588129,224.99999999999972 L365.03093354258294,218.58352409191917 L368.8936349406098,212.22400127824574 L373.3139372860257,205.9778791336886 L378.27935580647875,199.90059868058978 L383.7725672398569,194.04610229048507 L389.7715635967884,188.46635488779532 L396.24984750511334,183.21088270547853 L403.1766674024354,178.32633368667996 L410.51729048916616,173.8560634342865 L418.2333110193132,169.839750383526 L426.28299119260066,166.3130436133672 L434.62163162213903,163.30724642277113 L443.2019680893479,160.84903848039352 L451.9745910645056,158.96023901395682 L460.8883842692334,157.65761314124052 L469.89097838820095,156.9527230617087 L478.9292159028764,156.85182542960922 L487.9496229214244,157.35581581946752 L496.89888381675553,158.46022077690372 L505.72431445980646,160.15523752533068 L514.3743298475999,162.4258209760925 L522.7989019753825,165.251817269737 L530.9500038887365,168.60814266309853 L538.7820359742276,172.46500617437857 L546.2522307048016,176.78817401000873 L553.3210322473828,181.53927342622637 " fill="none" stroke="blue" stroke-width="2"></path><asciisvg>// Initialize our picture
initPicture(-4.3,4.3,-3.3,3.3)

// Set the fontsize large for the axes
fontsize=25
//axes(1, 1, "labels", 1)

// Set a thick green stroke
strokewidth = "2"
stroke = "blue"
// Plot our parametric function
plot(["sin(t)+t/2","cos(t)"], -3*pi, 3*pi)
						</asciisvg></svg> 

