<svg width="550" height="450" id="target"><rect x="0" y="0" width="550" height="450" fill="white"></rect><rect x="0" y="0" width="550" height="450" fill="white"></rect><path d="M15.56603773584908,0 L15.56603773584908,450 M67.45283018867923,0 L67.45283018867923,450 M119.33962264150944,0 L119.33962264150944,450 M171.22641509433964,0 L171.22641509433964,450 M223.11320754716982,0 L223.11320754716982,450 M275,0 L275,450 M326.8867924528302,0 L326.8867924528302,450 M378.7735849056604,0 L378.7735849056604,450 M430.66037735849056,0 L430.66037735849056,450 M482.54716981132077,0 L482.54716981132077,450 M534.433962264151,0 L534.433962264151,450 M0,440.7534246575342 L550,440.7534246575342 M0,379.1095890410959 L550,379.1095890410959 M0,317.4657534246576 L550,317.4657534246576 M0,255.82191780821918 L550,255.82191780821918 M0,194.17808219178082 L550,194.17808219178082 M0,132.53424657534245 L550,132.53424657534245 M0,70.89041095890414 L550,70.89041095890414 M0,9.246575342465775 L550,9.246575342465775 " fill="none" stroke="#aaaaaa" stroke-width="0.5"></path><path d="M0,255.82191780821918 L550,255.82191780821918 M326.8867924528302,0 L326.8867924528302,450 M15.56603773584908,251.82191780821918 L15.56603773584908,259.82191780821915 M67.45283018867923,251.82191780821918 L67.45283018867923,259.82191780821915 M119.33962264150944,251.82191780821918 L119.33962264150944,259.82191780821915 M171.22641509433964,251.82191780821918 L171.22641509433964,259.82191780821915 M223.11320754716982,251.82191780821918 L223.11320754716982,259.82191780821915 M275,251.82191780821918 L275,259.82191780821915 M378.7735849056604,251.82191780821918 L378.7735849056604,259.82191780821915 M430.66037735849056,251.82191780821918 L430.66037735849056,259.82191780821915 M482.54716981132077,251.82191780821918 L482.54716981132077,259.82191780821915 M534.433962264151,251.82191780821918 L534.433962264151,259.82191780821915 M322.8867924528302,440.7534246575342 L330.8867924528302,440.7534246575342 M322.8867924528302,379.1095890410959 L330.8867924528302,379.1095890410959 M322.8867924528302,317.4657534246576 L330.8867924528302,317.4657534246576 M322.8867924528302,194.17808219178082 L330.8867924528302,194.17808219178082 M322.8867924528302,132.53424657534245 L330.8867924528302,132.53424657534245 M322.8867924528302,70.89041095890414 L330.8867924528302,70.89041095890414 M322.8867924528302,9.246575342465775 L330.8867924528302,9.246575342465775 " fill="none" stroke="black" stroke-width="1"></path><text x="15.56603773584908" y="283.82191780821915" fill="black" font-family="sans" font-weight="normal" font-style="normal" font-size="25" text-anchor="middle">-6</text><text x="67.45283018867923" y="283.82191780821915" fill="black" font-family="sans" font-weight="normal" font-style="normal" font-size="25" text-anchor="middle">-5</text><text x="119.33962264150944" y="283.82191780821915" fill="black" font-family="sans" font-weight="normal" font-style="normal" font-size="25" text-anchor="middle">-4</text><text x="171.22641509433964" y="283.82191780821915" fill="black" font-family="sans" font-weight="normal" font-style="normal" font-size="25" text-anchor="middle">-3</text><text x="223.11320754716982" y="283.82191780821915" fill="black" font-family="sans" font-weight="normal" font-style="normal" font-size="25" text-anchor="middle">-2</text><text x="275" y="283.82191780821915" fill="black" font-family="sans" font-weight="normal" font-style="normal" font-size="25" text-anchor="middle">-1</text><text x="378.7735849056604" y="283.82191780821915" fill="black" font-family="sans" font-weight="normal" font-style="normal" font-size="25" text-anchor="middle">1</text><text x="430.66037735849056" y="283.82191780821915" fill="black" font-family="sans" font-weight="normal" font-style="normal" font-size="25" text-anchor="middle">2</text><text x="482.54716981132077" y="283.82191780821915" fill="black" font-family="sans" font-weight="normal" font-style="normal" font-size="25" text-anchor="middle">3</text><text x="534.433962264151" y="283.82191780821915" fill="black" font-family="sans" font-weight="normal" font-style="normal" font-size="25" text-anchor="middle">4</text><text x="311.8867924528302" y="448.7534246575342" fill="black" font-family="sans" font-weight="normal" font-style="normal" font-size="25" text-anchor="end">-6</text><text x="311.8867924528302" y="387.1095890410959" fill="black" font-family="sans" font-weight="normal" font-style="normal" font-size="25" text-anchor="end">-4</text><text x="311.8867924528302" y="325.4657534246576" fill="black" font-family="sans" font-weight="normal" font-style="normal" font-size="25" text-anchor="end">-2</text><text x="311.8867924528302" y="202.17808219178082" fill="black" font-family="sans" font-weight="normal" font-style="normal" font-size="25" text-anchor="end">2</text><text x="311.8867924528302" y="140.53424657534245" fill="black" font-family="sans" font-weight="normal" font-style="normal" font-size="25" text-anchor="end">4</text><text x="311.8867924528302" y="78.89041095890414" fill="black" font-family="sans" font-weight="normal" font-style="normal" font-size="25" text-anchor="end">6</text><text x="311.8867924528302" y="17.246575342465775" fill="black" font-family="sans" font-weight="normal" font-style="normal" font-size="25" text-anchor="end">8</text><path d="M0,187.8299686978634 L2.75,187.69792993716888 L5.5,187.56161605601463 L8.25,187.42083588213004 L11,187.27538719978511 L13.75,187.12505596057295 L16.5,186.9696154265175 L19.25,186.80882523869897 L22,186.64243040380197 L24.75,186.47016019009877 L27.499999999999943,186.29172692336695 L30.249999999999943,186.10682467209236 L32.99999999999994,185.91512781000083 L35.74999999999994,185.71628944247206 L38.49999999999994,185.50993968168765 L41.24999999999994,185.29568375342055 L43.99999999999994,185.0730999161407 L46.74999999999994,184.8417371705518 L49.49999999999994,184.60111273472373 L52.24999999999994,184.35070925658536 L54.99999999999994,184.0899717316088 L57.74999999999994,183.81830408896215 L60.49999999999994,183.53506540411374 L63.24999999999994,183.23956568971144 L65.99999999999994,182.93106120936753 L68.74999999999994,182.6087492505625 L71.49999999999991,182.2717622830036 L74.24999999999991,181.9191614171498 L76.99999999999991,181.54992906389455 L79.74999999999991,181.16296068015689 L82.49999999999991,180.75705546584467 L85.24999999999991,180.33090585467656 L87.99999999999991,179.88308561388286 L90.74999999999989,179.41203633485898 L93.49999999999989,178.91605205717886 L96.24999999999989,178.39326172044358 L98.99999999999989,177.8416090802838 L101.74999999999989,177.2588296539914 L104.49999999999989,176.64242417458266 L107.24999999999989,175.98962792558368 L109.99999999999989,175.2973751973249 L112.74999999999989,174.56225794238216 L115.49999999999986,173.78047750434794 L118.24999999999986,172.9477880390469 L120.99999999999986,172.05942992573452 L123.74999999999986,171.11005105798236 L126.49999999999986,170.09361338352866 L129.24999999999986,169.00328139390254 L131.99999999999986,167.8312884000883 L134.74999999999986,166.5687753042014 L137.49999999999986,165.20559509853697 L140.24999999999986,163.7300743663383 L142.99999999999983,162.12872044594988 L145.74999999999983,160.38585939980922 L148.49999999999983,158.48318514011365 L151.24999999999983,156.3991934778077 L153.99999999999983,154.10846570591977 L156.74999999999983,151.580753445505 L159.49999999999983,148.77979812032564 L162.24999999999983,145.66179188861312 L164.99999999999983,142.17334792674907 L167.7499999999998,138.24878990318243 L170.4999999999998,133.80648236129807 L173.2499999999998,128.74378736553277 L175.9999999999998,122.93001721167721 L178.7499999999998,116.19640420029933 L181.4999999999998,108.32152921105322 L184.2499999999998,99.0096605900317 L186.9999999999998,87.85770625597743 L189.7499999999998,74.30327870095559 L192.49999999999977,57.5402538714423 L195.24999999999977,36.375940099298106 L197.99999999999977,8.97796810620369 L200.74999999999977,-27.599911338409612 " fill="none" stroke="blue" stroke-width="3"></path><path d="M233.74999999999974,-7.872845517199863 L236.49999999999972,117.84879083080594 L239.24999999999972,178.2979952402977 L241.99999999999972,210.41596145112285 L244.74999999999972,228.62630797816766 L247.49999999999972,239.4008639536698 L250.24999999999972,245.94741116206635 L252.99999999999972,249.97927090083405 L255.74999999999972,252.4662532761353 L258.4999999999997,253.983311132404 L261.2499999999997,254.8843894977634 L263.9999999999997,255.3942961642273 L266.7499999999997,255.65964849701479 L269.4999999999997,255.778298995011 L272.2499999999997,255.8169332306928 L274.9999999999997,255.82191780821918 L277.7499999999997,255.82616884212203 L280.4999999999997,255.85360742744442 L283.2499999999997,255.92211611121522 L285.9999999999997,256.0455449341846 L288.7499999999997,256.23510489988803 L291.4999999999997,256.5003621137971 L294.2499999999997,256.8499705332987 L296.9999999999997,257.2922349878087 L299.7499999999997,257.83556739267885 L302.4999999999997,258.4888812719106 L305.2499999999997,259.261958960578 L307.9999999999997,260.1658199358303 L310.7499999999997,261.21311638290365 L313.4999999999997,262.4185827668804 L316.2499999999997,263.799569794071 L318.9999999999997,265.3767001347501 L321.7499999999997,267.1746946316872 L324.4999999999997,269.2234352051735 L327.2499999999997,271.5593572466174 L329.9999999999997,274.2273048743359 L332.7499999999997,277.283045210871 L335.4999999999997,280.7967368231938 L338.2499999999997,284.85780712105964 L340.9999999999997,289.5819579388792 L343.7499999999997,295.1214699511273 L346.4999999999997,301.6807742878033 L349.2499999999997,309.5407262509018 L351.9999999999997,319.0978383252192 L354.7499999999997,330.9304596550903 L357.4999999999997,345.9162855226947 L360.2499999999997,365.454539975085 L362.9999999999997,391.9205743088045 L365.7499999999997,429.6964125212337 L368.4999999999997,487.8564171397994 " fill="none" stroke="blue" stroke-width="3"></path><path d="M390.4999999999997,-33.264686895084964 L393.2499999999997,12.581582967570455 L395.9999999999997,43.72848433092747 L398.7499999999997,66.24881070328186 L401.4999999999997,83.27591524025163 L404.2499999999997,96.59017573911004 L406.9999999999997,107.27807719106139 L409.7499999999997,116.04022495517532 L412.4999999999997,123.34866817170857 L415.2499999999997,129.5330581836606 L417.99999999999966,134.8305655412336 L420.74999999999966,139.4161755836154 L423.49999999999966,143.42180755961246 L426.24999999999966,146.94878895427533 L428.99999999999966,150.07623174290032 L431.74999999999966,152.866799692954 L434.49999999999966,155.37076795024782 L437.24999999999966,157.62893708206272 L439.99999999999966,159.67476174849267 L442.74999999999966,161.53593031841174 L445.49999999999966,163.23555383157523 L448.24999999999966,164.79307254958772 L450.99999999999966,166.2249553677381 L453.74999999999966,167.5452452727583 L456.49999999999966,168.7659889776534 L459.24999999999966,169.89757844059497 L461.99999999999966,170.94902465067403 L464.74999999999966,171.9281788475421 L467.49999999999966,172.8419125811337 L470.24999999999966,173.69626527437927 L472.99999999999966,174.49656592909915 L475.74999999999966,175.24753410880098 L478.49999999999966,175.953364199501 L481.24999999999966,176.61779609065306 L483.99999999999966,177.24417476127596 L486.7499999999996,177.8355007499869 L489.4999999999996,178.39447309444822 L492.2499999999996,178.92352601830643 L494.9999999999996,179.42486040173688 L497.7499999999996,179.90047088008433 L500.4999999999996,180.3521692624278 L503.2499999999996,180.7816048395936 L505.9999999999996,181.19028205263353 L508.7499999999996,181.57957591303207 L511.49999999999955,181.95074550103297 L514.2499999999995,182.30494581545182 L516.9999999999995,182.64323820481414 L519.7499999999995,182.96659957377344 L522.4999999999995,183.2759305290618 L525.2499999999995,183.57206260453998 L527.9999999999995,183.8557646843265 L530.7499999999995,184.12774872574957 L533.4999999999995,184.38867486938992 L536.2499999999995,184.63915601127817 L538.9999999999995,184.87976190199973 L541.7499999999995,185.11102282870584 L544.4999999999995,185.33343292859237 L547.2499999999995,185.54745317605816 L549.9999999999995,185.7535140803242 " fill="none" stroke="blue" stroke-width="3"></path><path d="M0,194.17808219178082 L2.75,194.17808219178082 L5.5,194.17808219178082 L8.25,194.17808219178082 L11,194.17808219178082 L13.75,194.17808219178082 L16.5,194.17808219178082 L19.25,194.17808219178082 L22,194.17808219178082 L24.75,194.17808219178082 L27.499999999999943,194.17808219178082 L30.249999999999943,194.17808219178082 L32.99999999999994,194.17808219178082 L35.74999999999994,194.17808219178082 L38.49999999999994,194.17808219178082 L41.24999999999994,194.17808219178082 L43.99999999999994,194.17808219178082 L46.74999999999994,194.17808219178082 L49.49999999999994,194.17808219178082 L52.24999999999994,194.17808219178082 L54.99999999999994,194.17808219178082 L57.74999999999994,194.17808219178082 L60.49999999999994,194.17808219178082 L63.24999999999994,194.17808219178082 L65.99999999999994,194.17808219178082 L68.74999999999994,194.17808219178082 L71.49999999999991,194.17808219178082 L74.24999999999991,194.17808219178082 L76.99999999999991,194.17808219178082 L79.74999999999991,194.17808219178082 L82.49999999999991,194.17808219178082 L85.24999999999991,194.17808219178082 L87.99999999999991,194.17808219178082 L90.74999999999989,194.17808219178082 L93.49999999999989,194.17808219178082 L96.24999999999989,194.17808219178082 L98.99999999999989,194.17808219178082 L101.74999999999989,194.17808219178082 L104.49999999999989,194.17808219178082 L107.24999999999989,194.17808219178082 L109.99999999999989,194.17808219178082 L112.74999999999989,194.17808219178082 L115.49999999999986,194.17808219178082 L118.24999999999986,194.17808219178082 L120.99999999999986,194.17808219178082 L123.74999999999986,194.17808219178082 L126.49999999999986,194.17808219178082 L129.24999999999986,194.17808219178082 L131.99999999999986,194.17808219178082 L134.74999999999986,194.17808219178082 L137.49999999999986,194.17808219178082 L140.24999999999986,194.17808219178082 L142.99999999999983,194.17808219178082 L145.74999999999983,194.17808219178082 L148.49999999999983,194.17808219178082 L151.24999999999983,194.17808219178082 L153.99999999999983,194.17808219178082 L156.74999999999983,194.17808219178082 L159.49999999999983,194.17808219178082 L162.24999999999983,194.17808219178082 L164.99999999999983,194.17808219178082 L167.7499999999998,194.17808219178082 L170.4999999999998,194.17808219178082 L173.2499999999998,194.17808219178082 L175.9999999999998,194.17808219178082 L178.7499999999998,194.17808219178082 L181.4999999999998,194.17808219178082 L184.2499999999998,194.17808219178082 L186.9999999999998,194.17808219178082 L189.7499999999998,194.17808219178082 L192.49999999999977,194.17808219178082 L195.24999999999977,194.17808219178082 L197.99999999999977,194.17808219178082 L200.74999999999977,194.17808219178082 L203.49999999999977,194.17808219178082 L206.24999999999977,194.17808219178082 L208.99999999999977,194.17808219178082 L211.74999999999977,194.17808219178082 L214.49999999999977,194.17808219178082 L217.24999999999977,194.17808219178082 L219.99999999999977,194.17808219178082 L222.74999999999974,194.17808219178082 L225.49999999999974,194.17808219178082 L228.24999999999974,194.17808219178082 L230.99999999999974,194.17808219178082 L233.74999999999974,194.17808219178082 L236.49999999999972,194.17808219178082 L239.24999999999972,194.17808219178082 L241.99999999999972,194.17808219178082 L244.74999999999972,194.17808219178082 L247.49999999999972,194.17808219178082 L250.24999999999972,194.17808219178082 L252.99999999999972,194.17808219178082 L255.74999999999972,194.17808219178082 L258.4999999999997,194.17808219178082 L261.2499999999997,194.17808219178082 L263.9999999999997,194.17808219178082 L266.7499999999997,194.17808219178082 L269.4999999999997,194.17808219178082 L272.2499999999997,194.17808219178082 L274.9999999999997,194.17808219178082 L277.7499999999997,194.17808219178082 L280.4999999999997,194.17808219178082 L283.2499999999997,194.17808219178082 L285.9999999999997,194.17808219178082 L288.7499999999997,194.17808219178082 L291.4999999999997,194.17808219178082 L294.2499999999997,194.17808219178082 L296.9999999999997,194.17808219178082 L299.7499999999997,194.17808219178082 L302.4999999999997,194.17808219178082 L305.2499999999997,194.17808219178082 L307.9999999999997,194.17808219178082 L310.7499999999997,194.17808219178082 L313.4999999999997,194.17808219178082 L316.2499999999997,194.17808219178082 L318.9999999999997,194.17808219178082 L321.7499999999997,194.17808219178082 L324.4999999999997,194.17808219178082 L327.2499999999997,194.17808219178082 L329.9999999999997,194.17808219178082 L332.7499999999997,194.17808219178082 L335.4999999999997,194.17808219178082 L338.2499999999997,194.17808219178082 L340.9999999999997,194.17808219178082 L343.7499999999997,194.17808219178082 L346.4999999999997,194.17808219178082 L349.2499999999997,194.17808219178082 L351.9999999999997,194.17808219178082 L354.7499999999997,194.17808219178082 L357.4999999999997,194.17808219178082 L360.2499999999997,194.17808219178082 L362.9999999999997,194.17808219178082 L365.7499999999997,194.17808219178082 L368.4999999999997,194.17808219178082 L371.2499999999997,194.17808219178082 L373.9999999999997,194.17808219178082 L376.7499999999997,194.17808219178082 L379.4999999999997,194.17808219178082 L382.2499999999997,194.17808219178082 L384.9999999999997,194.17808219178082 L387.7499999999997,194.17808219178082 L390.4999999999997,194.17808219178082 L393.2499999999997,194.17808219178082 L395.9999999999997,194.17808219178082 L398.7499999999997,194.17808219178082 L401.4999999999997,194.17808219178082 L404.2499999999997,194.17808219178082 L406.9999999999997,194.17808219178082 L409.7499999999997,194.17808219178082 L412.4999999999997,194.17808219178082 L415.2499999999997,194.17808219178082 L417.99999999999966,194.17808219178082 L420.74999999999966,194.17808219178082 L423.49999999999966,194.17808219178082 L426.24999999999966,194.17808219178082 L428.99999999999966,194.17808219178082 L431.74999999999966,194.17808219178082 L434.49999999999966,194.17808219178082 L437.24999999999966,194.17808219178082 L439.99999999999966,194.17808219178082 L442.74999999999966,194.17808219178082 L445.49999999999966,194.17808219178082 L448.24999999999966,194.17808219178082 L450.99999999999966,194.17808219178082 L453.74999999999966,194.17808219178082 L456.49999999999966,194.17808219178082 L459.24999999999966,194.17808219178082 L461.99999999999966,194.17808219178082 L464.74999999999966,194.17808219178082 L467.49999999999966,194.17808219178082 L470.24999999999966,194.17808219178082 L472.99999999999966,194.17808219178082 L475.74999999999966,194.17808219178082 L478.49999999999966,194.17808219178082 L481.24999999999966,194.17808219178082 L483.99999999999966,194.17808219178082 L486.7499999999996,194.17808219178082 L489.4999999999996,194.17808219178082 L492.2499999999996,194.17808219178082 L494.9999999999996,194.17808219178082 L497.7499999999996,194.17808219178082 L500.4999999999996,194.17808219178082 L503.2499999999996,194.17808219178082 L505.9999999999996,194.17808219178082 L508.7499999999996,194.17808219178082 L511.49999999999955,194.17808219178082 L514.2499999999995,194.17808219178082 L516.9999999999995,194.17808219178082 L519.7499999999995,194.17808219178082 L522.4999999999995,194.17808219178082 L525.2499999999995,194.17808219178082 L527.9999999999995,194.17808219178082 L530.7499999999995,194.17808219178082 L533.4999999999995,194.17808219178082 L536.2499999999995,194.17808219178082 L538.9999999999995,194.17808219178082 L541.7499999999995,194.17808219178082 L544.4999999999995,194.17808219178082 L547.2499999999995,194.17808219178082 L549.9999999999995,194.17808219178082 " fill="none" stroke="red" stroke-width="2" stroke-dasharray="10,5"></path><path d="M378.7735849056604,450.00000000000034 L378.7735849056604,446.9178082191785 L378.7735849056604,443.8356164383566 L378.7735849056604,440.75342465753465 L378.7735849056604,437.6712328767127 L378.7735849056604,434.5890410958908 L378.7735849056604,431.50684931506896 L378.7735849056604,428.424657534247 L378.7735849056604,425.34246575342513 L378.7735849056604,422.26027397260316 L378.7735849056604,419.1780821917813 L378.7735849056604,416.09589041095944 L378.7735849056604,413.01369863013747 L378.7735849056604,409.9315068493156 L378.7735849056604,406.84931506849364 L378.7735849056604,403.7671232876718 L378.7735849056604,400.6849315068499 L378.7735849056604,397.60273972602795 L378.7735849056604,394.5205479452061 L378.7735849056604,391.4383561643841 L378.7735849056604,388.35616438356226 L378.7735849056604,385.2739726027403 L378.7735849056604,382.1917808219184 L378.7735849056604,379.10958904109646 L378.7735849056604,376.0273972602746 L378.7735849056604,372.94520547945274 L378.7735849056604,369.86301369863077 L378.7735849056604,366.7808219178088 L378.7735849056604,363.69863013698694 L378.7735849056604,360.61643835616496 L378.7735849056604,357.5342465753431 L378.7735849056604,354.45205479452113 L378.7735849056604,351.3698630136993 L378.7735849056604,348.2876712328773 L378.7735849056604,345.20547945205533 L378.7735849056604,342.12328767123347 L378.7735849056604,339.0410958904116 L378.7735849056604,335.95890410958964 L378.7735849056604,332.87671232876767 L378.7735849056604,329.7945205479458 L378.7735849056604,326.71232876712384 L378.7735849056604,323.630136986302 L378.7735849056604,320.54794520548 L378.7735849056604,317.46575342465815 L378.7735849056604,314.3835616438362 L378.7735849056604,311.3013698630143 L378.7735849056604,308.21917808219234 L378.7735849056604,305.1369863013705 L378.7735849056604,302.0547945205485 L378.7735849056604,298.97260273972665 L378.7735849056604,295.8904109589047 L378.7735849056604,292.8082191780828 L378.7735849056604,289.72602739726085 L378.7735849056604,286.6438356164389 L378.7735849056604,283.561643835617 L378.7735849056604,280.47945205479505 L378.7735849056604,277.3972602739732 L378.7735849056604,274.3150684931512 L378.7735849056604,271.23287671232936 L378.7735849056604,268.1506849315074 L378.7735849056604,265.0684931506855 L378.7735849056604,261.98630136986355 L378.7735849056604,258.9041095890417 L378.7735849056604,255.82191780821975 L378.7735849056604,252.73972602739784 L378.7735849056604,249.65753424657592 L378.7735849056604,246.575342465754 L378.7735849056604,243.4931506849321 L378.7735849056604,240.41095890411017 L378.7735849056604,237.32876712328826 L378.7735849056604,234.24657534246634 L378.7735849056604,231.16438356164443 L378.7735849056604,228.0821917808225 L378.7735849056604,225.0000000000006 L378.7735849056604,221.91780821917868 L378.7735849056604,218.83561643835677 L378.7735849056604,215.75342465753485 L378.7735849056604,212.67123287671293 L378.7735849056604,209.58904109589096 L378.7735849056604,206.50684931506905 L378.7735849056604,203.42465753424713 L378.7735849056604,200.34246575342522 L378.7735849056604,197.2602739726033 L378.7735849056604,194.17808219178139 L378.7735849056604,191.09589041095947 L378.7735849056604,188.01369863013755 L378.7735849056604,184.93150684931564 L378.7735849056604,181.84931506849372 L378.7735849056604,178.7671232876718 L378.7735849056604,175.68493150684984 L378.7735849056604,172.60273972602798 L378.7735849056604,169.520547945206 L378.7735849056604,166.4383561643841 L378.7735849056604,163.35616438356217 L378.7735849056604,160.27397260274026 L378.7735849056604,157.19178082191834 L378.7735849056604,154.10958904109643 L378.7735849056604,151.0273972602745 L378.7735849056604,147.9452054794526 L378.7735849056604,144.86301369863068 L378.7735849056604,141.78082191780877 L378.7735849056604,138.69863013698685 L378.7735849056604,135.61643835616488 L378.7735849056604,132.53424657534302 L378.7735849056604,129.45205479452105 L378.7735849056604,126.36986301369919 L378.7735849056604,123.28767123287722 L378.7735849056604,120.20547945205536 L378.7735849056604,117.12328767123344 L378.7735849056604,114.04109589041153 L378.7735849056604,110.95890410958967 L378.7735849056604,107.8767123287677 L378.7735849056604,104.79452054794584 L378.7735849056604,101.71232876712386 L378.7735849056604,98.630136986302 L378.7735849056604,95.54794520548009 L378.7735849056604,92.46575342465817 L378.7735849056604,89.38356164383632 L378.7735849056604,86.30136986301434 L378.7735849056604,83.21917808219249 L378.7735849056604,80.13698630137057 L378.7735849056604,77.05479452054865 L378.7735849056604,73.97260273972674 L378.7735849056604,70.89041095890482 L378.7735849056604,67.80821917808296 L378.7735849056604,64.72602739726099 L378.7735849056604,61.643835616439105 L378.7735849056604,58.56164383561722 L378.7735849056604,55.4794520547953 L378.7735849056604,52.39726027397339 L378.7735849056604,49.3150684931515 L378.7735849056604,46.232876712329585 L378.7735849056604,43.15068493150767 L378.7735849056604,40.06849315068578 L378.7735849056604,36.98630136986387 L378.7735849056604,33.90410958904195 L378.7735849056604,30.821917808220064 L378.7735849056604,27.73972602739815 L378.7735849056604,24.657534246576233 L378.7735849056604,21.575342465754346 L378.7735849056604,18.49315068493243 L378.7735849056604,15.410958904110515 L378.7735849056604,12.3287671232886 L378.7735849056604,9.246575342466713 L378.7735849056604,6.164383561644797 L378.7735849056604,3.082191780822882 L378.7735849056604,9.947598300641403e-13 L378.7735849056604,-3.0821917808209207 " fill="none" stroke="red" stroke-width="2" stroke-dasharray="10,5"></path><path d="M223.11320754716982,450.00000000000034 L223.11320754716982,446.9178082191785 L223.11320754716982,443.8356164383566 L223.11320754716982,440.75342465753465 L223.11320754716982,437.6712328767127 L223.11320754716982,434.5890410958908 L223.11320754716982,431.50684931506896 L223.11320754716982,428.424657534247 L223.11320754716982,425.34246575342513 L223.11320754716982,422.26027397260316 L223.11320754716982,419.1780821917813 L223.11320754716982,416.09589041095944 L223.11320754716982,413.01369863013747 L223.11320754716982,409.9315068493156 L223.11320754716982,406.84931506849364 L223.11320754716982,403.7671232876718 L223.11320754716982,400.6849315068499 L223.11320754716982,397.60273972602795 L223.11320754716982,394.5205479452061 L223.11320754716982,391.4383561643841 L223.11320754716982,388.35616438356226 L223.11320754716982,385.2739726027403 L223.11320754716982,382.1917808219184 L223.11320754716982,379.10958904109646 L223.11320754716982,376.0273972602746 L223.11320754716982,372.94520547945274 L223.11320754716982,369.86301369863077 L223.11320754716982,366.7808219178088 L223.11320754716982,363.69863013698694 L223.11320754716982,360.61643835616496 L223.11320754716982,357.5342465753431 L223.11320754716982,354.45205479452113 L223.11320754716982,351.3698630136993 L223.11320754716982,348.2876712328773 L223.11320754716982,345.20547945205533 L223.11320754716982,342.12328767123347 L223.11320754716982,339.0410958904116 L223.11320754716982,335.95890410958964 L223.11320754716982,332.87671232876767 L223.11320754716982,329.7945205479458 L223.11320754716982,326.71232876712384 L223.11320754716982,323.630136986302 L223.11320754716982,320.54794520548 L223.11320754716982,317.46575342465815 L223.11320754716982,314.3835616438362 L223.11320754716982,311.3013698630143 L223.11320754716982,308.21917808219234 L223.11320754716982,305.1369863013705 L223.11320754716982,302.0547945205485 L223.11320754716982,298.97260273972665 L223.11320754716982,295.8904109589047 L223.11320754716982,292.8082191780828 L223.11320754716982,289.72602739726085 L223.11320754716982,286.6438356164389 L223.11320754716982,283.561643835617 L223.11320754716982,280.47945205479505 L223.11320754716982,277.3972602739732 L223.11320754716982,274.3150684931512 L223.11320754716982,271.23287671232936 L223.11320754716982,268.1506849315074 L223.11320754716982,265.0684931506855 L223.11320754716982,261.98630136986355 L223.11320754716982,258.9041095890417 L223.11320754716982,255.82191780821975 L223.11320754716982,252.73972602739784 L223.11320754716982,249.65753424657592 L223.11320754716982,246.575342465754 L223.11320754716982,243.4931506849321 L223.11320754716982,240.41095890411017 L223.11320754716982,237.32876712328826 L223.11320754716982,234.24657534246634 L223.11320754716982,231.16438356164443 L223.11320754716982,228.0821917808225 L223.11320754716982,225.0000000000006 L223.11320754716982,221.91780821917868 L223.11320754716982,218.83561643835677 L223.11320754716982,215.75342465753485 L223.11320754716982,212.67123287671293 L223.11320754716982,209.58904109589096 L223.11320754716982,206.50684931506905 L223.11320754716982,203.42465753424713 L223.11320754716982,200.34246575342522 L223.11320754716982,197.2602739726033 L223.11320754716982,194.17808219178139 L223.11320754716982,191.09589041095947 L223.11320754716982,188.01369863013755 L223.11320754716982,184.93150684931564 L223.11320754716982,181.84931506849372 L223.11320754716982,178.7671232876718 L223.11320754716982,175.68493150684984 L223.11320754716982,172.60273972602798 L223.11320754716982,169.520547945206 L223.11320754716982,166.4383561643841 L223.11320754716982,163.35616438356217 L223.11320754716982,160.27397260274026 L223.11320754716982,157.19178082191834 L223.11320754716982,154.10958904109643 L223.11320754716982,151.0273972602745 L223.11320754716982,147.9452054794526 L223.11320754716982,144.86301369863068 L223.11320754716982,141.78082191780877 L223.11320754716982,138.69863013698685 L223.11320754716982,135.61643835616488 L223.11320754716982,132.53424657534302 L223.11320754716982,129.45205479452105 L223.11320754716982,126.36986301369919 L223.11320754716982,123.28767123287722 L223.11320754716982,120.20547945205536 L223.11320754716982,117.12328767123344 L223.11320754716982,114.04109589041153 L223.11320754716982,110.95890410958967 L223.11320754716982,107.8767123287677 L223.11320754716982,104.79452054794584 L223.11320754716982,101.71232876712386 L223.11320754716982,98.630136986302 L223.11320754716982,95.54794520548009 L223.11320754716982,92.46575342465817 L223.11320754716982,89.38356164383632 L223.11320754716982,86.30136986301434 L223.11320754716982,83.21917808219249 L223.11320754716982,80.13698630137057 L223.11320754716982,77.05479452054865 L223.11320754716982,73.97260273972674 L223.11320754716982,70.89041095890482 L223.11320754716982,67.80821917808296 L223.11320754716982,64.72602739726099 L223.11320754716982,61.643835616439105 L223.11320754716982,58.56164383561722 L223.11320754716982,55.4794520547953 L223.11320754716982,52.39726027397339 L223.11320754716982,49.3150684931515 L223.11320754716982,46.232876712329585 L223.11320754716982,43.15068493150767 L223.11320754716982,40.06849315068578 L223.11320754716982,36.98630136986387 L223.11320754716982,33.90410958904195 L223.11320754716982,30.821917808220064 L223.11320754716982,27.73972602739815 L223.11320754716982,24.657534246576233 L223.11320754716982,21.575342465754346 L223.11320754716982,18.49315068493243 L223.11320754716982,15.410958904110515 L223.11320754716982,12.3287671232886 L223.11320754716982,9.246575342466713 L223.11320754716982,6.164383561644797 L223.11320754716982,3.082191780822882 L223.11320754716982,9.947598300641403e-13 L223.11320754716982,-3.0821917808209207 " fill="none" stroke="red" stroke-width="2" stroke-dasharray="10,5"></path><text x="93.39622641509433" y="78.89041095890414" fill="blue" font-family="times" font-weight="normal" font-style="italic" font-size="36" text-anchor="middle">y=R(x)</text><asciisvg>initPicture(-6.3,4.3,-6.3,8.3)
fontsize=25
axes(1, 2, "labels", 1,2)

fontstyle="italic"
fontfamily="times"

fontsize=16
strokewidth = "3"
stroke = "blue"
plot("2(x+1)^3/((x-1)(x+2)^2)")

strokewidth = "2"
stroke = "red"
strokestyle = "dashed"
plot("2")
plot(["1","t"],-10,10)
plot(["-2","t"],-10,10)


//stroke = "red"
//plot(["5*t*cos(pi*t)", "5*t*sin(pi*t)"],0,1)

//stroke = "green"

//marker = "arrowdot"
//line([0,1], [pi/2,1])
//dot([pi,0], "open", cpi)

fontsize = 36
fontfill = "blue"
text([-4.5,6], "y=R(x)")
						</asciisvg></svg> 

