<svg width="550" height="450" id="target"><rect x="0" y="0" width="550" height="450" fill="white"></rect><rect x="0" y="0" width="550" height="450" fill="white"></rect><path d="M35.86956521739128,0 L35.86956521739128,450 M155.43478260869563,0 L155.43478260869563,450 M275,0 L275,450 M394.5652173913044,0 L394.5652173913044,450 M514.1304347826087,0 L514.1304347826087,450 M0,412.5 L550,412.5 M0,287.5 L550,287.5 M0,162.49999999999997 L550,162.49999999999997 M0,37.49999999999994 L550,37.49999999999994 " fill="none" stroke="#aaaaaa" stroke-width="0.5"></path><path d="M0,287.5 L550,287.5 M275,0 L275,450 M35.86956521739128,283.5 L35.86956521739128,291.5 M155.43478260869563,283.5 L155.43478260869563,291.5 M394.5652173913044,283.5 L394.5652173913044,291.5 M514.1304347826087,283.5 L514.1304347826087,291.5 M271,412.5 L279,412.5 M271,162.49999999999997 L279,162.49999999999997 M271,37.49999999999994 L279,37.49999999999994 " fill="none" stroke="black" stroke-width="1"></path><text x="35.86956521739128" y="315.5" fill="black" font-family="sans" font-weight="normal" font-style="normal" font-size="25" text-anchor="middle">-2</text><text x="155.43478260869563" y="315.5" fill="black" font-family="sans" font-weight="normal" font-style="normal" font-size="25" text-anchor="middle">-1</text><text x="394.5652173913044" y="315.5" fill="black" font-family="sans" font-weight="normal" font-style="normal" font-size="25" text-anchor="middle">1</text><text x="514.1304347826087" y="315.5" fill="black" font-family="sans" font-weight="normal" font-style="normal" font-size="25" text-anchor="middle">2</text><text x="260" y="420.5" fill="black" font-family="sans" font-weight="normal" font-style="normal" font-size="25" text-anchor="end">-1</text><text x="260" y="170.49999999999997" fill="black" font-family="sans" font-weight="normal" font-style="normal" font-size="25" text-anchor="end">1</text><text x="260" y="45.49999999999994" fill="black" font-family="sans" font-weight="normal" font-style="normal" font-size="25" text-anchor="end">2</text><path d="M-5.115907697472721e-13,284.76482543372117 L1.1956521739124923,284.7170956732401 L2.3913043478254963,284.6683251247016 L3.5869565217385,284.6184866113698 L4.782608695651561,284.56755213223494 L5.978260869564565,284.5154928336509 L7.173913043477569,284.46227897988695 L8.369565217390573,284.4078799225482 L9.565217391303634,284.3522640688186 L10.760869565216638,284.2953988484753 L11.956521739129641,284.23725067962334 L13.152173913042645,284.17778493309686 L14.347826086955706,284.1169658954692 L15.54347826086871,284.0547567306147 L16.739130434781714,283.99111943975754 L17.934782608694718,283.9260148199461 L19.13043478260775,283.8594024208826 L20.326086956520783,283.7912405000393 L21.521739130433787,283.72148597598664 L22.71739130434682,283.65009437985555 L23.913043478259823,283.5770198048542 L25.108695652172855,283.50221485375425 L26.30434782608586,283.42563058425765 L27.49999999999889,283.347216452153 L28.695652173911895,283.2669202521636 L29.891304347824928,283.184688056386 L31.086956521737932,283.1004641502152 L32.282608695650964,283.01419096564314 L33.47826086956397,282.9258090118168 L34.673913043477,282.835256802735 L35.869565217390004,282.7424707819555 L37.065217391303065,282.6473852441826 L38.2608695652161,282.54993225359465 L39.45652173912913,282.4500415587677 L40.65217391304219,282.3476405040441 L41.84782608695522,282.2426539371876 L43.043478260868284,282.13500411315886 L44.239130434781316,282.02461059383916 L45.43478260869438,281.91139014352075 L46.63043478260741,281.7952566199755 L47.82608695652044,281.67612086090355 L49.0217391304335,281.553890565556 L50.217391304346535,281.42847017131623 L51.413043478259596,281.2997607250129 L52.60869565217263,281.1676597487326 L53.80434782608569,281.03206109988355 L54.99999999999872,280.8928548252553 L56.19565217391178,280.74992700880796 L57.391304347824814,280.6031596129112 L58.58695652173785,280.4524303127423 L59.78260869565091,280.2976123235412 L60.97826086956394,280.13857422040746 L62.173913043477,279.9751797503093 L63.36956521739003,279.80728763596585 L64.5652173913031,279.6347513712452 L65.76086956521613,279.457419007712 L66.95652173912916,279.2751329319394 L68.15217391304222,279.0877296331919 L69.34782608695525,278.895039461064 L70.54347826086831,278.6968863726539 L71.73913043478134,278.49308766882905 L72.9347826086944,278.283453719131 L74.13043478260744,278.06778767485343 L75.32608695652047,277.84588516981034 L76.52173913043353,277.61753400830196 L77.71739130434656,277.3825138397714 L78.91304347825962,277.14059581963534 L80.10869565217266,276.89154225576226 L81.30434782608572,276.63510624006074 L82.49999999999875,276.3710312646368 L83.69565217391178,276.0990508219743 L84.89130434782484,275.8188879885869 L86.08695652173787,275.5302549915991 L87.28260869565094,275.2328527577091 L88.47826086956397,274.92637044400556 L89.67391304347703,274.61048495011744 L90.86956521739006,274.2848604112023 L92.0652173913031,273.94914767130115 L93.26086956521615,273.60298373662886 L94.45652173912919,273.2459912084114 L95.65217391304225,272.8777776949365 L96.84782608695528,272.4979352025571 L98.04347826086834,272.1060395054659 L99.23913043478137,271.7016494941621 L100.43478260869443,271.28430650264784 L101.63043478260747,270.85353361453565 L102.8260869565205,270.4088349484109 L104.02173913043356,269.94969492299015 L105.21739130434659,269.47557750284204 L106.41304347825965,268.98592542570157 L107.60869565217268,268.4801594127184 L108.80434782608575,267.9576773633322 L109.99999999999878,267.41785353688215 L111.19565217391181,266.86003772353035 L112.39130434782487,266.28355440762755 L113.5869565217379,265.6877019272754 L114.78260869565096,265.07175163456236 L115.978260869564,264.43494706177887 L117.17391304347706,263.7765030998619 L118.36956521739009,263.0956051964073 L119.56521739130312,262.39140858182486 L120.76086956521618,261.6630375336306 L121.95652173912922,260.90958469048303 L123.15217391304228,260.13011042941855 L124.34782608695531,259.3236423218374 L125.54347826086837,258.4891746861881 L126.7391304347814,257.6256682580196 L127.93478260869443,256.7320500011714 L129.1304347826075,255.80721308739166 L130.32608695652053,254.85001707567974 L131.5217391304336,253.85928832719057 L132.71739130434662,252.83382069670162 L133.91304347825968,251.77237654749123 L135.1086956521727,250.673688143112 L136.30434782608575,249.53645947705488 L137.4999999999988,248.3593686098068 L138.69565217391184,247.14107059242266 L139.8913043478249,245.8802010666092 L141.08695652173793,244.57538064359224 L142.282608695651,243.2252201778912 L143.47826086956402,241.8283270677285 L144.67391304347709,240.38331273136268 L145.86956521739012,238.88880142836817 L147.06521739130318,237.3434406170256 L148.2608695652162,235.74591306377917 L149.45652173912924,234.09495094842615 L150.6521739130423,232.3893522395915 L151.84782608695534,230.6279996493772 L153.04347826086837,228.8098825141241 L154.23913043478143,226.9341219902162 L155.4347826086945,225.0000000000019 L156.63043478260752,223.00699241333027 L157.82608695652056,220.95480700494565 L159.02173913043362,218.84342678694784 L160.21739130434665,216.67315937840087 L161.41304347825968,214.44469314039029 L162.60869565217274,212.15916087342723 L163.8043478260858,209.8182119436337 L164.99999999999883,207.42409377248916 L166.19565217391187,204.97974368908862 L167.39130434782493,202.48889219970803 L168.58695652173796,199.95617877137485 L169.782608695651,197.38728124655776 L170.97826086956405,194.78905999501958 L172.1739130434771,192.16971785320263 L173.36956521739015,189.53897678412616 L174.56521739130318,186.90827198958866 L175.76086956521624,184.29096389310578 L176.95652173912927,181.7025679503391 L178.1521739130423,179.16100158799995 L179.34782608695537,176.68684666483122 L180.54347826086843,174.30362461751142 L181.73913043478146,172.0380798114497 L182.9347826086945,169.92046445275147 L184.13043478260755,167.98481560151058 L185.32608695652058,166.2692112008822 L186.52173913043362,164.81598741671345 L187.71739130434668,163.67189375745457 L188.91304347825974,162.88815517878535 L190.10869565217277,162.52040142283155 L191.3043478260858,162.6284129531036 L192.49999999999886,163.27561981494077 L193.6956521739119,164.52827445889235 L194.89130434782493,166.45420206756316 L196.086956521738,169.12101258617892 L197.28260869565105,172.59363833302436 L198.47826086956408,176.93104139714669 L199.6739130434771,182.18191883477337 L200.86956521739017,188.37922549829264 L202.06521739130324,195.53334118032726 L203.26086956521624,203.6237410421376 L204.4565217391293,212.5891009746429 L205.65217391304236,222.31590336313823 L206.8478260869554,232.62583138871761 L208.04347826086843,243.26258669761555 L209.2391304347815,253.87927774626488 L210.43478260869455,264.02824855440304 L211.63043478260758,273.1561865406934 L212.8260869565206,280.60857229699184 L214.02173913043367,285.64895771749957 L215.2173913043467,287.5 " fill="none" stroke="blue" stroke-width="2"></path><path d="M215.2173913043478,287.5 L215.33695652173913,287.48014291228844 L215.45652173913044,287.42010475894756 L215.57608695652175,287.3191962115584 L215.69565217391303,287.17674370771147 L215.81521739130434,286.9920908514973 L215.93478260869566,286.76459985956933 L216.05434782608694,286.4936530529551 L216.17391304347825,286.1786543947186 L216.29347826086956,285.819031073479 L216.41304347826087,285.4142351326975 L216.5326086956522,284.9637451455435 L216.65217391304347,284.467067935033 L216.77173913043478,283.92374033902126 L216.8913043478261,283.333331019498 L217.01086956521738,282.69544231550196 L217.1304347826087,282.00971213882497 L217.25,281.2758159115248 L217.3695652173913,280.49346854409805 L217.4891304347826,279.6624264530001 L217.6086956521739,278.7824896160049 L217.72826086956522,277.8535036637172 L217.8478260869565,276.8753620053335 L217.9673913043478,275.8480079865427 L218.08695652173913,274.7714370772255 L218.20652173913044,273.6456990863762 L218.32608695652175,272.47090040142075 L218.44565217391303,271.24720624884196 L218.56521739130434,269.97484297275093 L218.68478260869566,268.65410032775526 L218.80434782608694,267.28533378217674 L218.92391304347825,265.8689668273588 L219.04347826086956,264.4054932884801 L219.16304347826087,262.8954796319507 L219.2826086956522,261.33956726411964 L219.40217391304347,259.7384748156578 L219.52173913043478,258.0930004056021 L219.6413043478261,256.4040238786607 L219.76086956521738,254.6725090089756 L219.8804347826087,252.89950566312652 L220,251.08615191473294 L220.1195652173913,249.23367610257728 L220.23913043478262,247.34339882372066 L220.3586956521739,245.41673485263024 L220.47826086956522,243.4551949768655 L220.59782608695653,241.460387739398 L220.7173913043478,239.4340210771563 L220.83695652173913,237.3779038448985 L220.95652173913044,235.29394721301978 L221.07608695652175,233.18416592740672 L221.19565217391306,231.05067941894853 L221.31521739130434,228.8957127498189 L221.43478260869566,226.72159738314005 L221.55434782608697,224.5307717621524 L221.67391304347825,222.3257816845215 L221.79347826086956,220.10928045693956 L221.91304347826087,217.8840288147097 L222.0326086956522,215.6528945905546 L222.15217391304347,213.41885211645493 L222.27173913043478,211.1849813419154 L222.3913043478261,208.9544666516709 L222.51086956521738,206.7305953654944 L222.6304347826087,204.51675590244557 L222.75,202.31643559162447 L222.8695652173913,200.13321811125863 L222.98913043478262,197.97078053776866 L223.1086956521739,195.8328899863329 L223.22826086956522,193.723399824405 L223.34782608695653,191.64624543964695 L223.4673913043478,189.60543954381924 L223.58695652173913,187.60506699433657 L223.70652173913044,185.6492791154562 L223.82608695652175,183.7422875014208 L223.94565217391306,181.88835728434387 L224.06521739130434,180.0917998502076 L224.18478260869566,178.35696498705195 L224.30434782608697,176.6882324502774 L224.42391304347825,175.09000293097355 L224.54347826086956,173.56668841433228 L224.66304347826087,172.1227019165157 L224.7826086956522,170.76244658983805 L224.9021739130435,169.49030418779867 L225.02173913043478,168.31062288337827 L225.1413043478261,167.2277044360969 L225.2608695652174,166.2457907056394 L225.3804347826087,165.36904951239418 L225.5,164.60155984803342 L225.6195652173913,163.94729644229918 L225.73913043478262,163.41011369546428 L225.85869565217394,162.9937289895092 L225.97826086956522,162.70170539491957 L226.09782608695653,162.5374337941607 L226.21739130434784,162.50411444733933 L226.33695652173913,162.6047380303249 L226.45652173913044,162.84206618067745 L226.57608695652175,163.21861159212094 L226.69565217391306,163.73661770401432 L226.81521739130434,164.39803803830668 L226.93478260869566,165.20451524281427 L227.05434782608697,166.15735990632905 L227.17391304347825,167.2575292180447 L227.29347826086956,168.5056055510665 L227.41304347826087,169.90177505733718 L227.5326086956522,171.44580636914563 L227.6521739130435,173.13702951047688 L227.77173913043478,174.97431512977025 L227.8913043478261,176.95605417416388 L228.0108695652174,179.08013813397233 L228.1304347826087,181.34393999493406 L228.25,183.74429604462878 L228.3695652173913,186.2774886883499 L228.48913043478262,188.9392304385581 L228.60869565217394,191.72464925078364 L228.72826086956522,194.62827538739603 L228.84782608695653,197.64402999894676 L228.96739130434784,200.76521562072148 L229.08695652173913,203.9845087896052 L229.20652173913044,207.29395499326054 L229.32608695652175,210.68496616982318 L229.44565217391306,214.14832098170157 L229.56521739130437,217.6741680914856 L229.68478260869566,221.25203267127208 L229.80434782608697,224.87082637874207 L229.92391304347828,228.51886103390606 L230.04347826086956,232.18386622937916 L230.16304347826087,235.85301110418354 L230.2826086956522,239.51293050617912 L230.4021739130435,243.1497557611058 L230.5217391304348,246.74915025665248 L230.6413043478261,250.296350037736 L230.7608695652174,253.7762095940441 L230.8804347826087,257.1732530026445 L231,260.4717305668528 L231.1195652173913,263.65568106735725 L231.23913043478262,266.70899971260076 L231.35869565217394,269.61551184237544 L231.47826086956522,272.3590524013284 L231.59782608695653,274.92355115737143 L231.71739130434784,277.2931235936903 L231.83695652173913,279.4521673520053 L231.95652173913044,281.38546404881504 L232.07608695652175,283.0782862254947 L232.19565217391306,284.51650912726916 L232.31521739130437,285.68672693525434 L232.43478260869566,286.576373000029 L232.55434782608697,287.1738435446953 L232.67391304347828,287.46862422032655 L232.79347826086956,287.4514188073729 L232.91304347826087,287.114279263399 L233.0326086956522,286.4507362209438 L233.1521739130435,285.4559289399392 L233.2717391304348,284.12673361773034 L233.3913043478261,282.46188885716776 L233.5108695652174,280.46211699051094 L233.63043478260872,278.13023985515156 L233.75,275.4712875177712 L233.8695652173913,272.4925983479819 L233.98913043478262,269.2039087524515 L234.10869565217394,265.61743079783037 L234.22826086956525,261.7479158775511 L234.34782608695653,257.612702515956 L234.46739130434784,253.23174635568424 L234.58695652173915,248.62763034337777 L234.70652173913044,243.8255531173222 L234.82608695652175,238.8532936115365 L234.94565217391306,233.74114992709977 L235.06521739130437,228.52185058630906 L235.18478260869566,223.23043638182136 L235.30434782608697,217.9041111644743 L235.42391304347828,212.5820600832561 L235.54347826086956,207.30523400203114 L235.66304347826087,202.1160990731349 L235.7826086956522,197.05835075059886 L235.9021739130435,192.17659187801004 L236.0217391304348,187.51597488988764 L236.1413043478261,183.12180862249167 L236.2608695652174,179.03913074101118 L236.38043478260872,175.31224735520274 L236.5,171.9842420138959 L236.6195652173913,169.0964569384274 L236.73913043478262,166.68795007282844 L236.85869565217394,164.79493228987846 L236.97826086956525,163.45018989081697 L237.09782608695653,162.68249836464472 L237.21739130434784,162.51603422077332 L237.33695652173915,162.9697925644168 L237.45652173913044,164.05701893353896 L237.57608695652175,165.78466474301334 L237.69565217391306,168.15287646720404 L237.81521739130437,171.154529415292 L237.93478260869568,174.77481759079447 L238.05434782608697,178.99091165196907 L238.17391304347828,183.7716973750731 L238.2934782608696,189.077607237722 L238.41304347826087,194.8605577531831 L238.5326086956522,201.06400496548522 L238.6521739130435,207.62313002622815 L238.7717391304348,214.46516598356285 L238.89130434782612,221.50987578946476 L239.0108695652174,228.6701900426855 " fill="none" stroke="blue" stroke-width="2"></path><path d="M237.93478260869566,174.7748175907938 L238.00054347826085,177.02173321896876 L238.06630434782608,179.44416532749315 L238.1320652173913,182.03648445498206 L238.19782608695652,184.79228544385361 L238.26358695652175,187.70438349528612 L238.32934782608694,190.76481337771284 L238.39510869565217,193.964831976024 L238.4608695652174,197.2949243641372 L238.5266304347826,200.74481357769847 L238.5923913043478,204.30347425630563 L238.65815217391304,207.95915031573807 L238.72391304347826,211.6993768001159 L238.78967391304346,215.51100605166855 L238.85543478260868,219.38023832176194 L238.9211956521739,223.29265693095007 L238.9869565217391,227.2332680680686 L239.05271739130433,231.18654529863616 L239.11847826086955,235.13647883114513 L239.18423913043478,239.06662956605882 L239.25,242.96018792657068 L239.3157608695652,246.80003744234315 L239.38152173913042,250.56882302757376 L239.44728260869564,254.24902386285694 L239.51304347826084,257.8230307564464 L239.57880434782606,261.2732278247571 L239.6445652173913,264.58207829434605 L239.7103260869565,267.73221418829576 L239.7760869565217,270.7065296190001 L239.84184782608693,273.488277367008 L239.90760869565216,276.06116838195953 L239.97336956521735,278.4094737969999 L240.03913043478258,280.5181290025778 L240.1048913043478,282.3728392795456 L240.17065217391303,283.96018644523303 L240.23641304347825,285.26773592003826 L240.30217391304345,286.2841435764143 L240.36793478260867,286.9992616873453 L240.4336956521739,287.40424324792616 L240.4994565217391,287.4916439019672 L240.56521739130432,287.25552066613204 L240.63097826086954,286.69152660752536 L240.69673913043476,285.797000597442 L240.7625,284.57105123475935 L240.82826086956518,283.01463400782654 L240.8940217391304,281.1306207443156 L240.9597826086956,278.92386038501263 L241.02554347826083,276.40123011062553 L241.09130434782605,273.5716758510374 L241.15706521739128,270.4462412147502 L241.2228260869565,267.03808389321455 L241.2885869565217,263.36247862101277 L241.35434782608692,259.43680580910245 L241.42010869565215,255.28052501516865 L241.48586956521734,250.9151324731874 L241.55163043478257,246.3641019740605 L241.6173913043478,241.65280847119746 L241.68315217391302,236.8084338795455 L241.74891304347824,231.85985464415793 L241.81467391304344,226.8375107751664 L241.88043478260866,221.7732561800984 L241.94619565217388,216.70019027183534 L242.01195652173908,211.65247099098914 L242.0777173913043,206.66510955476835 L242.14347826086953,201.7737474300204 L242.20923913043475,197.01441622538246 L242.27499999999995,192.4232814054935 L242.34076086956517,188.0363709478892 L242.4065217391304,183.88929028919935 L242.4722826086956,180.01692514003625 L242.53804347826082,176.45313398563545 L242.60380434782604,173.23043232986893 L242.66956521739127,170.37967098126202 L242.7353260869565,167.92971091856995 L242.8010869565217,165.90709750734626 L242.8668478260869,164.33573706466936 L242.93260869565214,163.23657898332712 L242.99836956521733,162.62730682567368 L243.06413043478256,162.52204197716773 L243.12989130434778,162.9310636062073 L243.195652173913,163.8605488060439 L243.2614130434782,165.31233689189511 L243.32717391304342,167.28372188741795 L243.39293478260865,169.76727725492944 L243.45869565217384,172.7507168986783 L243.52445652173907,176.21679639567034 L243.5902173913043,180.14325827978004 L243.65597826086952,184.5028250181302 L243.72173913043474,189.26324307032652 L243.78749999999994,194.38738110781262 L243.85326086956516,199.83338508969243 L243.9190217391304,205.5548924407153 L243.98478260869558,211.5013070554701 L244.0505434782608,217.61813625967042 L244.11630434782603,223.8473901953479 L244.18206521739125,230.12804336338306 L244.24782608695645,236.39655725704645 L244.31358695652168,242.58746215827287 L244.3793478260869,248.63399524998445 L244.44510869565212,254.46879123011317 L244.51086956521732,260.02462060495395 L244.57663043478254,265.23516980168085 L244.64239130434777,270.0358561846125 L244.708152173913,274.3646700012413 L244.7739130434782,278.16303423800844 L244.8396739130434,281.3766723499365 L244.90543478260864,283.9564728617771 L244.97119565217383,285.85933894206664 L245.03695652173906,287.0490102475728 L245.10271739130428,287.49684364733355 L245.1684782608695,287.18253888699644 L245.2342391304347,286.0947948701614 L245.29999999999993,284.23188203873497 L245.36576086956515,281.60211635348026 L245.43152173913037,278.22422063269437 L245.49728260869557,274.12755952359555 L245.5630434782608,269.3522351778871 L245.62880434782602,263.94903179766993 L245.69456521739124,257.9791986246091 L245.76032608695644,251.51406267400844 L245.82608695652166,244.63446457123624 L245.8918478260869,237.43001323000587 L245.95760869565208,229.99815781303337 L246.0233695652173,222.4430784208736 L246.08913043478253,214.87440024158784 L246.15489130434776,207.40573943082822 L246.22065217391295,200.15309273830425 L246.28641304347818,193.2330868020284 L246.3521739130434,186.76110703596785 L246.41793478260863,180.84933006952494 L246.48369565217382,175.60468767859246 L246.54945652173905,171.1267939884228 L246.61521739130427,167.50587133027258 L246.6809782608695,164.8207133912488 L246.7467391304347,163.1367270984883 L246.81249999999991,162.50409690896092 L246.87826086956514,162.95611671701587 L246.94402173913033,164.507735326119 L247.00978260869556,167.1543612455275 L247.07554347826078,170.87097136046603 L247.141304347826,175.61156569011465 L247.20706521739123,181.30900691075053 L247.27282608695643,187.87527852036177 L247.33858695652165,195.20218941843885 L247.40434782608688,203.16254526128964 L247.47010869565207,211.61179825282838 L247.5358695652173,220.3901771042429 L247.60163043478252,229.3252878451539 L247.66739130434775,238.23516414015612 L247.73315217391294,246.93173295114914 L247.79891304347817,255.22464802923977 L247.8646739130434,262.9254301105368 L247.9304347826086,269.85183916570065 L247.9961956521738,275.83239099610296 L248.06195652173903,280.7109183022268 L248.12771739130426,284.35106552774187 L248.19347826086948,286.64059778463945 L248.25923913043468,287.49539748239215 L248.3249999999999,286.86301840734643 L248.39076086956513,284.7256663999623 L248.45652173913032,281.1024788937344 L248.52228260869555,276.0509827913303 L248.58804347826077,269.6676217637265 L248.653804347826,262.08726026969157 L248.7195652173912,253.48159248554938 L248.78532608695642,244.05640984289604 L248.85108695652164,234.04771076264572 L248.91684782608687,223.71667003056476 L248.98260869565206,213.34352246635237 L249.04836956521729,203.2204552709321 L249.1141304347825,193.64364465918172 L249.17989130434773,184.9046138558334 L249.24565217391293,177.28112981639114 L249.31141304347815,171.02789353060925 L249.37717391304338,166.3673117390248 L249.44293478260857,163.48066452435452 L249.5086956521738,162.5000016853089 L249.57445652173902,163.50110926294136 L249.64021739130425,166.49788440026705 L249.70597826086944,171.4384404260006 L249.77173913043467,178.20323353324974 L249.8374999999999,186.6054569651064 L249.90326086956512,196.39388803513046 L249.9690217391303,207.25829803421547 L250.03478260869554,218.83744624220506 L250.10054347826076,230.7295787794948 L250.16630434782599,242.50524362034847 L250.23206521739118,253.722118289152 L250.2978260869564,263.94143091240323 L250.36358695652163,272.74544346449625 L250.42934782608683,279.75536388454236 L250.49510869565205,284.64896733592707 L250.56086956521727,287.17714249862524 L250.6266304347825,287.17854259487353 L250.6923913043477,284.59151858266955 L250.75815217391292,279.46254852474067 L250.82391304347814,271.95045624940485 L250.88967391304337,262.3258361262573 L250.95543478260856,250.96526911068727 L251.0211956521738,238.34012579679236 L251.086956521739,225.0000000000248 " fill="none" stroke="blue" stroke-width="1"></path><path d="M249.8913043478261,194.52431883168927 L249.9570652173913,205.218596374655 L250.0228260869565,216.69664551674666 L250.08858695652174,228.56318972497618 L250.15434782608696,240.3927641719508 L250.22010869565216,251.74420530711402 L250.28586956521738,262.17681853325143 L250.3516304347826,271.2677126130036 L250.41739130434783,278.629685067635 L250.48315217391303,283.9289530958805 L250.54891304347825,286.9019556887009 L250.61467391304348,287.3704108565886 L250.6804347826087,285.2538030572398 L250.7461956521739,280.57850510671005 L250.81195652173912,273.482810025448 L250.87771739130434,264.21726380167706 L250.94347826086954,253.13985037379152 L251.00923913043476,240.70578333061846 L251.075,227.4519003515811 L251.1407608695652,213.9759288540254 L251.20652173913044,200.91118434709412 L251.27228260869563,188.89756342720395 L251.33804347826086,178.54998543410463 L251.40380434782608,170.42570268245956 L251.46956521739128,164.99211969641848 L251.5353260869565,162.59691740062178 L251.60108695652173,163.44234991859528 L251.66684782608695,167.56555276900596 L251.73260869565215,174.8265586945012 L251.79836956521737,184.90545309342465 L251.8641304347826,197.3097136464567 L251.9298913043478,211.3922747602609 L251.99565217391302,226.38025235670804 L252.06141304347824,241.41358330981652 L252.12717391304346,255.59211097691664 L252.1929347826087,268.02892707862054 L252.25869565217388,277.90711119338357 L252.3244565217391,284.5364477113476 L252.39021739130433,287.40630312572796 L252.45597826086953,286.23066832624124 L252.52173913043475,280.981458046016 L252.58749999999998,271.90654724514366 L252.6532608695652,259.5297287362895 L252.7190217391304,244.63079202946776 L252.78478260869562,228.20521810097355 L252.85054347826085,211.40449775115073 L252.91630434782607,195.45972252050714 L252.98206521739127,181.59275005956064 L253.0478260869565,170.92077200029357 L253.11358695652171,164.36135999392562 L253.17934782608694,162.54588089669963 L253.24510869565214,165.7494133613823 L253.31086956521736,173.8448515108548 L253.37663043478258,186.28767763687696 L253.44239130434778,202.13591594023134 L253.508152173913,220.10710741512932 L253.57391304347823,238.6709177431995 L253.63967391304345,256.172433983167 L253.70543478260865,270.9776259418476 L253.77119565217387,281.62920673792746 L253.8369565217391,286.99861731353565 L253.90271739130432,286.4184680662943 L253.96847826086952,279.7798324548944 L254.03423913043474,267.58053693836257 L254.09999999999997,250.91411479883183 L254.1657608695652,231.39428433044415 L254.2315217391304,211.01635380935758 L254.2972826086956,191.964303116811 L254.36304347826083,176.379699888374 L254.42880434782603,166.1151825091392 L254.49456521739125,162.5000242661645 L254.56032608695648,166.14737150689623 L254.6260869565217,176.83139312098004 L254.6918478260869,193.45737720706197 L254.75760869565212,214.13879595178506 L254.82336956521735,236.383099507278 L254.88913043478257,257.3736311414568 L254.95489130434777,274.32024185683474 L255.020652173913,284.837977037359 L255.08641304347822,287.3038284972688 L255.15217391304344,281.13806658948965 L255.21793478260864,266.96065961388706 L255.28369565217386,246.58545558106542 L255.34945652173909,222.83467416313377 L255.41521739130428,199.18200747557054 L255.4809782608695,179.26108172674017 L255.54673913043473,166.30291212186873 L255.61249999999995,162.58642266501974 L255.67826086956518,168.99538243638077 L255.74402173913037,184.76956109257557 L255.8097826086956,207.51583193332058 L255.87554347826082,233.50739947779326 L255.94130434782602,258.25051851070987 L256.00706521739124,277.2452841796206 L256.07282608695647,286.8198887136514 L256.1385869565217,284.88660123816624 L256.2043478260869,271.46194537858014 L256.27010869565214,248.81905374759228 L256.3358695652173,221.19743041738403 L256.40163043478253,194.07796054431603 L256.46739130434776,173.12556172149002 L256.533152173913,162.9893919626015 L256.5989130434782,166.20961572599847 L256.66467391304343,182.49114322391128 L256.73043478260865,208.55666180406573 L256.7961956521739,238.68397655687656 L256.86195652173905,265.8814633483116 L256.92771739130427,283.4902226420278 L256.9934782608695,286.86241686286087 L257.0592391304347,274.6941681120114 L257.12499999999994,249.62077271673812 L257.19076086956517,217.82343207824889 L257.2565217391304,187.6323839109689 L257.32228260869556,167.39202174050942 L257.3880434782608,163.10573694703416 L257.453804347826,176.5204523102544 L257.51956521739123,204.2776215002353 L257.58532608695646,238.5241521885856 L257.6510869565217,268.97776083940926 L257.7168478260869,285.97375316432647 L257.78260869565213,283.62646396165496 L257.8483695652173,262.0679569314153 L257.9141304347825,227.88401545077582 L257.97989130434775,192.36381672801687 L258.04565217391297,167.90354658832322 L258.1114130434782,163.63272162425395 L258.1771739130434,181.78868756978792 L258.24293478260864,216.31558994395616 L258.3086956521738,254.52354434880115 L258.37445652173903,281.5491885228696 L258.44021739130426,286.170832198721 L258.5059782608695,265.7360121860212 L258.5717391304347,227.98527845042568 L258.63749999999993,188.56544405939374 L258.70326086956516,164.76712528338587 L258.7690217391304,167.839612848119 L258.83478260869555,197.28080946031102 L258.9005434782608,240.09617708673008 L258.966304347826,276.0587032473501 L259.0320652173912,287.1476392208042 L259.09782608695645,266.8953993666713 L259.16358695652167,224.72658280441985 L259.2293478260869,182.27599509645026 L259.29510869565206,162.6140742153929 L259.3608695652173,177.47459733606811 L259.4266304347825,219.5747649578859 L259.49239130434773,265.2644866867614 L259.55815217391296,287.3300086351484 L259.6239130434782,271.4279360093735 L259.6896739130434,226.2270606946902 L259.75543478260863,179.79030856083475 L259.8211956521738,162.68482829792626 L259.886956521739,187.48392611757586 L259.95271739130425,238.4804466295366 L260.0184782608695,280.4135846085617 L260.0842391304347,282.4848606253812 L260.1499999999999,241.76348603819704 L260.21576086956514,187.85781759397284 L260.2815217391303,162.50641864321082 L260.34728260869554,187.04604513080707 L260.41304347826076,243.024407402011 L260.478804347826,284.3228073991975 L260.5445652173912,274.7209007519069 L260.61032608695643,220.96612785827156 L260.67608695652166,170.39691286981142 L260.7418478260869,170.26427479056437 L260.80760869565205,222.43662207422275 L260.8733695652173,277.56972679906517 L260.9391304347825,280.3345037677889 L261.0048913043477,226.0839867547605 L261.07065217391295,170.24261518199333 L261.13641304347817,173.32940056220113 L261.2021739130434,233.91181839777138 L261.26793478260856,284.794737657861 L261.3336956521738,266.0837607680137 L261.399456521739,197.91431479950987 L261.46521739130424,162.6123799419801 L261.53097826086946,205.87951046444633 L261.5967391304347,274.21706890341306 L261.6624999999999,277.56585982132185 L261.72826086956513,209.24366031356428 L261.7940217391303,162.55799954222968 L261.8597826086955,205.22914987021673 L261.92554347826075,277.24136909582296 L261.991304347826,270.71314572347626 L262.0570652173912,193.3253075019597 L262.1228260869564,165.93912256573955 L262.18858695652165,234.7284214662955 L262.2543478260868,287.49997303505927 L262.32010869565204,233.24793491255915 L262.38586956521726,164.33763238711825 L262.4516304347825,204.69882364355269 L262.5173913043477,282.6861950934475 L262.58315217391294,251.35347017188215 L262.64891304347816,168.74879599128175 L262.7146739130434,198.28517872787742 L262.78043478260855,282.400716301369 L262.8461956521738,246.17901843779188 L262.911956521739,164.56804288304042 L262.9777173913042,216.0973538480018 L263.04347826086945,287.5 " fill="none" stroke="blue" stroke-width="1"></path><path d="M261.8478260869565,191.8953378917873 L261.88967391304345,241.7825137711733 L261.93152173913046,280.97885589887505 L261.9733695652174,282.9185498493621 L262.01521739130436,245.32253835816093 L262.0570652173913,193.32530750183415 L262.09891304347826,163.38286209060934 L262.1407608695652,177.6549770833935 L262.18260869565216,226.79310014589774 L262.2244565217391,274.9377063523823 L262.26630434782606,285.38908564354495 L262.3081521739131,249.07255822507963 L262.35,193.48584658577485 L262.391847826087,162.87246321296382 L262.4336956521739,182.96772036224522 L262.4755434782609,238.29017388039628 L262.5173913043478,282.68619509351515 L262.5592391304348,277.41054301033716 L262.6010869565217,225.85056022667405 L262.6429347826087,173.18405440778545 L262.6847826086957,167.62439749064347 L262.72663043478263,215.55947359770616 L262.7684782608696,272.7775314593049 L262.81032608695654,284.0927186427797 L262.8521739130435,237.1744886526436 L262.89402173913044,177.72380815376263 L262.9358695652174,166.32952793266978 L262.97771739130434,216.09735384820758 L263.0195652173913,275.63253537841683 L263.0614130434783,280.65773102751393 L263.10326086956525,224.258766995728 L263.1451086956522,168.36817251501427 L263.18695652173915,177.08799075914268 L263.2288043478261,241.83213147335763 L263.27065217391305,286.8917429381594 L263.3125,257.1050651511139 L263.35434782608695,187.4685357181999 L263.3961956521739,164.76037075983336 L263.4380434782609,219.28364321070748 L263.47989130434786,281.5539433187 L263.5217391304348,268.70947040019087 L263.56358695652176,196.40809626024273 L263.6054347826087,163.37767172496845 L263.64728260869566,217.17167179193368 L263.6891304347826,282.4501696490903 L263.73097826086956,263.78669857711475 L263.7728260869565,187.11663551471818 L263.8146739130435,167.82862046544872 L263.85652173913047,237.15567500617058 L263.8983695652174,287.49738459134153 L263.9402173913044,237.3249945956688 L263.9820652173913,166.77673907070115 L264.0239130434783,193.42288620419615 L264.0657608695652,273.9513472004719 L264.1076086956522,269.6502130416992 L264.1494565217391,186.33637307885962 L264.19130434782613,172.58322908623032 L264.2331521739131,255.08638549672358 L264.27500000000003,281.3846861853649 L264.316847826087,200.21779000367653 L264.35869565217394,167.1338065436856 L264.4005434782609,248.51129612959497 L264.44239130434784,282.50425412741686 L264.4842391304348,198.46897022025766 L264.52608695652174,169.9594261992771 L264.56793478260875,258.6391955140691 L264.6097826086957,274.2584953510602 L264.65163043478265,181.13588321360126 L264.6934782608696,186.8122765122384 L264.73532608695655,279.8217763692858 L264.7771739130435,244.8517578613142 L264.81902173913045,162.97945362497913 L264.8608695652174,231.07172240117725 L264.90271739130435,283.9039364729746 L264.94456521739136,189.34214140875835 L264.9864130434783,185.97817214497692 L265.02826086956526,283.4609541677479 L265.0701086956522,226.54936746690376 L265.11195652173916,165.99827942706813 L265.1538043478261,266.2960588139929 L265.19565217391306,251.52239462410202 L265.2375,162.50012168428904 L265.27934782608696,252.76265610751912 L265.32119565217397,261.4075992152217 L265.3630434782609,162.8524845929766 L265.40489130434787,251.43306869786508 L265.4467391304348,258.3764781548431 L265.4885869565218,162.53992435791397 L265.5304347826087,263.5009397274787 L265.5722826086957,240.45364233409467 L265.6141304347826,168.38113165459836 L265.6559782608696,282.170594757186 L265.6978260869566,204.5971236797691 L265.73967391304353,197.35175674174448 L265.7815217391305,283.62764838252565 L265.82336956521743,166.7785368689894 L265.8652173913044,255.28650416788454 L265.90706521739133,234.52344511634337 L265.9489130434783,181.164573688491 L265.99076086956524,286.20020134614094 L266.0326086956522,166.2692112008318 L266.0744565217392,265.49520554210767 L266.11630434782614,211.04617840021004 L266.1581521739131,211.56491730107942 L266.20000000000005,261.3073635206176 L266.241847826087,172.96503034057199 L266.28369565217395,285.34550249754886 L266.3255434782609,162.51193101260972 L266.36739130434785,285.3875204572835 L266.4092391304348,168.98131879311555 L266.4510869565218,276.0544784643382 L266.49293478260876,178.26180875755924 L266.5347826086957,268.89290993510224 L266.57663043478266,182.01492519146322 L266.6184782608696,269.1795499973729 L266.66032608695656,177.6532793319836 L266.7021739130435,277.00368280282964 L266.74402173913046,167.80405516050516 L266.7858695652174,286.361880900973 L266.8277173913044,162.7231289085988 L266.86956521739137,282.24301257273976 L266.9114130434783,181.2606753866207 L266.95326086956527,245.69415130023438 L266.9951086956522,234.7406411010356 L267.03695652173917,184.359062034481 L267.0788043478261,285.51413471647834 L267.1206521739131,167.86318290258023 L267.1625,250.6122710488875 L267.20434782608703,247.69288498332898 L267.246195652174,166.1095599921275 L267.28804347826093,277.2287918533026 L267.3298913043479,225.02224617811467 L267.37173913043483,170.53213018458504 L267.4135869565218,276.04898786109504 L267.45543478260873,240.03704862612014 L267.4972826086957,162.59867074507807 L267.53913043478263,242.3265844382922 L267.58097826086964,281.82448272674173 L267.6228260869566,195.0291309041904 L267.66467391304354,169.88718294630817 L267.7065217391305,249.37400329754078 L267.74836956521744,285.9005758427106 L267.7902173913044,227.03139921200435 L267.83206521739135,166.93680323205845 L267.8739130434783,179.51678730487586 L267.91576086956525,239.1474738021303 L267.95760869565225,282.740115082506 L267.9994565217392,280.97748593865776 L268.04130434782616,246.68862125805603 L268.0831521739131,206.50281336603436 L268.12500000000006,177.95397157580769 L268.166847826087,164.80546967499671 L268.20869565217396,162.63376423019642 L268.2505434782609,165.1528809954876 L268.29239130434786,167.57248061317406 L268.33423913043487,167.49121015315413 L268.3760869565218,164.92583292632648 L268.41793478260877,162.5363747558558 L268.4597826086957,166.01572635819596 L268.50163043478267,183.14895841055935 L268.5434782608696,218.68130181154882 L268.58532608695657,263.6613662427552 L268.6271739130435,287.49956856140943 L268.66902173913047,255.8618029892029 L268.7108695652175,185.64788142904072 L268.75271739130443,168.9590873882004 L268.7945652173914,248.82634689687112 L268.83641304347833,280.3582001882992 L268.8782608695653,182.95657693251755 L268.92010869565223,200.09745254141765 L268.9619565217392,286.42183423507845 L269.00380434782613,173.8229475817752 L269.0456521739131,246.10671702138487 L269.0875000000001,230.16210407768753 L269.12934782608704,205.532049503026 L269.171195652174,246.5581168350602 L269.21304347826094,213.61764212954628 L269.2548913043479,212.8103085791595 L269.29673913043484,269.4995858312657 L269.3385869565218,162.5515325737272 L269.38043478260875,253.93919633073128 L269.4222826086957,270.0082532268102 L269.4641304347827,179.80124792424496 L269.50597826086965,173.3716354572231 L269.5478260869566,233.10545688277963 L269.58967391304355,276.38261311662575 L269.6315217391305,287.4338818760591 L269.67336956521746,285.86029224362835 L269.7152173913044,286.1006454440079 L269.75706521739136,287.1353230769182 L269.7989130434783,271.1345625040443 L269.8407608695653,217.23658220514343 L269.88260869565227,163.281733743922 L269.9244565217392,218.94103625803731 L269.96630434782617,284.33265462243696 L270.0081521739131,169.18369835430448 L270.05000000000007,265.1549157383656 L270.091847826087,185.48635236612492 L270.13369565217397,280.05549737045146 L270.1755434782609,165.69381050249464 " fill="none" stroke="blue" stroke-width="1"></path><path d="M270.2173913043478,225.00000000000804 L270.23532608695655,168.70163700661922 L270.2532608695652,179.5426463959357 L270.2711956521739,253.67272141669523 L270.28913043478263,285.00536685640964 L270.3070652173913,213.91085366321974 L270.325,163.32445685348884 L270.34293478260867,239.709052812284 L270.3608695652174,282.45183956425797 L270.3788043478261,186.4165055906004 L270.39673913043475,192.3459574848592 L270.4146739130435,287.20308940170344 L270.43260869565216,197.659760706053 L270.45054347826084,196.7956986116079 L270.4684782608696,285.01671140127235 L270.48641304347825,168.29837566895864 L270.5043478260869,256.27565571340904 L270.52228260869566,223.89983635674955 L270.54021739130434,201.75618897989793 L270.558152173913,263.8195193197978 L270.57608695652175,178.13039060398253 L270.5940217391304,274.4416827312798 L270.6119565217391,177.54663220319318 L270.62989130434784,265.01852704156147 L270.6478260869565,200.15715059709137 L270.6657608695652,225.11673568796928 L270.6836956521739,256.47979785837674 L270.7016304347826,167.1544198292291 L270.7195652173913,282.73103176782536 L270.7375,208.51160956540426 L270.7554347826087,181.2695570248229 L270.77336956521737,283.0503671858677 L270.7913043478261,232.48707236868105 L270.8092391304348,162.50005472910257 L270.82717391304345,223.8885487633751 L270.8451086956522,286.49207074281753 L270.86304347826086,254.26593324107486 L270.88097826086954,188.2777113796183 L270.8989130434783,162.51516574047454 L270.91684782608695,182.9869940760088 L270.9347826086956,219.91006686617342 L270.95271739130436,250.2244114614691 L270.97065217391304,267.6427579484057 L270.9885869565217,274.7973032985635 L271.00652173913045,274.934791007448 L271.0244565217391,268.00330281043193 L271.0423913043478,250.40199258337125 L271.0603260869565,218.86123187491134 L271.0782608695652,180.37434318218035 L271.0961956521739,162.84071657524592 L271.11413043478257,200.6803477070159 L271.1320652173913,272.2455301942517 L271.15,271.2953739819802 L271.16793478260865,179.58219686663082 L271.1858695652174,196.1669341606905 L271.20380434782606,287.4996964889599 L271.22173913043474,185.00412927224173 L271.2396739130435,226.72411336401817 L271.25760869565215,250.62587885407956 L271.27554347826083,187.09734199623782 L271.29347826086956,263.0948501050643 L271.31141304347824,198.9627541432416 L271.3293478260869,223.11385250832987 L271.34728260869565,266.62339866376203 L271.3652173913043,162.81272927176244 L271.383152173913,242.2927842712197 L271.40108695652174,282.3821305113546 L271.4190217391304,207.94944768797146 L271.4369565217391,162.93787267887282 L271.4548913043478,180.95165773763958 L271.4728260869565,215.6994666419259 L271.4907608695652,237.62259471105543 L271.5086956521739,241.68868903523796 L271.5266304347826,227.84484350450745 L271.54456521739127,196.3048503238073 L271.5625,164.71859062120612 L271.5804347826087,184.6841532352898 L271.59836956521735,267.7310519382992 L271.6163043478261,260.8638665948424 L271.63423913043476,162.66980424917867 L271.65217391304344,269.8968343802594 L271.6701086956522,197.7692986799544 L271.68804347826085,252.33705119372323 L271.70597826086953,179.52577757580852 L271.72391304347826,287.479237249098 L271.74184782608694,195.58007105540995 L271.7597826086956,172.37558051029336 L271.77771739130435,240.84850832366848 L271.795652173913,281.0283237750216 L271.8135869565217,287.49309710173804 L271.83152173913044,287.4974983683229 L271.8494565217391,282.6326000030375 L271.8673913043478,245.09967213744923 L271.8853260869565,173.48834753442165 L271.9032608695652,199.7358406669442 L271.9211956521739,285.6930512464244 L271.9391304347826,163.62725818092494 L271.9570652173913,286.99100913867017 L271.97499999999997,168.46103700628325 L271.9929347826087,227.8041183506322 L272.0108695652174,287.5 L272.02880434782605,259.65722399362244 L272.0467391304348,235.01246860041599 L272.06467391304346,243.69471516078048 L272.08260869565214,278.595741759567 L272.1005434782609,269.22736256312896 L272.11847826086955,167.8991013211378 L272.1364130434782,259.1147742715319 L272.15434782608696,187.3132090980658 L272.17228260869564,286.3426936874441 L272.1902173913043,203.28535546330917 L272.20815217391305,163.4923432242342 L272.2260869565217,163.16209257021237 L272.2440217391304,164.6365560583454 L272.26195652173914,215.69852213283312 L272.2798913043478,286.1246777287188 L272.2978260869565,163.8649225345484 L272.3157608695652,286.44490547903047 L272.3336956521739,215.13296640523637 L272.3516304347826,166.4294533523183 L272.3695652173913,163.5293885567406 L272.3875,186.75507467309282 L272.40543478260867,277.67649401496385 L272.4233695652174,196.2313690527404 L272.4413043478261,275.3794677128991 L272.45923913043475,183.14568807558882 L272.4771739130435,163.81934658162746 L272.49510869565216,175.04053020632793 L272.51304347826084,260.98059052089263 L272.5309782608696,215.99781558907452 L272.54891304347825,271.6206992331515 L272.5668478260869,200.577952714404 L272.58478260869566,200.18938625252113 L272.60271739130434,272.31556316022045 L272.620652173913,206.7390705240742 L272.63858695652175,280.31398553136535 L272.6565217391304,233.0328743078003 L272.6744565217391,260.71551376853654 L272.69239130434784,258.83418235800946 L272.7103260869565,211.12674623697646 L272.7282608695652,163.03174216295375 L272.7461956521739,171.44072947282896 L272.7641304347826,279.56515823016457 L272.7820652173913,163.4446361823897 L272.8,169.94018134309223 L272.8179347826087,176.8105273224999 L272.83586956521737,274.9875053344533 L272.8538043478261,277.6777057038486 L272.8717391304348,285.35804988511654 L272.88967391304345,162.62962315197595 L272.9076086956522,196.0913568625327 L272.92554347826086,162.5090153668077 L272.94347826086954,284.2714451147566 L272.9614130434783,287.2487435499098 L272.97934782608695,198.56957170903328 L272.9972826086956,282.0347486230097 L273.01521739130436,227.57868913808315 L273.03315217391304,266.13715106557765 L273.0510869565217,283.96502172490705 L273.06902173913045,162.5483988221005 L273.0869565217391,167.25752921677244 L273.1048913043478,266.68554172371125 L273.12282608695654,228.95239144091303 L273.1407608695652,275.93819122463185 L273.1586956521739,264.63757921028355 L273.1766304347826,286.9994673449512 L273.1945652173913,166.44659474925183 L273.2125,166.2914441674047 L273.2304347826087,190.18002700701126 L273.2483695652174,257.12985822235055 L273.26630434782606,283.01773538286693 L273.2842391304348,284.5642145965837 L273.3021739130435,256.26124336692226 L273.32010869565215,165.80719876304326 L273.3380434782609,281.3639864428052 L273.35597826086956,200.5212276322945 L273.37391304347824,186.25995984780636 L273.391847826087,285.5262313541292 L273.40978260869565,202.83240443839563 L273.4277173913043,218.86836698387728 L273.44565217391306,209.4793897410058 L273.46358695652174,286.5717310042927 L273.4815217391304,287.488144465215 L273.49945652173915,214.683149939365 L273.5173913043478,277.87751379353006 L273.5353260869565,286.57010602753087 L273.55326086956524,163.89079598403666 L273.5711956521739,194.76354036420238 L273.5891304347826,164.3600059983892 L273.6070652173913,287.4521850073128 L273.625,185.41321675533194 L273.6429347826087,189.7973689776546 L273.6608695652174,287.21119455873713 L273.6788043478261,164.45129404637547 L273.69673913043476,244.3198490428006 L273.7146739130435,194.36509310010806 L273.7326086956522,287.4023048230317 L273.75054347826085,196.66825688191042 L273.7684782608696,162.62899440988238 L273.78641304347826,189.66596860903994 L273.80434782608694,287.5 " fill="none" stroke="blue" stroke-width="1"></path><text x="95.65217391304347" y="107.99999999999997" fill="black" font-family="times" font-weight="normal" font-style="italic" font-size="32" text-anchor="middle">y=g(x)</text><path d="M275,37.49999999999994 L276.79347826086956,39.37499999999994 L278.5869565217391,41.24999999999994 L280.3804347826087,43.12499999999994 L282.17391304347825,44.99999999999994 L283.9673913043478,46.87499999999994 L285.7608695652174,48.74999999999994 L287.55434782608694,50.62499999999994 L289.3478260869565,52.49999999999997 L291.14130434782606,54.37499999999994 L292.9347826086956,56.24999999999994 L294.72826086956525,58.12499999999994 L296.5217391304348,59.99999999999997 L298.3152173913044,61.87499999999994 L300.10869565217394,63.74999999999994 L301.9021739130435,65.62499999999997 L303.69565217391306,67.49999999999997 L305.4891304347826,69.37499999999997 L307.2826086956522,71.24999999999994 L309.07608695652175,73.12499999999997 L310.8695652173913,74.99999999999997 L312.6630434782609,76.87499999999997 L314.45652173913044,78.74999999999994 L316.25,80.62499999999997 L318.0434782608696,82.5 L319.8369565217392,84.37499999999997 L321.63043478260875,86.24999999999997 L323.4239130434783,88.12499999999997 L325.21739130434787,90 L327.01086956521743,91.87499999999997 L328.804347826087,93.74999999999997 L330.59782608695656,95.62499999999997 L332.3913043478261,97.49999999999997 L334.1847826086957,99.37499999999997 L335.97826086956525,101.24999999999997 L337.7717391304348,103.12499999999997 L339.5652173913044,104.99999999999997 L341.358695652174,106.87499999999997 L343.1521739130435,108.74999999999997 L344.9456521739131,110.62499999999997 L346.7391304347827,112.50000000000003 L348.53260869565224,114.37499999999997 L350.3260869565218,116.24999999999997 L352.11956521739137,118.12499999999997 L353.91304347826093,120.00000000000003 L355.7065217391305,121.87499999999997 L357.50000000000006,123.74999999999997 L359.2934782608696,125.62500000000003 L361.0869565217392,127.50000000000003 L362.88043478260875,129.37500000000003 L364.67391304347836,131.24999999999997 L366.46739130434787,133.12500000000003 L368.2608695652175,135.00000000000003 L370.05434782608705,136.87500000000003 L371.8478260869566,138.75000000000003 L373.6413043478262,140.62500000000003 L375.43478260869574,142.50000000000009 L377.2282608695653,144.37500000000003 L379.02173913043487,146.25000000000003 L380.81521739130443,148.12500000000003 L382.608695652174,150.00000000000009 L384.40217391304355,151.87500000000009 L386.1956521739131,153.75000000000003 L387.98913043478274,155.62500000000009 L389.78260869565224,157.50000000000009 L391.57608695652186,159.37500000000009 L393.3695652173914,161.25000000000003 L395.163043478261,163.12500000000009 L396.9565217391305,165.00000000000003 L398.7500000000001,166.87500000000003 L400.5434782608696,168.75000000000003 L402.3369565217392,170.62500000000003 L404.13043478260875,172.49999999999997 L405.9239130434783,174.37499999999997 L407.71739130434787,176.24999999999997 L409.5108695652174,178.12499999999997 L411.304347826087,179.99999999999997 L413.0978260869565,181.87499999999991 L414.89130434782606,183.74999999999991 L416.6847826086956,185.62499999999991 L418.47826086956513,187.49999999999991 L420.27173913043475,189.37499999999986 L422.06521739130426,191.24999999999986 L423.8586956521738,193.12499999999986 L425.6521739130434,194.99999999999986 L427.44565217391295,196.87499999999986 L429.2391304347825,198.74999999999986 L431.032608695652,200.6249999999998 L432.82608695652164,202.4999999999998 L434.61956521739114,204.3749999999998 L436.4130434782607,206.24999999999974 L438.20652173913027,208.12499999999974 L439.99999999999983,209.99999999999974 L441.7934782608694,211.87499999999974 L443.5869565217389,213.74999999999974 L445.3804347826085,215.62499999999974 L447.173913043478,217.4999999999997 L448.9673913043476,219.3749999999997 L450.76086956521715,221.2499999999997 L452.55434782608666,223.1249999999997 L454.3478260869563,224.99999999999963 L456.1413043478258,226.87499999999963 L457.93478260869534,228.74999999999963 L459.7282608695649,230.62499999999963 L461.52173913043447,232.49999999999963 L463.31521739130403,234.37499999999963 L465.10869565217354,236.24999999999957 L466.90217391304316,238.12499999999957 L468.69565217391266,239.99999999999957 L470.4891304347822,241.87499999999957 L472.2826086956518,243.74999999999952 L474.0760869565213,245.62499999999952 L475.8695652173909,247.49999999999952 L477.6630434782604,249.37499999999952 L479.45652173913004,251.24999999999952 L481.24999999999955,253.12499999999946 L483.0434782608691,254.99999999999946 L484.83695652173867,256.87499999999943 L486.6304347826082,258.74999999999943 L488.4239130434778,260.62499999999943 L490.2173913043473,262.49999999999943 L492.01086956521686,264.37499999999943 L493.8043478260864,266.24999999999943 L495.597826086956,268.12499999999943 L497.39130434782555,269.9999999999993 L499.18478260869506,271.8749999999993 L500.9782608695647,273.7499999999993 L502.7717391304342,275.6249999999993 L504.56521739130375,277.4999999999993 L506.3586956521733,279.3749999999993 L508.1521739130428,281.2499999999993 L509.94565217391244,283.1249999999993 L511.73913043478194,284.9999999999993 L513.5326086956516,286.8749999999993 L515.3260869565211,288.7499999999993 L517.1195652173907,290.6249999999993 L518.9130434782603,292.4999999999993 L520.7065217391298,294.3749999999993 L522.4999999999994,296.2499999999993 L524.293478260869,298.1249999999993 L526.0869565217386,299.9999999999993 L527.8804347826082,301.87499999999943 L529.6739130434778,303.74999999999943 L531.4673913043473,305.62499999999943 L533.2608695652169,307.49999999999943 L535.0543478260865,309.37499999999943 L536.847826086956,311.24999999999943 L538.6413043478257,313.12499999999943 L540.4347826086953,314.99999999999955 L542.2282608695648,316.87499999999955 L544.0217391304343,318.74999999999955 L545.815217391304,320.62499999999955 L547.6086956521735,322.49999999999955 L549.402173913043,324.37499999999955 L551.1956521739128,326.24999999999955 " fill="none" stroke="blue" stroke-width="2"></path><path d="M281,37.49999999999994 C281,40.8137084989847,278.31370849898474,43.49999999999994,275,43.49999999999994 C271.68629150101526,43.49999999999994,269,40.8137084989847,269,37.49999999999994 C269,34.186291501015184,271.68629150101526,31.499999999999943,275,31.499999999999943 C278.31370849898474,31.499999999999943,281,34.186291501015184,281,37.49999999999994 M275,37.49999999999994 " fill="white" stroke="blue" stroke-width="2"></path><text x="275" y="37.4999999999999406116" fill="black" font-family="times" font-weight="normal" font-style="italic" font-size="32" text-anchor="middle"></text><path d="M281,99.99999999999997 C281,103.31370849898474,278.31370849898474,105.99999999999997,275,105.99999999999997 C271.68629150101526,105.99999999999997,269,103.31370849898474,269,99.99999999999997 C269,96.6862915010152,271.68629150101526,93.99999999999997,275,93.99999999999997 C278.31370849898474,93.99999999999997,281,96.6862915010152,281,99.99999999999997 M275,99.99999999999997 " fill="blue" stroke="blue" stroke-width="2"></path><text x="275" y="99.9999999999999706116" fill="black" font-family="times" font-weight="normal" font-style="italic" font-size="32" text-anchor="middle"></text><asciisvg>initPicture(-2.3,2.3,-1.3,2.3)
fontsize=25
axes(1, 1, "labels", 1)

fontstyle="italic"
fontfamily="times"

fontsize=16
strokewidth = "2"
stroke = "blue"
// plot("(sin(pi/(4x)))^2")

//stroke = "red"
//plot(["5*t*cos(pi*t)", "5*t*sin(pi*t)"],0,1)

 plot(["t","(sin(pi/(4t^2)))^2"],-2.5,-0.5)
 plot(["t","(sin(pi/(4t^2)))^2"],-0.5,-0.3)
 
 strokewidth = "1"
  plot(["t","(sin(pi/(4t^2)))^2"],-0.31,-0.2)
  plot(["t","(sin(pi/(4t^2)))^2"],-0.21,-0.1)
  plot(["t","(sin(pi/(4t^2)))^2"],-0.11,-0.04)
  plot(["t","(sin(pi/(4t^2)))^2"],-0.04,-0.01)

 strokewidth = "2"

fontsize=32
text([-1.5,1.5], "y=g(x)")

plot("2-x",0,3)
dotradius = "6"
dot([0,2], "open", "")
dot([0,1.5], "closed", "")
 
//stroke = "green"

//marker = "arrowdot"
//line([0,1], [pi/2,1])
//dot([pi,0], "open", cpi)

//text([-2.5,-2.5], "ASCIIsvg Examplee")
						</asciisvg></svg> 

