<svg width="550" height="450" id="target"><rect x="0" y="0" width="550" height="450" fill="white"></rect><rect x="0" y="0" width="550" height="450" fill="white"></rect><path d="M63.46153846153847,0 L63.46153846153847,450 M275.00000000000006,0 L275.00000000000006,450 M486.5384615384616,0 L486.5384615384616,450 M0,398.0769230769231 L550,398.0769230769231 M0,225 L550,225 M0,51.923076923076906 L550,51.923076923076906 " fill="none" stroke="#aaaaaa" stroke-width="0.5"></path><path d="M0,225 L550,225 M63.46153846153847,0 L63.46153846153847,450 M275.00000000000006,221 L275.00000000000006,229 M486.5384615384616,221 L486.5384615384616,229 M59.46153846153847,398.0769230769231 L67.46153846153847,398.0769230769231 M59.46153846153847,51.923076923076906 L67.46153846153847,51.923076923076906 " fill="none" stroke="black" stroke-width="1"></path><text x="275.00000000000006" y="253" fill="black" font-family="sans" font-weight="normal" font-style="normal" font-size="25" text-anchor="middle">1</text><text x="486.5384615384616" y="253" fill="black" font-family="sans" font-weight="normal" font-style="normal" font-size="25" text-anchor="middle">2</text><text x="48.46153846153847" y="406.0769230769231" fill="black" font-family="sans" font-weight="normal" font-style="normal" font-size="25" text-anchor="end">-1</text><text x="48.46153846153847" y="59.923076923076906" fill="black" font-family="sans" font-weight="normal" font-style="normal" font-size="25" text-anchor="end">1</text><path d="M63.46153846153847,225 L64.51923076923077,224.13461538461536 L65.57692307692308,223.26923076923077 L66.63461538461539,222.40384615384613 L67.6923076923077,221.53846153846155 L68.75,220.6730769230769 L69.80769230769232,219.80769230769232 L70.86538461538463,218.94230769230768 L71.92307692307693,218.0769230769231 L72.98076923076924,217.21153846153845 L74.03846153846155,216.34615384615387 L75.09615384615385,215.48076923076923 L76.15384615384616,214.61538461538464 L77.21153846153847,213.75 L78.26923076923077,212.88461538461536 L79.32692307692308,212.01923076923077 L80.38461538461539,211.15384615384613 L81.44230769230771,210.28846153846155 L82.50000000000001,209.4230769230769 L83.55769230769232,208.55769230769232 L84.61538461538463,207.69230769230768 L85.67307692307693,206.8269230769231 L86.73076923076925,205.96153846153845 L87.78846153846155,205.09615384615387 L88.84615384615387,204.23076923076923 L89.90384615384617,203.36538461538464 L90.96153846153848,202.5 L92.01923076923079,201.63461538461536 L93.0769230769231,200.76923076923077 L94.1346153846154,199.90384615384613 L95.19230769230771,199.03846153846155 L96.25000000000003,198.1730769230769 L97.30769230769234,197.30769230769232 L98.36538461538464,196.44230769230768 L99.42307692307695,195.5769230769231 L100.48076923076925,194.71153846153845 L101.53846153846158,193.8461538461538 L102.59615384615387,192.98076923076923 L103.65384615384619,192.11538461538458 L104.7115384615385,191.25 L105.7692307692308,190.38461538461536 L106.82692307692311,189.51923076923077 L107.88461538461542,188.65384615384613 L108.94230769230774,187.78846153846155 L110.00000000000003,186.9230769230769 L111.05769230769235,186.05769230769226 L112.11538461538466,185.19230769230768 L113.17307692307696,184.32692307692304 L114.23076923076928,183.46153846153845 L115.28846153846158,182.5961538461538 L116.34615384615388,181.73076923076923 L117.40384615384619,180.86538461538458 L118.46153846153851,180 L119.5192307692308,179.13461538461536 L120.57692307692312,178.26923076923077 L121.63461538461543,177.40384615384613 L122.69230769230774,176.53846153846155 L123.75000000000004,175.6730769230769 L124.80769230769235,174.80769230769226 L125.86538461538467,173.94230769230768 L126.92307692307696,173.07692307692304 L127.98076923076928,172.21153846153845 L129.0384615384616,171.3461538461538 L130.0961538461539,170.48076923076923 L131.1538461538462,169.61538461538458 L132.2115384615385,168.75 L133.26923076923083,167.88461538461536 L134.32692307692315,167.01923076923072 L135.38461538461544,166.15384615384613 L136.44230769230774,165.2884615384615 L137.50000000000006,164.4230769230769 L138.55769230769238,163.55769230769226 L139.6153846153847,162.69230769230768 L140.673076923077,161.82692307692304 L141.73076923076928,160.96153846153845 L142.7884615384616,160.0961538461538 L143.84615384615392,159.23076923076917 L144.90384615384622,158.36538461538458 L145.96153846153854,157.49999999999994 L147.01923076923083,156.63461538461536 L148.07692307692315,155.76923076923072 L149.13461538461547,154.90384615384613 L150.19230769230776,154.0384615384615 L151.25000000000006,153.1730769230769 L152.30769230769238,152.30769230769226 L153.3653846153847,151.44230769230762 L154.42307692307702,150.57692307692304 L155.4807692307693,149.71153846153845 L156.5384615384616,148.8461538461538 L157.59615384615392,147.98076923076917 L158.65384615384625,147.11538461538458 L159.71153846153857,146.24999999999994 L160.76923076923086,145.38461538461536 L161.82692307692315,144.51923076923072 L162.88461538461547,143.65384615384608 L163.9423076923078,142.7884615384615 L165.00000000000009,141.9230769230769 L166.05769230769238,141.05769230769226 L167.1153846153847,140.19230769230762 L168.17307692307702,139.32692307692304 L169.23076923076934,138.4615384615384 L170.28846153846163,137.5961538461538 L171.34615384615392,136.73076923076917 L172.40384615384625,135.86538461538453 L173.46153846153857,134.99999999999994 L174.5192307692309,134.13461538461536 L175.57692307692318,133.26923076923072 L176.63461538461547,132.40384615384608 L177.6923076923078,131.5384615384615 L178.7500000000001,130.67307692307685 L179.80769230769243,129.80769230769226 L180.86538461538473,128.94230769230762 L181.92307692307702,128.07692307692298 L182.98076923076934,127.2115384615384 L184.03846153846166,126.34615384615381 L185.09615384615395,125.48076923076917 L186.15384615384625,124.61538461538453 L187.21153846153857,123.74999999999994 L188.2692307692309,122.8846153846153 L189.3269230769232,122.01923076923072 L190.3846153846155,121.15384615384608 L191.4423076923078,120.28846153846149 L192.5000000000001,119.42307692307685 L193.55769230769243,118.55769230769226 L194.61538461538476,117.69230769230762 L195.67307692307702,116.82692307692298 L196.73076923076934,115.9615384615384 L197.78846153846166,115.09615384615375 L198.84615384615398,114.23076923076917 L199.9038461538463,113.36538461538453 L200.96153846153857,112.49999999999994 L202.0192307692309,111.6346153846153 L203.0769230769232,110.76923076923072 L204.13461538461553,109.90384615384608 L205.19230769230785,109.03846153846143 L206.2500000000001,108.17307692307685 L207.30769230769243,107.30769230769226 L208.36538461538476,106.44230769230762 L209.42307692307708,105.57692307692298 L210.4807692307694,104.7115384615384 L211.53846153846166,103.84615384615375 L212.59615384615398,102.98076923076917 L213.6538461538463,102.11538461538453 L214.71153846153862,101.24999999999989 L215.7692307692309,100.3846153846153 L216.8269230769232,99.51923076923072 L217.88461538461553,98.65384615384608 L218.94230769230785,97.78846153846143 L220.00000000000017,96.92307692307685 L221.05769230769243,96.05769230769221 L222.11538461538476,95.19230769230762 L223.17307692307708,94.32692307692298 L224.2307692307694,93.46153846153834 L225.28846153846172,92.59615384615375 L226.34615384615398,91.73076923076917 L227.4038461538463,90.86538461538453 L228.46153846153862,89.99999999999989 L229.51923076923094,89.1346153846153 L230.57692307692326,88.26923076923072 L231.63461538461553,87.40384615384608 L232.69230769230785,86.53846153846143 L233.75000000000017,85.67307692307679 L234.8076923076925,84.80769230769221 L235.86538461538476,83.94230769230762 L236.92307692307708,83.07692307692298 L237.9807692307694,82.21153846153834 L239.03846153846172,81.34615384615375 L240.09615384615404,80.48076923076917 L241.1538461538463,79.61538461538453 L242.21153846153862,78.74999999999989 L243.26923076923094,77.88461538461524 L244.32692307692326,77.01923076923066 L245.38461538461559,76.15384615384608 L246.44230769230785,75.28846153846143 L247.50000000000017,74.42307692307679 L248.5576923076925,73.55769230769221 L249.6153846153848,72.69230769230762 L250.67307692307708,71.82692307692298 L251.7307692307694,70.96153846153834 L252.78846153846172,70.0961538461537 L253.84615384615404,69.23076923076911 L254.90384615384636,68.36538461538453 L255.96153846153862,67.49999999999989 L257.01923076923094,66.63461538461524 L258.07692307692326,65.76923076923066 L259.1346153846156,64.90384615384608 L260.1923076923079,64.03846153846143 L261.25000000000017,63.17307692307679 L262.3076923076925,62.30769230769215 L263.3653846153848,61.442307692307566 L264.42307692307713,60.57692307692298 L265.48076923076945,59.71153846153834 L266.5384615384617,58.8461538461537 L267.59615384615404,57.98076923076911 L268.65384615384636,57.11538461538453 L269.7115384615387,56.249999999999886 L270.76923076923094,55.384615384615245 L271.82692307692326,54.51923076923066 L272.8846153846156,53.65384615384602 L273.9423076923079,52.78846153846143 " fill="none" stroke="blue" stroke-width="2"></path><path d="M275.00000000000006,225 L276.0576923076923,225.86538461538458 L277.11538461538464,226.73076923076917 L278.1730769230769,227.5961538461538 L279.23076923076917,228.4615384615384 L280.2884615384615,229.32692307692298 L281.34615384615375,230.19230769230757 L282.403846153846,231.05769230769215 L283.46153846153834,231.9230769230768 L284.5192307692306,232.78846153846138 L285.5769230769229,233.65384615384596 L286.6346153846152,234.51923076923055 L287.69230769230745,235.3846153846152 L288.7499999999998,236.24999999999977 L289.80769230769204,237.11538461538436 L290.8653846153843,237.98076923076894 L291.9230769230766,238.84615384615353 L292.9807692307689,239.71153846153817 L294.0384615384612,240.57692307692275 L295.09615384615347,241.44230769230734 L296.15384615384573,242.30769230769192 L297.21153846153805,243.17307692307656 L298.2692307692303,244.03846153846115 L299.3269230769226,244.90384615384573 L300.3846153846149,245.76923076923032 L301.44230769230717,246.6346153846149 L302.4999999999995,247.49999999999955 L303.55769230769175,248.36538461538413 L304.615384615384,249.23076923076871 L305.67307692307634,250.0961538461533 L306.7307692307686,250.96153846153788 L307.78846153846087,251.82692307692253 L308.8461538461532,252.6923076923071 L309.90384615384545,253.5576923076917 L310.96153846153777,254.42307692307628 L312.01923076923003,255.28846153846087 L313.0769230769223,256.1538461538455 L314.1346153846146,257.0192307692301 L315.1923076923069,257.8846153846147 L316.24999999999915,258.74999999999926 L317.30769230769147,259.61538461538385 L318.36538461538373,260.4807692307685 L319.42307692307605,261.3461538461531 L320.4807692307683,262.21153846153766 L321.5384615384606,263.07692307692224 L322.59615384615284,263.9423076923069 L323.65384615384517,264.80769230769147 L324.71153846153743,265.67307692307605 L325.76923076922975,266.53846153846064 L326.826923076922,267.4038461538452 L327.8846153846143,268.26923076922986 L328.9423076923066,269.13461538461445 L329.99999999999886,269.99999999999903 L331.0576923076911,270.8653846153836 L332.11538461538345,271.73076923076826 L333.1730769230757,272.59615384615284 L334.23076923076803,273.46153846153743 L335.2884615384603,274.326923076922 L336.34615384615256,275.1923076923066 L337.4038461538449,276.05769230769124 L338.46153846153715,276.9230769230758 L339.5192307692294,277.7884615384604 L340.57692307692173,278.653846153845 L341.634615384614,279.5192307692296 L342.6923076923063,280.3846153846142 L343.7499999999986,281.2499999999988 L344.80769230769084,282.1153846153834 L345.86538461538316,282.980769230768 L346.9230769230754,283.84615384615256 L347.9807692307677,284.7115384615372 L349.03846153846,285.5769230769218 L350.0961538461523,286.4423076923064 L351.1538461538446,287.307692307691 L352.21153846153686,288.17307692307554 L353.2692307692291,289.0384615384602 L354.32692307692145,289.9038461538448 L355.3846153846137,290.76923076922935 L356.442307692306,291.634615384614 L357.4999999999983,292.4999999999985 L358.55769230769056,293.36538461538316 L359.6153846153829,294.2307692307677 L360.67307692307514,295.09615384615233 L361.7307692307674,295.961538461537 L362.7884615384597,296.8269230769215 L363.846153846152,297.69230769230614 L364.90384615384426,298.5576923076908 L365.9615384615366,299.4230769230753 L367.01923076922884,300.28846153845996 L368.07692307692116,301.1538461538445 L369.1346153846134,302.0192307692291 L370.1923076923057,302.88461538461377 L371.249999999998,303.7499999999983 L372.3076923076903,304.61538461538294 L373.36538461538254,305.48076923076746 L374.42307692307486,306.3461538461521 L375.4807692307671,307.21153846153675 L376.53846153845944,308.0769230769213 L377.5961538461517,308.9423076923059 L378.653846153844,309.80769230769044 L379.7115384615363,310.6730769230751 L380.76923076922856,311.5384615384597 L381.8269230769208,312.40384615384426 L382.88461538461314,313.2692307692289 L383.9423076923054,314.1346153846134 L384.9999999999977,314.99999999999807 L386.05769230769,315.8653846153827 L387.11538461538225,316.73076923076724 L388.1730769230746,317.5961538461519 L389.23076923076684,318.4615384615365 L390.2884615384591,319.32692307692105 L391.3461538461514,320.1923076923057 L392.4038461538437,321.0576923076902 L393.461538461536,321.92307692307486 L394.5192307692283,322.7884615384594 L395.57692307692054,323.65384615384403 L396.63461538461286,324.51923076922867 L397.6923076923051,325.3846153846132 L398.7499999999974,326.24999999999784 L399.8076923076897,327.1153846153825 L400.86538461538197,327.980769230767 L401.9230769230743,328.84615384615165 L402.98076923076655,329.7115384615362 L404.0384615384588,330.5769230769208 L405.09615384615114,331.44230769230546 L406.1538461538434,332.30769230769 L407.21153846153567,333.17307692307463 L408.269230769228,334.03846153845916 L409.32692307692025,334.9038461538438 L410.3846153846126,335.76923076922844 L411.44230769230484,336.63461538461297 L412.4999999999971,337.4999999999976 L413.5576923076894,338.36538461538225 L414.6153846153817,339.2307692307668 L415.67307692307395,340.0961538461514 L416.73076923076627,340.96153846153595 L417.78846153845853,341.8269230769206 L418.84615384615086,342.6923076923051 L419.9038461538431,343.55769230768976 L420.9615384615354,344.4230769230744 L422.0192307692277,345.28846153845893 L423.07692307691997,346.1538461538436 L424.13461538461223,347.0192307692282 L425.19230769230455,347.88461538461274 L426.2499999999968,348.7499999999974 L427.30769230768914,349.6153846153819 L428.3653846153814,350.48076923076655 L429.42307692307367,351.3461538461511 L430.480769230766,352.2115384615357 L431.53846153845825,353.07692307692037 L432.59615384615057,353.9423076923049 L433.65384615384284,354.80769230768954 L434.7115384615351,355.6730769230742 L435.7692307692274,356.5384615384587 L436.8269230769197,357.40384615384335 L437.88461538461195,358.269230769228 L438.94230769230427,359.1346153846125 L439.99999999999653,359.99999999999704 L441.05769230768885,360.8653846153817 L442.1153846153811,361.7307692307663 L443.1730769230734,362.59615384615086 L444.2307692307657,363.4615384615355 L445.28846153845797,364.32692307692014 L446.34615384615023,365.19230769230467 L447.40384615384255,366.0576923076893 L448.4615384615348,366.92307692307395 L449.51923076922714,367.7884615384585 L450.5769230769194,368.6538461538431 L451.63461538461166,369.51923076922765 L452.692307692304,370.3846153846123 L453.74999999999625,371.2499999999968 L454.8076923076885,372.11538461538146 L455.86538461538083,372.9807692307661 L456.9230769230731,373.8461538461506 L457.9807692307654,374.71153846153527 L459.0384615384577,375.5769230769199 L460.09615384614995,376.44230769230444 L461.15384615384227,377.3076923076891 L462.21153846153453,378.1730769230736 L463.2692307692268,379.03846153845825 L464.3269230769191,379.9038461538428 L465.3846153846114,380.7692307692274 L466.4423076923037,381.63461538461206 L467.49999999999596,382.4999999999966 L468.5576923076882,383.36538461538123 L469.61538461538055,384.2307692307659 L470.6730769230728,385.0961538461504 L471.7307692307651,385.96153846153504 L472.7884615384574,386.8269230769197 L473.84615384614966,387.6923076923042 L474.903846153842,388.55769230768885 L475.96153846153425,389.4230769230734 L477.0192307692265,390.288461538458 L478.07692307691883,391.15384615384255 L479.1346153846111,392.0192307692272 L480.19230769230336,392.88461538461183 L481.2499999999957,393.74999999999636 L482.30769230768794,394.615384615381 L483.36538461538026,395.48076923076565 L484.42307692307253,396.3461538461502 L485.4807692307648,397.2115384615348 L486.5384615384571,398.07692307691934 " fill="none" stroke="blue" stroke-width="2"></path><path d="M283.00000000000006,51.923076923076906 C283.00000000000006,56.34135492172325,279.41827799864643,59.923076923076906,275.00000000000006,59.923076923076906 C270.5817220013537,59.923076923076906,267.00000000000006,56.34135492172325,267.00000000000006,51.923076923076906 C267.00000000000006,47.50479892443056,270.5817220013537,43.923076923076906,275.00000000000006,43.923076923076906 C279.41827799864643,43.923076923076906,283.00000000000006,47.50479892443056,283.00000000000006,51.923076923076906 M275.00000000000006,51.923076923076906 " fill="white" stroke="blue" stroke-width="2"></path><text x="275.00000000000006" y="51.92307692307690608116" fill="black" font-family="sans" font-weight="normal" font-style="normal" font-size="25" text-anchor="middle"></text><path d="M283.00000000000006,225 C283.00000000000006,229.41827799864635,279.41827799864643,233,275.00000000000006,233 C270.5817220013537,233,267.00000000000006,229.41827799864635,267.00000000000006,225 C267.00000000000006,220.58172200135365,270.5817220013537,217,275.00000000000006,217 C279.41827799864643,217,283.00000000000006,220.58172200135365,283.00000000000006,225 M275.00000000000006,225 " fill="blue" stroke="blue" stroke-width="2"></path><text x="275.00000000000006" y="22508116" fill="black" font-family="sans" font-weight="normal" font-style="normal" font-size="25" text-anchor="middle"></text><path d="M71.46153846153847,225 C71.46153846153847,229.41827799864635,67.87981646018481,233,63.46153846153847,233 C59.04326046289212,233,55.46153846153847,229.41827799864635,55.46153846153847,225 C55.46153846153847,220.58172200135365,59.04326046289212,217,63.46153846153847,217 C67.87981646018481,217,71.46153846153847,220.58172200135365,71.46153846153847,225 M63.46153846153847,225 " fill="blue" stroke="blue" stroke-width="2"></path><text x="63.46153846153847" y="22508116" fill="black" font-family="sans" font-weight="normal" font-style="normal" font-size="25" text-anchor="middle"></text><path d="M494.5384615384616,398.0769230769231 C494.5384615384616,402.49520107556947,490.956739537108,406.0769230769231,486.5384615384616,406.0769230769231 C482.12018353981523,406.0769230769231,478.5384615384616,402.49520107556947,478.5384615384616,398.0769230769231 C478.5384615384616,393.6586450782767,482.12018353981523,390.0769230769231,486.5384615384616,390.0769230769231 C490.956739537108,390.0769230769231,494.5384615384616,393.6586450782767,494.5384615384616,398.0769230769231 M486.5384615384616,398.0769230769231 " fill="blue" stroke="blue" stroke-width="2"></path><text x="486.5384615384616" y="398.076923076923108116" fill="black" font-family="sans" font-weight="normal" font-style="normal" font-size="25" text-anchor="middle"></text><text x="437.2307692307693" y="146.46153846153845" fill="blue" font-family="times" font-weight="normal" font-style="italic" font-size="40" text-anchor="end">y=g(x)</text><asciisvg>// Initialize our picture
initPicture(-0.3,2.3,-1.3,1.3)

// Set the fontsize large for the axes
fontsize=25
axes(1, 1, "labels", 1)

// Set a thick blue stroke
strokewidth = "2"
stroke = "blue"
// Plot our function
plot("x",0,1)
plot("1-x",1,2)

dotradius = "8"
dot([1,1], "open", "")
dot([1,0], "closed", "")
dot([0,0], "closed", "")
dot([2,-1], "closed", "")

// Set the font for the graph label
fontstyle="italic"
fontfamily="times"
fontsize=40
fontfill = "blue"
// To the left of point (2,1.1), display the text
text([1.8,0.5], "y=g(x)", 'left')


</asciisvg></svg> 

