<svg width="550" height="450" id="target"><rect x="0" y="0" width="550" height="450" fill="white"></rect><rect x="0" y="0" width="550" height="450" fill="white"></rect><path d="M72.13114754098362,0 L72.13114754098362,450 M162.29508196721315,0 L162.29508196721315,450 M252.45901639344265,0 L252.45901639344265,450 M342.62295081967216,0 L342.62295081967216,450 M432.78688524590166,0 L432.78688524590166,450 M522.9508196721312,0 L522.9508196721312,450 M0,379.4117647058823 L550,379.4117647058823 M0,291.17647058823525 L550,291.17647058823525 M0,202.9411764705882 L550,202.9411764705882 M0,114.70588235294119 L550,114.70588235294119 M0,26.470588235294116 L550,26.470588235294116 " fill="none" stroke="#aaaaaa" stroke-width="0.5"></path><path d="M0,379.4117647058823 L550,379.4117647058823 M72.13114754098362,0 L72.13114754098362,450 M162.29508196721315,375.4117647058823 L162.29508196721315,383.4117647058823 M252.45901639344265,375.4117647058823 L252.45901639344265,383.4117647058823 M342.62295081967216,375.4117647058823 L342.62295081967216,383.4117647058823 M432.78688524590166,375.4117647058823 L432.78688524590166,383.4117647058823 M522.9508196721312,375.4117647058823 L522.9508196721312,383.4117647058823 M68.13114754098362,291.17647058823525 L76.13114754098362,291.17647058823525 M68.13114754098362,202.9411764705882 L76.13114754098362,202.9411764705882 M68.13114754098362,114.70588235294119 L76.13114754098362,114.70588235294119 M68.13114754098362,26.470588235294116 L76.13114754098362,26.470588235294116 " fill="none" stroke="black" stroke-width="1"></path><text x="162.29508196721315" y="407.4117647058823" fill="black" font-family="sans" font-weight="normal" font-style="normal" font-size="25" text-anchor="middle">1</text><text x="252.45901639344265" y="407.4117647058823" fill="black" font-family="sans" font-weight="normal" font-style="normal" font-size="25" text-anchor="middle">2</text><text x="342.62295081967216" y="407.4117647058823" fill="black" font-family="sans" font-weight="normal" font-style="normal" font-size="25" text-anchor="middle">3</text><text x="432.78688524590166" y="407.4117647058823" fill="black" font-family="sans" font-weight="normal" font-style="normal" font-size="25" text-anchor="middle">4</text><text x="522.9508196721312" y="407.4117647058823" fill="black" font-family="sans" font-weight="normal" font-style="normal" font-size="25" text-anchor="middle">5</text><text x="57.13114754098362" y="299.17647058823525" fill="black" font-family="sans" font-weight="normal" font-style="normal" font-size="25" text-anchor="end">1</text><text x="57.13114754098362" y="210.9411764705882" fill="black" font-family="sans" font-weight="normal" font-style="normal" font-size="25" text-anchor="end">2</text><text x="57.13114754098362" y="122.70588235294119" fill="black" font-family="sans" font-weight="normal" font-style="normal" font-size="25" text-anchor="end">3</text><text x="57.13114754098362" y="34.470588235294116" fill="black" font-family="sans" font-weight="normal" font-style="normal" font-size="25" text-anchor="end">4</text><path d="M-1.803278688524486,451.7647058823528 L9.947598300641403e-14,449.9999999999999 L1.8032786885246992,448.23529411764696 L3.6065573770492847,446.47058823529403 L5.409836065573884,444.7058823529411 L7.21311475409847,442.94117647058806 L9.016393442623063,441.17647058823513 L10.819672131147655,439.4117647058822 L12.622950819672248,437.6470588235293 L14.42622950819684,435.88235294117635 L16.229508196721426,434.1176470588234 L18.03278688524602,432.3529411764705 L19.83606557377061,430.58823529411757 L21.639344262295204,428.82352941176464 L23.442622950819796,427.0588235294116 L25.24590163934439,425.29411764705867 L27.04918032786898,423.52941176470574 L28.852459016393574,421.7647058823528 L30.655737704918167,419.9999999999999 L32.45901639344276,418.23529411764696 L34.26229508196735,416.47058823529403 L36.06557377049194,414.705882352941 L37.86885245901653,412.94117647058806 L39.67213114754112,411.17647058823513 L41.475409836065715,409.4117647058822 L43.27868852459031,407.6470588235293 L45.0819672131149,405.88235294117635 L46.88524590163949,404.1176470588234 L48.688524590164086,402.3529411764705 L50.49180327868868,400.58823529411745 L52.295081967213264,398.8235294117645 L54.09836065573785,397.0588235294116 L55.90163934426244,395.29411764705867 L57.704918032787035,393.52941176470574 L59.50819672131162,391.7647058823528 L61.31147540983621,389.9999999999999 L63.114754098360805,388.23529411764696 L64.91803278688539,386.47058823529403 L66.72131147540998,384.705882352941 L68.52459016393458,382.94117647058806 L70.32786885245916,381.17647058823513 L72.13114754098376,379.4117647058822 L73.93442622950835,377.6470588235293 L75.73770491803293,375.88235294117635 L77.54098360655753,374.1176470588234 L79.34426229508212,372.3529411764705 L81.1475409836067,370.58823529411745 L82.9508196721313,368.8235294117645 L84.75409836065589,367.0588235294116 L86.55737704918047,365.29411764705867 L88.36065573770506,363.52941176470574 L90.16393442622966,361.7647058823528 L91.96721311475424,359.9999999999999 L93.77049180327883,358.23529411764696 L95.57377049180343,356.47058823529403 L97.37704918032802,354.705882352941 L99.1803278688526,352.94117647058806 L100.9836065573772,351.17647058823513 L102.7868852459018,349.4117647058822 L104.59016393442639,347.6470588235293 L106.39344262295097,345.88235294117635 L108.19672131147557,344.1176470588234 L110.00000000000017,342.3529411764705 L111.80327868852476,340.58823529411745 L113.60655737704934,338.8235294117645 L115.40983606557393,337.0588235294116 L117.21311475409853,335.29411764705867 L119.01639344262313,333.52941176470574 L120.81967213114771,331.7647058823528 L122.6229508196723,329.9999999999999 L124.4262295081969,328.23529411764684 L126.2295081967215,326.4705882352939 L128.03278688524608,324.705882352941 L129.83606557377067,322.94117647058806 L131.63934426229525,321.17647058823513 L133.44262295081984,319.4117647058822 L135.24590163934445,317.6470588235293 L137.04918032786904,315.88235294117635 L138.85245901639362,314.1176470588233 L140.65573770491824,312.3529411764704 L142.45901639344282,310.58823529411745 L144.2622950819674,308.8235294117645 L146.065573770492,307.0588235294116 L147.86885245901658,305.29411764705867 L149.67213114754117,303.52941176470574 L151.47540983606578,301.7647058823527 L153.27868852459036,299.9999999999998 L155.08196721311498,298.23529411764684 L156.88524590163956,296.4705882352939 L158.68852459016415,294.705882352941 L160.49180327868874,292.94117647058806 L162.29508196721332,291.17647058823513 L164.0983606557379,289.4117647058822 L165.9016393442625,287.64705882352916 L167.70491803278708,285.88235294117624 L169.50819672131166,284.1176470588233 L171.31147540983628,282.3529411764704 L173.11475409836086,280.58823529411745 L174.91803278688548,278.8235294117645 L176.72131147541006,277.0588235294116 L178.52459016393465,275.29411764705867 L180.32786885245923,273.5294117647056 L182.13114754098382,271.7647058823527 L183.9344262295084,269.9999999999998 L185.73770491803302,268.23529411764684 L187.5409836065576,266.4705882352939 L189.3442622950822,264.705882352941 L191.1475409836068,262.94117647058806 L192.9508196721314,261.17647058823513 L194.75409836065597,259.4117647058821 L196.55737704918056,257.64705882352916 L198.36065573770514,255.88235294117626 L200.16393442622976,254.11764705882334 L201.96721311475434,252.35294117647035 L203.77049180327893,250.58823529411742 L205.57377049180351,248.8235294117645 L207.3770491803281,247.0588235294115 L209.18032786885271,245.29411764705858 L210.9836065573773,243.52941176470566 L212.78688524590189,241.76470588235273 L214.59016393442647,239.9999999999998 L216.39344262295108,238.23529411764687 L218.19672131147567,236.4705882352939 L220.00000000000026,234.7058823529409 L221.80327868852484,232.94117647058798 L223.60655737704946,231.17647058823505 L225.40983606557404,229.41176470588212 L227.21311475409863,227.6470588235292 L229.0163934426232,225.88235294117626 L230.8196721311478,224.11764705882328 L232.6229508196724,222.35294117647035 L234.426229508197,220.58823529411737 L236.22950819672158,218.82352941176444 L238.03278688524617,217.0588235294115 L239.83606557377078,215.29411764705858 L241.63934426229537,213.52941176470566 L243.44262295081995,211.76470588235273 L245.24590163934454,209.99999999999974 L247.04918032786912,208.23529411764682 L248.85245901639374,206.47058823529383 L250.65573770491832,204.7058823529409 " fill="none" stroke="blue" stroke-width="2"></path><path d="M252.45901639344265,202.9411764705882 L254.26229508196724,202.05882352941174 L256.0655737704918,201.17647058823528 L257.86885245901647,200.2941176470588 L259.672131147541,199.41176470588235 L261.47540983606564,198.52941176470588 L263.27868852459017,197.64705882352942 L265.0819672131148,196.7647058823529 L266.8852459016394,195.8823529411765 L268.688524590164,195.00000000000003 L270.49180327868856,194.1176470588235 L272.29508196721315,193.235294117647 L274.0983606557378,192.35294117647058 L275.9016393442623,191.47058823529412 L277.70491803278696,190.5882352941176 L279.5081967213115,189.70588235294113 L281.31147540983613,188.82352941176467 L283.1147540983607,187.9411764705882 L284.9180327868853,187.05882352941174 L286.7213114754099,186.17647058823528 L288.5245901639345,185.2941176470588 L290.3278688524591,184.41176470588235 L292.13114754098365,183.52941176470586 L293.9344262295083,182.64705882352936 L295.7377049180328,181.76470588235293 L297.54098360655746,180.88235294117646 L299.34426229508205,179.99999999999997 L301.14754098360663,179.11764705882348 L302.9508196721312,178.23529411764704 L304.7540983606558,177.35294117647058 L306.55737704918045,176.4705882352941 L308.360655737705,175.5882352941176 L310.1639344262296,174.70588235294116 L311.96721311475414,173.8235294117647 L313.7704918032788,172.9411764705882 L315.5737704918034,172.0588235294117 L317.37704918032796,171.17647058823528 L319.18032786885254,170.2941176470588 L320.98360655737713,169.41176470588232 L322.7868852459018,168.52941176470583 L324.5901639344263,167.64705882352936 L326.39344262295094,166.76470588235293 L328.19672131147547,165.88235294117644 L330.0000000000001,164.99999999999994 L331.80327868852464,164.11764705882348 L333.6065573770493,163.23529411764704 L335.4098360655739,162.35294117647055 L337.21311475409846,161.47058823529406 L339.0163934426231,160.5882352941176 L340.8196721311476,159.70588235294116 L342.62295081967227,158.82352941176467 L344.4262295081968,157.94117647058818 L346.22950819672144,157.0588235294117 L348.03278688524597,156.17647058823528 L349.8360655737706,155.29411764705878 L351.63934426229525,154.4117647058823 L353.4426229508198,153.52941176470583 L355.2459016393444,152.6470588235294 L357.04918032786895,151.7647058823529 L358.8524590163936,150.8823529411764 L360.6557377049181,149.99999999999994 L362.45901639344277,149.1176470588235 L364.2622950819674,148.23529411764702 L366.06557377049194,147.35294117647052 L367.8688524590166,146.47058823529406 L369.6721311475411,145.58823529411762 L371.47540983606575,144.70588235294113 L373.2786885245903,143.82352941176464 L375.0819672131149,142.94117647058818 L376.88524590163945,142.05882352941174 L378.6885245901641,141.17647058823525 L380.49180327868874,140.29411764705875 L382.29508196721326,139.4117647058823 L384.0983606557379,138.52941176470586 L385.90163934426243,137.64705882352936 L387.7049180327871,136.76470588235287 L389.5081967213116,135.8823529411764 L391.31147540983625,134.99999999999994 L393.1147540983608,134.11764705882348 L394.9180327868854,133.235294117647 L396.72131147541006,132.35294117647052 L398.5245901639346,131.47058823529406 L400.32786885245923,130.58823529411757 L402.13114754098376,129.7058823529411 L403.9344262295084,128.82352941176464 L405.73770491803293,127.94117647058818 L407.5409836065576,127.05882352941168 L409.3442622950821,126.17647058823519 L411.14754098360675,125.29411764705875 L412.9508196721314,124.41176470588229 L414.7540983606559,123.5294117647058 L416.55737704918056,122.6470588235293 L418.3606557377051,121.76470588235284 L420.16393442622973,120.88235294117644 L421.96721311475426,119.99999999999991 L423.7704918032789,119.11764705882345 L425.57377049180343,118.23529411764699 L427.3770491803281,117.35294117647052 L429.1803278688527,116.47058823529406 L430.98360655737724,115.58823529411754 L432.7868852459019,114.70588235294107 L434.5901639344264,113.82352941176467 L436.39344262295094,112.9411764705882 L438.19672131147547,112.05882352941174 L440,111.17647058823528 L441.80327868852464,110.29411764705881 L443.60655737704917,109.4117647058824 L445.4098360655737,108.52941176470594 L447.2131147540982,107.64705882352948 L449.01639344262276,106.76470588235301 L450.8196721311474,105.8823529411766 L452.6229508196719,105.00000000000014 L454.42622950819646,104.11764705882368 L456.229508196721,103.23529411764721 L458.0327868852456,102.35294117647075 L459.83606557377016,101.47058823529434 L461.6393442622947,100.58823529411788 L463.4426229508192,99.70588235294142 L465.24590163934374,98.82352941176495 L467.0491803278684,97.94117647058849 L468.8524590163929,97.05882352941208 L470.65573770491744,96.17647058823562 L472.45901639344197,95.29411764705915 L474.2622950819665,94.41176470588269 L476.06557377049114,93.52941176470623 L477.86885245901567,92.64705882352982 L479.6721311475402,91.76470588235335 L481.4754098360647,90.88235294117689 L483.27868852458926,90.00000000000043 L485.0819672131139,89.11764705882402 L486.8852459016384,88.23529411764756 L488.68852459016296,87.35294117647109 L490.4918032786875,86.47058823529463 L492.295081967212,85.58823529411816 L494.09836065573666,84.70588235294176 L495.9016393442612,83.82352941176529 L497.7049180327857,82.94117647058883 L499.50819672131024,82.05882352941236 L501.31147540983477,81.1764705882359 L503.1147540983594,80.2941176470595 L504.91803278688394,79.41176470588303 L506.72131147540847,78.52941176470657 L508.524590163933,77.6470588235301 L510.3278688524575,76.7647058823537 L512.1311475409822,75.88235294117723 L513.9344262295067,75.00000000000077 L515.7377049180312,74.1176470588243 L517.5409836065558,73.23529411764784 L519.3442622950803,72.35294117647143 L521.1475409836049,71.47058823529497 L522.9508196721295,70.5882352941185 L524.754098360654,69.70588235294204 L526.5573770491785,68.82352941176558 L528.360655737703,67.94117647058917 L530.1639344262277,67.0588235294127 L531.9672131147522,66.17647058823624 L533.7704918032767,65.29411764705978 L535.5737704918013,64.41176470588337 L537.3770491803259,63.52941176470691 L539.1803278688504,62.64705882353044 L540.983606557375,61.76470588235398 L542.7868852458995,60.882352941177516 L544.590163934424,60.00000000000111 L546.3934426229487,59.117647058824645 L548.1967213114732,58.23529411764818 L549.9999999999977,57.35294117647172 L551.8032786885223,56.47058823529525 " fill="none" stroke="blue" stroke-width="2"></path><path d="M258.45901639344265,202.9411764705882 C258.45901639344265,206.25488496957297,255.77272489242742,208.9411764705882,252.45901639344265,208.9411764705882 C249.1453078944579,208.9411764705882,246.45901639344265,206.25488496957297,246.45901639344265,202.9411764705882 C246.45901639344265,199.62746797160344,249.1453078944579,196.9411764705882,252.45901639344265,196.9411764705882 C255.77272489242742,196.9411764705882,258.45901639344265,199.62746797160344,258.45901639344265,202.9411764705882 M252.45901639344265,202.9411764705882 " fill="white" stroke="blue" stroke-width="2"></path><text x="252.45901639344265" y="202.941176470588206116" fill="black" font-family="times" font-weight="normal" font-style="italic" font-size="16" text-anchor="middle"></text><text x="342.62295081967216" y="78.58823529411765" fill="blue" font-family="times" font-weight="normal" font-style="italic" font-size="40" text-anchor="middle">y=f(x)</text><asciisvg>initPicture(-0.8,5.3,-0.8,4.3)
fontsize=25
axes(1, 1, "labels", 1)

fontstyle="italic"
fontfamily="times"

fontsize=16
strokewidth = "2"
stroke = "blue"
plot("x",-2,2)
plot("2+(x-2)/2",2,6)

//stroke = "red"
//plot(["5*t*cos(pi*t)", "5*t*sin(pi*t)"],0,1)

//stroke = "green"

//marker = "arrowdot"
//line([0,1], [pi/2,1])
dotradius = "6"
dot([2,2], "open", "")

fontfill = "blue"
fontsize = 40
text([3,3.5], "y=f(x)")
						</asciisvg></svg> 

